<?xml version="1.0" standalone="no"?>
<!DOCTYPE svg PUBLIC "-//W3C//DTD SVG 1.1//EN" "http://www.w3.org/Graphics/SVG/1.1/DTD/svg11.dtd" >
<svg xmlns="http://www.w3.org/2000/svg" xmlns:xlink="http://www.w3.org/1999/xlink" version="1.1">
<metadata>
Created by FontForge 20200427 at Fri May 22 20:15:37 2015
 By www
Copyright (c) 2013 by Carolyn Porter. All rights reserved.
</metadata>
<defs>
<font id="P22MarcelW01-ScriptPro" horiz-adv-x="277" >
  <font-face 
    font-family="P22MarcelW01-ScriptPro"
    font-weight="400"
    font-stretch="normal"
    units-per-em="1000"
    panose-1="2 0 0 0 0 0 0 0 0 0"
    ascent="800"
    descent="-200"
    x-height="238"
    cap-height="595"
    bbox="-341 -410 1334.12 725"
    underline-thickness="50"
    underline-position="-175"
    unicode-range="U+000D-2122"
  />
<missing-glyph horiz-adv-x="326" 
d="M28 573h278v-571h-278v571zM70 15h194v543h-194v-543z" />
    <glyph glyph-name=".notdef" horiz-adv-x="326" 
d="M28 573h278v-571h-278v571zM70 15h194v543h-194v-543z" />
    <glyph glyph-name="glyph1" horiz-adv-x="0" 
 />
    <glyph glyph-name="glyph1" horiz-adv-x="0" 
 />
    <glyph glyph-name="uni000D" unicode="&#xd;" horiz-adv-x="145" 
 />
    <glyph glyph-name="space" unicode=" " horiz-adv-x="145" 
 />
    <glyph glyph-name="exclam" unicode="!" horiz-adv-x="282" 
d="M270 384q-1 -1 -1 -2t-0.5 -1t-0.5 -1v-1q-7 -4 -9.5 -13.5t-5.5 -11.5q-2 -2 -9 -13t-16.5 -27.5t-20 -35.5t-20 -35t-16.5 -27t-9 -12q-1 0 -1 -3.5t-5 -10.5l-2.5 -5t-2.5 -3q-6 -6 -9.5 -14.5t-8.5 -22.5q-5 -12 -7 -21t-4 -12q-4 -5 -7.5 -9t-6.5 -4t-7 -1t-5 -1
q-4 0 -14 6.5t-10 14.5q0 3 3 7t3 5q0 6 3 11q5 9 12 14.5t9 7.5q20 17 27 32.5t9 16.5q3 1 6 5.5t5.5 10t4 9t2.5 3.5t6.5 8.5t12.5 19t12.5 19.5t5.5 10q1 4 3.5 9.5t4.5 7.5q2 3 6 13t6 12q2 1 4 3.5t2 4.5l4 10l16 24t31 52q1 2 4 9t5 9q6 3 10.5 12t9 20t9.5 22t12 17
q-1 1 -1 3q0 6 5 14.5t10 8.5q2 -1 2.5 2.5t1.5 5.5q6 7 14 7q1 0 1.5 -0.5t1.5 -0.5h1l7 -7t5 -8q0 -4 -1.5 -11t-2.5 -9q-8 -22 -20 -35.5t-19 -25.5q-5 -9 -8.5 -10.5t-3.5 -5.5zM48 45q1 0 2 1q1 0 2 0.5t3 0.5q4 0 8 -3.5t6 -15.5q0 -7 -5.5 -16.5t-19.5 -16.5
q-1 0 -1.5 -0.5t-1.5 -0.5t-5 2q-1 -1 -3 -1h-1q-3 0 -3.5 1t-2.5 1t-4.5 3.5t-5.5 3.5t-4 4q0 1 -0.5 2t-0.5 2q0 4 1 5q-1 3 -1 7q0 6 3 7.5t3 6.5q0 2 1.5 2.5t1.5 4.5q2 2 5 4.5t7 2.5q4 2 9 2q3 0 3.5 -3.5t3.5 -5.5z" />
    <glyph glyph-name="quotedbl" unicode="&#x22;" horiz-adv-x="198" 
d="M244 388q1 0 3 6t4.5 14t4.5 15.5t2 10.5t1.5 3.5t1.5 2.5l4 12q2 5 3.5 12t1.5 13q0 4 4.5 6t5.5 4l2 4t3 3q11 4 18 4q8 0 8 -3t1 -3q3 0 3 -16q0 -2 -2 -6.5t-5 -9t-6 -8.5t-6 -4q-1 0 -2.5 -4t-2.5 -5q-8 -5 -13.5 -13.5t-10.5 -17t-9.5 -15t-9.5 -6.5q-3 0 -4 1z
M306 387q-3 0 -3 2q0 4 3 12q1 4 3 9q7 8 9 18.5t4 12.5q1 2 2 7.5t4 5.5q2 1 2 5t3 4q2 1 3.5 6.5t2.5 8.5q1 5 6 7.5t6 4.5q2 6 10 6t8.5 -7t3.5 -7q2 0 2.5 -6t0.5 -9q0 -2 -5 -13.5t-12 -12.5q-22 -22 -31.5 -33t-21.5 -21z" />
    <glyph glyph-name="numbersign" unicode="#" horiz-adv-x="326" 
d="M165 368l-5 -8q0 -2 -2 -4l-6 -11q-2 -2 -2.5 -3l-1.5 -3t-2 -3q-1 0 -2.5 -3.5t-3.5 -6.5l-3 -3q-3 -3 -6 -11l-2 -4q0 -2 -1 -3q0 -2 -2 -4q-4 -11 -7 -16l-5 -9q-1 -2 -3.5 -2t-4.5 -1q-7 0 -7 2q-2 0 -2.5 -1t-2.5 -1q-2 -1 -7 3.5t-7 9.5q0 6 3.5 11.5t8 9.5t8 7
t3.5 4q3 3 6 8t3 7q0 4 3 4q3 2 5.5 7.5t3.5 5.5l11 18l-51 -6q-2 0 -4.5 -0.5t-5.5 -0.5q-4 0 -10 2q-4 0 -4 3l-2 3q-6 3 -6 4v4q1 2 4.5 2.5t7.5 0.5h8h12q8 0 10.5 -1t7.5 -1q2 0 4.5 -0.5t5.5 -0.5l28 1q4 6 8 13.5t9 13.5v1q0 1 0.5 1t0.5 1t1 1.5t2 2.5l2 5q4 2 6 7
t4 8l7 10h-5h-29l-25 -2q-1 0 -2 -0.5t-2 -0.5l-10 -3q-2 0 -2.5 0.5t-1.5 0.5q-1 1 -3 1q-3 0 -4 1q0 2 -1 2.5t-2 2.5q0 3 3 5.5t5 4.5q1 1 9 1h7l5 -1h6q9 0 10.5 -1t9.5 -1h38q5 7 8 12.5t3 6.5q3 3 3 4q0 2 1.5 3.5l3.5 3.5q0 2 2 4l3 3q0 3 1 4q0 1 0.5 1.5t0.5 2.5
l5 9q4 8 5.5 17t7.5 15l3 3q0 -1 1 -1h8q1 1 3 1q2 2 5 2q2 2 3 2t7.5 -3.5t6.5 -7.5q0 -1 -2 -7q-1 -2 -5 -6l-13 -16q0 -1 -3.5 -7.5t-4.5 -7.5q-4 -7 -6.5 -12t-7.5 -10q0 -1 -5 -8t-5 -8h7q6 0 18.5 -0.5t38.5 -0.5q4 5 9.5 13.5t11 18t10 17.5t6.5 11l2 3q5 9 4 12.5
t1 5.5l8 4q0 3 2 3q0 2 2 2q1 -1 3 -1q3 1 10.5 3t7.5 3q3 0 5 -3q2 -2 3 -2q0 -2 0.5 -2.5t0.5 -1.5q0 -2 1 -3q0 -1 1 -2l-4 -5q-4 -4 -5 -6l-19 -21l-9 -13.5t-8 -13.5q0 -5 -7 -12t-8 -9h41q4 0 6 0.5t5 0.5q5 0 6.5 1.5t6.5 1.5q2 0 3 -0.5t2 -0.5q4 0 10 -2q3 -2 3 -5
q0 -5 -3.5 -5.5t-8.5 -2.5q-2 0 -3 -0.5t-3 -0.5t-3 0.5t-2 0.5h-9q-2 0 -3 0.5t-3 0.5h-6q-1 0 -2 0.5t-2 0.5q-4 -1 -7.5 -1h-6.5l-10 1h-16q-1 -1 -2.5 -3.5t-1.5 -3.5l-11 -19q0 -4 -3 -4q0 -1 -3 -5q-1 -2 -2.5 -4t-2.5 -4l-5 -10l-3 -4.5t-2 -3.5t-2 -3q33 0 51.5 1.5
t17.5 1.5l11 4q2 0 3 -0.5t3 -0.5l3 -3v-2q0 -1 0.5 -2t0.5 -2q-2 -2 -3 -3.5t-3 -3.5q0 -2 -1.5 -2t-1.5 -1q-2 0 -2 -1t-2 -1q-6 2 -11.5 3.5t-13.5 1.5h-16q-12 0 -21 0.5t-19 0.5q-5 -6 -8 -12.5t-7 -14.5q-1 -2 -5.5 -10.5t-5.5 -8.5q-2 -2 -3 -4.5t-3 -6.5
q-2 -5 -4.5 -12t-10.5 -22l-2 -3q-2 -2 -4 -2q-3 0 -4.5 0.5t-3.5 0.5q-1 -1 -2 -1h-3l-12 7q-2 4 -2 5q0 2 0.5 2.5t2.5 4.5q1 3 4 5.5t7 11.5l3 4q1 0 1 2t2 3q8 10 11 18t10 18q1 2 2.5 3.5t1.5 2.5l6 9zM170 378h65q1 1 4.5 7t7.5 12.5t7 11.5l3 5q2 1 2.5 4t2.5 5
l12 19h-12q-7 0 -8 0.5t-12 0.5q-2 0 -3.5 -0.5t-3.5 -0.5q-6 0 -6.5 0.5t-8.5 0.5h-5t-5 -1l-27 -43z" />
    <glyph glyph-name="dollar" unicode="$" horiz-adv-x="306" 
d="M204 295q5 -7 10.5 -13.5t9.5 -13.5q2 -1 7 -10.5t7 -11.5t5 -11.5t3 -20.5q0 -2 1 -1.5t1 -1.5q0 -1 -0.5 -1.5t-0.5 -1.5q1 0 1 -7v-5q0 -10 -5 -22.5l-7 -17.5q-18 -34 -46 -47t-50 -13h-8q-4 0 -7 1q-2 0 -5.5 0.5t-5.5 0.5q-11 2 -17 5t-9 5l-6 -11q0 -2 -1.5 -2.5
t-1.5 -2.5q-3 0 -5 -6l-2 -6l-9 -17q-2 -5 -3.5 -8t-6.5 -7q-2 -8 -10.5 -9.5t-16.5 -1.5h-8q-2 0 -2 3t1.5 5t1.5 3q-1 0 -1 3q0 2 5 5q0 1 4 9l16 16q1 5 4 8q1 1 3 2q0 1 1 2q2 2 5 3q-1 1 -1 3t1 3q0 1 1 1q2 1 7 8q2 3 5 7q-5 3 -16.5 14t-14.5 22q-1 2 -2.5 4t-1.5 7
q-1 0 -1 2q-1 1 -1 6v7q-1 3 -1 8q0 4 0.5 6.5t0.5 4.5q0 6 1.5 9.5t2.5 9.5q0 2 1 2.5t1 1.5q7 21 23 34.5t27 15.5l6 2t6 1q2 0 4.5 -0.5t4.5 -0.5h4q5 0 10 -1t5 -4q4 -5 7 -8t3 -5q0 -3 -1 -4t-1 -4q0 -8 -5.5 -12t-9.5 -5h-4q-2 0 -4 1t-4 1t-5.5 3t-4.5 5q-2 2 -3 12
t-8 10q-4 0 -6 -1q-4 -2 -6 -7t-2 -6q-1 -1 -1.5 -4t-1.5 -5q-3 -3 -3 -7q0 -2 -1 -6t-1 -7v-5q-2 -2 -2.5 -5t-0.5 -5q0 -8 2 -18q2 -12 5 -25.5t12 -22.5l88 140q-2 2 -10 12t-11 22q-1 1 -1 2t-1 2l-1 1v1q0 1 -0.5 1t-0.5 1q-1 1 -2 3q0 4 -1.5 7.5t-1.5 4.5q0 2 -0.5 5
t-0.5 12v9q0 1 1 3t1 4q0 10 5 18.5t10 15t9.5 10.5l4.5 4q0 2 3 5q1 0 4.5 0.5t5.5 2.5q14 10 33 10q5 1 11 1q14 0 31 -6q3 8 7 15q3 6 6 13t5 12q0 1 -0.5 1.5t-0.5 1.5q0 6 5 14t8 8q1 0 3 -1t4 -1q7 0 10.5 6t5.5 6q1 -1 3 -2t2.5 -2t2.5 -2q5 0 5 -4q0 -2 0.5 -2.5
t0.5 -1.5t0.5 -3t0.5 -4q0 -1 -0.5 -2t-0.5 -3q0 -9 -11.5 -16.5t-25.5 -27.5q-2 -4 -3.5 -5t-3.5 -5l-3 -3t-1 -2q6 -5 11 -9t8 -8.5t5 -6.5q0 -1 -0.5 -1.5t-0.5 -1.5q0 -3 2 -3q5 -2 7 -12l2 -10q0 -2 1 -4t1 -5q0 -1 1 -3q0 -2 0.5 -3t0.5 -3q0 -5 -2 -7q0 -3 -3.5 -6
t-3.5 -5q0 -4 -16 -6q-1 0 -3.5 2.5t-6.5 2.5q-5 3 -5 10v5q0 2 -0.5 4t-0.5 4q0 5 5 8q0 4 2.5 6.5t2.5 7.5q0 8 -2.5 14t-5.5 11q-4 5 -7 9q-9 -16 -15 -27q-3 -5 -5.5 -10l-4.5 -9q-3 -4 -5 -8q-3 -8 -7 -15q-7 -14 -13 -20q-2 -6 -6 -12t-9 -14zM129 105q20 0 34 6
t22 14q10 9 14 20q3 0 3 5q6 8 7.5 20t1.5 23q-1 1 -1 3v6q0 5 1 7q0 4 -1 4t-2 2q-2 8 -5.5 16t-7.5 16q-4 9 -10 17q-9 -14 -16.5 -28t-18.5 -29q-4 -4 -4 -8q1 -1 -5.5 -8t-10.5 -18q-2 -6 -6.5 -10t-6.5 -9q-1 -3 -2 -5q-1 -3 -5 -7q-2 -2 -4 -5l-4 -6q-3 -4 -5 -8
q10 -10 17.5 -13t14.5 -5zM175 343q3 -11 8.5 -20t7.5 -12l13 22l4.5 9t5.5 8q2 2 3.5 6t6.5 12q1 1 3 6.5t5 8.5q2 4 9 15.5t12 22.5q-2 2 -8.5 4t-8.5 2q-3 0 -3 2q-1 0 -1.5 -0.5t-4.5 -0.5l-7 -1q-17 0 -30.5 -14.5t-14.5 -39.5q0 -2 -1 -5t-1 -6q0 -2 0.5 -3.5
t0.5 -2.5v-5.5t1 -7.5z" />
    <glyph glyph-name="percent" unicode="%" horiz-adv-x="438" 
d="M379 199q1 -1 2 -4t4 -3q4 0 7 -3q5 -6 8.5 -17t3.5 -26q0 -5 -0.5 -9.5t-1.5 -9.5q-3 -15 -7.5 -27.5t-13.5 -32.5q-4 -8 -15 -25.5t-33 -30.5q-3 -2 -7 -4t-6 -4q-11 -5 -20 -5h-8q-3 0 -5 0.5t-4 0.5t-2 1q-1 -1 -2 -1h-6q-8 0 -20 4.5t-24 24.5q-1 5 -3 11.5t-2 8.5
q-1 1 -1 9l1 6q2 17 5.5 28.5t6.5 18.5l9 13q1 3 1.5 6t2.5 4l3 5.5t7.5 12t10 13t11.5 8.5q3 1 3 3.5t2 4.5q10 12 20 17.5t18 8t12.5 2.5t4.5 1t5 1q7 0 18 -3t15 -8zM325 190q-8 0 -12.5 -5t-8.5 -7q-6 -3 -19.5 -20t-25.5 -55q-2 -5 -2 -14q-1 -5 -1 -7v-11
q0 -2 -0.5 -5.5t-0.5 -7.5q0 -3 2 -9q2 -2 3.5 -9t7.5 -9q1 -1 3.5 -1.5t4.5 -2.5q3 -2 5 -4q4 -2 10 -2.5t11 -0.5h7q12 0 23 8t20 18t14 19t5 12q7 13 7 24q1 9 1 14.5v10.5l2 5q0 31 -14.5 45t-31.5 15h-6q-1 0 -2 -0.5t-2 -0.5zM250 363q20 0 31 9q5 4 9 10q2 0 2.5 9.5
t13.5 15.5q14 7 17 9t6 5q4 4 5 4q2 0 6 -4.5t13 -7.5q6 -2 6 -11q0 -5 -1 -10.5t-1 -8.5q0 -2 -7.5 -7t-15.5 -7q-9 -3 -15.5 -10t-11 -15t-7.5 -15t-6 -8l-2 -4t-4.5 -8.5l-5 -9t-3.5 -5.5q-3 -5 -6 -11t-5.5 -12t-5 -10t-4.5 -4t-11.5 -18t-21.5 -40.5t-22.5 -41.5
t-14.5 -21q-3 -6 -3 -7t-0.5 -1.5t-2 -4t-6.5 -14.5q0 -4 -2 -4q-1 0 -2.5 -4.5t-4 -9.5t-4.5 -9.5t-5 -4.5l-5 -7t-10.5 -17t-10 -20t-4.5 -16q0 -13 -10.5 -22.5t-22.5 -9.5q-7 0 -13 3q-3 1 -3 4t1 5q0 1 -3 3.5t-4 5.5q-1 2 -2 5.5t-1 4.5q0 9 6 10.5t6 3.5q-1 3 6 9.5
t12 14.5q4 7 12.5 20t18.5 28l20 30t16 26l5 10t6.5 11.5t6.5 9.5t6 4q1 0 1.5 3.5t2.5 5.5q8 9 17.5 24t18 29.5t14.5 24.5l6 10q3 1 3 4t2 6l9 11q7 10 12.5 18.5t9.5 15.5l7 14q1 3 1 7q-1 4 -3 4t-3 -2t-6 -4q-11 -7 -18.5 -12t-16.5 -5q-2 0 -4 -0.5t-4 -0.5
q-14 1 -19 4q-4 1 -5 3q-1 -8 -3 -17q-2 -8 -5 -17t-8 -20l-4 -8t-10.5 -17.5t-15 -18.5t-19.5 -16t-23 -10q-3 -1 -3.5 -3t-18.5 -4h-8q-8 0 -17 1.5t-15 8.5l-10 11q-2 2 -1.5 4t-1.5 4q-3 2 -5 9.5t-2 13.5t1.5 11t1.5 10t1 7.5t1 3.5q0 3 1 4.5t2 3.5q6 15 15.5 32
t23 32.5t29.5 27.5t34 16q3 1 6 1h10q13 0 21 -5.5t12.5 -12.5t6.5 -12.5t4 -5.5q3 0 6 -2t11 -12l3 -6t10 -4h4zM193 365q0 4 -1 7.5t-5 3.5q0 2 -3 2t-4 1t-2 1q-5 2 -6.5 4t-2 4.5t-3 5t-8.5 5.5q-2 1 -6 1q-11 0 -16.5 -4.5t-6.5 -4.5q-14 -2 -23 -13.5t-14.5 -24
t-8 -23.5t-3.5 -13q-3 -3 -3 -13v-7q0 -4 0.5 -8.5t0.5 -8.5t2 -6l2 -4q7 -12 13 -16t16 -4h11q2 0 3 1t2 1q19 0 32.5 10.5t22 24t13 27.5t4.5 22q0 4 0.5 6.5t0.5 5.5t-0.5 8t-0.5 7z" />
    <glyph glyph-name="ampersand" unicode="&#x26;" horiz-adv-x="590" 
d="M217 255q5 -4 12 -7.5t15 -5.5q6 13 11 24q5 10 8.5 20.5t4.5 18.5v4q1 1 1 3t-0.5 2.5t-0.5 2.5q0 1 0.5 1.5t0.5 1.5q1 2 1 5t-0.5 6t-0.5 5q-1 5 -2 9t-1 10q0 3 -1 4.5t-2 3.5q0 1 -1.5 6t-4.5 10q-4 6 -8 9.5t-10 7.5q-4 2 -6 2q-1 0 -1.5 1t-5.5 2q-6 2 -10 2
q-6 0 -14.5 -2t-15.5 -7q-1 -1 -1 -2t-2 -1q-2 -3 -4.5 -3.5t-6.5 -5.5q-5 -5 -8.5 -13.5t-3.5 -22.5q0 -4 0.5 -7.5t1.5 -8.5q0 -2 0.5 -3.5t0.5 -3.5q0 -8 2.5 -10t1.5 -2q1 -2 2 -5t1 -7q3 -2 3 -4q5 -9 12 -15t15 -13q2 -2 4 -4.5t6 -2.5q2 0 3.5 -2t3.5 -3zM250 208
l-11 -14l-5 -5q-6 -6 -11 -6q-4 -4 -4 -10q0 -1 -2 -5q-2 -3 -4 -3.5t-4 -7.5q-2 -4 -6.5 -8t-6.5 -11q-1 -3 -3 -4q-3 -1 -3 -5q-7 -8 -12 -12.5t-5 -13.5q16 14 32.5 31.5t30.5 32.5q16 18 32 34zM422 78q1 2 1 5v6q0 6 -1 8q0 10 -5 19t-10 15q-11 14 -27 23.5t-32 15.5
q-13 -17 -27 -43t-14 -56q0 -23 12.5 -42t41.5 -21h4.5t5.5 1q16 1 29 16q2 2 3 4.5t4 4.5q2 2 2.5 3.5t1.5 3.5t1 3.5t2 3.5q4 3 4 6t1 6q3 7 3 14v4zM535 286q4 -1 7 -2.5t6 -2.5q2 0 3 -0.5l3 -1.5q2 0 4 -2.5t3 -2.5q11 -7 15 -18q-2 -2 -3 -5t-2 -3q-5 0 -7.5 3.5
t-4.5 8t-5.5 8.5t-9.5 6q-2 1 -3 2t-3 1l-9 2h-13q-30 0 -69 -18t-78 -65q6 -2 12 -5q11 -5 22 -11q2 -2 5 -4t4 -4q1 -4 7 -6q4 -2 4.5 -3l1.5 -3q2 -2 2.5 -4t2.5 -2q3 0 4 -3l2 -5q4 -7 8 -13.5t4 -14.5q2 -1 2 -7t1 -13q0 -14 -4.5 -31t-9.5 -21q-4 -5 -10 -14t-14 -12
q-3 -5 -8 -7t-5 -4q-2 -2 -13.5 -6t-33.5 -4h-12l-8 2q-21 5 -34 19t-18 27l-3 7q0 1 0.5 1t0.5 1v1q0 2 -1 3t-1 3v1q0 1 -0.5 1t-0.5 1t0.5 1.5t0.5 1.5q0 3 -1.5 6.5t-1.5 7.5l3 23q2 5 3 11.5t4 11.5q4 5 4.5 8.5t2.5 8.5l4 6q2 5 6 9t6 9l9 13l-29 10l-4 -4
q-4 -3 -6 -7t-7 -7l-11 -11q-12 -14 -23.5 -26t-12.5 -12q-3 -2 -6.5 -4t-3.5 -6q-2 -2 -4 -3.5t-4 -3.5q-3 -2 -4 -3q-21 -24 -33 -36q-7 -7 -13 -12q-12 -14 -18.5 -21t-9.5 -11l-4 -5q-2 0 -2.5 -2.5t-2.5 -2.5q-1 -4 -3 -8q-4 -10 -11 -17l-8 -8l-5 -5q-3 -1 -8 -1
t-11 -3.5t-7 -3.5q-2 0 -4.5 3t-3.5 3q-3 0 -4 3.5t-2 5.5q2 5 6 11.5t9 10.5q1 1 9 6t15 11q10 6 21 18t20.5 23.5t15.5 19.5t8 8q1 2 7 10.5t8 11.5q11 17 19 30t14.5 24t12.5 22t14 25l-18 8q0 2 -2.5 3t-3.5 1q-2 0 -4 2q-4 2 -10 4.5t-12 6.5l-7 5q-2 2 -4 3t-3 4
q-1 2 -4 2.5t-4 3.5q-1 2 -2 2t-2 3q-1 2 -2 2.5t-3 2.5q-14 14 -17 38q-1 1 -1 2v5q0 2 -0.5 3.5t-0.5 3.5v7q3 23 13 39t22.5 26t26 14.5t25.5 4.5q11 0 17 -3q2 -1 7 -1q11 -2 22.5 -8t23.5 -23q2 -3 3 -5t4 -7q2 -2 2.5 -5.5t1.5 -6.5q1 -2 2.5 -11.5t1.5 -18.5
q0 -10 -1 -15l-2 -10t-4 -10q-2 -2 -1.5 -4t-1.5 -3q-3 -2 -3.5 -5t-0.5 -5q-2 -4 -5.5 -10.5t-7.5 -12.5q-4 -7 -10 -15l23 -9q8 9 19.5 21.5t23.5 26t23 26.5t20 23q0 3 4 3q2 0 3.5 3.5t3.5 6.5q5 7 10.5 14t8.5 6q1 3 3 7q4 8 10 14q10 10 17 19.5t12 17.5q4 5 10.5 11
t9.5 12q2 3 3.5 3t3.5 1q3 2 7 3t6 3q4 3 7 3q4 0 8 -2q1 0 7 -2.5t6 -3.5t-0.5 -1.5t-0.5 -1.5l-1 -6q-1 -1 3 -5t6 -7q-2 -2 -3 -7t-1 -6q-4 -11 -10 -11.5t-8 -3.5q0 -7 -11 -12q-4 -2 -8 -6l-7 -7l-31 -27q-2 -5 -5 -5q-1 0 -5 -3t-8.5 -7.5t-8.5 -8t-5 -3.5
q-1 -1 -26 -23t-75 -73l27 -9q14 14 29.5 25.5t27.5 19.5q2 2 5 2t6 3q8 8 19 8h4q0 2 2.5 3t3.5 1q5 4 13 6q4 1 7 1q1 3 7 4.5t8 2.5q8 2 17.5 3t20.5 2h5h12t12 -2z" />
    <glyph glyph-name="quotesingle" unicode="'" horiz-adv-x="143" 
d="M235 388q0 4 2 11t5 13.5t5 12.5t2 8q0 3 1.5 3.5t1.5 2.5q2 7 4 13q2 5 3.5 11.5t1.5 13.5q0 4 4.5 5.5t5.5 3.5t2 4.5t3 3.5q11 4 18 4q8 0 8 -3t1 -3t3.5 -4.5t2.5 -11.5q0 -2 -2 -6.5t-4.5 -9t-5.5 -8.5t-6 -4q-1 0 -2.5 -4.5t-2.5 -5.5q-9 -4 -15.5 -12.5t-12 -17
t-10 -15t-9.5 -6.5q-3 0 -4 1z" />
    <glyph glyph-name="parenleft" unicode="(" horiz-adv-x="201" 
d="M315 573q33 19 52.5 28.5t29.5 14.5q11 5 15 5q2 0 2 -4v-9q0 -7 -4 -7q-15 -2 -32.5 -6t-39.5 -21q-14 -9 -26 -18.5t-24 -21.5t-26.5 -29.5t-34.5 -42.5q-2 -3 -6.5 -7t-9.5 -14q-1 -2 -6 -10t-7 -8q-2 -1 -7.5 -10t-7.5 -11q-6 -8 -13 -19t-7 -15q0 -1 -2.5 -1.5
t-2.5 -5.5q0 -1 -4.5 -7.5t-10 -16.5t-11.5 -21.5t-10 -23.5q-3 -9 -8.5 -15.5t-5.5 -15.5q0 -2 -2.5 -6t-4.5 -9q-2 -6 -3 -10t-2 -5q-2 -3 -5 -11t-5.5 -16.5t-4 -16t-1.5 -8.5q-2 -5 -2.5 -13t-1.5 -8q-4 0 -8.5 -27t-4.5 -67v-4q0 -2 -1 -7q0 -4 1.5 -10t1.5 -15v-5.5
t-1 -8.5q0 -4 0.5 -7.5t0.5 -4.5q-2 -13 -7.5 -18t-12.5 -5q-19 0 -25 17q-3 9 -3 16q0 5 0.5 11.5t0.5 14.5q0 1 -0.5 2t-0.5 2q1 4 1.5 7t0.5 8q0 10 0.5 18.5t0.5 9.5q1 2 2 3.5t1 4.5q0 2 -1 3t-1 3q0 11 2 17q1 3 2.5 11t3 16.5t3 16.5t3.5 11q2 2 2.5 3t0.5 6
q0 2 2.5 9.5t2.5 8.5q9 28 22 57.5t35 67.5l18 31q7 8 10 16t4 10q16 21 26 34.5t16 21.5t8.5 12t3.5 6q4 7 8 7.5t6 7.5q0 3 7.5 10t16.5 15.5t17.5 16.5t11.5 12q2 2 11 9t13 11q6 6 19.5 16.5t18.5 13.5z" />
    <glyph glyph-name="parenright" unicode=")" horiz-adv-x="321" 
d="M336 408q9 24 13.5 48.5t6.5 48t2.5 44.5t0.5 36v16q0 15 2 15q1 0 1.5 0.5t1.5 0.5q8 0 8 -20l0.5 -9.5t1 -22l1 -25t0.5 -19.5q0 -2 -2 -6q-2 -3 -3.5 -15.5t-3.5 -26t-3 -25t-1 -13.5t-1 -3.5t-1 -3.5q0 -3 -1 -4q0 -2 -1.5 -10t-3.5 -16q-2 -12 -7.5 -28.5
l-10.5 -31.5q-6 -18 -14 -37q-1 -4 -4 -6t-5 -8q-1 -5 -20 -41t-65 -101q-2 -4 -6.5 -7.5t-7.5 -7.5q-8 -11 -17 -23t-14 -12q-2 0 -2.5 -2.5t-2.5 -4.5q-1 0 -11 -10.5t-23.5 -25.5t-29 -30.5t-28.5 -26.5q-2 -2 -4.5 -3t-2.5 -2q0 -4 -4 -5.5t-9.5 -2.5t-11.5 -1.5
t-9 -2.5q-1 0 -1.5 -0.5t-1.5 -0.5q-5 0 -10 5.5t-8.5 12.5t-5 12.5l-1.5 5.5q7 2 10.5 9.5t11.5 7.5q8 3 23.5 11.5t25.5 23.5q2 2 6.5 2.5t6.5 2.5t2 3t2 2q17 8 28 19t28 26q2 2 7.5 9t11.5 14t11 13t7 6q5 1 6 5t2 6l3.5 4.5t7.5 10t8 10t6 6.5q15 15 34 54q5 7 8 10.5
t3 10.5l7 10q0 2 1 3l13 24q2 2 1.5 6t0.5 6l4 3q1 1 5 10t9 19.5t9 19.5t4 10q1 2 3.5 9.5t2.5 8.5z" />
    <glyph glyph-name="asterisk" unicode="*" horiz-adv-x="309" 
d="M225 442q-16 -1 -27 -2t-19 -1.5t-8 -1.5q0 -2 -4 -2q-2 0 -4.5 0.5t-4.5 0.5t-4.5 -1t-3.5 -1q-2 4 -5 4t-4 1q-9 0 -9 9q0 5 2 9t3 4q4 1 10 1h4q11 -3 20.5 -6t10.5 -3q5 -1 16 -2t19 -1h6q-9 10 -16 19q-6 8 -12 15.5t-8 12.5q-3 7 -7 9t-5 4q0 2 3 8l4 8q2 5 7 5
t9 -5.5t5 -5.5q5 -4 5 -8q0 -2 -0.5 -3.5t-0.5 -2.5t3.5 -8.5t8.5 -17.5q5 -11 13 -26q4 6 6.5 9.5t5.5 8.5t7 13t10 23q2 4 4 15t15 17q2 1 3.5 3.5t3.5 2.5q15 0 15.5 -4.5t1.5 -5.5q3 -3 3 -6t-2.5 -8t-6 -10t-7.5 -9t-6 -4q-1 0 -5 -3.5t-6 -6.5q-2 -2 -6.5 -7.5
t-9.5 -12.5l-14 -18q10 0 21 2q9 2 19 4t19 7h11q4 0 5 -2t2.5 -7.5t1.5 -11.5q0 -4 -3.5 -5t-7.5 -1q-1 0 -9.5 1.5t-16.5 1.5q-2 0 -2 -0.5t-2 -0.5h-7.5t-13.5 1q-9 0 -19 1q5 -9 9 -17q4 -7 8.5 -13t9.5 -8q2 -1 2 -3.5t2 -2.5q1 0 4 -2t5 -4q6 -9 9.5 -16.5t4.5 -9.5
q1 -1 1 -3q0 -3 -4.5 -6.5t-11.5 -3.5q-6 0 -12 3q-1 0 -4 6l-6.5 13t-7 13t-4.5 8q-4 4 -3.5 7.5t-4.5 14.5q-1 2 -2 4.5t-2 5.5q-2 4 -3 8l-12 -22l-12 -22q-9 -11 -11.5 -22.5t-16.5 -25.5q-1 -1 -5 -1q-7 0 -12.5 5t-6.5 10q0 6 5 10.5t7 11.5q0 2 0.5 2t0.5 1l1 1
q3 2 6 5q2 2 4 3.5t3 3.5t16 16t26 31z" />
    <glyph glyph-name="plus" unicode="+" horiz-adv-x="325" 
d="M94 185q-4 -1 -12 -1h-11h-21q-3 0 -8 0.5t-5 1.5q0 2 3.5 6.5t3.5 3.5q0 5 13 5q5 0 9 -1t6 -1h11q4 0 6.5 0.5t5.5 0.5q2 0 3 0.5t4 0.5q1 0 2.5 -0.5t4.5 -0.5h43q6 10 13 23q6 11 13.5 27.5t16.5 37.5q0 1 -0.5 2t-0.5 2t5 3.5t5 5.5q0 4 2 4t2.5 2.5t2.5 5.5
q0 -1 6.5 -6.5t6.5 -20.5q0 -4 -3.5 -9t-7.5 -10q0 -2 0.5 -4.5t0.5 -3.5q-4 -4 -10 -13.5t-13 -19.5q-8 -12 -16 -26h3h22q6 0 9 2h4q2 0 5 0.5t5 0.5q3 0 3 -2q1 0 5.5 -0.5t15.5 -0.5h10q9 0 13 2q5 0 8 -2t6 -2q1 0 3 -1.5t2 -6.5t-6 -5h-53q-2 0 -3 -1t-3 -1q-1 0 -3 2
q-1 0 -3 0.5t-6 0.5q-6 0 -13.5 -0.5t-15.5 -0.5h-17l-6 -9q-3 -5 -7 -11.5t-9 -15.5q-2 -6 -2 -5q0 -2 -3 -5.5t-3 -4.5q-1 -8 -6 -13.5t-5 -13.5q1 -1 1 -3t-2.5 -2t-2.5 -2l-5 -9q0 -8 -3 -14t-5 -7q-2 0 -5 -0.5t-5 -0.5q-13 0 -16 4.5t-3 10.5l2 7l3 4.5t7 10t8 10.5
t5 7q6 10 13 21t13 20l14 21h-19q-4 0 -8.5 0.5t-9.5 0.5q-10 0 -13 -1z" />
    <glyph glyph-name="comma" unicode="," horiz-adv-x="102" 
d="M22 44q1 2 3 4q4 4 9 4q2 0 6 -2q2 -1 4 -3t4 -2q5 0 6.5 -2.5t2.5 -3.5q2 -2 6 -8t4 -17q0 -6 -1 -9q-4 -15 -7.5 -21t-8.5 -13q-2 -2 -8.5 -8t-14.5 -12t-15.5 -11t-10.5 -5q-2 0 -2 2t2.5 5t3.5 4q4 2 14.5 10t14.5 20q4 4 3.5 8.5t1.5 9.5q0 1 -1 3t-6 4t-11.5 10
t-8.5 14v4q0 3 1.5 7t8.5 8z" />
    <glyph glyph-name="hyphen" unicode="-" horiz-adv-x="228" 
d="M56 175q11 0 20 -1t22 -1h15q1 0 2.5 -0.5t3.5 -0.5l6 2q2 -1 6 -1t9 0.5t12 0.5h29q5 1 12 1h5q3 0 6 -0.5t3 -2.5t-1 -3q-2 -2 -3 -7.5t-7 -5.5l-14 1q-3 0 -6.5 -1t-4.5 -1q-10 2 -14 2h-6.5t-2 -0.5t-1 -0.5h-3.5q-5 0 -7 1q-4 -1 -10 -1h-31h-14q-3 0 -9 -0.5
t-12 -0.5h-16q-4 0 -6 1q-2 0 -4.5 1.5t-2.5 3.5q0 1 -0.5 1.5t-0.5 1.5q-1 1 -1 2q-1 0 -1 1v2q0 5 5.5 5t13.5 1h8z" />
    <glyph glyph-name="period" unicode="." horiz-adv-x="102" 
d="M20 40q5 7 11 9.5t11 2.5q7 0 9.5 -2t4.5 -2q5 0 6.5 -4t3.5 -6q4 -5 4 -13q0 -3 -0.5 -5t-0.5 -3q-2 -12 -10 -16.5t-19 -4.5q-8 0 -13.5 3t-6.5 10q0 2 0.5 2.5t0.5 2.5q0 3 -1 4q0 1 -2 3t-2 7t4 12z" />
    <glyph glyph-name="slash" unicode="/" horiz-adv-x="287" 
d="M261 351q-2 -2 -4 -6l-4 -8q-3 -4 -5 -10v-3q0 -3 -2 -3q-7 -3 -10 -12.5t-5 -12.5q-13 -19 -27 -43.5t-26 -47t-21 -38t-12 -16.5l-3.5 -6.5t-8 -14.5t-8.5 -16t-6 -11t-3.5 -3.5t-1.5 -1.5q-8 -15 -15 -26t-12 -20t-9.5 -18t-8.5 -19q-5 -12 -6 -13.5t-3 -3.5
q-4 -8 -12 -8h-7q0 1 -3.5 -2t-6.5 -3q-8 0 -9 9t-1 16q0 6 6 11q12 17 17 26t6 11q11 12 21 28t18 29.5t13.5 23.5t6.5 10q3 1 5.5 6.5t5 11.5t4.5 11t3 5t7.5 9.5t13.5 21t13 21t6 10.5q1 5 4 7.5t5 5.5q2 2 5.5 11t5.5 10t3.5 4t1.5 5l5 6q7 10 15.5 24.5t17 28.5
t15 26.5t11.5 19.5q1 2 3 7.5t4 6.5q2 2 6.5 7.5t4.5 11.5q0 1 4.5 4.5t4.5 7.5q0 3 9 18.5t19.5 32.5t19 31t7.5 15q0 1 2.5 3.5t2.5 3.5q0 6 2.5 9t4.5 9q0 -1 1 -1h3q2 0 3 1q0 6 7 8t9 2q1 0 9.5 -5t8.5 -9q0 -1 -2.5 -6t-2.5 -7t-7.5 -13t-17 -25t-19.5 -28t-15 -22
q0 -1 -2 -3q-6 -11 -18 -25.5t-12 -19.5q0 -4 -6 -14.5t-11 -16.5z" />
    <glyph glyph-name="zero" unicode="0" horiz-adv-x="379" 
d="M77 62q5 -26 13.5 -41.5t35.5 -15.5h4q5 1 14.5 2t17.5 6q24 10 43.5 26.5t35 34.5t26 34t15.5 25q1 1 3 2t2 3q0 3 1 5q5 6 6.5 11t2.5 6q14 28 22.5 51t10.5 34q0 4 1 5q0 1 1 2q1 2 1 6l3 7q0 1 -0.5 2t-0.5 2q0 4 2 8t2 9q0 7 1 9q0 2 1 3q0 8 0.5 13t1.5 8q1 4 2 5
q0 1 -0.5 1.5t-0.5 1.5l-1 1v1q0 3 1 5l1 18q0 6 -0.5 11t-0.5 9q-1 4 -1 8v4q-1 0 -1 1t-0.5 1t-0.5 1v4q-8 27 -38 27q-4 0 -16.5 -2.5t-32.5 -15.5q-11 -7 -24 -17t-28.5 -25.5t-34 -39t-39.5 -58.5q-2 -3 -4 -5l-1 -1q0 -2 -3 -8.5t-6.5 -13.5t-6.5 -14t-3 -11
q-3 -3 -5 -11l-12 -38q-1 -5 -5.5 -17.5t-4.5 -29.5q0 -5 -0.5 -9.5t-1.5 -9.5l1 -19zM341 417q1 -1 3 -1.5t2 -1.5t2.5 -3t6.5 -8q7 -7 13 -28l1 -11q2 -5 2.5 -9t0.5 -9l1 -7v-10q0 -3 1 -4l-1 -26q-1 -23 -5.5 -45.5t-14.5 -56.5l-7 -16q-1 -4 -3.5 -10t-3.5 -7
q-2 -2 -4.5 -10t-8.5 -13q-4 -5 -6 -11t-14 -23q-23 -35 -51 -58t-48 -34q-5 -3 -10 -5.5t-7 -2.5q-3 0 -6.5 -2t-4.5 -2q-2 -2 -13.5 -5t-27.5 -3h-9l-8 1q-20 0 -33 7l-1 1q-1 0 -1.5 0.5t-1.5 0.5q-2 0 -3.5 0.5t-2.5 0.5q-2 0 -6.5 4.5l-10 10t-9.5 11.5t-4 10
q-1 6 -5 11.5t-5 13.5l-3 20v9q0 2 0.5 2.5t0.5 2.5l-1 15q1 7 1.5 11t2.5 7l3 21q7 28 14 43.5t7 20.5q5 7 8.5 16t6.5 13l11 17q3 6 8 13t10 15q13 19 26.5 33.5t25 25t18.5 17.5t8 10q3 5 9 7t6 3q4 4 22 16t40 17q5 2 13 4t10 2q3 0 5.5 0.5t7.5 0.5q2 0 4 -0.5t4 -0.5
l2 -1h7q2 0 3 -0.5t3 -0.5q10 0 13 -2.5t7 -6.5z" />
    <glyph glyph-name="one" unicode="1" horiz-adv-x="319" 
d="M45 117q0 2 7 8t16 12l16.5 11t7.5 6l5 6q5 2 9.5 5.5t4.5 5.5q1 1 7 5.5t14 11t16 14t13 14.5q29 25 45.5 43t33.5 39q1 1 5.5 7t9.5 13t9 13t4 7q1 2 3 5q2 2 2.5 4t1.5 3q2 2 3.5 4t3.5 3q2 0 2 4v2q0 1 1 1q1 1 2.5 2t1.5 6v4q0 4 1 4l1 1q2 2 3 4q2 3 3 6q0 2 2 4.5
t2 3.5v6q0 4 2 4q1 0 5.5 2.5t10 6t11 6t8.5 2.5q2 0 6.5 -2.5t4.5 -4.5q0 -1 -1.5 -2t-0.5 -1t1.5 -0.5t1.5 -0.5l1 -1l-1 -7q0 -2 2 -4v-1q0 -1 0.5 -1.5t0.5 -1.5q0 -5 -5 -15t-15 -18q-6 -4 -11 -11t-9 -13.5t-7 -11t-4 -3.5l-3 -4t-6 -9t-5.5 -9.5t-2.5 -5.5
q0 -3 -6 -10.5t-7 -9.5l-85 -150q-1 -1 -3.5 -4t-2.5 -4q0 -3 -2 -5.5t-5 -7.5q-1 -2 -2 -6t-3 -6q-3 -3 -4 -6.5t-3 -6.5l-6 -9t-6 -7t-5 -9.5t-8 -19.5q-1 -2 -0.5 -4.5t-1.5 -2.5q-2 -1 -3.5 -5t-4.5 -8.5t-7 -8.5t-9 -4q-2 0 -2 -1.5t-1 -2.5q-2 -2 -12 -2t-12 -1
q-1 -1 -4 -1q-6 0 -7 8t-1 14q0 3 2 7q5 5 6.5 11t9.5 12q2 2 4.5 6.5t3.5 4.5t7 8.5t9 9.5q0 5 4.5 11.5t8.5 15.5q1 2 3.5 3.5t3.5 1.5q-1 0 0.5 3t1.5 4q0 5 6 8.5t8 9.5q0 4 4 10t8 11q0 1 4 5.5t8.5 11.5l9 14t7.5 12l49 76q-27 -29 -59 -59t-67 -59q-9 -8 -14.5 -12
t-9.5 -6.5t-8 -4.5t-10 -6l-31 -24q-2 -2 -7 -3.5t-10 -1.5q-4 0 -4 1q0 2 4 5t9 6zM-2 84q1 2 5.5 6.5t10.5 4.5t6 -2q0 -6 -10 -7q-2 -1 -11 -6q0 2 -0.5 1.5t-0.5 2.5z" />
    <glyph glyph-name="two" unicode="2" horiz-adv-x="394" 
d="M132 150q3 2 10.5 7.5t18.5 11.5q8 5 14 9q5 4 10 7t6 4q7 3 14.5 9t21.5 13q2 3 6.5 4.5t10.5 5.5l12.5 7.5t11.5 9.5l5 3l26 23q7 6 9.5 11.5t7.5 8.5q2 2 6 9t7 19q2 6 3 10.5t1 7.5l1 8q0 31 -10.5 51.5t-39.5 27.5h-7q-3 0 -4.5 0.5t-3.5 0.5q-5 0 -9 -1.5t-8 -2.5
q-1 0 -1.5 -0.5t-1.5 -0.5q-37 -16 -37 -47q0 -2 -0.5 -3t-0.5 -2q0 -2 0.5 -3t0.5 -3q0 -1 -0.5 -1.5t-0.5 -1.5v-2q4 -4 4 -12q0 -5 1.5 -7t1.5 -5t-1 -5l-4.5 -9t-12.5 -9q-2 -1 -6 -1q-5 0 -10 1.5t-5 2.5q-2 2 -4.5 2.5t-4.5 8.5l-5 13q0 5 1.5 13t6.5 15q1 1 1 3v3
q1 2 3 4t3 4q2 2 4 3t2 5q0 2 3 3t5 3q17 18 25.5 23.5t14.5 7.5h1q1 0 1 0.5t1 0.5l3 2q1 0 2.5 0.5t2.5 0.5t2 1l4 1q2 0 2 0.5t2 0.5q5 0 6.5 2t3.5 2l9 1q5 1 5.5 1.5t3.5 0.5q4 0 8 -2t7 -2h5t4 -1h4q4 0 4 -2t2 -2t3.5 -1t3.5 -1q10 -4 19.5 -10.5t17.5 -17.5
q4 -2 7.5 -8.5t5.5 -14t3.5 -14.5t1.5 -11v-1q0 -1 1 -2q0 -2 -0.5 -5.5t-0.5 -6.5l-3 -16q-3 -19 -13 -33q-2 -4 -5 -6q-2 -1 -2.5 -3t-1.5 -4q-2 -3 -4.5 -6.5t-6.5 -7.5q-7 -8 -15 -15t-22 -14q-17 -17 -33 -22.5t-19 -6.5q0 -1 -4.5 -3.5t-10 -5.5t-10.5 -5.5t-6 -2.5
q-2 0 -8 -3t-13.5 -7t-13.5 -7t-7 -3l-18 -9q-12 -7 -22 -12t-18 -10t-16 -11t-17 -15q-17 -17 -22 -35t-7 -27q4 7 10.5 16t15 16.5t19.5 13t25 5.5q4 0 10.5 -1.5t10.5 -2.5l4 -2q1 0 3.5 -3.5t4.5 -3.5l3 -3l2 -2q10 -12 30 -39q3 -3 4 -3q0 -1 1 -1l2 -2l3 -3
q14 -16 28.5 -25.5t40.5 -9.5h6.5t8.5 1q8 1 11 1.5t8 2.5q2 2 3.5 1.5t3.5 1.5l4 2q1 0 1 0.5t1 0.5l1 1q14 10 15.5 16.5t6.5 6.5q2 0 2.5 -3.5t0.5 -4.5q0 -2 -1 -4t-3 -3q-8 -5 -11.5 -10.5t-16.5 -11.5l-4 -2q-8 -5 -22 -8.5t-28 -3.5q-17 0 -26 3q-18 5 -40.5 17
t-49.5 39q-2 2 -6 5.5t-6 6.5q-3 0 -3.5 2t-1.5 4q-5 2 -7.5 5.5t-6.5 3.5q-2 0 -6 1.5t-5 1.5h-4q-14 0 -25 -13.5t-16 -25.5l-4 -9q-1 -2 -2 -5.5t-3 -5.5q-1 -1 -4 -3q-7 0 -14 5t-7 9q0 -1 -3 -1q-4 0 -5 2.5t-3 5.5l-4 6q-1 1 0 1q0 6 4 9.5t9 14.5l3 4q2 4 4 6
q1 1 1 2t2 2t2 2.5t2 3.5q6 8 16 18.5t24 21.5q5 4 5.5 5.5t5.5 3.5q1 0 5 2.5t8.5 6l9 7t6.5 4.5l5 3q2 1 3.5 2t3.5 4z" />
    <glyph glyph-name="three" unicode="3" horiz-adv-x="431" 
d="M56 47q-1 -1 -1 -3v-6q0 -5 2 -11v-15q0 -3 1 -5q0 -1 0.5 -1.5t0.5 -2.5q2 -8 6 -18t14 -22l6 -6q10 -14 29 -20.5t32 -6.5q25 0 45.5 7t26.5 13l4 1l5 5q6 6 15 11q16 17 31.5 39t29.5 56q2 6 6 21t5 24q1 5 1 9v8t-0.5 7.5t-0.5 5.5v5q0 7 -2.5 18t-7 22.5t-12 22
t-18.5 16.5q-5 2 -11 4t-13 2q-19 0 -29 -10q-2 -2 -4.5 -6.5t-5.5 -9.5t-5.5 -8.5t-3.5 -3.5q-3 1 -15 3.5t-12 5.5q0 2 0.5 8.5t2.5 8.5l3 3q2 2 2.5 3t5.5 3q2 1 4 1.5t3 1.5q11 6 22 15t19.5 17t14 13.5t6.5 5.5t3 1.5t2 4.5q-1 1 5.5 5t8.5 7q7 8 12 13l8 8q2 2 3 4
q7 6 14 13q6 6 13.5 14.5t15.5 17.5q-22 -14 -39.5 -19.5t-30.5 -5.5h-7q-3 0 -7 2t-8 2h-4q-20 6 -24 20t-4 22q0 3 0.5 6t0.5 4q-4 0 -10 -5q-5 -4 -8.5 -12t-5.5 -25v-9q-1 -2 -1 -7q0 -1 0.5 -2t0.5 -3q2 -4 2 -7q0 -2 -1 -3q1 -2 2 -3.5t1 -3.5q0 -3 -1 -5l-4.5 -9
t-12.5 -9q-2 -1 -6 -1q-5 0 -10 1.5t-5 2.5q-2 2 -4.5 2.5t-4.5 8.5l-5 13q0 8 8 20q1 1 1 3v3q1 2 3 3.5t3 3.5q6 8 12 13q1 2 9 10q3 3 2 3q1 0 5 4.5t9.5 9.5t11.5 10.5t11 8.5q2 2 1.5 3t3.5 3l4 2q4 4 4 10q0 3 4 3q2 0 4 4.5t4 4.5q1 0 2 0.5t2 0.5q2 0 4 -1.5t4 -1.5
q9 0 14 -8q3 -2 3 -6q0 -2 -0.5 -2.5t-0.5 -2.5l-2 -5q-2 -7 -8 -7q-2 -1 -8.5 -5.5t-8.5 -15.5v-4q0 -4 1 -8.5t5 -9.5q2 -4 8.5 -7t11.5 -4q3 -1 10 -1q11 0 21 3.5t18 8t13 8.5t6 5q5 5 5.5 6.5t1.5 1.5q2 0 7 4.5t7 5.5q3 1 3.5 2.5l1.5 4.5t4.5 7t5.5 6t5 2q2 0 6 -3.5
t9 -3.5q5 -1 5 -5t1 -4q3 -1 8.5 -6.5t5.5 -6.5q-3 -11 -9.5 -13t-7.5 -4q-6 -12 -16 -16.5t-10 -6.5q-1 -2 -4 -5t-7 -5q-4 -3 -9 -6q-4 0 -4 -4l-5 -4q-11 -11 -25 -22.5t-15 -10.5q-2 0 -6 -3.5t-5 -5.5l-72 -54q-1 -1 9 2.5t24 3.5q18 -1 28.5 -4.5t14.5 -3.5
q1 0 4.5 -2.5t5.5 -3.5q22 -11 34.5 -38t15.5 -52q0 -2 0.5 -2.5t0.5 -1.5q0 -3 -1 -4.5t-1 -3.5t1 -3q0 -13 -4.5 -30.5t-14 -36.5t-23 -37.5t-31.5 -34.5q-5 -4 -18.5 -15.5t-45.5 -26.5q-2 -1 -7.5 -1.5t-4.5 -2.5q0 -4 -10 -6q-4 -2 -10 -2q-11 -5 -20.5 -6t-20.5 -1
l-11 -1q-4 0 -12.5 0.5t-19.5 2.5t-23 7t-23 13l-4 3q-11 8 -18 19t-11.5 22t-6.5 21t-2 17q0 5 1 10.5t1 12.5q0 2 1 3.5t1 2.5q1 5 3.5 10.5t5.5 10.5q4 5 7 10q0 2 1 4q2 4 4 4q1 0 5 4t11 10t17.5 11.5t24.5 8.5l15 1q1 0 1.5 0.5t2.5 0.5q5 0 11.5 -1.5t14.5 -1.5
t14 -3.5t14 -8.5q3 -2 4.5 -5t4.5 -4q2 -1 4 -5t4.5 -7t2.5 -8v-4l2 -9q0 -2 -2 -3q-3 -2 -3.5 -5.5t-4.5 -3.5q-2 -5 -7.5 -8.5t-7.5 -3.5t-3 2t-3 2t-5 -1q-4 0 -5 2t-3 3q-14 3 -15 12l-2 6t-1 8q0 2 -0.5 2.5t-0.5 2.5t1 3.5t1 3.5q0 1 0.5 2.5t0.5 5.5q0 5 -6.5 9
t-10.5 4q-2 0 -4 1q-6 2 -9 2h-5q-8 -2 -15 -5q-11 -5 -19.5 -18t-10.5 -45z" />
    <glyph glyph-name="four" unicode="4" horiz-adv-x="387" 
d="M32 206q10 8 22 14t14 6q3 3 11 8t18 11.5t21 14.5t19 17l11.5 11.5t10.5 7.5q1 0 5.5 4t9.5 9.5t9.5 10t4.5 5.5q1 1 4.5 5t7.5 8.5t8 8t5 4.5q2 1 5.5 7.5t3.5 7.5q1 0 1 1t2 1t2.5 1.5t1.5 2.5l3 1q1 6 6 10.5t8 11.5l4 6q26 33 32.5 56t6.5 25q0 3 4.5 7t10 7.5t10 6
t6.5 2.5q1 0 2 -2t3 -2q3 -1 8 -1q4 0 7.5 0.5t5.5 0.5q3 0 6.5 -6t3.5 -8v-4.5t-1 -5.5q-2 -9 -10.5 -17t-17.5 -18q-2 -2 -6.5 -9t-10.5 -12q-1 0 -4 -3q-1 -1 -1 -2t-0.5 -1.5t-0.5 -1.5q0 -2 -2 -5.5t-5 -7.5t-6 -7.5t-4 -4.5q-8 -10 -12 -14l-6 -6q-27 -30 -50.5 -49.5
t-42.5 -33.5q-20 -16 -42.5 -27.5t-33.5 -19.5q-5 -3 -5 -6q1 0 4.5 1t5.5 2q5 2 16.5 5t19.5 3q15 0 33 -11l10 -9q3 0 6 -3q2 -2 8 -7.5t10 -10.5q2 -2 5.5 -5t7.5 -6q4 -4 10 -7q7 15 14 26q5 10 11 19t8 11t6 11.5t5 10.5q11 12 12.5 18t7.5 14q1 1 1 4l1.5 4t4.5 10
t5.5 12.5t4.5 11.5q3 11 18 18q1 1 6 1q6 -5 6.5 -9.5t8.5 -4.5q2 0 2 -1.5t1 -2.5q2 -2 2 -3q0 1 -3.5 -4t-8 -12.5t-10 -15t-9.5 -10.5q-1 -1 -4.5 -9t-17.5 -22q-1 -1 -2.5 -7t-6.5 -13q-2 -1 -4 -8t-10 -18q-4 -6 -8 -13.5t-9 -14.5l-10 -15q2 -1 14 -4.5t29 -3.5t41 16
q2 1 3.5 5.5t8.5 4.5q4 0 4.5 4.5t6.5 4.5q1 0 4 -1.5t3 -3.5t-2.5 -4t-4.5 -5q-5 -10 -13 -16t-16 -10t-15 -5.5t-11 -1.5q-2 0 -3 0.5t-3 0.5t-3.5 -0.5t-3.5 -0.5q-11 0 -26.5 3.5t-18.5 5.5q-2 -4 -4 -7.5t-4 -8.5q-4 -11 -6.5 -12t-4.5 -6l-1 -4q0 -1 -1.5 -5.5t-4 -10
t-4.5 -10.5t-3 -5q-2 -1 -6 -11t-6 -10t-4.5 -6.5t-5 -14t-6 -14.5t-6.5 -8q-1 -1 -4 -12t-11 -16l-5 -2.5t-15 -1.5h-8.5t-9.5 1q-10 1 -12 5.5t-2 9.5q0 7 5 12t5 6t3.5 6t9 11.5t10 12.5t6.5 9t7 12t12 12q3 5 10 15.5t15.5 22t16 23t11.5 18.5q1 0 -9 4.5t-41 24.5
q-3 2 -9.5 4t-9.5 3q-5 2 -11 2.5t-11 0.5q-11 0 -20.5 -2t-11.5 -4q-6 -2 -15 -6t-15 -10q-8 -6 -9 -7.5t-3 -3.5t-7 -2q-1 0 -2.5 -1t-2.5 -1q-2 1 -4 0.5t-2 1.5q-2 1 -2.5 2t-1.5 2t-1 2q-5 0 -9 4t-4 8q0 1 -1 2.5t-1 2.5q0 2 2 4z" />
    <glyph glyph-name="five" unicode="5" horiz-adv-x="419" 
d="M215 -64q-18 -8 -36 -11.5t-29 -3.5q-2 -1 -6 -1q-3 -1 -7 -1h-9l-6 1q-2 0 -3 0.5t-4 0.5h-6q-2 0 -5.5 1.5t-8.5 1.5h-4t-4 1q-3 0 -4 1q-2 0 -4.5 1.5t-4.5 2.5q-5 2 -9 4.5t-9 5.5q-9 6 -17 14q-4 4 -8 9.5t-5 6.5q-3 5 -9 18t-8 36l1 12q0 5 1 9.5t3 10.5
q0 1 0.5 2.5t0.5 3.5q0 5 3.5 9t3.5 7q0 1 4 7t10 13.5t13 14.5t13 10q1 0 2 2.5t3 2.5q4 0 16 5.5t30 5.5q12 0 24 -4l15 -4q20 -9 25 -18.5t6 -9.5q6 -2 6 -10q2 -2 2 -3t-0.5 -1.5t-0.5 -2.5q0 -4 -2 -10v-6l-9 -8l-3 -4q0 -2 -5 -2q-2 0 -3.5 -2t-3.5 -2h-10q-3 0 -4 1
q-1 0 -3 4l-4 2q-11 5 -11 12q-2 1 -2 4q0 2 0.5 4.5t0.5 4.5q-1 2 -1 9q0 3 2 7t2 9t-3 8q-2 3 -8.5 6t-16.5 3q-2 0 -5.5 -1t-4.5 -1q-7 -2 -18 -8.5t-19 -25.5q0 -1 -2 -4.5t-2 -4.5q-2 -5 -3.5 -13t-1.5 -11l-1 -4q0 -3 2 -5q-1 -2 -1 -3v-4q0 -1 -0.5 -4t-0.5 -8
q0 -2 0.5 -5.5t0.5 -4.5t1.5 -4.5t2.5 -5.5q4 -15 10 -26t12 -19q7 -11 26 -21t37 -12h13q15 1 30 4.5t31 12.5q5 3 10.5 7.5t10.5 8.5t10 10q13 12 22.5 27t15.5 27.5t9.5 21l3.5 8.5q0 4 2 7t2 5q5 13 6 24t1 21v16q0 28 -7.5 41.5t-7.5 15.5t-1 3.5t-1 3.5
q-6 11 -18.5 23.5t-27.5 12.5q-5 0 -7 -1q-1 0 -5 -1t-7 -1l-8 -3q-5 0 -16 -8t-19 -16l-3 -5q-1 -1 -1 -2t-2 -3l-4 -10q-2 -5 -4 -5q-2 -1 -5 -1q-8 0 -15 9l-6 3q-4 0 -5 3q-4 0 -5 2q-1 1 0 3q0 3 4 7q0 8 12 19l7 11l6 9t7.5 12t6 11l2.5 5q0 4 3 9q2 3 4 5l19 30
q30 46 41.5 68t11.5 30q0 6 5 6h15h18t16 -2q5 0 10 0.5t10 0.5h29h11q3 0 5 1l18 1q4 0 7 1.5l5 2.5q1 0 1.5 0.5t1.5 0.5q2 0 4.5 -1t5.5 -1h4q4 0 11.5 -3t7.5 -9q0 -2 -2 -4t-2 -5l2 -2q2 -2 2 -6q0 -2 -1 -5.5t-3 -3.5q-1 -2 -1.5 -2t-1.5 -1l-1 -1q0 -3 -8 -6.5
t-16 -3.5q-6 0 -12 3q-1 0 -2 2t-2 3q-5 12 -12.5 16t-13.5 6q-3 1 -11 3.5t-22 2.5l-9 1q-4 0 -5 1q-1 -1 -3 -1h-13q-3 0 -7 -2l-4 -2l-49 -85q-4 -5 -6 -9t-4 -7q-2 -4 -3 -7l-2 -2q-2 -2 -2 -3q0 -3 -2 -7q-6 -8 -12.5 -18.5t-11.5 -19.5l-12 -22q11 9 25 15t22 8
q12 3 24 3q20 0 37 -8.5t31 -26.5l5 -6q0 -1 -0.5 -1.5t-0.5 -1.5t1 -2q2 -2 2 -4q2 -2 5 -6q2 -3 3.5 -7.5t1.5 -11.5q0 -2 2 -4t2 -7v-7q2 -2 2.5 -13.5t0.5 -20.5v-6q-2 -11 -4 -16.5t-2 -13.5q0 -7 -2.5 -13t-4.5 -7q-1 -1 -1 -5l-1 -3q0 -1 -2 -7l-8 -16
q-1 -2 -2.5 -2.5t-1.5 -2.5q0 -1 -7.5 -12.5t-18.5 -23.5q-9 -12 -13 -12q-1 0 -4 -4t-6 -5l-24 -18q-3 -3 -14 -10q-5 0 -7 -2l-4 -2l-9 -4v0z" />
    <glyph glyph-name="six" unicode="6" horiz-adv-x="349" 
d="M148 223q5 3 8 6.5t5 4.5q1 1 3 1.5t2 1.5q17 17 37.5 23.5t35.5 6.5l5 1q14 -1 22 -5t10 -7q2 0 3 -0.5t2 -0.5q12 -6 13.5 -9.5t6.5 -8.5q1 -2 4.5 -5.5t5.5 -25.5l4 -20q0 -7 -1 -11v-10q-2 -9 -5.5 -25.5t-17.5 -37.5q-3 -4 -4.5 -9.5t-7.5 -10.5q-2 -2 -3 -4.5
t-3 -4.5q-1 -2 -1.5 -2.5t-1.5 -2.5q-23 -29 -52.5 -48.5t-60.5 -19.5l-6 -1q-2 0 -3.5 1t-5.5 1l-15 -2q-4 0 -7.5 1t-11.5 3q-14 2 -25.5 10.5t-20.5 19.5t-15 22t-7 18q-1 1 -2 4t-1 12q-1 3 -1 9q0 7 1 9q0 2 1 4q-2 6 -2 9q0 2 0.5 4t0.5 5v11q0 2 0.5 3.5t0.5 3.5
q2 7 3.5 17t6.5 30q8 30 20.5 57.5t24.5 48.5t21.5 33.5t11.5 12.5t5 6.5t10 14.5l23 29q1 1 3.5 3t4.5 6q9 11 23.5 25.5t32 29.5t36.5 30t39 26l13 9q5 4 8 4t5 1q17 12 41.5 22t38.5 12q3 0 6 2q1 2 8 2h4q2 0 3 1t2 1q8 0 13.5 2t18.5 2h11q4 0 7 -3q4 -4 4 -7
q0 -2 -0.5 -2.5t-0.5 -1.5l-1 -1q-2 0 -5 2.5t-9 2.5l-5 2q-2 0 -2.5 -0.5t-2.5 -0.5h-4q-9 0 -23.5 -4t-30 -10.5t-30.5 -14t-24 -14.5q-5 -2 -11.5 -7.5t-9.5 -5.5q-1 0 -4.5 -2.5t-11.5 -6.5l-10 -9q-8 -2 -10.5 -4t-3 -4t-1.5 -4.5t-6 -4.5q-2 -1 -2.5 -1.5l-2.5 -2.5
l-5 -6q-11 -8 -22.5 -21t-16.5 -16l-13 -16q-7 -6 -10.5 -12.5t-11.5 -14.5q-4 -4 -8 -9.5t-9 -10.5q-4 -5 -7 -11t-11 -11q-5 -12 -8.5 -16t-8.5 -12q-10 -13 -16.5 -31t-12.5 -22q-1 -4 -3 -6.5t-3 -7.5q0 -1 -2.5 -8.5t-4.5 -9.5q-2 -4 -6 -16.5t-4 -16.5
q-3 -6 -4.5 -15.5t-3.5 -14.5l-2 -17q0 -3 -0.5 -6t-0.5 -6v-5q8 21 23 40.5t29 36.5q1 0 2 1q2 2 3 4zM146 201q-13 -13 -25.5 -27.5t-23.5 -34.5q-5 -8 -9 -20t-5 -23l1 -5v-10q0 -2 1 -3t1 -3q2 -2 2.5 -7t3.5 -7q1 -6 4 -12t7 -11q7 -9 19 -17t21 -8q2 -1 5 -1h12
q5 0 13.5 2t20.5 10q2 2 7.5 4t10.5 9q3 5 5 6t4 3q31 30 39.5 56t10.5 47q0 1 0.5 2t0.5 2l-2 17q0 1 0.5 1.5t0.5 1.5v1l-2 15q0 3 -1 3.5t-2 3.5l-1 6q-5 11 -7.5 15t-9.5 8q-2 1 -3 2t-4 1l-4 2q-2 0 -3.5 1t-2.5 1t-1.5 0.5t-1.5 0.5q-2 0 -5 0.5t-5 0.5t-2.5 -0.5
t-5.5 -0.5q-20 -3 -34.5 -10.5t-29.5 -21.5z" />
    <glyph glyph-name="seven" unicode="7" horiz-adv-x="394" 
d="M189 338q-11 2 -20 8.5t-13 11.5q-9 12 -9 32q-4 0 -8 -6q-4 -5 -9.5 -16.5t-10.5 -31.5q-1 -2 -1 -7.5t-3 -5.5q0 -1 -0.5 -1.5t-0.5 -1.5q-3 -13 -5.5 -24t-9.5 -11q-2 -4 -7 -5.5t-6 -1.5q-2 -5 -8.5 -6t-9.5 -1q-8 0 -10.5 6t-2.5 12q0 7 1 8q3 3 2.5 7t1.5 6
q10 8 11 17t6 9l1 1q0 1 1 2q2 1 7 5t12 18q0 3 2 3q1 0 6 5.5t11.5 12.5t13.5 13.5t12 9.5q2 2 1.5 3t3.5 3q3 0 5.5 3.5t2.5 8.5q0 3 4 3q6 0 11.5 3.5t8.5 3.5q8 0 12 -5t4 -11q0 -9 -6 -10q-2 -1 -9 -7t-7 -17v-7q1 -10 7 -18.5t15 -10.5q5 -1 8 -2t7 -1h9t8 1
q15 3 20 6.5t7 3.5q4 0 10.5 4.5t9.5 6.5q32 24 45 39.5t17 15.5t4.5 5.5t2.5 5.5h5q3 0 8 -3.5t6 -3.5q1 1 1 -1t1 -2h3q1 0 1 1q5 -6 13 -9t8 -13q0 -3 -2 -8t-7 -7q-9 -4 -16.5 -12t-13.5 -17t-11 -17t-9 -11q-6 -2 -7 -10t-6 -10q-1 -1 -2.5 -2t-1.5 -3
q-2 -5 -7.5 -12.5t-8.5 -12.5l-74 -110h6q2 0 4.5 0.5t4.5 0.5h8l18 2q5 0 11.5 1.5t11.5 1.5q3 0 10.5 1.5t18.5 1.5h6q2 0 5 0.5t4 0.5q3 -2 4 -2t1 -2q0 -5 -2.5 -10.5t-14.5 -9.5l-13 1h-5t-4 1q-3 1 -8 1h-8q-12 0 -21 -1.5t-13 -1.5h-32l-7 -7q-4 -5 -9.5 -12
t-12.5 -21q-2 -5 -8 -12t-8 -8l-5.5 -8t-11.5 -17.5t-11 -18t-6 -8.5q-2 0 -6 -6.5t-8.5 -14t-8.5 -14.5t-7 -8q-2 0 -3.5 -6.5t-5.5 -8.5q-5 -3 -6.5 -8t-2.5 -6q-8 -12 -15.5 -25.5t-13.5 -21.5l-5.5 -5.5t-5.5 -11.5q-1 -1 -1.5 -2.5t-1.5 -1.5q-3 -1 -5.5 -6.5t-5.5 -12
t-6.5 -12t-8.5 -7.5q-8 -2 -12 -2t-10 -0.5t-8 -0.5t-3 0.5t-2 0.5q-2 0 -6 2q-3 1 -3.5 4.5t-0.5 7.5v7q4 10 8 14t7 8q0 1 4 5t8.5 9.5t8.5 11t4 8.5t7.5 8t8.5 7q22 29 39 52t32 43.5t29.5 39.5t29.5 41l17 24h-15h-25t-22 -2h-15q-2 0 -3 1t-3 1q-3 0 -6 -0.5t-7 -0.5
l-31 -2q-5 0 -13 -1.5t-13 -1.5q-4 0 -4 2t1.5 2.5t5.5 4.5q0 3 3 3h4q1 6 11.5 9.5t23.5 3.5l24 -6q2 -1 7 -1t11 1t11 1l24 -2q6 0 12.5 0.5t15.5 1.5h12q1 0 4.5 5t8 11t8 11.5l3.5 5.5q5 8 11.5 14t6.5 11l3 4.5t6.5 9.5t6.5 9.5t3 3.5q1 0 5.5 6.5t10 14.5t10 15t4.5 8
t4 7t8.5 12.5t8.5 12.5t4 7q0 2 3.5 4.5t4.5 7.5l14 27q-10 -8 -22 -15q-11 -6 -24.5 -12t-28.5 -10q-1 0 -12 -2.5t-26 -2.5q-13 0 -23 3z" />
    <glyph glyph-name="eight" unicode="8" horiz-adv-x="393" 
d="M289 479q-5 7 -12 8q-9 4 -22 4q-17 0 -32 -10.5t-23 -34.5q-1 -4 -1 -7.5v-6.5q0 -13 2 -21t7 -19l11 -24q0 -3 2 -3q2 -4 3 -8.5t3 -7.5l4 -6l15 -36q7 2 11 4.5t5 2.5q13 5 22 10.5t11 6.5q10 6 19.5 15t17 18.5t11.5 19.5t4 17q0 2 -0.5 3.5t-0.5 3.5q0 3 1 6.5
t1 6.5q0 2 -0.5 3t-0.5 3q0 8 -1 13q-5 2 -5 15q0 1 -0.5 3t-2.5 7q0 6 12 6q9 0 15 -6q4 -7 8.5 -14t4.5 -17q0 -2 1 -4q0 -2 0.5 -4.5t0.5 -4.5q0 -4 -2 -10q0 -2 -0.5 -6.5t-0.5 -5.5q0 -2 -1 -2.5t-1 -2.5q0 -5 -2.5 -8t-2.5 -5q-6 -27 -46 -49q-3 -2 -6.5 -5t-4.5 -3
q-2 0 -10.5 -4t-14.5 -7q-4 -2 -4.5 -2.5t-1.5 -0.5l-7 -3.5t-10.5 -4.5t-9.5 -4t-3 -3q4 -8 14 -36t18 -73q1 -6 1.5 -12t0.5 -11q0 -33 -9 -57.5t-13 -29.5q-5 -6 -10 -15t-12 -12q-1 0 -1 -3q-3 -7 -10 -11.5t-8 -6.5q0 -1 -6 -6t-16.5 -10.5t-26 -10t-35.5 -4.5h-6
q-19 1 -38 6.5t-39 21.5q-14 11 -16.5 19t-6.5 11q-2 2 -3 5.5t-3 7.5q-1 2 -1 4q0 1 -0.5 1.5t-0.5 1.5q-1 1 -1 2t0.5 1t0.5 2q0 3 -1 5q-3 12 -3 25q0 12 3.5 25t8.5 24t10 19.5t8 10.5l2 3q1 2 9 11.5t17 16.5q2 1 2.5 3.5t2.5 2.5q1 0 5 3t9 6t9.5 6t6.5 4q1 0 8 4.5
t18 10.5t24.5 13t27.5 12q4 2 6 2.5l6 1.5l6 4q-2 6 -7 16.5t-5 11.5l-9 16q-2 3 -3 8.5t-4 10.5q-5 11 -9 24.5t-4 27.5q0 19 11 36l4 6l3 4.5t2 2.5t1 2q0 8 8.5 15.5t9.5 8.5q6 6 13.5 10t13.5 6q1 1 2.5 1t2.5 1q2 2 6 3t7 2q4 1 7 1q0 1 6 3l2 3q7 5 19 4.5t13 0.5t5 1
t9 -1.5t10 -5.5l10 -2.5t7 -2.5l1 -1q0 -2 2 -2q3 -5 6.5 -10t3.5 -8q0 -9 -9.5 -11.5t-15.5 -2.5l-8 3q-2 0 -2 1.5t-2 1.5q-1 0 -4 -3q-4 -4 -11 -4q-4 0 -5 1q-3 2 -4.5 4.5t-3.5 2.5zM74 147q-8 -19 -8 -38v-8v-7t1 -11q0 -2 1 -5t1 -4t1 -2t1 -2q0 -5 2.5 -9.5
t3.5 -7.5q2 -4 7 -10.5t7 -8.5q14 -16 29 -20t29 -4q6 0 10 0.5t9 2.5q21 5 34 16t21 22.5t11 20.5t4 9t1.5 2t0.5 3q1 0 6 15t5 33l-1 30q0 2 -1 3.5t-1 4.5v4q0 9 -4.5 26t-10 34t-10.5 30t-6 15l-32 -16q-26 -14 -40.5 -27.5t-16.5 -14.5q-2 -2 -4 -4.5t-8 -7.5
q-2 -1 -4 -3q-1 -1 -1 -2q-11 -8 -17.5 -20.5t-10.5 -14.5t-4 -7t-5 -17z" />
    <glyph glyph-name="nine" unicode="9" horiz-adv-x="328" 
d="M227 164q2 2 6 11t5 11t0.5 2.5t1.5 1.5q0 1 2.5 6t5.5 12q4 7 8 17q-12 -18 -30 -32q-15 -12 -38.5 -23t-55.5 -12h-9q-5 0 -10 0.5t-13 3.5q-17 4 -33.5 15.5t-25.5 40.5q-1 2 -1.5 6.5t-1.5 15.5l2 21q0 2 1 3q0 1 1 2q0 1 -0.5 1.5t-0.5 2.5l5 9q0 2 0.5 2.5t0.5 1.5
q0 6 2.5 12.5t3.5 8.5q9 21 23 39t29.5 32t29.5 23t22 14l2 1q2 0 6 2t7 4q5 0 8.5 3t23.5 4h4q3 0 3.5 1.5t2.5 1.5h14q20 0 26.5 -2.5t7.5 -3.5q2 -2 5.5 -4.5t4.5 -2.5q8 0 14.5 -5t11 -12t7 -13t2.5 -9q0 -1 2 -3l1 -1q1 -1 3.5 -6t2.5 -13v-7q0 -2 1 -4.5t1 -5.5
q0 -1 -0.5 -2t-0.5 -2q0 -2 0.5 -4t0.5 -4v-8l-1 -4q0 -8 -1.5 -20t-3.5 -17q-2 -12 -8 -31.5t-22 -54.5q-1 -2 -2 -2.5t-2 -2.5l-4 -13q-2 -3 -5 -8.5t-4 -7.5q-1 -5 -5.5 -13t-9.5 -18q-2 -5 -10 -17t-17 -26q-6 -12 -17.5 -28.5t-24.5 -33.5t-26 -33t-23 -27
q0 -1 -9 -10.5t-19.5 -20.5t-20 -19.5t-10.5 -7.5q-1 0 -1 -2.5t-2 -2.5q-4 0 -5 -3.5t-4 -3.5q-1 0 -4.5 -3t-8 -7t-8 -7.5l-4.5 -4.5q0 -3 -5 -3q-4 0 -9 -7t-10 -8q-1 0 -6 -3.5t-11 -7.5t-11.5 -7.5t-7.5 -3.5q-1 0 -2 -1.5t-2 -0.5q-1 -1 -2 -1t-3 -1q-10 -8 -23 -12.5
t-14 -4.5q-2 0 -6 -2.5t-9.5 -5.5t-10 -5.5t-6.5 -2.5t-9 -2t-15 -4.5t-14.5 -4.5t-8.5 -2q1 0 -14 -3t-37 -4q-13 0 -27 0.5t-28 3.5q-14 4 -27.5 9.5t-23.5 16.5h-4q-1 1 -2 3l-3 3q-2 1 -8 10t-7 13q0 3 -5 10q-2 3 -1.5 7t-0.5 6q-4 8 -4 21v5q0 14 3.5 26.5t8.5 20.5
q0 2 2.5 5t4.5 3q1 0 3.5 -2t2.5 -10q0 -7 -5 -15t-5 -10q-1 -3 -3 -4.5t-2 -2.5l3 -3q-1 -2 -1 -5q-1 -3 -1 -13q1 -10 5.5 -23.5t18.5 -27.5q3 -1 8 -7t8 -7q2 0 10.5 -3t10.5 -5q8 -5 18 -5l8 -2q6 0 10 -1q3 -1 11 -1h27q34 2 62.5 12t52 23t42 26t30.5 21q7 4 20 15
t27 24.5t26 25.5t17 18q0 4 6 8q2 2 3 4t2 2t4.5 3t5.5 5q2 3 5.5 8t8.5 10q0 2 1 3l31 39q0 2 0.5 2.5t0.5 1.5q3 5 6 9t6 5q3 0 6 8.5t8 11.5q2 0 2 3l2 4q2 2 6.5 11t12.5 18q12 21 19 37.5t9 18.5zM278 315v11v3q0 5 -1 16t-4 23t-8.5 22.5t-14.5 14.5l-3 3q-8 0 -16 3
t-25 3q-7 -1 -12 -2.5t-13 -4.5q-26 -12 -48 -35.5t-42 -66.5q-2 -3 -5 -10t-3 -12v-6q-2 -4 -2 -10t-2 -14q-1 -1 -1 -4t1 -5.5t1 -5.5q0 -11 1.5 -17.5t5.5 -7.5q2 -1 3.5 -5t3.5 -6q8 -10 18 -13t18 -3h6l8 -2q3 -1 9 -1q5 0 9.5 1.5t8.5 1.5q20 0 37 10.5t29.5 23.5
t19 23.5t6.5 11.5t3 6.5t6 18.5q0 1 0.5 6.5t2.5 10.5q0 1 1.5 6t1.5 7v5z" />
    <glyph glyph-name="colon" unicode=":" horiz-adv-x="164" 
d="M157 190q-2 -8 -3.5 -10.5t-3.5 -2.5t-3 -0.5t-3 -0.5q-1 0 -3 -1.5t-6 -3.5q-6 -2 -12 -2q-4 0 -8.5 1.5t-4.5 6.5q0 2 -2.5 4t-3.5 4t-1 4v3q0 1 1 1q0 2 0.5 3t0.5 5v4q0 8 9 12.5t19 4.5q8 0 14 -4t6 -13v-7q0 -1 2 -3t2 -5zM73 106q2 0 2.5 -1.5t2.5 -1.5
q8 0 12.5 -5t4.5 -10q0 -4 -1.5 -9t-7.5 -7q-1 0 -6 -8q-3 -5 -7.5 -8.5t-12.5 -3.5q-11 0 -24 9q-2 1 -2 4q0 2 1 3.5t1 3.5q0 3 1.5 14t9.5 13t11 5t9 3q4 0 6 -1z" />
    <glyph glyph-name="semicolon" unicode=";" horiz-adv-x="163" 
d="M101 207q5 8 11 10.5t11 2.5q7 0 11.5 -2t6.5 -2q7 0 8 -4t3 -7q4 -5 4 -13q0 -2 -0.5 -4t-0.5 -3q-2 -12 -12.5 -18t-21.5 -6q-8 0 -13.5 3t-6.5 10q0 3 0.5 7t0.5 5l-3 3t-2 7q0 6 4 11zM54 114q1 2 3 4q4 4 9 4q2 0 6 -2q2 -1 4 -3t4 -2q5 0 6.5 -2.5t2.5 -3.5
q2 -2 6 -8t4 -17q0 -6 -1 -9q-4 -15 -7.5 -21t-8.5 -13q-2 -2 -8.5 -8t-14.5 -12t-15.5 -11t-10.5 -5q-2 0 -2 2t2.5 5t3.5 4q4 2 14.5 10t14.5 20q4 4 3.5 8.5t1.5 9.5q0 1 -1 3t-6 4t-12.5 4t-7.5 20v4q0 3 1.5 7t8.5 8z" />
    <glyph glyph-name="less" unicode="&#x3c;" horiz-adv-x="199" 
d="M159 281q2 1 5 5.5t5 4.5q4 0 6.5 3.5t3.5 3.5q6 0 9 -5.5t3 -12.5q0 -9 -6 -12q-5 -2 -13 -8q-4 -3 -7 -5q-7 -7 -14.5 -8t-13.5 -9q-8 -9 -17.5 -11.5t-9.5 -4.5q0 -1 -2.5 -1.5t-3.5 -1.5q-2 -3 -10.5 -7.5t-22.5 -14.5q-3 -2 -5.5 -3t-4.5 -3q-3 -2 -4 -3l47 -36
q3 -3 14 -11t12 -11q1 -8 11.5 -9.5t10.5 -4.5q0 -2 1.5 -6.5t4.5 -8.5q2 -2 2 -5q0 -6 -2.5 -13t-2.5 -8q0 -4 -6 -7.5t-8 -3.5q-3 1 -6 3q-2 2 -4.5 3.5t-4.5 5.5q-5 8 -8.5 13.5t-7.5 8.5q-5 6 -11 8t-8 7t-6 6.5t-9 6.5q-5 4 -13.5 11.5t-17.5 16t-17.5 15.5t-12.5 10
q16 11 30.5 18.5t31.5 21.5q5 3 16.5 10t21.5 15q2 2 6 6.5t13 9.5q11 6 14.5 11t10.5 10z" />
    <glyph glyph-name="equal" unicode="=" horiz-adv-x="319" 
d="M78 131q4 0 6 -0.5t6 -0.5q2 0 3.5 -0.5t3.5 -0.5q3 0 5 1t6 1q8 0 15.5 -0.5t12.5 -0.5q1 0 1.5 0.5t2.5 0.5h62h20.5t17.5 1h11q3 1 9 1q18 0 18 -9q0 -3 -2 -5q-1 -2 -5.5 -6.5t-9.5 -4.5q-1 0 -5 2q-1 1 -3 1q-3 0 -6.5 -1t-7.5 -1q-1 0 -1.5 0.5t-1.5 0.5
q-11 4 -19 4q-10 0 -12 -1t-5 -1q-1 0 -1.5 0.5t-1.5 0.5q-2 0 -3 -1.5t-6 -1.5q-4 0 -7 1q-1 0 -2 -0.5t-2 -0.5q-2 -1 -3 -1q-2 2 -4 2t-3 -0.5t-3 -0.5q-7 0 -14.5 -0.5t-15.5 -0.5q-6 0 -8 1q-1 0 -3 -1.5t-5 -1.5q-5 0 -7.5 1.5t-12.5 1.5q-2 0 -5 -0.5t-6 -0.5h-17
q-3 0 -6 -1t-8 -1q-2 0 -10 2q-2 0 -2 0.5t-2 1.5q-4 2 -8.5 8.5t-4.5 8.5t3.5 2.5t8.5 0.5h14h23zM53 177q-6 0 -6 3q-2 2 -5.5 4t-3.5 7q0 2 5 5.5t8 3.5h30q2 0 2.5 -0.5t2.5 -0.5h8.5t18.5 0.5t42.5 1t79.5 0.5q4 -1 8.5 -1h8.5q2 0 4.5 0.5t7.5 0.5h7q5 0 9.5 -1
t4.5 -4q-2 -11 -7.5 -13.5t-16.5 -2.5h-6q-3 0 -4.5 -1t-2.5 -1q-4 -1 -14 -1q-11 0 -25 1t-31 1h-29l-4 2q-1 0 -7 -1t-8 -1h-17q-14 0 -27 -1t-27 -1h-6z" />
    <glyph glyph-name="greater" unicode="&#x3e;" horiz-adv-x="236" 
d="M50 66l-4.5 -1.5t-3.5 -0.5q-4 0 -5.5 1.5t-4.5 2.5h-9q-2 0 -2 4q0 5 2.5 9.5t7.5 5.5q3 0 7 1.5t7 3.5q4 2 7 4q4 1 7 3q6 4 7 4q4 0 11.5 4t12.5 7q9 6 17 11t12 5q2 0 4.5 2t4.5 4q-1 -1 6.5 3t15.5 9l22 12l-17 20l-15 16q-1 4 -5 8q-3 4 -7.5 9t-11.5 11
q-3 4 -6 8.5t-7 6.5q-7 4 -13.5 10t-5.5 8t-6 6.5t-9 9.5q-1 1 -1 6t7 8.5t7 5.5q0 5 3 6t6 1q2 0 3.5 -0.5t3.5 -0.5q2 -1 4 -1q1 -2 4 -4q2 -2 4 -4.5t4 -5.5q3 -8 10.5 -16.5t9.5 -13.5q4 -7 8 -10t6 -8q2 -4 4 -3t5 -2q3 -5 11 -15t17.5 -20.5t18 -19.5t12.5 -13
l-30 -15t-37 -21q-2 -2 -8 -6t-12.5 -8.5t-12.5 -8.5t-9 -5q-9 -5 -15 -10t-15 -7q-11 -3 -15 -8.5t-12 -7.5z" />
    <glyph glyph-name="question" unicode="?" horiz-adv-x="374" 
d="M48 26q-1 2 -1 6q0 11 11.5 16.5t17.5 5.5q1 0 2 -0.5t2 -0.5q6 4 15 4q7 0 12 -3t5 -10q0 -2 -0.5 -4.5t-0.5 -6.5t1 -5.5t1 -3.5q-3 -14 -11.5 -20t-17.5 -6q-11 0 -21 6.5t-10 14.5q0 4 -2 4.5t-3 2.5zM147 134q0 -7 7 -7q4 0 7 -5.5t4 -5.5q2 1 4.5 2.5t4.5 3.5
q3 2 5 5q1 -1 2.5 -3t1.5 -4q0 -7 -10 -13t-24 -6q-18 0 -33 12q-3 2 -8 11t-5 14t-1.5 7.5t-1.5 4.5q-1 2 -1 8t1 9q2 10 4.5 17.5t10.5 16.5q2 2 3.5 5.5t2.5 5.5q1 3 5 9t8.5 12t9.5 11t7 8q6 8 16 14.5t12 8.5q20 19 47 36t51.5 29.5t42 20t18.5 8.5q6 6 12.5 10t7.5 5
q21 25 27 49.5t6 37.5v11q0 2 0.5 5t0.5 5q0 4 -4 7l-5 14q-5 17 -17 23.5t-20 6.5q-5 0 -11 1t-8 1h-9q-8 0 -13 -2t-13.5 -7t-19.5 -24q-5 -6 -7 -15.5t-2 -20.5q0 -20 7.5 -37.5t22.5 -17.5q1 0 1.5 -0.5t1.5 -0.5q14 2 20.5 15t6.5 31q0 4 5 4q2 0 4 -3t2 -12
q-1 -12 -5.5 -20.5t-4.5 -10.5q1 -5 -14 -15t-34 -10q-14 0 -29.5 9t-20.5 32q-1 3 -1.5 4t-0.5 2q0 2 0.5 3t0.5 4q0 4 0.5 8.5t0.5 9.5q0 2 1 4t1 3q0 2 1.5 5t1.5 4q6 17 15 28t17.5 17t14.5 9l6 3q7 10 17 11.5t12 1.5q18 6 30 6q11 0 15.5 -2.5t5.5 -2.5
q32 0 51.5 -25.5t19.5 -58.5q0 -22 -9.5 -44t-23.5 -38q-5 -5 -12 -11.5t-8 -6.5q-2 0 -5.5 -2.5t-4.5 -4.5q-1 -5 -12.5 -10t-28 -10t-34.5 -11.5t-31 -15.5l-5 -3l-4 -4t-5 -3l-15.5 -10.5t-34.5 -31t-36 -50t-20 -65.5q0 -8 1 -12v-7z" />
    <glyph glyph-name="at" unicode="@" horiz-adv-x="391" 
d="M254 72q-4 -1 -8 -1h-5q-4 0 -12 2q-8 1 -10.5 5.5t-2.5 9.5q0 8 4 17.5t5 9.5l-4.5 -5t-11 -12t-14.5 -13t-14 -8q-3 0 -5 -2q-13 -8 -23 -11.5t-18 -3.5q-10 0 -15 3t-5 4q-1 2 -3 3.5t-2 3.5q-2 8 -2 9q0 4 1.5 5.5t1.5 2.5q-1 2 -1 7q0 12 7 22t9 12t3.5 2t1.5 1
q7 16 22.5 31.5t31 27.5t27.5 19.5t13 7.5q2 0 2 -0.5t1 -0.5q3 0 6.5 6t15.5 8q2 0 2.5 -1t2.5 -1q1 0 3 2t3 1q1 -2 4 -2h6.5t6 -0.5t2.5 -2.5q0 -5 3 -8t3 -5q0 -8 5 -12.5t5 -12.5q0 -7 -6 -17q-3 -4 -11.5 -14t-8.5 -14q0 -3 -1.5 -4.5t-1.5 -3.5q0 -1 -3 -5.5
t-6.5 -10.5t-7 -12.5t-3.5 -11.5q1 -5 1 -10.5t8 -5.5q6 0 14.5 4t16.5 10.5t14 15.5t8 19q1 3 4.5 6.5t2.5 5.5l3 6.5t7 15t7.5 17.5t3.5 16v1q0 2 1 3q0 2 1 3q1 14 1 18v6q0 20 -17.5 39.5t-45.5 19.5h-6.5t-6.5 -1q-1 -1 -2.5 1t-3.5 2l-4 -2l-4 -2q-2 0 -9 -1t-10 -3
q-5 -4 -9 -4h-4q-7 -3 -13 -12t-19 -16q-2 -1 -15 -12t-29 -27t-31 -35.5t-22 -38.5q-2 -6 -7.5 -15t-6.5 -11q-5 -13 -6.5 -26.5t-3.5 -16.5q-1 -1 -1 -2v-4q0 -8 2 -21t7.5 -26.5t16 -23t27.5 -9.5h7q21 0 36 5q8 3 14 6q1 1 7.5 2t8.5 3q1 2 3.5 2.5t3.5 1.5q4 2 14.5 8
t24.5 21q4 0 5 1q2 4 6 7.5t9 10.5q5 5 12 5q3 0 3 -1q0 -2 -1.5 -2t-4.5 -7q-2 -5 -5.5 -8.5t-3.5 -4.5q-1 -2 -11.5 -11.5t-27.5 -19.5q-5 -3 -11 -6t-11 -6q-6 -4 -13 -7q-13 -5 -26 -9q-11 -4 -24.5 -6.5t-27.5 -2.5q-12 0 -25 3t-23 14q-2 3 -9 8.5t-9 12.5t-3.5 9.5
t-2.5 6.5l-2.5 10t-1.5 14q0 2 -0.5 2.5t-0.5 1.5q-2 6 -2 7t2 7q0 8 1 14.5t3 11.5t4 9v5q0 2 1 3t2 3q2 9 7 18.5t7 13.5q2 5 4.5 7.5t2.5 7.5q-1 2 4.5 7t10.5 13q12 20 31 38.5t38 33.5q22 18 46 34l5 2q6 6 14 10q7 4 16 7.5t20 5.5q4 0 9 3q3 2 5 4l12 2l10 2t8 1
q4 0 6 -1t4 -1h9q22 0 33.5 -11t17.5 -25.5t8 -27t4 -15.5q2 -2 2 -12q0 -6 -0.5 -12t-2.5 -8q-2 -3 -2 -8t-1 -7l-2 -2q-1 -1 -1 -4q0 -1 -2 -3q-5 -10 -14 -26.5t-22.5 -33.5t-31 -31t-39.5 -17zM181 89q25 16 40.5 33t25.5 31q11 16 17 31q0 3 -0.5 5.5t-0.5 4.5
q0 8 -6 12t-11 4q-8 0 -15 -7q-1 0 -6.5 -2t-7.5 -4q-4 -5 -9 -8t-8 -8l-5.5 -6t-12.5 -14t-14.5 -17t-10.5 -15q0 -5 -4.5 -9t-5.5 -6q-2 -4 -2.5 -7t-0.5 -5q0 -3 0.5 -5t0.5 -3t1.5 -3.5t3.5 -4.5q4 -3 11 -3q12 0 20 6z" />
    <glyph glyph-name="A" unicode="A" horiz-adv-x="599" 
d="M556 320q1 1 4 7.5t6.5 13.5l6.5 13t4 7q2 1 3.5 6t4.5 10q1 1 3.5 5.5t5 9.5l4.5 9t2 5l2.5 5t5.5 10.5t5.5 10.5t2.5 6q5 11 12 27t13 30q7 17 14 35q-3 -3 -6 -7q-3 -3 -6 -7t-8 -9q-15 -20 -39 -46l-48 -52t-45 -48.5t-31 -33.5q-3 -3 -8.5 -9.5t-7.5 -7.5
q-1 -1 -3.5 -4t-5.5 -6q-4 -4 -9 -8h34q3 0 5 0.5t5 0.5q11 0 20.5 0.5t11.5 0.5l29 1zM281 130q-4 -7 -13 -10q-3 -6 -8 -11l-10 -12t-11 -8q1 -3 -9 -11t-22 -19q-3 -5 -9 -9.5t-14 -11.5q-16 -15 -32 -28q-14 -11 -28 -22.5t-24 -17.5q-4 -2 -10 -6.5t-23 -11.5
q-5 -1 -9 -3.5t-9 -3.5q-3 -2 -7 -1.5t-8 -0.5q-2 0 -3 -0.5t-3 -0.5q-5 0 -10.5 1t-10.5 7l-3 7l-3.5 3.5t-1.5 2.5q0 6 4.5 13t9.5 9l5 2q3 1 7 3t9 2h14q2 -1 8 -1q2 0 3.5 -0.5t4.5 -0.5q2 0 2.5 0.5t1.5 0.5l4 -1q1 0 1.5 0.5t1.5 0.5l8 2q12 0 54 25q1 1 4.5 3t7.5 6
q5 6 13 9.5t11 8.5q19 18 29 26q6 5 11 9l3 3q2 2 2.5 3t2.5 2q6 5 13.5 12.5l12.5 12.5l20 20q5 3 10.5 9.5t6.5 7.5q5 5 15.5 16t18.5 20l36 36l33 33l27 27h-61l-12 -2q-2 0 -4.5 0.5t-4.5 0.5q-3 0 -4 -1l-37 -3h-9q-2 0 -6 0.5t-9 0.5q-4 0 -8 -0.5t-9 -1.5h-4
q-9 0 -9 6t10 6q5 0 10 -0.5t11 -0.5q2 0 3.5 -0.5t2.5 -0.5q4 2 9.5 2h7.5q1 0 3 0.5t3 0.5h23q3 0 5 -0.5t4 -0.5h3h3q2 0 3 0.5t3 0.5q6 0 13 0.5t19 0.5h17q5 0 8 1h23l17 17q1 0 2.5 3.5t2.5 2.5q1 0 5.5 5.5t6.5 5.5q14 15 30.5 33.5t27.5 29.5q2 1 2 2.5t2 3.5
q2 0 8 7t9 9q1 0 5.5 4.5t10 11t11 14t8.5 13.5h2q2 0 3 1l25 33q2 2 7.5 6.5t7.5 9.5q9 14 16 20l11 12l53 69q4 2 7 2q6 0 7 -10t3 -18q0 -3 3 -4t3 -5q-3 -5 -4 -12.5t-9 -19.5l-4 -11q0 -2 -1 -3q-2 -1 -7 -10t-4 -11q0 -2 -5 -14t-10 -17q0 -5 -5 -7.5t-5 -7.5
q-5 -14 -7.5 -19l-4 -8t-4 -7t-8.5 -17l-2.5 -5t-1.5 -5q0 -1 -6 -10.5t-10 -16.5q-3 -5 -9 -17.5t-11 -26.5l-2.5 -2.5t-1.5 -2.5q0 -2 -2 -6l-4 -8l-6 -10q10 0 21 1q8 1 17 1.5t14 0.5t7 1q7 0 7 -6q0 -4 -5 -5q-4 -2 -28 -2q-4 0 -7.5 -1t-8.5 -1h-22l-14 -25
q-2 -5 -8 -15t-14 -26q-2 -4 -5 -6t-4 -9q-2 -7 -14.5 -29t-20.5 -44q-2 -5 -4 -9l-4 -8q-3 -4 -5 -8q-1 -3 -2 -5l-2 -4q-3 -7 -5.5 -12.5t-2.5 -7.5t-1 -3t-1 -3q-2 -6 -2.5 -9t-0.5 -8q0 -2 -0.5 -3t-0.5 -2q0 -2 0.5 -3t0.5 -2q0 -14 5 -19t15 -5l6 2q2 0 5 1l14 7
q-1 0 5 2q3 3 7.5 5t7.5 5l10 6q1 2 5 4l8 6l1 1q2 3 4.5 5.5t10.5 7.5l3 3q1 0 3 2l7 5q5 4 6.5 6t3.5 3q1 1 5 1q3 0 3 -3q0 -2 -6 -8l-5 -5q-1 -2 -2.5 -2.5t-3.5 -2.5q-9 -9 -29 -24l-3 -3q-2 -1 -10.5 -7.5t-19 -14t-21 -14t-16.5 -7.5q-2 0 -3.5 -0.5t-2.5 -0.5
t-5 -0.5t-7 -0.5q-2 0 -5 1.5t-5 1.5q-1 0 -2.5 -0.5t-2.5 -0.5q-8 0 -13 4.5t-8.5 11.5t-5 14t-1.5 12q0 2 0.5 3t0.5 3q0 14 5.5 27t7.5 15t2.5 6t0.5 7q0 1 1.5 4l2.5 5q3 4 6 11.5t5.5 14.5t4.5 12t3 5q2 1 3 5.5t3 5.5t5 9t5 10q2 1 1.5 3.5t1.5 4.5q5 5 8 12t6 12
q1 4 4.5 11t7.5 14t7.5 12.5t4.5 6.5q2 5 4 8t4 5q2 3 3 4l3 6h-34q-2 -1 -7 -1h-19q-2 0 -9.5 -0.5t-15.5 -0.5h-22l-18 -18q-2 -3 -8.5 -9t-14 -13.5l-15 -15t-10.5 -12.5q-17 -17 -31 -30q-6 -6 -11.5 -11t-10.5 -10l-10 -10q-5 -7 -10.5 -13.5t-10.5 -9.5z" />
    <glyph glyph-name="B" unicode="B" horiz-adv-x="488" 
d="M214 320q-9 -4 -18.5 -7t-22.5 -3q-19 2 -35.5 14t-16.5 32l-2 14q0 2 0.5 4.5t0.5 4.5q0 3 1 4.5t2 3.5v6l3 10q3 11 7 16.5t6 10.5t5.5 6t3.5 4q0 2 16 21t48 45q5 4 11 8.5t12 8.5q2 1 1.5 1.5t1.5 1.5q8 5 15.5 9.5t17.5 11.5q6 5 11.5 7.5t11.5 7.5q3 2 9 4.5l12 5
t11 4.5t6 3t6.5 3t13 4t14 4t8.5 3q6 4 16.5 5t18.5 1l5 1q1 1 4 1q1 0 2 -0.5t2 -0.5h1h6q9 0 28.5 -4t43.5 -28l8.5 -8.5t5.5 -12.5q0 -2 6.5 -10.5t10.5 -20.5q6 -20 6 -40q0 -12 -1.5 -22.5t-3.5 -18.5q-2 -10 -4 -17l-3 -3q0 -5 -4 -9.5t-4 -8.5q-6 -10 -14 -20.5
t-22 -18.5q-7 -4 -7.5 -5t-4.5 -4q1 1 -4 -1t-11.5 -4.5t-12 -5t-5.5 -3.5t-3 -1q-9 -2 -19.5 -4t-18.5 -3t-13 -1.5t-3 -0.5q8 -2 15 -4l12 -4l9 -3q9 -5 15.5 -9t11.5 -9q11 -9 15.5 -19.5t4.5 -14.5q0 -2 4 -17.5t4 -33.5v-5q0 -1 -1 -3.5t-2 -6.5l-2 -10v-1
q0 -1 0.5 -1.5t0.5 -2.5q0 -4 -0.5 -11t-5.5 -18q-1 -2 -0.5 -3t-1.5 -3q0 -1 -2 -5t-4.5 -8.5t-4 -8.5t-1.5 -5q-1 -6 -5 -12.5t-5 -11.5q-1 -3 -6.5 -11.5t-14.5 -19.5t-19 -21.5t-20 -16.5q-2 -1 -4 -3.5t-3 -3.5q-11 -8 -24 -14t-27 -6q-2 0 -5.5 -1t-5.5 -1
q-5 0 -8.5 -0.5t-8.5 -0.5q-2 0 -4.5 0.5t-4.5 0.5q-15 0 -25.5 5.5t-17.5 12t-10 12.5t-4 7q-5 7 -9 17.5t-9 21.5q-3 7 -7.5 12.5t-4.5 7.5q-6 9 -11.5 13.5t-13.5 5.5h-5q-14 0 -29 -9.5t-37 -35.5q-4 -6 -12.5 -19.5t-17.5 -35.5q-3 -8 -5 -8t-7 -4q-2 -1 -5 -1
q-6 0 -11 4.5t-10 4.5q-6 2 -6 10v10q14 23 23.5 30.5t10.5 9.5t1 5t2 2q1 0 3 2q1 1 1 2q2 2 5 6l4 6t4 7l2 4q3 6 6 10t4 6q15 26 21.5 34t6.5 12t5 11l6 8l2 4q2 4 2 5q0 2 1 4t2 2q1 1 7 9.5t13.5 19.5t15 23.5l13.5 22.5q0 1 1.5 6t3.5 5q2 -1 3.5 5t4.5 8q2 2 5 6l6 8
q4 4 7 10zM149 157q-5 -6 -16 -24t-25 -37q-6 -8 -9.5 -13.5t-6.5 -8.5q4 3 12 12t20 19t26.5 18t31.5 9q13 -1 22 -5t15 -8.5t8.5 -9t2.5 -5.5q2 -5 4 -5t2 -5t1 -7q2 -4 5.5 -10.5t7.5 -11.5q2 -3 1.5 -5t1.5 -3q5 -4 8 -12.5t7.5 -17t12.5 -15t22 -6.5q6 0 12.5 3.5
t12.5 8.5t10.5 9.5l7.5 7.5q8 8 25 29t31 46q20 35 25.5 64t7.5 48v22q0 9 -3 18q-1 1 -1 2.5t-1 3.5t-2 3q0 7 -6.5 14.5t-14.5 15.5l-3 3q-8 5 -19 9.5t-22 4.5q-1 0 -1 1t-3 1q-4 1 -10 1q-17 0 -20.5 -5.5t-5.5 -5.5t-2.5 -1.5t-2.5 -1.5q-3 -1 -5 -1.5t-4 -0.5
q-11 0 -20 7.5t-9 10.5q1 10 14.5 15.5t17.5 5.5q2 0 4 -1.5t5 -1.5t8 1q3 0 5 -1.5t4 -3.5t8.5 -1.5t11.5 -0.5h4q4 0 7 0.5t7 0.5q25 0 42 6t29 17q2 2 4.5 3t2.5 4q0 1 1 1.5t3 2.5q23 26 29 46.5t8 39.5v32q0 1 -1 6t-1.5 10t-1.5 9t-1 5q0 2 -2.5 8t-2.5 9q0 5 -4 12.5
t-6 9.5q-11 12 -21.5 18t-15.5 6h-5q-3 2 -8 2.5t-10 0.5q-9 0 -17 -1l-16 -2q-5 0 -21 -4t-37.5 -13t-44.5 -22.5t-41 -32.5q-1 -1 -2 -0.5t-3 -1.5q-34 -35 -53.5 -63t-24.5 -54q-2 -10 -2 -12q0 -1 -0.5 -1.5t-0.5 -2.5v-6q0 -6 4 -13.5t8 -11.5q11 -11 21 -14t18 -3
q10 0 16 3l3 3q1 1 2 3q8 15 15 26q6 10 11 18t5 9q0 2 2.5 5t4.5 5q5 3 5 11q6 10 11 17q4 6 7.5 11t3.5 6q0 4 4 8t4 5t1.5 4.5t4 8t4.5 8.5l2 4q0 2 2 3.5t3 3.5q5 9 7.5 14.5t2.5 8.5q-1 2 -1 7q0 11 10 15.5t19 5.5q19 0 19 -22q0 -2 -0.5 -4.5t-0.5 -4.5
q0 -5 -1.5 -10t-5.5 -7q-5 -1 -4.5 -4.5t-7.5 -7.5q-4 -1 -9.5 -9t-11 -17t-10 -17.5t-5.5 -9.5q-3 -4 -7 -13t-13 -18q-2 -2 -5.5 -8.5t-3.5 -8.5t-2.5 -5.5t-4.5 -6.5q-1 -2 -4 -4t-3 -6l-2 -4q-8 -11 -16 -24t-14.5 -24.5t-10.5 -19.5t-5 -8t-5 -6t-8 -13t-7.5 -13
t-4.5 -7q-9 -11 -15 -25t-8 -16t-4.5 -6.5t-4.5 -6.5t-6 -8.5t-12 -17.5z" />
    <glyph glyph-name="C" unicode="C" horiz-adv-x="296" 
d="M425 531q-5 11 -16 19t-29 10h-16q-2 0 -4 -1t-4 -1q-8 0 -12.5 -1.5t-5.5 -1.5l-9 -3q-33 -8 -72 -41.5t-74 -79.5q-2 -2 -4.5 -7t-6.5 -7q-2 -1 -5 -4.5t-5 -6.5l-4 -9q-1 -4 -8 -12.5t-16 -21.5t-18.5 -30t-16.5 -38q-2 -4 -2 -7q0 -1 -2.5 -3t-2.5 -4q0 -5 -2 -9
t-4 -10q0 -2 -2.5 -8.5t-5 -13.5t-4.5 -13t-2 -7q0 -2 -1.5 -5t-1.5 -6q0 -2 -1 -3t-1 -3v-4q0 -3 -0.5 -7t-0.5 -6q-2 -4 -3 -10t-1 -9v-51q2 -17 6 -32q0 -1 3 -7t3 -7q8 -22 17.5 -29t9.5 -9q1 -2 7 -4t7 -4q0 -2 3 -2q1 -1 2 -1l3 -1q3 -2 11.5 -3t13.5 -1
q11 1 17.5 1.5t14.5 2.5l10 2q20 7 31 12.5t21 13.5q2 2 6.5 5.5t5.5 2.5q1 0 6.5 5t13 11.5t14 12.5t9.5 6q2 0 2.5 -2t0.5 -3q-2 -3 -5 -6.5t-5 -5.5q-4 -5 -13.5 -14.5t-11.5 -8.5q-1 0 -2 -1.5t-3 -2.5q-2 -2 -9.5 -9t-21.5 -15l-6 -4t-6 -3q-2 -2 -10 -6.5t-14 -6.5
q-14 -7 -30 -10t-25 -3q-3 0 -4 1q1 0 -3.5 -0.5t-9.5 -0.5q-8 0 -11 1q-1 0 -1.5 0.5t-1.5 0.5l-3 2h-4q-9 1 -15 3t-11 4q-5 3 -9 5q-1 0 -1.5 1t-1.5 1q-5 2 -7 6t-5 6q-4 4 -9.5 13t-6.5 11q0 7 -3 10.5t-4 7.5l-2 7q-2 2 -3.5 6t-1.5 8l-1 5q-1 2 -1 4q-1 2 -1 7l-1 5
q-1 7 -1 13.5v13.5q0 33 4 56t6 25q1 1 2 5.5t2 9.5t2 9t2 5q3 1 3 7q12 31 22 48.5t11 19.5q5 3 9 14t8 11l3 5q17 27 40.5 56t45.5 49l4 4l5 5q1 2 3.5 3.5t4.5 3.5q3 2 5 4q8 5 16 15.5t10 10.5l2 1q1 0 2 1q0 1 2 2q1 1 2.5 2t3.5 3q4 3 9 7q1 1 5 4.5t9 7t9.5 6
t5.5 3.5q2 1 2.5 2.5t1.5 2.5l2 2q3 1 11.5 7t22 13.5t32 14t39.5 8.5q2 0 4.5 -0.5t3.5 -0.5l8 1l15 -4q8 -2 14 -6t7 -6q2 -2 5 -4.5t5 -5.5q7 -8 9.5 -16.5t4.5 -10.5q1 -2 1 -5q0 -7 1 -10v-10q0 -9 -1 -22.5t-7 -25.5q-4 -9 -9 -16.5t-10 -13.5q-5 -7 -11 -13l-9 -8
q-22 -17 -42 -22t-35 -5q-11 0 -14 1q-3 0 -5 1q-5 1 -14 1.5t-17 3.5q-2 2 -7 3t-6 6v4q0 1 -1 2t-1 2q-1 2 -3 3t-2 3q0 1 -3 4v6q0 1 -0.5 1.5t-0.5 1.5q0 2 3 5q2 2 2 4t2 4q3 2 5 4t5 3q1 0 2.5 -1t2.5 -1q2 1 4 1q4 0 8 -3.5t5 -3.5q3 0 4.5 -4t3.5 -5q7 -5 7.5 -12.5
t10.5 -11.5q9 -9 22 -9q8 0 16.5 1.5t12.5 3.5t8.5 3t8.5 5q1 2 5 4q3 3 4 3l3 2l4 4q8 7 11.5 15t6.5 14q0 2 1 5q2 6 2 14q0 1 1 2.5t1 3.5q-1 5 -1 6v2l-1 16q0 5 -2 9q-1 2 -1 4q0 7 -1 11l-3 7q-2 2 -2 3z" />
    <glyph glyph-name="D" unicode="D" horiz-adv-x="503" 
d="M338 589q3 0 7 2l4 2q16 8 37 11t33 3q10 0 10 -2q0 -1 5 -1.5l10 -1l10 -1l5 -0.5q24 -10 35.5 -26t22.5 -43q2 -4 2 -6.5t2 -4.5q1 -1 2.5 -6t3 -10.5t2.5 -10.5l1 -5q2 -2 2 -7v-6q0 -4 4 -19t4 -50q0 -6 0.5 -12.5t0.5 -14.5q0 -5 -0.5 -10.5t-1.5 -11.5l-4 -30
q0 -8 -1 -18.5t-3 -12.5q-2 -5 -1.5 -7.5t-2.5 -6.5q-1 -1 -1 -4q0 -2 -0.5 -3t-0.5 -3q-1 -2 -1 -3q-2 -2 -2 -6.5t-2 -11.5l-6 -20q-7 -21 -16.5 -40.5t-18 -35t-15.5 -25t-8 -11.5q-3 0 -11 -15q-2 -3 -5 -5.5t-5 -5.5t-12 -16t-26 -27l-5.5 -5.5t-5.5 -4.5
q-2 -2 -15.5 -14t-33.5 -18q-11 -8 -25 -10.5t-25 -2.5q-17 0 -22 1q-4 1 -7 2q-22 5 -35.5 28.5t-27.5 66.5q-3 8 -10 10.5t-16 2.5q-13 -2 -17.5 -5.5t-10.5 -5.5q-5 -2 -7 -4.5t-4 -4.5q-20 -18 -28 -30t-15 -20l-4 -2v-4q0 -2 -1 -3q-3 -3 -3 -6q0 -2 0.5 -2.5t0.5 -2.5
q0 -3 -2 -5q-4 -5 -12 -11.5t-14 -6.5q-4 0 -9 4t-10 9q-2 2 -3.5 2.5t-1.5 3.5q0 4 2 7t2 4q0 2 0.5 2t0.5 2q0 4 3 6q2 1 2.5 2.5t2.5 3.5q6 4 11.5 10.5t9.5 12.5t6.5 10.5t3.5 5.5q1 2 1.5 5t1.5 2q11 18 23.5 38t28.5 48q2 4 6.5 10.5t8.5 13.5t7.5 12.5t3.5 7.5
q1 2 2.5 4t1.5 3v2q0 1 1 1l27 41q-6 -2 -11 -5q-5 -2 -10.5 -4t-10.5 -2q-6 -2 -11 -2q-14 0 -27 6t-16 14q0 1 -4.5 8.5t-5.5 9.5q-1 3 -1 11v13q0 11 2.5 24t6.5 24t8 19t6 10q2 1 2 3t2 6q5 9 11 20t9 12q2 2 3.5 5t3.5 6q37 47 76.5 74t68.5 44q2 -1 6.5 3t6.5 6
q1 1 6 1l2 1q1 0 1 1q7 3 13 7q5 2 9.5 4.5t6.5 2.5zM211 250l-23 -39q-1 -3 -3 -6q-2 -2 -3 -4.5t-3 -3.5t-6.5 -9t-10.5 -19q-2 -2 -2.5 -4t-2.5 -4q-3 -3 -4 -5.5t-7 -9.5l-11 -19q-2 -3 -3.5 -6t-3.5 -5q-2 -3 -4 -5q-2 -4 -6.5 -10.5t-9.5 -13.5q-6 -8 -13 -18l14 16
q6 7 14 15t18 16q13 9 25.5 14.5t26.5 5.5q7 0 11 -2t6 -4h4q5 0 5 -3q1 -2 3.5 -4t2.5 -4q0 -4 2 -5q8 -6 11 -22.5t8 -34.5t15 -33t33 -18q11 0 21 7.5t12 8.5q1 2 4 4t5 4q5 6 8 8.5t6 4.5q13 11 15.5 16.5t8.5 11.5t11.5 12t9.5 16q2 5 5.5 5t4.5 7q11 12 16 23t8 16
q13 21 22.5 41t16.5 36.5t10.5 27t3.5 13.5q4 4 4 8t4 19t4 19q0 3 1 8.5t3 8.5q2 8 3 20.5t1 20.5v5q0 -1 1 2t1 8q0 12 -0.5 34.5t-4.5 48t-11.5 50.5t-20.5 42q-3 5 -7 8t-5 4q-11 11 -21 14t-24 3q-5 0 -9 0.5t-9 0.5q-6 0 -11.5 -1t-12.5 -1q-6 -2 -21.5 -7.5
t-23.5 -11.5q-3 -2 -7 -4t-6 -5q-2 -2 -6 -3.5t-6 -3.5q-12 -8 -26 -19.5t-28 -23.5t-26.5 -24.5t-20.5 -22.5l-3 -3q-1 -2 -2 -3q-3 -3 -7 -10l-6 -10q-2 0 -8.5 -9t-14 -22.5t-14.5 -28t-10 -25.5q-2 -7 -3.5 -16.5t-1.5 -17.5q0 -2 -0.5 -4t-0.5 -4q1 -12 4.5 -19
t9.5 -12q8 -7 21 -7q11 0 18 1.5t12 3.5q8 10 13 19q5 8 8.5 14.5t4.5 8.5q1 4 5 9.5t8 11.5t7.5 12t3.5 10q0 2 2 3q3 0 3 2v2q2 4 3 3t1 1t6 9q2 3 4.5 7.5t7 12t11 19.5t17.5 32q1 2 3 5q4 6 6 10v5q1 2 5 6q0 2 1 4q6 9 6 21l3 6q0 3 -1 6q0 4 1 6t2 3q1 0 3 1l4 2
q2 -1 8.5 -6t10.5 -7q4 -1 8.5 -7t4.5 -13q-2 -13 -5.5 -17.5t-5.5 -5.5q-1 -1 -2.5 -2t-3.5 -3l-2 -4t-3 -4l-3 -3q-4 -6 -8.5 -14.5t-9 -16.5t-8 -13t-4.5 -5l-21 -35q0 -3 -1.5 -5t-3.5 -4q-3 -5 -5 -9.5t-7 -10.5q-2 -2 -3.5 -5.5t-3.5 -6.5l-6 -10q-9 -18 -20.5 -34.5
t-17.5 -26.5z" />
    <glyph glyph-name="E" unicode="E" horiz-adv-x="349" 
d="M147 -10q-29 2 -53 13.5t-41 38.5q0 2 -2.5 6t-2.5 7l-3 5q0 1 1 1.5t1 1.5q0 -1 -2 3q-3 3 -3 6q0 2 -2 4.5t-2 3.5q-1 1 0.5 2t1.5 3q0 1 -0.5 1.5t-0.5 1.5q-1 4 -2.5 8t-1.5 8q0 5 -0.5 9t-0.5 9q0 14 2.5 26.5t8.5 31.5q0 2 3 5l2 2q0 7 3 10l2 5q0 1 1 1t1 2
q0 6 5 14.5t11 16.5t11.5 14t7.5 7q3 2 3.5 5t2.5 2q2 0 5 5.5t14 15.5q14 11 22 16.5t11 7.5t6.5 4t7.5 4q4 3 9 5q3 0 5 1q2 0 4 1l10 4q4 2 8 3.5t6 1.5q5 0 13 3t10 4q11 4 26 6.5t29 4.5q17 2 35 3q-12 1 -25 8t-24.5 18t-19 25t-8.5 29v8t-2 7v4q0 3 0.5 7t2.5 6
t2.5 6t1.5 7q2 2 2 4t2 3t4.5 5t3.5 7q2 8 9.5 15.5l15.5 15.5q4 4 10.5 8.5t12.5 8.5q7 4 15 9q2 2 5.5 3.5t8.5 4.5q7 3 10 5t5 2h4q3 0 6 3q2 2 5.5 2.5t8.5 2.5t10 3.5t7 1.5q3 0 7 1t7 1l20 -1q7 0 11 -1q16 -4 26 -7.5t12 -5.5q11 -5 19 -13.5t12 -15.5q4 -8 6.5 -15
t2.5 -21q0 -6 -1 -8l-1 -10q0 -9 -4 -15t-5 -10q-1 -5 -14 -19.5t-29 -18.5l-10 -3q-12 -3 -23 -3q-27 0 -47 14q-11 8 -19 16t-8 12q-5 4 -5 12v7q0 4 1 6q3 5 3.5 7t2.5 4l6 5q3 3 8 4h8q2 2 5 2q5 0 9 -4t6 -9q-1 0 -1 -1v-2q0 -2 0.5 -2.5t0.5 -1.5q2 -2 2 -8
q0 -2 -2 -6q-2 -2 -4 -6q0 -1 -0.5 -1.5t-0.5 -1.5t-0.5 -1.5t-0.5 -2.5q1 -6 1.5 -11t2.5 -7q5 -8 13.5 -11.5t13.5 -3.5q3 -1 8 -1h7q2 0 3 1q16 2 24 11.5t12 15.5q0 1 1 3q0 2 2 4q2 4 3 12t1 10q0 1 -0.5 6t-0.5 7q0 9 -2.5 13.5t-2.5 6.5q0 9 -8 17.5t-12 10.5
q-3 3 -5 5.5t-4 2.5q-4 0 -5 1t-1 2q-4 0 -13 4.5t-11 4.5q-8 2 -14.5 2.5t-13.5 0.5q-23 0 -36.5 -7t-14.5 -8t-6.5 -3t-11.5 -7q-18 -15 -29 -42.5t-11 -49.5q0 -9 1 -12l-1 -8q5 -36 20 -50.5t31 -17.5q2 0 4.5 -1t4.5 -1h5q2 0 3 -1t3 -1h25q3 0 5.5 1t4.5 1q6 0 7.5 1
t5.5 1q5 0 10 -2q4 -2 9 -6q1 -1 1 -3q0 -4 -3 -7t-3 -5q0 -8 -8 -12.5t-11 -5.5q-2 -1 -5 -2q-2 -1 -4.5 -1h-4.5q-3 0 -4 2t-5 3q-2 1 -6 6t-9 5q-2 0 -5 4t-15 4q-4 0 -8.5 1t-9.5 1q-2 0 -4 -0.5t-4 -0.5h-5q-26 -5 -37.5 -9.5t-14.5 -4.5t-14.5 -6.5t-15.5 -6.5
q-2 0 -8.5 -3t-13.5 -7t-13.5 -8.5t-7.5 -7.5q-1 -2 -4 -4t-5 -2t-15 -11.5t-33 -31.5q-2 -2 -2.5 -5t-2.5 -2q-2 0 -2 -2t-1 -3l-7 -11q-14 -17 -22 -42t-8 -49q0 -9 1 -14v-11q0 -4 1.5 -7t1.5 -5q0 -1 2 -9.5t5 -13.5q3 -4 3 -3.5t2 -1.5v-4q0 -2 11.5 -14.5t31.5 -22.5
q2 -1 5 -1.5t4 -1.5q5 -3 7.5 -3.5t4.5 -0.5h4l7 -1q4 -1 11 -1h15q6 0 13 1.5t9 1.5q1 0 15.5 3.5t23.5 7.5q1 0 5 2q2 2 3 2t6.5 4t10.5 6q2 0 4 2q3 1 6 4l4 3q6 4 5 4l24 19l4 4l12 10l3.5 3.5t3.5 1.5q4 0 4 -3q0 -2 -5 -7l-37 -34q-14 -14 -32 -25t-25 -13l-13 -6
q-3 -1 -4.5 -2.5t-3.5 -1.5t-3 -1t-3 -1q-11 -3 -26 -6t-39 -3z" />
    <glyph glyph-name="F" unicode="F" horiz-adv-x="273" 
d="M209 196l-6 -8q-3 -6 -6 -11.5t-3 -6.5l-27 -44q-2 -2 -2 -3t-2 -2q-8 -13 -14.5 -25.5t-12.5 -22.5q-2 -10 -6 -10l-5 -10q-3 -5 -6 -10.5t-3 -6.5l-21 -30q-2 -5 -5 -8t-3 -4l-4 -2l1 -3l-4 -6q-1 -2 -5.5 -7.5t-10.5 -13t-13 -15.5t-13 -15q-7 -8 -15.5 -15.5
t-9.5 -6.5q-1 0 -2 -2.5t-3 -2.5q-5 0 -10.5 -5t-6.5 -5q-3 -1 -13.5 -3.5t-27.5 -2.5q-1 0 -7 1.5t-7 3.5l-6 4q0 3 1.5 6.5t8.5 3.5q2 -1 3 -5t3 -5q6 -2 8 -2q11 0 25.5 11.5t26.5 25.5q14 17 29 38l8 13q3 3 5 8q0 2 1 3l3 3l4 7l2 3l3 4q3 5 4.5 11t6.5 11l3 3l2 4
q0 2 0.5 2t1.5 2l48 82q1 3 5 10.5t8.5 14.5t8.5 13l4 6q3 1 3 4t1 3q0 1 1 2t1 2t2 3l51 83h-28h-12.5t-12.5 -1l-29 -1q-3 0 -6.5 -1t-8.5 -1t-8 1q-2 0 -2 4q0 3 -2 5q-6 3 -6 5q0 3 8 3l41 -2q8 1 10 1h3h6q3 0 5 1q1 0 2 0.5t3 0.5t4.5 -0.5t4.5 -0.5q10 0 21 1.5
t17 1.5q2 5 5 9.5t5 9.5q1 2 2.5 3t3.5 6q1 1 8 12.5t16.5 27.5t19.5 32.5t17 28.5l6 13q2 5 5 9t4 6l38 61q2 3 6 11.5t7 10.5q0 2 1 4t1.5 4t2.5 4q-5 -3 -10.5 -7.5t-11.5 -6.5q-4 -2 -6 -2l-7 -4q-10 -7 -21 -8q-1 0 -1.5 -0.5t-1.5 -0.5l-14 -3.5t-27 -2.5h-6h-10
t-10 2q-13 2 -23 10.5t-14 13.5q-6 7 -8.5 16.5t-2.5 19.5q-6 -2 -11 -9q-5 -6 -11 -17.5t-13 -32.5q0 -2 -0.5 -7.5t-3.5 -5.5q-5 -1 -7.5 -8.5t-4.5 -16t-3.5 -15.5t-5.5 -7h-4q-2 0 -3 -1q-8 -4 -14 -4q-8 0 -10.5 6t-2.5 12q0 7 1 8q3 3 2.5 7t1.5 6q10 8 11 17t6 9l1 1
q0 1 1 2q2 1 7 5t12 18q0 3 2 3q1 0 5.5 5.5t10.5 12.5t12.5 13.5t11.5 9.5q2 2 1.5 3t3.5 3q3 0 5.5 3.5t2.5 8.5q0 3 7 3q6 0 11.5 3.5t8.5 3.5q8 0 12 -5t4 -11q0 -9 -6 -10q-2 -1 -6 -7t-4 -17v-6q1 -10 7.5 -20.5t17.5 -12.5q4 -1 6.5 -1.5t5.5 -0.5h8q6 0 20 3l7 2
q2 0 4 1l4 2q3 1 6.5 3t4.5 2q5 0 12 5t11 7q26 17 40.5 30t21.5 19q1 2 1 5t2 4q4 3 10 7t14 4q4 0 6 -1v-4q6 2 9 2q5 0 5 -9t-6 -22.5t-19 -22.5q-2 -2 -6 -9.5t-6 -10.5t-7 -14.5t-22 -29.5q-3 -2 -2.5 -3.5t-1.5 -4.5q-5 -8 -9 -16t-6 -10t-5 -6t-4 -7q-1 -2 -4.5 -7
t-3.5 -7q0 -1 -4 -5.5t-5 -8.5q0 -3 -6 -6.5t-5 -6.5q0 -4 -7.5 -17t-12.5 -18q-6 -5 -5.5 -7t-1.5 -4q-14 -22 -22.5 -36.5t-17.5 -29.5q8 0 15 -0.5t12 -0.5q2 0 4 0.5t6 0.5t7.5 0.5t8.5 0.5q2 0 7 -0.5t10 -0.5q8 0 12 1q5 1 12 1h9q6 0 6 -3q0 -2 -2 -4
q-1 -2 -5.5 -7.5t-9.5 -5.5q-3 0 -5 1q-2 2 -4 2t-5.5 -0.5t-6.5 -0.5q-5 2 -8.5 2h-6.5h-7q-11 0 -13.5 -0.5t-6.5 -0.5h-31q-4 0 -6 -1z" />
    <glyph glyph-name="G" unicode="G" horiz-adv-x="339" 
d="M394 416q-7 -4 -13 -8t-12.5 -8t-14.5 -6q-10 -7 -17 -9.5t-11 -2.5q-3 0 -7.5 -3.5t-7.5 -3.5h-2q-1 0 -7 3q-6 0 -11.5 -2t-11.5 -2q-4 0 -6 1l-3 3q-1 2 -6.5 5.5t-7.5 5.5t-2.5 5.5t-2.5 6.5q-1 1 -1 4q0 4 3 10q2 6 4 6q2 2 9.5 3.5t12.5 1.5q2 0 2.5 -0.5t1.5 -0.5
q4 -2 6.5 -4.5t4.5 -3.5q7 -2 10 -6.5t8 -6.5q3 -3 7 -3q15 0 30 4t26 9l6 4q12 7 24 16t21 23l3 3t7 9q12 18 16.5 31t4.5 29q0 9 -6 21t-23 12h-10q-5 -1 -11.5 -2t-14.5 -3q-25 -8 -41.5 -15t-30 -15t-26 -18t-28.5 -24q-29 -25 -54.5 -58.5t-48.5 -66.5q-2 -2 -3 -5
t-3 -5q-2 -1 -10 -13.5t-18.5 -32t-21.5 -44t-18 -48.5q-1 -2 -3.5 -12t-2.5 -18q0 -2 -0.5 -4t-0.5 -5v-5q0 -11 -2 -15q0 -1 1 -3t1 -4q0 -15 12 -23.5t26 -8.5q12 0 23 6q2 1 3 0.5t2 1.5q3 3 6 3t9.5 4t13 8.5t12 8.5t8.5 5q6 3 16.5 12t18.5 15q1 1 6.5 6t11.5 11
l11.5 11.5l7.5 7.5q23 24 33 37.5t18 22.5q7 10 12 19q5 8 9 14t6 8q1 0 3 6t5 9q18 20 23 32q3 6 3 12q1 1 2 3q3 3 5 3t3 -1q3 -4 3 -5.5t5 -3.5q3 -1 10 -8t7 -12q0 -4 -5 -7q-3 -2 -7 -7.5t-8 -11.5t-7.5 -11.5t-3.5 -7.5l-3.5 -10.5t-3.5 -4.5q-1 0 -3 -4t-4 -6
q0 -1 -7 -11t-16 -23.5t-18.5 -27.5t-15.5 -24q-2 -4 -5 -7.5t-3 -5.5t-8 -14t-12 -19q-2 -2 -5 -4.5t-3 -4.5t-3 -6.5t-6 -9.5q-4 -6 -9 -13q-2 -2 -7 -12l-6 -12q-10 -15 -14.5 -24t-11.5 -20l-40 -69l11 7q0 2 5 5t11 7q7 4 17 9q11 8 24.5 18.5t16.5 12.5q16 12 26.5 20
t16.5 13.5t9.5 8t5.5 2.5q2 4 8.5 9t7.5 5q3 0 3 -3q0 -1 -3 -4q-6 -7 -17 -17q-10 -8 -26 -20.5t-39 -29.5q-16 -11 -34 -24t-44 -29l-5 -3q-7 -11 -11 -20q-4 -8 -7.5 -14t-3.5 -8l-33 -62q0 -2 -3 -6.5t-6 -10t-5.5 -10.5t-3.5 -6l-3 -5q0 -1 -2 -3q-8 -13 -15 -28.5
t-17 -26.5q-1 -1 -5.5 -11t-6.5 -11q-3 -2 -4 -4t-5 -8q-2 -2 -9.5 -11.5t-16.5 -20.5t-17 -21.5t-11 -14.5q-2 -2 -13 -14t-20 -19q-8 -10 -20.5 -16.5t-20.5 -7.5q-11 0 -17.5 3t-12.5 9q-1 2 -1.5 6t-2.5 6q0 1 -0.5 4.5t-0.5 8v8.5v5t0.5 2.5t0.5 3.5q0 5 4.5 19t9.5 24
l2 8q2 7 5 10q-2 0 1 3l2 2q20 32 44.5 66t55.5 59q11 9 17.5 15t11.5 7q4 1 5.5 4.5t3.5 4.5q1 0 6.5 4t11 9.5t10.5 9.5t6 4q5 2 10.5 6.5t10.5 10.5l6 3l2 3q2 2 7.5 5.5t10.5 6.5l12 8l39 74q11 15 14.5 26.5t7.5 11.5q0 2 0.5 4.5t2.5 3.5q3 2 6 8.5t5 8.5q1 1 1 2t1 2
q0 1 1 2q7 15 13 26q5 10 10 18t7 10q3 2 5 8.5t6 9.5q2 1 2 3t2 3q2 6 5.5 11.5t4.5 7.5q3 3 10 17q4 7 8 15l-20 -20l-16 -16t-12 -11q-16 -14 -27.5 -25t-29.5 -20q-5 -7 -17 -13.5t-19 -9.5q-6 -2 -14.5 -6t-20.5 -6q-2 0 -4.5 -0.5t-4.5 -0.5h-12q-6 0 -9.5 0.5
t-6.5 0.5q-8 2 -15 6t-11 8q-2 2 -3 4.5t-6 8.5q-2 3 -4.5 11.5t-2.5 24.5v13l1 5q0 14 4.5 31t9.5 32q6 17 15 34q1 2 3.5 5.5t4.5 6.5q17 29 30.5 47.5t15.5 19.5q3 2 3 3t1 3q0 1 6 6t15 19q2 3 10 11.5t11 10.5l8 8q2 2 2 3q1 0 16.5 15t35.5 34.5t41.5 38t34.5 24.5
q3 2 12.5 11.5t17.5 11.5l1 1q1 0 1.5 0.5t1.5 0.5q8 6 18.5 12.5t28.5 12.5q8 3 10.5 4.5t5.5 3t8 3t17 3.5q3 1 8 1q11 0 17 -3q4 -2 11 -1.5t15 -10.5q2 -2 7.5 -11t5.5 -30q0 -7 -1 -12.5t-4 -14.5l-6 -12q-6 -10 -12.5 -20t-22.5 -23q-1 -2 -7.5 -7.5t-14 -11.5
t-13.5 -11t-7 -5t-2.5 -1.5t-2.5 -1.5zM99 -91q-1 0 -5.5 -3t-5.5 -5q-33 -22 -61 -50q-24 -24 -48.5 -57t-36.5 -73q-2 -2 -2 -3v-2q-1 -1 -1 -2q-1 -1 -1 -2v-1q0 -3 -1 -4.5t-1 -2.5t-1.5 -6.5t-3 -13l-3 -15t-1.5 -12.5q0 -4 1 -5q2 -4 2 -6q0 -3 1 -4q2 -2 3 -2
q2 0 3.5 -0.5t3.5 -0.5q4 0 9.5 1t10.5 5l16 14l15 18q7 8 20.5 32t26.5 50t23.5 46t11.5 21q2 2 4.5 6t2.5 6l49 95q-3 -1 -5 -3l-3.5 -3.5l-2.5 -2.5l-12 -7q-6 -8 -8 -8z" />
    <glyph glyph-name="H" unicode="H" horiz-adv-x="500" 
d="M324 424q1 2 9.5 17t19.5 33q12 21 27 48q-5 -6 -11 -10q-5 -4 -13 -7t-19 -3h-8q-6 0 -13.5 1.5t-13.5 9.5q-3 4 -5 3t-2 3q0 1 -1.5 2.5l-2.5 2.5q-5 5 -7 11q-1 3 -1 6q-6 -5 -10 -12q-4 -6 -7.5 -14t-4.5 -19q-1 -4 -1 -5t-6 -4q-1 0 -2 -5.5t-1.5 -11.5t-2 -11
t-4.5 -5q-14 0 -20 -6.5t-9 -6.5t-11.5 4t-8.5 12q0 2 2 6t2 9.5t2 5.5t4 6q0 7 7.5 14t9.5 8q12 3 21 12t15 18.5t10 17.5l5 10q2 4 11.5 9.5t16.5 5.5q6 0 6 -5q0 -4 -2.5 -8.5t-2.5 -5.5q1 -1 -1.5 -1t-2.5 -9q0 -5 1.5 -12.5t9.5 -15.5q2 -2 5.5 -4.5t7.5 -3.5
q2 -1 5.5 -1h6.5q1 0 2 0.5t3 0.5q12 0 23.5 7.5t22.5 21.5q3 4 5 4t3 5q1 3 1.5 3.5t0.5 2.5l3 3q1 2 2 2.5t1 1.5q0 4 1 4t2 2q1 1 6 4q11 4 18 4q8 0 8 -3t1 -3t4.5 -2.5t4.5 -7.5q0 -2 -2 -7l-4 -10t-4.5 -9.5t-5.5 -4.5q-1 0 -2.5 -4t-2.5 -5q-5 -13 -12.5 -22
t-9.5 -14q-2 -6 -5.5 -13t-7.5 -13l-7 -10.5t-4 -4.5q-5 0 -4.5 -6t-3.5 -6q-2 0 -4 -4l-4.5 -9l-4.5 -9t-2 -5q-2 -3 -5.5 -9t-5.5 -6q-1 0 -3 -4.5t-4.5 -9.5t-4.5 -9.5t-2 -5.5q-5 -5 -7 -10t-4 -9q-4 -5 -9.5 -14t-11.5 -19q-7 -11 -14 -24l73 3h16h9q3 0 8.5 0.5
t10.5 0.5h45l15 25q7 11 15.5 25.5t17.5 28.5l1 2q0 1 1 2q2 2 8.5 14t17.5 32q1 2 4 5t2 4q-1 2 3 7.5t6 7.5q4 9 11.5 21t14.5 23.5t12.5 20t5.5 10.5q2 0 2.5 3t2.5 4t5 7.5t8 6.5q1 0 4.5 5.5t11 13.5t19 16.5t29.5 15.5q3 2 4 3.5t4 1.5h4q5 0 10 3t13 3t17 -5
q14 -7 18 -13t4 -11q0 -3 -1 -5t-1 -3q-1 -2 -4 -2t-5 2l-2 2l-8 2q-7 2 -9 5q-2 4 -5.5 7.5l-4.5 4.5q-3 3 -7 3q-7 0 -15 -7t-16 -15q-9 -10 -19 -21q-2 -2 -1.5 -4.5t-1.5 -2.5q-1 0 -7 -6.5t-13.5 -16.5t-15.5 -22.5t-12 -23.5q-1 -2 -2.5 -4t-2.5 -4q-2 -2 -7.5 -13
t-14.5 -25q-2 -3 -7.5 -13.5t-7.5 -15.5q-2 -3 -6 -10.5t-9 -15.5t-9 -14t-5 -7q-3 -2 -4 -3t-1 -4t-3 -8.5t-5 -8.5q-1 -2 -4 -7t-7 -11q-4 -7 -9 -15q12 0 23 1q9 0 16.5 0.5t9.5 0.5q3 0 5.5 0.5t5.5 0.5l45 5q2 1 6 1q6 0 9.5 -3t3.5 -6q0 -1 -0.5 -2t-0.5 -3v-3
q-4 -4 -11 -4q-6 0 -15.5 1t-11.5 2h-11q-10 0 -23.5 -0.5t-26.5 -1.5q-15 -1 -32 -2l-6 -10q-2 -4 -4.5 -7.5t-3.5 -5.5l-14 -20t-16 -28q-6 -11 -14 -24t-18 -29q-2 -4 -6 -10t-7.5 -13t-6.5 -12.5t-3 -8.5q-1 -5 -5 -8.5t-4 -7.5t-5 -16t-6 -15q-1 -5 -1.5 -9t-0.5 -8
q0 -17 4.5 -20.5t6.5 -5.5q1 -3 6 -3q2 0 4 0.5t4 0.5q4 0 10 2t11 4l12 6q4 2 8.5 5t6.5 3t8 4t8 6t8 5.5t13 9.5q12 11 19 16.5t10 8.5q4 4 5 4q3 0 3 -5q0 -3 -2 -3q-3 -4 -8.5 -9t-10.5 -10t-15 -14.5t-17 -12.5q-2 -1 -2 -2.5t-2 -2.5q-6 -4 -6 -3q-1 -2 -6 -5
q-1 -1 -2.5 -1t-2.5 -2q0 -1 -5.5 -4.5t-14.5 -8t-20.5 -8t-24.5 -3.5q-7 0 -11 1q-6 1 -11 1.5t-9 3.5q-2 2 -1.5 2t-0.5 1q0 1 -3 4q-2 3 -3.5 5.5t-1.5 4.5l-1 11l1 3q-2 1 -2 13q0 10 4 23q1 4 3 8.5t2 5.5q0 4 4 13t7 14q7 12 9.5 16t7.5 15q4 8 8 12.5t7 12.5q1 2 2 2
t1 1q0 5 4.5 12t4.5 8q0 2 2 3t3 3q2 8 5.5 12t4.5 7q0 3 2.5 6.5t4.5 6.5q4 7 9.5 15.5t10.5 16.5q5 9 11 17q-3 -1 -7 -1h-14q-10 0 -13 1h-4q-5 0 -10.5 -0.5t-9.5 -0.5q-23 0 -37 -1.5t-16 -1.5h-30q-3 0 -7 -0.5t-7 -0.5h-7q-7 -12 -13 -23q-5 -9 -9.5 -16.5t-5.5 -9.5
q-1 -1 -1 -3.5t-1 -2.5q-5 -2 -13.5 -19t-16.5 -27l-4 -5v-1q0 -2 -2 -2q-2 -2 -2 -3.5t-1 -2.5q-2 -1 -10 -13.5t-17 -27.5t-16 -27t-8 -12q-4 0 -9 -10t-6 -11q-3 -4 -15 -19t-25 -30q-7 -8 -15.5 -15.5t-9.5 -6.5q-1 0 -2 -2.5t-3 -2.5q-4 0 -16 -4l-13 -6.5t-29 -5.5
q-1 0 -7 1.5t-7 3.5v4q0 3 1.5 6.5t8.5 3.5q4 -2 9 -5.5t6 -3.5q12 0 25 12.5t24 27.5q12 18 24 40l3 5q2 2 4 3t2 5q0 2 1 3q7 6 19 25t23.5 39t20 35.5t10.5 15.5q4 0 3 2t1 3l9 16q0 1 3 3q3 1 3 3q1 3 4.5 10t8 14t8 12.5t3.5 6.5q0 2 6 10q3 4 6 7h-6q-8 0 -26 -2
t-32 -2h-10t-9 -1q-1 0 -1.5 0.5t-1.5 0.5l-4 -2t-5 -1h-14q-8 0 -8 1q-1 1 -3.5 -1t-5.5 -2q-4 0 -4 5t7 9.5t11 4.5q2 0 6 -1t5 -1h3l20 2h8.5t5.5 1q2 0 2.5 0.5t1.5 0.5q2 0 2 -0.5t2 -0.5q3 1 10 1q5 0 10.5 0.5t10.5 0.5h23q5 0 9 1l26 42q10 16 17.5 29.5t7.5 15.5
q0 5 4 5q1 0 3.5 4.5t5.5 10t5.5 10l2.5 4.5q3 1 3 4t1 3t2 3.5t3 5.5z" />
    <glyph glyph-name="I" unicode="I" horiz-adv-x="234" 
d="M339 479q6 10 12.5 21.5t12.5 21.5l14 22q-8 -8 -17 -13q-8 -5 -17.5 -8.5t-18.5 -3.5h-3t-6 1q-20 1 -24.5 12t-4.5 19v5q-6 -1 -11 -5t-9.5 -13t-6.5 -26q0 -3 -0.5 -7.5t-0.5 -5.5q-2 0 -3 -3q0 -1 0.5 -2t0.5 -2l-2 -4q0 -2 0.5 -3.5t0.5 -3.5t-3 -2l-2 -5l-4 -3
q0 -2 -4 -6q-2 -2 -4 -3q-3 -2 -10.5 -3t-9.5 -1q-6 0 -8 4.5t-2 9.5q0 6 1 7q2 2 1.5 5.5t1.5 4.5q8 6 8.5 13.5t4.5 7.5q2 0 2 2t4.5 7.5t11 12.5t13.5 14.5t13 12.5q2 5 8 6q4 2 4 4.5t3 4.5q6 0 6 9l3 3q4 6 9 6q2 0 3.5 -0.5t3.5 -0.5q7 0 12 -4t5 -9q0 -6 -5 -8
q-2 -1 -7 -6.5t-5 -13.5q0 -7 2.5 -12.5t15.5 -6.5q13 1 23.5 6t17.5 11t10.5 11t4.5 5q2 5 3.5 8t3.5 5q3 5 5 10.5t7 5.5l2 -1h1q1 0 1 1q0 2 1 2q10 0 13 -1q1 1 3 1q3 0 5 -2q9 -3 9 -8q0 -1 -0.5 -1t-0.5 -1v-2v-1q0 -1 1 -2q0 -5 -4 -16.5t-7 -13.5q-12 -8 -22 -24
t-18 -32t-13 -27t-8 -10q-2 -3 -6.5 -11l-9 -16t-9 -14t-5.5 -7q-5 -5 -7 -10t-4 -9q-3 -4 -5 -6t-4 -7l-15 -27q-2 -3 -5.5 -9l-7 -12t-7 -11t-5.5 -6q0 -1 -12.5 -22.5t-28 -47t-29 -47.5t-15.5 -24t-3 -2t-1 -2q0 -5 -4.5 -12.5t-9.5 -15t-8.5 -13.5t-3.5 -7
q0 -2 -5.5 -9.5t-7.5 -9.5q-2 -6 -6 -10.5t-6 -6.5l-7 -15q0 -1 -2 -3q-5 -8 -10 -14t-7 -7l-9 -14l-3 -3l-8 -10q-6 -9 -16 -15.5t-12 -6.5q-1 0 -2 -2.5t-3 -2.5t-6 -4t-11 -6q-2 -1 -12.5 -4t-21.5 -3q-2 0 -3.5 0.5t-2.5 0.5t-6 1.5t-4 5.5l-3 2q0 3 1 6.5t8 3.5
q2 -1 6.5 -4t6.5 -4q6 -2 8 -2q7 0 14.5 5t14 12t12.5 15.5t11 15.5q2 4 2 5l28 45l2 3q0 1 0.5 1.5t0.5 1.5q0 2 2.5 4.5t3.5 4.5q3 6 10 16.5t9 15.5l8 14q45 66 63 101t20 38q6 4 6 7q0 1 2.5 3.5t3.5 4.5q2 5 5.5 7.5t3.5 7.5q2 9 5 12q19 29 23 40t6 12t8 10t6 11
q0 3 8 16t17.5 28t17.5 27.5t9 13.5z" />
    <glyph glyph-name="J" unicode="J" horiz-adv-x="255" 
d="M183 132q0 -1 -7 -12.5t-16.5 -25.5t-18.5 -27.5t-11 -17.5q-1 -2 -5.5 -11.5t-6.5 -10.5q-1 0 -3.5 -4t-5 -8.5l-5 -9t-3.5 -5.5q-13 -17 -24.5 -35t-17.5 -23q-1 -1 -3.5 -7t-5.5 -8q-4 -2 -7 -7t-4 -4q0 -3 -1 -5q-2 -4 -6 -4q-1 0 -2 -0.5t-3 -0.5t-3 2t5.5 6
t14.5 27q0 1 3 5t6 9q2 4 15 27.5t27 50.5q17 32 37 70q-7 -8 -15 -15q-7 -6 -14.5 -13t-15.5 -13q-14 -11 -24.5 -22.5t-18.5 -19.5q-3 -3 -20.5 -21.5t-40 -45t-46 -58t-39.5 -59.5q-3 -5 -4.5 -4.5t-1.5 -1.5q0 -1 -2 -5l-4 -8t-4.5 -7.5t-3.5 -3.5q-2 0 -2 -1.5t-1 -3.5
q-2 -4 -3 -7.5t-3 -4.5t-3 -4t-3 -6q-11 -18 -17 -33.5t-11 -30.5q-1 -3 -1 -7v-21q0 -7 6 -7q1 0 7 2q13 4 24.5 14.5t21 21t15.5 18.5t7 8q3 1 7 6.5t7.5 12t6.5 12t5 6.5q2 2 5.5 8t5.5 9q6 7 13.5 19t15.5 24t14.5 23t9.5 17q0 2 0.5 4.5t5.5 3.5q2 1 5.5 8.5t5.5 7.5
q1 -1 1 -2.5t1 -1.5q3 0 3 -2v-4q0 -3 -6 -7l-55 -88q-1 -2 -7.5 -14t-10.5 -16q-1 -1 -3 -4t-6.5 -10t-13.5 -18t-23 -27q-2 -1 -6 -5.5t-9 -8.5q-8 -8 -18 -15.5t-24 -14.5q-3 -2 -9 -2.5t-7 -0.5t-2 -0.5t-2 -0.5q-2 1 -4 0.5t-9 1.5q-9 2 -11.5 10.5t-4.5 10.5
q-3 3 -3 7v5q0 2 0.5 4t0.5 3v3q1 16 5.5 27t8.5 18q3 4 3 6t0.5 3.5t0.5 2.5q0 2 2 2q1 0 3 3.5t4 8t4 8.5t3 4q2 0 1.5 1t0.5 2q3 0 3 4l12.5 18.5t30.5 43t37 48t32 34.5l4 4.5t8.5 9.5t8.5 9.5t5 4.5q4 1 4 3q0 1 4.5 5.5t10.5 10t11 10t6 4.5q5 0 6.5 5t3.5 4q1 0 4 3
q6 6 12 11.5t13 12t17.5 15t25.5 22.5q1 0 8 7t15.5 15t16 14.5t8.5 6.5t8 10t16.5 25.5t20.5 33.5t20.5 33.5t15.5 26t7 11.5t3 3.5t2 4.5q0 4 4 8.5t4 5.5t7 13t16 26.5t16.5 26.5t8.5 12q3 0 3 4q0 1 -0.5 2t-0.5 2q0 2 6.5 9t6.5 12q0 2 3.5 4t3.5 6q0 2 2.5 7t6 11
t7 11t4.5 6q4 8 8 14q3 5 6.5 10t5.5 7l1 7l4 5q8 11 16 25t16 26q9 14 18 27q-11 -11 -22 -19q-10 -8 -23.5 -13.5t-27.5 -5.5q-2 0 -4.5 0.5t-2.5 1.5q0 -1 -4 -1q-17 1 -25.5 9t-12.5 16q-4 10 -5 22q-7 -5 -14 -15q-6 -8 -13 -22t-14 -35q0 -2 -0.5 -7.5t-3.5 -5.5
q-5 -1 -7.5 -8.5t-4.5 -16t-3.5 -15.5t-5.5 -7h-4q-2 0 -3 -1q-8 -4 -14 -4q-8 0 -10.5 6t-2.5 12q0 7 1 8q3 3 2.5 7t1.5 6q10 8 11 17t6 9q2 0 2 3q2 1 12 14t17 27q0 3 2 3q1 0 5 5.5t10 11.5t12.5 11.5t11.5 7.5t5 5.5t4 5.5q3 0 5.5 3.5t2.5 8.5q0 3 4 3q6 0 11.5 3.5
t8.5 3.5q8 0 12 -5t4 -11q0 -9 -6 -10q-2 -1 -9 -8t-7 -18q0 -9 6 -17.5t23 -10.5q12 0 24 6t22.5 13.5t17 14t7.5 6.5q5 0 7.5 7t3.5 7q2 0 3.5 4t3.5 5q5 4 5 5t1 4q0 3 1.5 6l2.5 5q2 2 3 2q2 0 6 2t8 2q5 0 11.5 -2.5t7.5 -2.5q3 0 7.5 -5t4.5 -6q-3 -2 -8 -10.5
t-12 -13.5q-8 -6 -15 -16t-7 -12q-1 -8 -8 -15t-6 -9q0 -5 -5 -11.5t-8 -11.5q0 -1 -2 -3q-4 -8 -9 -17t-7 -11q-1 -2 -2 -3.5t-2 -3.5l-4 -6q-11 -19 -22 -37t-13 -18q-4 -1 -8 -12t-5 -13q-1 -1 -6 -7t-7 -11q-2 -3 -6 -10t-9.5 -15l-11 -16t-8.5 -13q-2 -2 -2 -4
q-1 -1 -1 -2q-8 -12 -14 -22.5t-6 -12.5t-0.5 -4t-2.5 -3t-5 -4t-3 -5q0 -4 -10.5 -21t-23.5 -36.5t-25 -37t-14 -22.5z" />
    <glyph glyph-name="K" unicode="K" horiz-adv-x="433" 
d="M632 -93q-2 -4 -14 -4q-2 0 -2.5 -1.5t-1.5 -1.5q-2 0 -2 4t5 6t10 2q0 -2 2.5 -2t2.5 -3zM662 -79q-7 0 -7 4q0 2 3.5 3t8.5 1q3 0 3 -3q0 -2 -3 -3.5t-5 -1.5zM634 -86q0 2 3 2h4q0 -1 -2 -2.5t-3 -1.5q-2 0 -2 2zM62 96q-6 -14 -6.5 -17.5t-2.5 -14.5q0 -2 -0.5 -5
t-0.5 -6q2 -16 7.5 -22.5t12.5 -6.5q11 0 15 1t9 4q2 1 6 4q2 2 5.5 4.5t5.5 5.5q3 2 7 8t8.5 12t7.5 11t3 7l6 10q5 11 10 19t5 12q13 24 24 44t19 35q10 17 18 31q-30 -16 -56 -33q-23 -14 -44.5 -31.5t-31.5 -31.5q-2 -2 -4 -4.5t-8 -11.5l-7 -11q-2 -2 -2.5 -5t-5.5 -8z
M291 284q69 42 107 71t43 31q6 2 14 7.5t9 5.5q1 -1 7.5 4.5t15.5 13t20 15.5t23 12q4 1 10 6.5t14 9.5q4 1 14.5 7t21 13.5t19.5 14.5t10 9q1 3 4 3q2 0 4 3q2 4 17 12t26 16q2 2 15.5 12t28.5 23l15 21q1 1 3 1h9q2 0 3 0.5t5 0.5q5 0 8 -3t7 -3q5 -2 5 -6q0 -1 0.5 -1.5
t0.5 -1.5t-0.5 -1.5t-0.5 -1.5q-1 -6 -8 -8.5t-9 -4.5q-2 -1 -6 -8t-13 -8q-7 -2 -10 -3.5l-5 -2.5t-3 -1q-7 0 -25 -13.5t-48 -32.5q-14 -9 -19 -11.5t-11 -6.5q-3 -2 -12.5 -8.5t-21.5 -14.5t-24 -15.5t-18 -11.5q-8 -4 -25 -15.5t-34.5 -23.5t-32 -21.5t-15.5 -9.5
q-3 0 -4 -2.5t-3 -4.5l-19 -9q-7 -3 -15.5 -10.5t-9.5 -7.5q-4 0 -10.5 -6t-9.5 -9l-53 -28q-6 -3 -12 -8t-11 -7l-22 -15q2 0 4 1t3.5 1.5t3.5 1.5q7 3 11 2.5t12 2.5q1 0 2 0.5t3 0.5q1 0 9 -2q10 -2 11 -5t4 -3q2 0 3 -2.5t1 -3.5q1 -4 4 -7t3 -11q0 -3 1.5 -9t1.5 -19
l2 -18q2 -6 3 -16.5t1 -11.5v-1q0 -1 0.5 -1.5t0.5 -1.5q0 -5 3 -14.5t3 -11.5q0 -5 2.5 -14.5t5.5 -19t6 -18.5t5 -13q0 -1 8 -21t23.5 -45.5t38 -50.5t51.5 -36q4 -1 8.5 -3t27.5 -5l14 -3l8 1h5q6 0 17 0.5t24 4.5q2 1 6 1q7 0 7 -3q0 -5 -6 -6q-7 -2 -13.5 -4t-14.5 -3
h-9q-2 -2 -11 -2h-28q-14 1 -18 1.5t-5.5 0.5t-3.5 0.5t-11 1.5q-3 0 -9.5 2.5t-14.5 5.5t-15 7t-11 7l-20 14l-11 10q-1 0 -1 5q-4 0 -9 7q-5 5 -13 15t-13 17t-5 8l-3 7q-16 19 -27 44.5t-18.5 49t-11 41.5t-3.5 21q-2 1 -2 11q0 5 -0.5 9.5t-0.5 5.5q0 3 2 3l-3 6
q0 2 -0.5 4.5t-0.5 4.5q-1 14 -3.5 24t-2.5 18q0 2 -0.5 2.5t-0.5 1.5q0 5 -2 7l-7 4q-13 -1 -22 -5l-8 -4q-6 -11 -10 -19t-7.5 -13.5t-4.5 -6.5q-2 -1 -6 -6.5t-6 -12.5q-2 -4 -6.5 -12.5t-11 -19t-13.5 -20.5t-12 -17l-27 -43q-3 -6 -8.5 -13.5t-11 -14t-10 -11
t-6.5 -5.5t-4.5 -4.5t-3.5 -3.5q-3 0 -4.5 -3t-11.5 -7q-5 -2 -9.5 -4.5t-5.5 -2.5t-7 -2t-17 -2q-9 0 -23 7q-3 2 -3.5 4t-4.5 4q-6 3 -6 22q0 2 -0.5 4.5t-0.5 4.5q0 3 1 4t1 3v4q2 13 7.5 24t11.5 19.5t10.5 13.5t4.5 6t3 4t7 6.5l8 7t6 5.5q5 4 9 8.5t11 9.5q6 4 9 8
q9 8 14.5 12.5t9 7t5.5 4t5 3.5q2 1 7.5 4.5t12 7t13 7.5t10.5 6l30 16l8 4t7 4q4 2 7 4q6 10 11 19q5 7 8.5 13t4.5 7q9 14 18.5 32.5t17.5 34.5t13.5 27.5t7.5 12.5q4 2 4.5 6.5t1.5 6.5q4 7 10.5 17t12 20t10 17.5t5.5 9.5q5 8 10 17t10 17q5 10 11 19q-7 -4 -15 -8
q-7 -3 -15.5 -5.5t-16.5 -2.5t-16 4q-2 1 -1.5 1.5t-2.5 1.5q-8 3 -14 12t-6 23l2 10q-3 -2 -7 -6q-3 -3 -6.5 -7.5t-6.5 -10.5q-2 -2 -2.5 -4.5t-3.5 -4.5q-9 -5 -11 -11t-2.5 -11.5t-1 -9.5t-4.5 -4t-4.5 -6t-3.5 -6q2 0 -7 -5.5t-19 -5.5q-7 0 -12 5.5t-5 20.5
q0 5 5 11.5t8 8.5q13 6 19 10t8.5 6.5t2.5 4t1 1.5q2 0 3 2.5t4 4.5q23 13 34 24.5t19 22.5q1 -1 6.5 -2.5t13.5 -1.5q2 0 5 -2.5t3 -6.5t-3 -5q-4 -3 -7 -10.5t-3 -16.5q0 -8 3.5 -15.5t11.5 -10.5q2 -1 6 -1q13 0 28 12l11 10q10 7 14.5 14.5t7 14t4 10.5t4.5 4
q1 0 1.5 2.5t1.5 4.5q4 6 9 6q7 0 12 -5.5t8 -5.5t9 0.5t11 0.5q4 0 4 -3q0 -2 -3 -5q-2 -2 -11 -10t-20 -31q-2 -3 -5.5 -8t-4.5 -11q-2 -11 -8.5 -18t-7.5 -9t-2 -3t-1 -3q0 -3 -1 -4q-2 -2 -7.5 -9.5t-10.5 -16.5q-8 -14 -19 -32t-16 -27q-22 -34 -37 -57.5t-26 -39.5
q-12 -18 -21 -31l15 11z" />
    <glyph glyph-name="L" unicode="L" horiz-adv-x="368" 
d="M643 -50q0 5 5 5t5 -1t-0.5 -1.5t-0.5 -2.5q-1 -3 -5.5 -4.5t-6.5 -1.5q-1 0 1 2t2 4zM387 271q13 10 31 24t37.5 33t39.5 42.5t38 52.5q2 4 5 8.5t5 6.5q8 10 14 22t10.5 22.5t7.5 18.5t4 9q3 3 6 15t5 19q1 4 2 10.5t1 10.5q0 2 -0.5 6t-0.5 8q0 1 1 2t1 3t-2 2l-4 6
q-2 0 -4.5 -1t-5.5 -1q-2 0 -3.5 -1t-0.5 -1q-1 0 -3 -1.5t-4 -1.5q-3 0 -5 -2q-14 -13 -27.5 -26t-13.5 -15l-17 -18q-3 -2 -4.5 -4t-4 -7t-7.5 -13t-14 -22q-3 -2 -4 -4t-4 -7q-2 -4 -6.5 -14t-6.5 -12t-4 -4.5t-2 -4.5q0 -1 -4 -5.5t-5 -8.5q0 -3 -3.5 -6.5l-5.5 -5.5
q0 -4 -7 -17.5t-12 -18.5l-8 -11q-20 -29 -35 -53t-26 -41q-12 -20 -22 -35q16 7 29 15q11 6 22.5 13.5t16.5 12.5zM460 512q0 -2 2 -2q3 0 3 2t-3 2q-2 0 -2 -2zM198 22q2 -2 6.5 -6t9.5 -9q6 -5 13 -11l45 -38q12 -6 14 -10q2 -2 6 -4.5t9 -5.5t5 -4t1 -2q0 -1 2.5 -2.5
t4.5 -3.5q3 -3 7 -5q1 0 2 -1q2 -2 3 -2q2 -2 5.5 -3.5t7.5 -3.5l22 -12q12 -7 36 -15t57 -8l4 -1q2 0 4.5 0.5t6.5 0.5h4q11 0 32.5 2t32.5 8q2 2 9 2l7 5q2 0 5 1t5 2q28 16 42.5 26.5t16.5 13.5q0 1 1 2q2 2 3 2h7q4 0 4 -2t-3 -5.5t-5 -3.5q-2 -1 -1.5 -2.5t-2.5 -2.5
q-2 -1 -8 -6t-7 -7q-2 -3 -11.5 -10t-10.5 -6q0 1 -7 -4t-18.5 -12.5t-28 -15t-36.5 -11.5q-13 -2 -17 -3t-7 -1h-11q-7 -2 -10 -2h-9l-18 1q-42 2 -79.5 19t-61.5 41q-23 23 -38 38.5t-18 16.5q-2 0 -3.5 2.5t-3.5 4.5q-1 0 -2 1l-2 2q-6 5 -10 14.5t-9 9.5q-1 0 -4 3.5
t-6.5 7.5l-7 8t-5.5 6q-5 3 -6 6q-1 2 -1.5 2t-4.5 4q-2 -1 -4 -3q-3 -3 -9 -7q-2 -1 -14 -8.5t-18 -9.5q-2 -1 -13.5 -6.5t-32.5 -5.5h-9t-9 1q-3 0 -4.5 2t-4.5 3q-15 3 -18 9t-5 6q-6 2 -7.5 8.5t-3.5 7.5t-4 6.5t-2 7.5v6q0 14 6 27t10 13q2 0 1.5 1.5t1.5 1.5t4.5 3
t7.5 7t14.5 7t24.5 3h4q12 0 22 -4.5t18 -11.5q4 -3 11 -9.5t13.5 -13t12.5 -12t8 -8.5l13 13q5 6 12 14l14 16q1 1 1 3q0 1 1 1.5t1 1.5q0 -2 3 1.5t6.5 9t6.5 10t4 6.5q9 14 16.5 27t13.5 23l12 22q-12 -6 -23 -12q-11 -5 -23 -10.5t-26 -7.5l-11 -2q-5 0 -11 -0.5
t-8 -2.5q-5 -5 -14 -5q-2 0 -5.5 -0.5t-5.5 -0.5t-3 0.5t-2 0.5t-3 -1t-7 -1q-2 0 -4 1l-4 2q-7 1 -21 6.5t-14 10.5l-6 9q0 15 7.5 19t9.5 4q3 0 8.5 -5t13.5 -11.5t19.5 -11.5t25.5 -5q18 0 42 6q14 2 21 6t10 4q3 1 7.5 3.5t6.5 2.5t5.5 2t8.5 4q5 3 11 6q8 15 16 29
q7 12 14 25t12 24q2 3 5 6.5t3 6.5q0 5 2 7l4 4q17 29 34.5 61t35.5 59l15 30l6 6q11 18 19 29.5t11 11.5q0 1 3 7t7.5 12t8 11t5.5 4q3 0 4.5 4t2.5 6q11 12 28 28t31 24q9 5 18 8t14 3q1 0 2 1t2 1t6.5 -3t12.5 -3q3 0 6 -4.5t6 -6.5t5.5 -13.5t2.5 -19.5t-2.5 -19
t-6 -20.5t-6.5 -16.5l-3 -7q-1 -2 -1 -3t-1.5 -5.5t-5.5 -13.5t-13 -25q-2 -3 -2.5 -3.5t-2.5 -4.5q-7 -13 -18 -27.5t-21.5 -26.5t-18 -20.5t-8.5 -9.5t-5.5 -7.5t-8.5 -7.5q-5 -5 -13 -14t-11 -12q-2 -2 -5 -6.5t-11 -9.5q-2 -2 -8.5 -7.5t-14 -12t-14 -11.5t-8.5 -6
q-5 -2 -9 -5.5t-9 -7.5q-10 -8 -23 -16t-25 -15q-14 -8 -30 -15q-2 -5 -5.5 -10.5t-7.5 -9.5q-2 -2 -3.5 -5l-3.5 -7l-15 -24q-11 -17 -25 -35.5t-25 -30.5q-3 -4 -13 -16t-20 -21l-17 -15l6 -6zM115 78q-2 2 -5 5.5t-5 4.5q-8 5 -16 11t-16 6q-3 0 -5 -1t-4 -1h-4
q-3 -1 -6.5 -6.5t-4.5 -6.5q-2 -2 -3.5 -5t-1.5 -14q0 -2 0.5 -4.5t0.5 -4.5q0 -3 6 -12t10 -10q3 -2 3 -4t3 -4q8 -7 13 -9t10 -2t8.5 0.5t5.5 0.5q1 0 6.5 1t9.5 3q11 4 23 11q5 4 11 7l-11 11q-5 5 -12 11t-16 12z" />
    <glyph glyph-name="M" unicode="M" horiz-adv-x="619" 
d="M444 271q-10 -17 -18.5 -31t-9.5 -17q-2 -3 -3.5 -6t-3.5 -4q-4 -6 -10 -16.5t-12.5 -21t-11.5 -19.5t-8 -12q-1 -1 -4.5 -7t-7.5 -13t-7.5 -14l-4.5 -9q9 4 21 11q11 5 26 14l35 21q7 5 16.5 10.5t13.5 9.5l42 27q2 2 4.5 4t5.5 3l41 32q2 5 5.5 11t8.5 13q2 3 6 11.5
t6 9.5q0 1 1 2l2 4l7 11q14 26 22.5 40t13.5 22q2 3 4 7t5 9l7 12q4 4 8 11.5t7.5 14.5t7 13t6.5 9q4 8 8.5 13.5t15.5 23.5q27 41 45.5 63.5t29.5 33.5q13 13 21 16q1 0 1.5 2t1.5 2t4.5 3.5t6.5 4.5h4q9 0 11 -1t4 -5l6 -10q0 -1 0.5 -2t0.5 -3q0 -5 -3 -17
q-4 -15 -9.5 -31t-21.5 -43q-1 -2 -4.5 -7.5t-8 -12t-8.5 -12.5t-5 -8q-2 -2 -5.5 -6t-5.5 -8q-4 -4 -6 -10v-2q0 -3 -2 -3q-1 0 -6 -5t-10 -13q-2 -4 -8.5 -12t-8.5 -10l-16 -20q-10 -12 -23 -25q-11 -12 -26.5 -27.5l-32.5 -32.5l-28 -28q-4 -6 -15.5 -27t-29.5 -52
q-7 -14 -14.5 -25.5t-14.5 -25.5q-2 -9 -6.5 -14.5t-5.5 -9.5q0 -3 -3.5 -8.5t-8.5 -16.5l-1 -8q-2 -3 -2 -6t-1 -6q0 -5 2 -11t3 -7q2 -2 5 -3.5t9 -1.5q4 0 6.5 2t4.5 2l7 3q5 0 7 2.5t4 3.5q7 3 10 5t4 2q2 0 5 2.5t5 4.5q8 3 13.5 7.5t7.5 5.5l36 28q2 1 3 2.5t2 1.5
q4 0 4 -2q0 -3 -6.5 -9.5t-9.5 -8.5l-21 -18q-11 -10 -18 -14t-14 -11l-21 -14q-1 -1 -8.5 -5t-15.5 -7l-6 -2t-5 -1t-5 -0.5t-7 -0.5q-6 0 -9 1q-2 0 -2.5 1t-5.5 1t-12 3.5t-11 17.5q-1 0 -1 3q0 4 1 7q-1 1 -1 5t1 6q0 2 1 3l6 19q1 3 2.5 5t3.5 6v5q0 -1 2 5
q6 14 12.5 25.5t11.5 20.5q6 11 13 20l10 16q1 3 6.5 11t11 16.5t9.5 14.5l4 6l-35 -27q-2 0 -7.5 -5t-6.5 -6q-8 -6 -22.5 -15.5t-28.5 -18.5t-25 -15.5t-12 -6.5l-6 -3q-4 0 -5.5 -2.5t-3.5 -3.5q-1 -1 -10 -7.5t-20.5 -14.5t-22.5 -15.5t-17 -8.5q-2 -2 -4 -2t-3 1
q-6 4 -10 4t-6 5v6t1 5q5 11 7 15t2 6q2 3 3.5 5t2.5 4l6 11q3 7 7.5 13t4.5 9q2 1 4 4.5t4 6.5q7 11 14 25.5t9 14.5l8 13q4 9 9 15t7 12q3 6 5.5 8.5t4.5 6.5l29 47q15 23 26 41.5t23 38.5l-66 -85q-25 -32 -51 -60t-42 -46q-1 -2 -4.5 -5t-6.5 -6l-12.5 -12.5
l-15.5 -15.5l-2.5 -2.5l-2.5 -2.5q-1 -4 -4 -5l-17 -15q-18 -19 -30 -29t-29 -25l-11 -11q-2 -1 -5.5 -4.5t-8.5 -4.5q-1 0 -2 -2.5t-2 -2.5q-4 -1 -8.5 -4t-6.5 -5q-15 -12 -32 -23.5t-32 -20t-26.5 -14t-15.5 -6.5l-7 -1q-3 0 -13 -2q-3 -2 -9 -2h-4q-4 0 -7.5 2t-8.5 2
q-2 0 -10 3t-9 14q0 2 1 4t6 9q2 2 5.5 3t5.5 2q1 1 1.5 3.5t2.5 3.5q6 3 12 3q2 0 4.5 0.5t4.5 0.5q5 0 8.5 -1t6.5 -1q2 -1 11.5 -1.5t23.5 -0.5q2 0 2 -0.5t2 -0.5q1 0 5 1t7 2q11 1 23 7t22 13t17 12l7 5l12 9q13 9 25 20t21.5 20t15.5 15.5l6 6.5q4 1 5.5 4t2.5 3
q5 2 5.5 5t6.5 4l11 13l15 15q8 9 16.5 18t10.5 10q4 4 14 14.5t20.5 21.5t19 21t10.5 14q1 2 2.5 2.5t3.5 2.5q6 6 5 6q1 0 18 20.5t37 46.5l39 50q3 5 10.5 15.5t12.5 15.5q4 5 5 8t3 5q7 7 9 11.5t3 6.5q14 17 18 26.5t10 19.5q7 6 11 14.5t6 10.5q1 2 4 6t3 6l5 11
q7 7 10.5 14.5t7 15.5t8.5 17t16 19q2 2 5 3t5 1q4 -2 8.5 -6.5t4.5 -9.5v-19l-2 -4l1 -1q0 -1 0.5 -1.5t0.5 -1.5q-1 -2 -7 -9.5t-11 -8.5q-1 0 -2 -8t-14 -25q-2 -2 -4 -6t-7 -9q-2 -3 -8 -14t-16 -29q-4 -9 -13 -21q-5 -7 -9 -15t-10 -16q-2 -2 -4 -4.5t-4 -7.5
q-10 -15 -25 -39t-24 -42l-10 -14q-3 -5 -3.5 -7.5t-3.5 -6.5q-2 -1 -4.5 -7t-7.5 -14zM599 264q16 15 24 23.5t11.5 12.5t5 5.5t4.5 3.5l8 9q24 26 43 49.5t44 59.5l2 2q3 3 3 5q0 1 4 7q2 3 4 5l10 16q7 9 12 19.5t10 18.5q4 10 9 19q2 2 4.5 9t4.5 8q0 3 2 9.5t2 11.5
q0 2 -3 2q-2 0 -5 -3l-2 -2q-2 0 -5 -1t-15.5 -17.5t-27 -37.5t-28 -41.5t-19.5 -30.5q-3 -5 -6 -12t-6 -7l-3 -4.5t-7 -10t-7 -11t-4 -6.5q0 -1 -4 -8t-7 -12z" />
    <glyph glyph-name="N" unicode="N" horiz-adv-x="526" 
d="M432 30l-1 -9q0 -3 -3.5 -7.5t-4.5 -4.5t-1.5 -0.5t-1.5 -0.5l-1 -1q-2 -2 -6 -6.5t-11 -4.5q-2 0 -3.5 -0.5t-2.5 -0.5q-2 2 -2 6q0 1 -3 1.5t-5 3.5l-3 9q0 7 -2 7t-2 16v36l2 13q0 8 2.5 28t2.5 31v2q0 1 0.5 2.5t0.5 3.5v7q2 2 2.5 11.5t2.5 35.5l1 10q1 6 2.5 8.5
t1.5 9.5q0 4 -1 7q0 2 1.5 5.5t1.5 4.5q-1 1 -1 5q3 17 5 36t4 35t3 27t1 12q1 0 1 3v4q0 5 0.5 9t0.5 5q0 3 1 6t1 6q0 2 1 3.5t1 2.5q-1 0 -1 1v5l3 33q-4 -8 -11 -20.5t-14.5 -24.5t-14 -21t-8.5 -9q-3 -2 -3 -3.5t-1 -5.5q-1 -3 -6.5 -11.5t-11.5 -17.5t-11.5 -16
l-5.5 -7q-2 -2 -11.5 -15.5t-20.5 -27.5q-13 -18 -28 -38q-2 -2 -3.5 -4.5t-3.5 -3.5t-2.5 -3.5t-2.5 -5.5t-4.5 -4t-7.5 -9q-2 -3 -4.5 -6.5t-4.5 -5.5q-3 -3 -14 -16t-26.5 -30t-33.5 -35t-33 -31q-1 -1 -1 -2.5t-2 -1.5q-8 -6 -13.5 -11.5t-12.5 -12t-16.5 -14.5
t-25.5 -19q-5 0 -7.5 -4t-7.5 -4l-3.5 -3.5t-9.5 -7.5t-15.5 -8t-22.5 -5l-13 2q-2 0 -3 -1t-6 -1q-20 0 -20 18q0 10 3.5 13.5t9.5 5.5q3 2 3 3.5t5 1.5q2 0 4.5 -0.5t5.5 -0.5q1 0 4.5 1.5t5.5 2.5q1 1 3 1t5.5 -1t9.5 -1q8 0 25.5 5.5t33.5 15.5q35 23 52.5 38.5
t27.5 23.5q5 2 10.5 8.5t7.5 8.5q18 17 32 33.5t16 19.5q2 2 6 8t6 8q3 5 8.5 10t7.5 9q5 10 16 23t33 45q8 11 13 18t9.5 13.5t9.5 15t14 23.5l6 10q1 2 4 7t6.5 11t6.5 11.5t4 7.5q11 23 17 37t10 16q0 1 2 5t4 9t4.5 9.5t2.5 5.5q13 24 18 41t5 22q3 3 4.5 8.5t2.5 19.5
q2 5 7 7.5t8 6.5l5 2q0 3 2 4q2 0 4.5 0.5t6.5 0.5q3 0 9 -2q1 0 2 -0.5t2 -0.5q10 0 10 -2t-3 -3q2 0 2 -3q-2 -5 -6.5 -13.5t-4.5 -14.5q0 -3 -1.5 -9t-1.5 -16q0 -7 -1.5 -12.5t-3.5 -11.5q0 -8 -3.5 -20t-3.5 -13q0 -2 -0.5 -3.5t-0.5 -3.5q0 -1 0.5 -2t0.5 -3
q0 -1 -0.5 -6t-1.5 -5l-2.5 -16t-5 -35t-4.5 -35.5t-2 -17.5v-3t-1 -2q-1 -1 -1 -2.5t-1 -3.5v-5q0 -17 -3.5 -41.5t-8.5 -57.5v-4q0 -2 -0.5 -4t-0.5 -6q-1 -2 -1 -5v-7q0 -6 -2 -16t-3 -13q-1 -2 -1 -6v-10l-2 -10q0 -11 -2 -22t-2 -22l-4 -49q0 -18 4 -26l9 31q1 2 1 4.5
t2 4.5q1 4 6 18.5t11 30.5t10.5 29t6.5 14q3 1 3 6q0 2 1.5 4t1.5 4t1 3.5t1 4.5q1 1 5.5 11.5t9 23.5t8.5 23.5t5 10.5v1l1 2q0 1 1.5 2.5t1.5 2.5q0 2 2 4q3 10 7 19q3 8 6.5 15t6.5 11l2 3l1 3l3 5q2 10 6.5 17.5t9.5 16.5q0 1 0.5 4.5t1.5 4.5l2 3q0 1 3.5 8.5t5.5 12.5
q6 10 7 12.5t4 7.5l3 3l-1 3q1 3 3 6q2 2 3 5t3 5l4 5q0 2 2.5 5.5t4.5 7.5q3 7 5 12t7 10l4 4l11 18q2 8 6 13t6 7q6 9 6 13q2 0 2.5 2t1.5 4q0 2 2 2q2 2 5 7.5t7 5.5q1 0 4.5 6t11 14.5t19.5 18t30 16.5q3 2 4 3.5t4 1.5h4q5 0 10 3t13 3q4 0 6.5 -3.5t7.5 -4.5
q3 -1 4 -4.5t1 -6.5q0 -2 -0.5 -2.5t-0.5 -1.5v-1q-1 -1 -3 -1q-3 0 -5 2.5t-3 3.5t-3.5 1h-3.5q-2 0 -3.5 -1.5t-2.5 -1.5q-11 -3 -24.5 -13t-16.5 -13q-11 -11 -26 -25t-32 -35l-24 -35q-5 -7 -15 -22.5t-26 -41.5q-2 -2 -4 -6.5t-4 -6.5l-2 -3q-3 -7 -6.5 -12.5
t-8.5 -16.5l-29 -62q-1 -2 -3.5 -8t-5.5 -13.5t-6 -14.5t-4 -10q-3 -6 -5.5 -13t-4.5 -9q-1 0 -5 -9.5t-8 -20.5t-7.5 -20.5t-4.5 -9.5q-2 -2 -3.5 -7t-1.5 -7q0 -1 -1.5 -4.5t-2.5 -5.5t-5.5 -15t-11 -30t-12.5 -35.5t-10 -30.5z" />
    <glyph glyph-name="O" unicode="O" horiz-adv-x="409" 
d="M139 -5q-5 0 -11 2q-12 0 -21.5 4t-12.5 7q-2 2 -3 2q-10 5 -18.5 16.5t-13.5 18.5q-2 5 -4.5 10t-3.5 9l-2 7q-2 2 -2 8q0 5 -3 8l1 4q-1 2 -1 4t-0.5 3t-0.5 3q-3 13 -3 28t2 30.5t4 27.5l6 28q1 1 2.5 5.5t2.5 9.5t2 9t2 5q1 0 3 7l26 56q3 1 6.5 7.5l7 13t6.5 12
t5 5.5q1 0 3 4q5 10 15 24.5t22 29.5t25 29t24 25l4 6q4 2 4 3q0 2 1.5 3.5l3.5 3.5l4 4q8 6 14 16.5t8 10.5l2 1q1 0 2 1q1 0 2 2q1 1 2 2.5t3 3.5q4 4 8 7q3 6 10 6q5 0 7 1q2 0 4 1q11 9 23 17t22.5 14l17.5 10t8 6q6 2 11 5q11 6 21 7q2 0 14 3t13 3h4q5 0 10 -1t7 -4
q4 -3 10 -5t7 -2t7 -3.5t12.5 -10.5t12.5 -18t8 -27q2 -2 2 -5q0 -1 0.5 -1.5t0.5 -1.5q1 -7 3 -15q1 -7 2 -16t1 -20v-11v-10.5t-1 -10.5l-1 -15q0 -9 -3 -24.5t-7.5 -33t-10.5 -35t-12 -30.5q0 -2 -1.5 -3.5t-1.5 -3.5t-2 -4q-1 -1 -1 -2t-0.5 -1t-0.5 -1v-1
q-3 -7 -12 -27t-24 -46.5t-34.5 -55t-42.5 -53.5q-5 -6 -6.5 -6.5t-4.5 -4.5q-26 -29 -56.5 -50.5t-65.5 -32.5q-14 -5 -28 -6.5t-35 -1.5zM175 13q1 -1 3 -1t4.5 1t8.5 1q2 0 8.5 1t15.5 4q7 3 14.5 5t15.5 7q12 7 21.5 14t16.5 12q8 6 14 12l10 9q2 2 4 5q2 2 3.5 4t3.5 4
q1 2 2 2.5t2 1.5t2 1q8 9 15 17q6 7 11 13.5t7 9.5q2 7 6.5 10.5t9.5 14.5q7 10 15.5 26t17 34t16.5 37t13 36q0 2 0.5 2.5t1.5 4.5q1 3 2 6.5t3 8.5q1 2 3 9t4 14.5t3.5 13.5t1.5 7t1 2t1 2q0 2 1 6.5t1 6.5q0 1 0.5 2t0.5 2t0.5 2t0.5 2q2 13 4 28t2 32v22l-2 18l-2 9
q-1 3 -2.5 6.5t-1.5 6.5l-1 9q0 2 -1.5 2.5t-1.5 2.5q-3 3 -3 5v4q-2 5 -9 10t-7 7q-1 2 -6.5 3.5t-5.5 2.5q-1 1 -2 0.5t-2 1.5q-2 2 -8 2h-7q-4 1 -8 1h-11q-14 0 -36 -5.5t-51 -29.5q-4 -4 -4 -14q0 -9 -12 -14q-4 -1 -8.5 -4t-7.5 -4q-1 -2 -2 -3q-2 -2 -4 -2
q-1 0 -1.5 -1t-2.5 -1q-5 0 -5 -3q-5 -1 -12 -6.5t-13.5 -12t-11 -12t-5.5 -6.5q-1 -3 -4.5 -7.5t-8.5 -6.5q-2 -2 -4 -5t-2 -5q-1 -2 -2.5 -3t-1.5 -2q0 -3 -2.5 -5t-3.5 -4q-2 -8 -20.5 -33.5t-35.5 -68.5q-1 -2 -2 -3.5t-1 -3.5t-1.5 -3.5t-1.5 -3.5q0 -5 -3.5 -9.5
t-5.5 -10.5q-3 -11 -7.5 -21.5t-4.5 -21.5q0 -2 -1.5 -5t-1.5 -6q0 -2 -1 -3t-1 -3v-4l-3 -13q-1 -3 -1 -10l-2 -24q-1 -5 -1 -15v-9.5t1 -9.5q0 -8 1.5 -16t2.5 -16q5 -20 16.5 -37.5t22.5 -24.5q1 0 1.5 -0.5t1.5 -0.5q2 -1 4.5 -3t3.5 -2q8 -2 10 -3.5t7 -1.5q4 0 6 -1h4
z" />
    <glyph glyph-name="P" unicode="P" horiz-adv-x="338" 
d="M349 282q1 -1 9 -1h7.5t9.5 2q11 3 21.5 11.5t19 17.5t14 16t6.5 7q3 0 3 4q0 5 3 7q2 0 13.5 17t19.5 41q9 28 11.5 43.5t2.5 35.5v6q-2 2 -2 7q0 2 1 4q0 2 -1 2.5t-1 2.5q0 3 -2 8.5t-4.5 11.5t-5 11.5t-4.5 7.5q-11 12 -22.5 17.5t-22 7.5t-18.5 2.5t-11 2.5
q-1 1 -21 1q-14 0 -35 -3t-49 -13.5t-62.5 -30.5t-74.5 -55q-1 -1 -2.5 -2t-3.5 -5q-1 -2 -3 -2t-2 -3q0 -1 -4 -2.5t-3 -3.5q0 -1 -5 -7.5t-6 -7.5l-12 -18q-8 -13 -13 -25.5t-5 -23.5q-3 -3 -3 -5q0 -1 0.5 -1.5t0.5 -1.5l-1 -6v-19q0 -2 0.5 -5t0.5 -6q0 -4 1.5 -11
t4.5 -13.5t7 -11t9 -4.5q8 0 15 8t7 16q0 4 2 11t4 8q8 5 13.5 9.5t12.5 5.5q3 3 6 3q6 0 9 -9.5t3 -10.5q0 -2 1 -3.5t1 -2.5q-1 -11 -7.5 -18.5t-15.5 -13t-17.5 -8t-14.5 -2.5q-2 0 -4.5 -0.5t-3.5 -0.5q-2 0 -6 -1t-10 -1q-5 0 -12 1t-13 6l-13 7q-5 3 -11.5 12t-6.5 19
q0 2 -0.5 4t-0.5 4q-1 2 -1 3v6q0 2 0.5 4.5t0.5 3.5q-1 3 -1 10q4 26 17 49t27 34q2 2 2.5 2t2.5 5q5 6 15.5 15t21.5 17t20.5 14.5t13.5 7.5l3.5 3.5l3.5 3.5q0 5 8 6.5t9 1.5q1 -1 1 1t1 2q4 2 5 4.5t4 2.5q1 0 9 4.5t17 10.5t18 10.5t14 4.5q2 0 11.5 4.5t21.5 10.5
t24 11t18 5q2 0 3.5 -0.5t2.5 -0.5q1 1 9.5 3.5t20.5 4t25 3t24 1.5q10 0 20 -2t19 -8q1 -1 4 -1h4q2 0 2.5 -2t2.5 -3q10 -3 12 -8t5 -6q8 0 14 -8.5t10 -18.5t6 -19l2 -9q0 -2 -0.5 -3.5t-0.5 -3.5q0 -1 1 -0.5t1 -1.5q2 -9 2 -15.5v-11.5v-12q-1 -2 -1 -5v-5
q0 -4 -1 -10.5t-2.5 -13.5t-3 -12.5t-2.5 -7.5q-1 -1 -1 -5l-3 -4q0 -2 -3.5 -10.5t-10 -20.5t-16.5 -26t-22 -26l-13.5 -13.5t-20.5 -13.5q-7 -2 -14.5 -8t-12.5 -6q-8 0 -17 -5t-26 -5q-4 0 -10.5 1t-12.5 2q-2 0 -3 1t-2 1q-10 2 -15 7l-7 7q-8 8 -14 22t-6 21
q0 3 -0.5 5t-0.5 4t-0.5 3.5t-0.5 3.5v5v7.5t1 8.5q0 4 1 10l-26 -48q-10 -18 -18.5 -34t-7.5 -17q0 -6 -3 -6t-13.5 -18t-23.5 -39.5t-24.5 -40.5t-15.5 -21v-1q0 -2 -2 -4q-2 -3 -2.5 -7.5t-1.5 -5.5q-3 -3 -3 -2q-1 -5 -4.5 -7.5t-5.5 -6.5q-7 -17 -17 -32t-13 -17
q-1 0 -6.5 -12.5t-7.5 -20.5l-6 -12l-2 -6t-6 -13t-10 -13t-15 -6q-5 0 -13 4.5t-10 12.5q-1 5 -2.5 4t-1.5 2q0 7 3 12t4 7q0 1 0.5 2t0.5 2q0 5 11 18t19 22l4 5q1 2 2.5 6t2.5 4t6.5 8t12.5 19.5t14.5 23t13.5 18.5q8 11 14 23.5t14 21.5q1 4 3 8q2 3 4 6.5t5 5.5
q2 2 2 4.5t2 4.5q3 3 3.5 6t2.5 4q1 1 6 7.5t9.5 15t8.5 16t4 10.5q0 1 1 3t3 2t2 4q0 5 2 5q1 0 8 9.5t15 23t17 29.5t15 28q14 23 19 36.5t17 13.5q5 0 11 -2.5t7 -8.5q0 -2 2.5 -3t2.5 -2q0 -3 2 -4t2 -3q0 -3 -6 -16q-2 -3 -3 -8.5t-1 -7.5l-3 -11q0 -4 -2.5 -14.5
t-2.5 -21.5q0 -8 2 -18.5t7 -19.5t12.5 -16t19.5 -8z" />
    <glyph glyph-name="Q" unicode="Q" horiz-adv-x="410" 
d="M576 -99q0 6 7 6h5q-1 -1 -1 -2v-3q-2 -7 -7 -7q-3 0 -4 6zM160 15q1 -1 4 -1q2 0 4 1q25 14 38.5 26t27.5 28q11 16 14 25l6 18q1 3 2 4.5t1 3.5t-1 3.5t-1 4.5v4q0 2 -1 3q-4 9 -8 10.5t-14 9.5q-6 2 -7 6t-1 8v8q0 1 -1 1t-1 2q2 11 6.5 16.5t23.5 5.5q8 0 18.5 -11.5
t10.5 -25.5l3 -13q0 -9 -4 -24t-14.5 -33.5t-30.5 -39.5t-51 -41q2 0 8.5 1t15.5 4q7 3 14.5 6t14.5 8q11 7 20.5 14t16.5 12q8 6 14 12l10 9q2 2 4 5q2 2 3.5 4t3.5 4q1 2 2 2.5t2 1.5t2 1q8 9 14 17l10 14t7 10q2 7 6 10.5t9 14.5q1 1 4.5 8t9 17t11 21t9.5 21t11.5 28.5
t12.5 34.5q0 2 0.5 2.5t1.5 4.5q1 3 1.5 6.5t2.5 8.5q1 2 2.5 9t3 14.5t2.5 13.5t1 7t0.5 2t0.5 2q0 2 0.5 6.5t0.5 6.5q2 9 3 18.5t1.5 18.5t0.5 15.5v8.5q-1 7 -1 10v5t-0.5 5t-0.5 9l-3 18q0 2 -0.5 4t-0.5 5q-1 4 -1.5 7.5t-1.5 4.5t-1 5v5q0 2 -1.5 2.5t-1.5 2.5
q-3 3 -3 5l-1 4q-2 5 -7.5 10t-5.5 7q-1 2 -6.5 3.5t-5.5 2.5q-1 1 -2 0.5t-2 1.5q-2 2 -8 2h-7q-4 1 -8 1h-11q-14 0 -35.5 -5.5t-49.5 -29.5q-4 -4 -4 -14q0 -9 -12 -14q-4 -1 -8.5 -4t-6.5 -4q-1 -2 -2 -3q-2 -2 -4 -2q-1 0 -1.5 -1t-2.5 -1q-5 0 -5 -3q-5 -1 -11.5 -6.5
t-13 -12t-11 -12t-5.5 -6.5q-1 -3 -4 -7.5t-8 -6.5q-2 -2 -4 -5t-2 -5q-1 -2 -2.5 -3t-1.5 -2q0 -3 -2.5 -5t-3.5 -4q-1 -4 -7 -12.5t-14.5 -21t-18 -30t-17.5 -38.5q-1 -2 -2 -3.5t-1 -3.5t-1.5 -3.5t-1.5 -3.5q0 -5 -3.5 -9.5t-5.5 -10.5q-2 -11 -6 -21.5t-4 -21.5
q0 -2 -1 -5t-1 -6q0 -2 -0.5 -3t-0.5 -3v-4l-2 -13q-2 -4 -2 -10v-9v-15v-15t1 -19q1 -8 3 -16l4 -16q5 -20 17.5 -38t24.5 -25q1 0 1.5 -0.5t1.5 -0.5q2 -1 4.5 -2.5t3.5 -1.5q8 -2 10 -3.5t7 -1.5q4 0 6 -1h4zM64 -22q25 2 43.5 7t23.5 8h-8q-3 0 -5 1.5t-4 2.5
q-12 0 -21.5 4t-12.5 7q-2 2 -3 2q-10 5 -18.5 16.5t-13.5 18.5q-2 5 -4.5 10t-3.5 9l-2 7q-2 2 -2 8q0 5 -3 8l1 4q-1 2 -1 4t-0.5 3t-0.5 3q-2 7 -2 14v15q0 15 1.5 30.5t3.5 27.5q2 14 5 27q1 1 2.5 5.5t3 9.5t2.5 9t2 5q1 0 3 7l26 56q3 1 6.5 7.5l7 13t6.5 12t5 5.5
q1 0 3 4q5 10 15 24.5t22 29.5t25 29t24 25l4 6q4 2 4 3q0 2 1.5 3.5l3.5 3.5l4 4q8 6 14 16.5t8 10.5l2 1q1 0 2 1q1 0 2 2q1 1 2 2.5t3 3.5q4 4 8 7q3 6 10 6q5 0 7 1q2 0 4 1q11 9 23 17t22.5 14l17.5 10t8 6q6 2 11 5q11 6 21 7q2 0 14 3t13 3h4q5 0 10 -1t7 -4
q4 -3 10 -6t7 -3q3 0 16 -12.5t18 -44.5q2 -2 2 -5q0 -1 0.5 -1.5t0.5 -1.5l3 -11l2 -24q1 -5 1.5 -12t0.5 -15q0 -5 -0.5 -10.5t-1.5 -10.5v-15q-3 -12 -4 -22t-8 -37q-4 -14 -8 -30.5t-12 -33.5q0 -2 -0.5 -3.5t-0.5 -3.5t-2 -4q-1 -1 -1 -2t-0.5 -1t-0.5 -1v-1
q-3 -7 -10.5 -26t-21 -44.5t-33.5 -54.5t-46 -57q-5 -6 -6.5 -6.5t-4.5 -4.5q-5 -6 -16.5 -17t-25 -22t-26 -19t-19.5 -8q-13 -6 -18.5 -8t-16.5 -7q-4 -2 -20.5 -6.5t-27.5 -4.5q-10 -5 -23.5 -10t-36.5 -9l16 -4q3 -1 7 -3t5 -2t4 -0.5t4 -1.5t7.5 -3.5t8.5 -2.5t7 -2.5
l7 -3.5l11 -6q0 -1 2.5 -1.5t4.5 -2.5l6 -4l17 -9l28 -17q2 -2 4 -3q1 -1 3 -2l4 -5q2 -2 6 -4.5t9 -5.5t5 -4t1 -2q0 -1 3 -1.5t6 -2.5l8 -4v-1q0 -1 3 -1q1 0 1.5 -1t3.5 -2q2 -1 4 -3.5t5 -2.5q7 0 13 -6t11 -7q1 0 10 -3.5t21.5 -7.5t28.5 -7t33 -3q9 0 30.5 3.5
t40.5 9.5q1 0 3 0.5t4 0.5l7 3q2 0 6 2q29 12 42 21t15 12q3 2 5 4t3 2.5t2 1.5q2 2 5 2q1 0 2 -1v-1q0 -1 -1 -2.5t-1 -2.5q-2 -5 -5 -6.5t-5 -1.5q-2 -1 -1.5 -2.5t-2.5 -2.5q-2 -1 -8 -7t-7 -8q-2 -3 -11.5 -7.5t-10.5 -3.5q0 1 -7.5 -4.5t-20 -12t-28.5 -13.5t-33 -9
q-6 -1 -8 -2.5t-6 -3t-13.5 -2.5t-30.5 -1h-4q-18 1 -29 3t-19 4q-5 2 -8 4t-9 3q-3 0 -12 4.5t-19.5 11.5t-20.5 14t-15 13q-17 20 -31 31t-17 12q-2 0 -3.5 2.5t-3.5 4.5q-1 0 -2 1l-2 2q-7 5 -15 14t-18 13q-5 5 -11.5 8t-12.5 6q-3 2 -10.5 5t-15.5 6t-16 5t-12 2h-10
q-10 0 -17 -2t-12 -4q-6 -3 -11 -6l-3 -3q-5 -2 -6 -5t-1.5 -6.5t-1.5 -6.5t-6 -5q-1 0 -3 -5q-1 -2 -1 -4q-2 -1 -8 -1q-3 0 -8.5 1t-11.5 3t-10 4.5t-4 5.5q0 4 3 10t13 13q16 11 35 14t30 4h4q7 1 6 1.5t2 0.5l6 -1h4.5t7.5 1z" />
    <glyph glyph-name="R" unicode="R" horiz-adv-x="410" 
d="M607 -84q-1 -2 -5 -2t-9 -5q-1 -1 -3 -1q-3 0 -3 3l1 3q0 4 5 5t8 1q6 0 6 -4zM617 -79q-6 1 -6 2q0 3 4 3q6 0 6 -3q0 -2 -4 -2zM444 -78q5 -4 23 -11.5t47 -7.5q14 0 31 3q10 2 13 2.5t11 2.5q2 1 6 1q7 0 7 -4q0 -5 -7 -7q-39 -12 -71 -12h-12q-14 1 -23 2.5
t-16.5 3.5t-14 4.5t-14.5 6.5q-3 1 -8 3.5t-10.5 6t-10.5 7t-7 6.5l-7 7l-3 2q-8 8 -20 22.5t-21 26.5q-1 1 -1.5 4.5t-1.5 3.5q-2 0 -6 8t-9 17.5t-8.5 18.5t-3.5 10q0 2 -2 2q-1 0 -2.5 3t-3 7.5t-3 9.5t-1.5 7t-5.5 14t-5.5 20q-4 6 -7 16t-5.5 21t-4 21t-3.5 16
q-1 1 -2 6.5t-2.5 12t-2.5 12t-2 8.5q-5 20 -9 38.5t-6 32.5q-3 17 -5 31q-8 -11 -13 -20q-5 -8 -9 -14.5t-6 -8.5t-2.5 -5t-1.5 -5q-1 -3 -1 -5q-2 0 -2.5 -2.5t-1.5 -3.5q-5 -6 -8.5 -12t-6.5 -11q-4 -6 -6 -11q-2 0 -3 -1q-2 -2 -2 -6q-4 -7 -8 -17q-5 -8 -11 -19.5
t-14 -24.5q0 -1 -1 -3t-1.5 -3.5t-1.5 -2.5l-8 -9q1 1 -7.5 -17.5t-26.5 -44.5q0 -4 -4 -8t-4 -5q0 -3 -5 -13t-6 -10q-2 -1 -5 -6t-5 -10l-11 -21q-3 -8 -10 -12h-8q-10 0 -22 12q-2 2 -5 4.5t-3 7.5q0 4 7 9l9 11l9 15q1 4 5 8.5t5 4.5q2 0 2 3t1 5l3 3q2 2 4 8t3 5
q2 0 10.5 14t14.5 23q1 1 8 11t7 12q1 4 17.5 28.5t41.5 65.5q0 1 3 6t6.5 10.5t6.5 10.5t4 5q5 5 7.5 12.5t7.5 12.5q14 19 18 29.5t8 11.5q2 1 3 6t2 5q0 1 4.5 7.5t3.5 7.5t3 6.5t5 7.5q5 10 7.5 17.5t2.5 15.5q0 5 -0.5 9.5t-0.5 7.5q0 5 2 5q6 0 11 9t6 10q2 4 7.5 5.5
t11.5 1.5q9 0 17.5 -3t10.5 -8q0 -1 0.5 -2t0.5 -2q0 -5 -3 -9t-4 -6q-20 -28 -31.5 -47t-11.5 -31q0 -8 3 -16t11 -14.5t22.5 -10.5t37.5 -4h8q2 0 2 1h3q3 0 4 1q3 3 6 3q2 1 8 3.5t13 6t12.5 8t7.5 10.5l2.5 2.5t3.5 1.5q1 0 5.5 5.5t9.5 13.5t10.5 17.5t8.5 19.5
q0 1 1.5 7t3 13t3 13t2.5 6q2 1 2 11q1 4 1 12q0 5 -0.5 10t-0.5 10q0 18 -3.5 29t-7 18t-6.5 9.5t-3 3.5q-1 0 -1 1v2q0 2 -1.5 1.5t-1.5 1.5q-5 6 -12 10t-14.5 6.5t-13.5 4t-7 1.5q-2 0 -3 -0.5t-3 -0.5l-1 1q-1 0 -2 1l-6 -1q-2 2 -3 2t-1 -1t-2 -1t-2.5 0.5t-1.5 0.5
q-3 0 -4.5 -1t-3.5 -1h-6q-18 0 -33.5 -4.5t-28 -9.5t-20.5 -9t-10 -4q0 -1 -1 -2t-4 -1q-2 0 -15 -8.5t-31 -22t-38 -30t-35 -34.5q-19 -22 -30.5 -44.5t-11.5 -36.5v-4q0 -2 -1.5 -4.5t-1.5 -6.5q0 -10 -1 -10q-1 -1 -1 -3t1 -3t1 -7t2 -16t7 -15q3 -3 5 -6.5t9 -3.5
q8 0 11.5 9t3.5 17q0 4 2 7t2 5q0 8 9.5 10.5t16.5 3.5q8 0 15.5 -8.5t7.5 -9.5q0 -2 -1.5 -3t-1.5 -2q-2 -21 -18.5 -28.5t-27.5 -7.5q-2 0 -4.5 -0.5t-3.5 -0.5q-2 0 -6 -1t-12 -1q-26 0 -39 14t-15 31q0 2 -1 3t-1 5q0 1 -0.5 1t-0.5 1v1v6q0 2 0.5 3.5t0.5 3.5t0.5 4
t0.5 4q0 10 3.5 22t9 23.5t12.5 21t14 14.5q2 2 3 4t3 4l3 3q5 6 15.5 15t21.5 18t20.5 16t13.5 8q3 2 5 5t6 4q5 1 11 6.5t7 5.5q4 0 10.5 4.5t18.5 11.5t30 16t46 18q17 5 34 11t37 6l11 1q1 -1 6 -1h14q37 0 53.5 -12t20.5 -21q3 -10 10 -17t7 -18q0 -2 0.5 -6t0.5 -5
q0 -2 2 -7.5t2 -19.5q0 -8 -1 -19t-4 -28q-5 -28 -12 -41.5t-7 -14.5q0 -3 -7 -13.5t-8 -13.5q0 -1 -0.5 -1t-0.5 -1v-1q-8 -15 -19 -27q-10 -11 -24 -21.5t-33 -15.5l-26 -5q-1 -1 -4 -1q-2 -1 -5 -1q-3 -1 -10 -1q-6 0 -8 2q-2 0 -2.5 0.5t-1.5 0.5q-1 -1 -6 -1q-3 0 -4 1
q-2 2 -8 2q-7 1 -15 9l-16 16q-9 10 -17 22q2 -8 6 -18q3 -8 6 -19t7 -25q0 -1 2 -6.5t4 -12t3.5 -11.5t1.5 -6q1 -2 3.5 -5.5t7.5 -26.5q1 -5 5 -10t4 -9v-4q0 -3 4 -10t4 -12q0 -2 1.5 -4t1.5 -4q0 -5 9 -27q1 -2 1 -3t2 -3q1 -2 2.5 -7.5t3.5 -13t4.5 -15t5.5 -11.5
q2 -2 2 -3t-0.5 -1.5t-0.5 -1.5t1.5 -2.5t1.5 -3.5q0 -1 9.5 -20t23.5 -42t29.5 -43.5t27.5 -24.5q2 0 4 -2.5t5 -4.5z" />
    <glyph glyph-name="S" unicode="S" horiz-adv-x="576" 
d="M495 327q-17 -15 -38 -34t-45 -38q-2 -2 -8.5 -7.5t-6.5 -7.5t-9 -5t-27 -20l-7 -7t-5 -3q-26 -20 -54 -44t-70 -51l-24 -15q-10 -10 -17 -13.5l-9 -4.5q-1 -1 -1.5 -2t-2.5 -2q-24 -14 -30 -20.5t-9 -6.5q-4 -2 -5.5 -7t-8.5 -7q-8 -3 -12.5 -7.5t-9 -9.5t-11 -9.5
t-16.5 -8.5q-2 0 -3 1q-1 0 -4 -3q-4 -1 -8.5 -3.5t-13.5 -4.5q-2 -1 -5 -1q-4 0 -8.5 1t-9.5 3q-8 1 -12 6t-5 10v4q0 5 3 7t8 4q1 7 7 11t13 5q3 5 11.5 7t16.5 2q2 0 4.5 -0.5t4.5 -0.5h4q2 0 4 2.5t5 3.5q14 2 30 8t31.5 13.5t29.5 15.5t23 14q8 5 14 9l9 6q2 2 2.5 3.5
t2.5 1.5q1 0 12 7.5t16 9.5q25 19 41 32.5t27.5 23t20.5 17t20 15.5l11 10l7 2q1 0 1 1l10.5 10.5t21.5 17.5q2 2 4.5 5.5t6.5 3.5l8.5 8t18 17.5t18 17.5l8.5 8l14 12q23 17 33.5 31t12.5 15q10 9 22 22t23 25.5t18.5 22t9.5 10.5q3 2 6 10.5t7 8.5q1 0 2.5 3.5t1.5 5.5
q1 5 5 8.5t4 5.5q16 23 26 32t12 9q3 1 4 7t3 8l7 6q2 8 12 18t23 11l8 -2h3q3 0 6 -1t4 -4q0 -4 0.5 -7t0.5 -5q0 -8 -2 -11t-7 -5q-5 0 -6 -5t-3 -7q-5 -3 -11 -4.5t-12.5 -3t-12 -4.5t-9.5 -10q-3 -5 -9 -12.5t-13.5 -19.5t-15.5 -29.5t-15 -43.5l-17 -66
q-2 -14 -5 -17.5t-3 -8.5v-6q-2 -2 -5 -12.5t-6 -22.5t-6 -21t-4 -9t-4 -9.5t-3 -12.5q-1 -13 -4.5 -15t-2.5 -4q0 -1 -0.5 -2t-0.5 -2t-0.5 -5.5t-2.5 -6.5t-3.5 -8.5t-1.5 -8.5q-6 -18 -13.5 -35t-15 -30.5t-13.5 -22.5t-9 -13q-3 -5 -7 -8t-4 -4q-2 -5 -6.5 -11t-9 -11
t-9 -8.5t-5.5 -3.5q0 -4 -5 -6q-3 -2 -6 -2q0 -5 -4.5 -5t-4.5 -4q-9 -8 -19 -13q-8 -5 -18 -8.5t-20 -3.5q-2 0 -5 -1q-11 -3 -21 -3q-16 0 -28 3q-14 3 -22 8t-14 11.5l-12 13t-16 11.5q-4 3 -4 9v4q0 4 -3 4q-2 0 -7 9.5t-5 18.5q0 6 2 8t2 9t5 7q8 0 12.5 6t16.5 6
q2 0 3 -1q3 -3 6 -3.5t5.5 -1.5t4 -4t1.5 -9q0 -7 -3 -22q1 -2 1 -6q0 -7 -3 -13t-3 -14q0 -2 0.5 -3t0.5 -3q13 -37 49 -37q13 2 25 6.5t20 12.5l14 9q3 3 3.5 5t3.5 2q6 2 9.5 7t11.5 13q4 4 8.5 11t8.5 9q2 1 3 3t2 3q3 6 4 7t2 1q0 2 2 4q10 12 20 30.5t17.5 36.5
t12.5 31.5t6 13.5q0 1 0.5 2.5t0.5 2.5q3 4 5 11t4 13.5t3.5 11.5l1.5 5l3.5 10.5l8 24t8.5 26t5 17.5q0 2 1.5 8t3.5 7q1 1 1.5 7.5t2.5 7.5v4q3 11 6.5 21t6.5 18q4 9 7 16q-14 -15 -27 -29q-11 -12 -25 -25.5t-25 -23.5l-22 -19v0z" />
    <glyph glyph-name="T" unicode="T" horiz-adv-x="225" 
d="M363 525q-5 -8 -9 -14q-4 -5 -7 -10t-3 -6l-3 -8l-7 -11q-6 -11 -14 -24.5t-10 -15.5t-2 -4.5t-4 -6.5l-1.5 -1.5t-1.5 -2.5q-4 -10 -7.5 -15.5t-4.5 -7.5q-3 -5 -4.5 -9t-2.5 -6q-1 -1 -2 -1t-2 -2q0 -2 -6.5 -12.5t-13.5 -21.5t-13.5 -20l-6.5 -9q-2 -1 -2 -5.5
t-3 -4.5l-3 -4t-7.5 -10.5t-9 -14t-7.5 -14.5q-1 -2 -1.5 -4.5t-1.5 -2.5l-4 -4q-1 -1 -1.5 -1t-1.5 -2q0 -2 -27 -46q-2 -4 -7.5 -14.5t-11.5 -21.5t-11 -20.5t-6 -10.5q-1 -2 -7.5 -11.5t-12.5 -21.5q-2 -3 -5 -5t-3 -7l-2 -4q0 -3 -1 -3q-2 -1 -1.5 -3t-1.5 -4
q-3 -5 -7.5 -12t-9.5 -18q0 -3 -2 -5q-5 -4 -7.5 -12t-4.5 -16t-5 -14t-8 -6h-4q-5 0 -11.5 -5t-7.5 -5q-7 0 -7 3q0 8 -4.5 9.5t-6.5 2.5q-8 8 -8 13q0 4 5 9l13 13q1 1 0.5 1.5t1.5 2.5q6 8 10 14t5 6q2 0 4 6.5t4 7.5t4 4.5t4 6.5q2 2 4 3.5t2 2.5t5.5 10.5t13.5 23.5
t18 30.5t18.5 30.5t14.5 23.5l6 9.5q-1 0 2 6q5 2 7.5 9.5t4.5 8.5q4 2 4 6q1 3 4 7.5t4 4.5t7.5 11.5t15 25.5t15.5 26t9 12t3.5 6t5.5 10q2 2 4.5 9.5t6.5 6.5q1 0 1.5 3t2.5 4q1 0 3 4l4.5 9t4.5 9.5t3 5.5q4 5 9 14t11 20q0 3 1 3h2l16 26q2 5 7 13.5t7 10.5l4 6
q2 2 3.5 5l3.5 7q4 8 11 18q-12 -1 -23 -1h-26q-8 0 -17.5 -0.5t-20.5 -0.5h-4q-8 0 -13 -1.5t-11 -1.5h-5q-2 0 -4 -0.5t-4 -0.5q-11 0 -18 -2t-15 -2q-2 0 -3.5 0.5t-2.5 0.5q-3 0 -12.5 -2.5t-20.5 -2.5q-3 0 -6 -1t-6 -1q-2 1 -5 1t-3 -3t-8 -3h-4q-11 2 -20.5 7.5
t-9.5 11.5q0 2 3 5q2 1 4 3t5 3q2 2 5.5 6.5t8.5 6.5q1 1 4 1q7 0 16 -5t26 -5q4 0 7.5 -2.5t15.5 -2.5q3 0 7.5 0.5t9.5 0.5h8q8 0 23.5 1.5t33.5 1.5h21q2 0 5.5 -0.5t8.5 -0.5t7 1q2 0 9 -0.5t16 -0.5h23q2 3 4 7q4 8 4 10q1 5 3.5 9t2.5 8q0 2 1.5 3t3.5 8q2 4 8 6.5
t7 2.5q1 1 4 2.5t5 1.5l2 -2q0 -1 1 -1t3 1q4 2 7 2q3 -5 7 -9t5 -6t2 -3q-17 -15 -24 -27q-4 -7 -8 -13h48q3 1 7 1q2 0 4.5 -0.5t7.5 -0.5q2 0 3.5 0.5t6.5 0.5h10q3 0 7.5 1t10.5 2q2 0 4 0.5t6 0.5h5q6 0 8.5 0.5t7.5 0.5q2 0 5 0.5t5 0.5q3 0 5.5 0.5t6.5 0.5
q2 0 5.5 1t7.5 1q5 0 10.5 0.5t10.5 0.5l11 1q9 0 29 2t60 9q3 1 9 1q8 0 12 -2t4 -4t-0.5 -2.5t-0.5 -3.5t-4.5 -6t-5.5 -3q-2 0 -11 -3t-17 -3q-5 0 -6 1t-4 1q-7 0 -16 -1t-16 -1q-2 0 -3 0.5t-3 0.5t-5 -0.5t-5 -0.5q-6 0 -13 -1t-11 -1h-47q-6 0 -26.5 -1.5t-72.5 -2.5
q-2 0 -11 -0.5t-19 -0.5q-11 -1 -26 -1z" />
    <glyph glyph-name="U" unicode="U" horiz-adv-x="404" 
d="M163 349l7 10q8 16 15.5 25.5t9.5 18.5q1 2 3.5 4t2.5 4t2 4.5t3 4.5q11 19 24.5 44.5t20.5 41.5l5 14q1 2 1 3.5t2 3.5l4 14t3 8q2 2 2 6t1 6q2 8 2 10v15q-2 4 -3 7t-6 6h-3q-2 0 -4 0.5t-4 0.5q-5 0 -5 5q0 2 0.5 3l1.5 3q0 3 7 3q5 0 7.5 -3.5t4.5 -3.5q5 0 6.5 -4
t7.5 -6t10.5 -12.5t4.5 -17.5v-8t1 -7q0 -5 -1 -11t-2 -11q-2 -6 -3 -12q0 -2 -1 -3.5t-1 -3.5q-5 -16 -14 -35.5t-14 -27.5l-1 -4q0 -2 -3 -7t-6.5 -12t-7.5 -14t-6 -11l-3 -5l-10 -20t-10 -18q0 -1 -3 -2l-8 -11q-6 -13 -9.5 -16.5t-5.5 -9.5l-5 -9q-4 -4 -6.5 -9
t-7.5 -12q0 -1 -2.5 -6.5t-7 -13t-9.5 -16t-8 -14.5q-4 -6 -8 -14.5t-7 -13.5l-8 -16q-13 -20 -27 -47.5t-19 -47.5q-1 -2 -3.5 -11.5t-2.5 -11.5l-2 -6q0 -1 -1.5 -2t-1.5 -2q0 -2 0.5 -3.5t0.5 -2.5q0 -6 -1 -9t-1 -10q0 -14 7.5 -19t17.5 -5h12q8 0 14 2.5t17 6.5
q5 2 16.5 9t17.5 12l10 8q8 5 20 17.5t16 16.5l41 44q1 1 5.5 6t10 11.5t11.5 13t9 9.5l22 27q8 8 11.5 15t4.5 7q7 6 10 13t4 10q4 5 6 10.5t3 5.5q2 0 4 6.5t4 7.5q3 2 4 4.5t2 4.5q2 2 3 4q1 1 1 3q7 14 14.5 26.5t12.5 24.5q5 10 8 15.5t5 10.5q1 2 2 3t3 5
q14 28 26.5 51.5t12.5 24.5q0 2 2 7t4 8q1 1 1 4q0 8 8.5 17t8.5 15q1 4 4 10.5t11 7.5q3 0 11 2q3 1 6 1q5 -5 5 -10t1 -6q2 -4 2 -9q0 -11 -8.5 -21.5t-16.5 -18.5q-2 -2 -1.5 -4.5t-1.5 -4.5q1 1 -2 -3.5t-6.5 -10.5l-7 -12t-3.5 -9q0 -1 -2 -5.5t-5 -9.5t-5 -8.5
t-1 -2.5q0 -2 -9 -19.5t-20.5 -37.5t-21.5 -37l-10 -17q-5 -5 -6 -12.5t-6 -13.5q-3 -5 -7.5 -14t-8.5 -18.5t-7.5 -17t-4.5 -7.5q-3 -1 -2 -5.5t-3 -4.5q-2 -1 -2 -3.5t-1 -4.5q-5 -8 -10 -18t-5 -11q-2 -3 -3 -6t-3 -5q-1 -2 -1.5 -3.5t-2.5 -3.5q-4 -5 -8.5 -18.5
t-8.5 -16.5l-3 -6t-6.5 -14.5t-6.5 -18.5t-3 -19q0 -16 15 -16q3 0 6.5 1.5t6.5 2.5q3 0 4 1q2 1 3 2t3 1t9.5 5t9.5 7q9 8 17 12.5t16 12.5q2 2 4 3.5t4 3.5q3 3 7.5 6.5t8.5 6.5l2 2q1 1 2 1q3 3 4 3q4 0 4 -4q0 -2 -4 -6q-4 -5 -11 -12t-12 -9l-19 -16q-8 -7 -15 -12.5
t-10 -5.5q-2 -1 -8 -5.5t-9 -4.5q-1 -1 -3 -1q-1 -2 -4 -4t-12 -5q-8 -3 -18 -3q-5 0 -10 1t-13 6q-3 2 -6.5 8.5t-3.5 7.5q0 2 -0.5 3t-0.5 3v3q-1 0 -1 5v11q0 8 2.5 18.5t9.5 23.5q1 2 5 8.5t3 7.5l44 81l-29 -36l-44 -48q-2 0 -4.5 -4t-5.5 -7l-16 -15
q-26 -26 -46.5 -43t-49.5 -28q-5 -2 -14.5 -6t-19.5 -4l-9 -2q-11 0 -24.5 3t-18.5 14q-1 2 -2 3.5t-1 4.5q-3 1 -4.5 6t-2.5 10.5t-1 10.5v7v4q0 2 1 7v6q0 3 1 5.5t1 6.5q2 5 2.5 9t2.5 6t3 6t1 5q4 12 10 23t7 13q6 11 13 28.5t12 22.5q4 4 5 7t3 7q2 3 4 9l4 5z" />
    <glyph glyph-name="V" unicode="V" horiz-adv-x="269" 
d="M95 -2q-1 0 -2 -1.5t-2 -1.5q-3 -1 -3 -1.5t-2 -0.5q-1 0 -6 2t-7 6q0 5 1 6t1 3q0 1 -0.5 4t-0.5 5q0 1 1 6t1.5 11t1.5 11.5t1 8.5l2 10v7q0 2 0.5 3.5t0.5 3.5v4q1 2 1 8l3 19l1 6t1.5 12.5t1.5 13t1 8.5t1 5.5t2 8.5v4q0 2 1.5 9.5t3.5 12.5q0 2 2.5 24t6.5 48
q1 3 1.5 7.5t0.5 5.5t0.5 6t2.5 7q2 10 2.5 20t3.5 24v5l5 36q1 5 0.5 9t1.5 7q0 2 0.5 4t0.5 4q1 2 1 4.5v3.5l4 24l7 70q0 2 0.5 3.5t0.5 4.5q-1 4 -1 16l-1 13q0 4 -1.5 11t-4 14.5t-5 13t-4.5 5.5h-11q-5 0 -5 2q-1 2 -1 4v1q0 3 3 3.5t5 0.5q5 0 8.5 -3t5.5 -3
q5 0 15 -8q7 -5 13.5 -15t8.5 -16q0 -6 2 -9q3 -5 4.5 -16.5t1.5 -23.5q0 -11 -1 -20.5t-2 -13.5l1 -18q-2 -4 -2 -6l-3 -17v-4l-2 -23v-4q-1 -1 -1 -2t-0.5 -2t-0.5 -3q0 -3 -0.5 -6t-0.5 -7q-2 -4 -2 -10q0 -2 -1 -5.5t-1 -5.5l-10 -70q-1 -6 -1 -10.5t-2 -6.5v-9
q-1 -3 -1 -11q0 -7 -2.5 -13.5t-2.5 -11.5v-7l-1 -6.5t-2 -14t-1.5 -14l-0.5 -6.5q-1 0 -1 -5t-1 -8q-2 -10 -2 -12q0 -1 -0.5 -3.5t-0.5 -3.5q0 -2 -0.5 -4.5t-0.5 -6.5q-1 -8 -1 -15t-2 -12l-5 -59q6 9 9.5 14t8.5 11l3 4t6.5 8.5t6.5 9t3 5.5q1 1 2 3t4 5l51 76
q3 4 6 8.5t4 4.5t2 3.5t2 3.5q2 0 8.5 9t13.5 20t13 20t7 9q4 0 4 6q0 2 2 3t2 2l16 22q3 4 9.5 14.5t14 22t13.5 20.5t8 9q1 3 5 7q2 3 4.5 8t6.5 8l7 10q2 4 5 7l13 17l27 41q6 11 15.5 24t12.5 15l3 3q0 5 5.5 11.5t19.5 28.5q1 2 8 9.5t8 10.5q3 6 7.5 10t10.5 9
q0 2 4 3.5t6 2.5q1 0 2.5 2.5t5.5 3.5t8.5 3t11.5 2h19q8 0 8 -1v-4q0 -2 -3 -3.5l-7 -3.5q-8 -4 -14.5 -11t-12.5 -11q-2 -1 -3 -3t-3 -4q-1 -1 -7 -5.5t-11 -10.5l-19 -22q-9 -11 -17.5 -21t-15.5 -19q-5 -6 -12.5 -17t-16.5 -22.5t-17 -22t-14 -17.5l-9 -13
q-7 -8 -11.5 -15t-6.5 -8q-1 -1 -2 -3q-1 -1 -1 -1.5t-1 -1.5l-1 -1l-4 -5q-17 -20 -26.5 -35t-22.5 -34q-6 -9 -8.5 -11.5t-6.5 -8.5q-1 -2 -4.5 -6t-5.5 -9q-3 -5 -9.5 -13t-13 -16.5t-11.5 -15t-5 -7.5q-4 -5 -19 -25.5t-33 -44.5t-34 -46.5t-22 -31.5q-3 -5 -7 -10
t-7 -10q-2 -2 -3.5 -5t-4.5 -7q-1 -1 -1 -2t-1 -1t-5.5 -3.5t-6.5 -4.5z" />
    <glyph glyph-name="W" unicode="W" horiz-adv-x="458" 
d="M561 424l6 12t8 15.5t7 13t5 6.5l3 5q0 5 3.5 9t9.5 12l8 19q0 2 5 10t7 11q5 14 16 23q0 3 3 5q1 0 6 0.5t7 2.5q8 5 22 5q8 0 10 -1t6 -1q5 0 7 -3q1 -1 1 -5q0 -2 -8 -4q-5 -1 -12 -8.5t-12 -12.5q-3 -2 -5 -7q0 -1 -5.5 -5.5t-7.5 -9.5l-9 -8q-12 -14 -24 -30
t-26 -38.5t-33.5 -54t-46.5 -74.5l-14 -21q-2 -2 -4 -6q-4 -5 -10 -16q-1 -4 -4 -4.5t-5 -8.5q-5 -9 -8.5 -15.5t-5.5 -8.5q-7 -7 -16.5 -25t-27.5 -43q-15 -22 -33.5 -54.5t-35.5 -56.5l-24 -40q-2 -4 -4 -6l-4 -4t-3 -2q-6 -1 -15.5 -4t-13.5 -3q-3 0 -3 5l-3 4q-1 2 -1 8
q0 4 -1 6l2 14q1 22 4 38t3 24l1 6t2.5 12.5l3 13t1.5 8.5q1 3 2 9t1.5 12t1.5 11t3 6q1 0 2.5 6.5t3.5 17t5 23.5l6 26q1 3 2 7.5t1 5.5t1 6t3 7q1 6 2.5 13t3 13.5t2.5 11t2 4.5t2 4.5t2 9.5t2 9.5t1 5.5q2 4 2 9l1 5q0 3 1 4q4 5 4 12.5t3 11.5q5 17 8.5 33t6.5 30
q4 16 7 30l-23 -40q-16 -27 -24.5 -41t-14.5 -24.5t-13.5 -23t-22.5 -36.5q-4 -6 -8 -15t-10 -16q-2 -3 -8 -13t-13 -21.5t-12 -21t-6 -11.5l-75 -117q-6 -12 -17 -27t-26 -46q-5 -8 -5.5 -10.5t-0.5 -4.5t-6.5 -6t-12.5 -4q-3 0 -4 1t-2.5 2t-1.5 2q0 5 -3.5 5t-5.5 6
q0 5 3.5 18t3.5 24q0 3 1 8t1 6q0 4 3 6t3 7q0 3 1 10.5t2.5 15t2.5 13.5t2 8q2 4 3 9q0 5 4.5 19.5t5.5 18.5q8 40 14.5 65.5t11.5 56.5l5 20q1 2 2 7.5t2 12.5t2 12.5t2 7.5q1 3 2.5 6t1.5 5q0 -1 1.5 5.5t3.5 16.5t4.5 22t4.5 21l13 69l1 14q1 2 0.5 3.5t1.5 3.5v10
q0 3 0.5 4.5t0.5 3.5l-1 13q0 3 -1 10.5t-2.5 15t-4 13t-4.5 5.5h-4h-8q-4 0 -4 4v6q0 2 7 2q5 0 9 -3.5t6 -3.5q6 0 13 -6q7 -5 13.5 -16t8.5 -18q0 -5 2 -13q2 -4 2 -15q1 -5 2 -10.5t1 -12.5l-1 -12q0 -4 -1 -8t-1 -7q-1 -4 -1.5 -10t-2.5 -12q-2 -7 -3 -14q-2 -2 -2 -5
v-5q0 -4 -1 -3q-2 0 -3 -8.5t-2 -13.5q-2 -9 -6 -32.5t-15 -59.5q0 -2 -0.5 -5t-0.5 -4q0 -5 -2 -12.5t-4 -15.5l-4 -16t-2 -13q0 -3 -1.5 -9.5t-3.5 -14t-3.5 -14t-2.5 -7.5q0 -2 -1 -4.5t-1 -7.5q0 -7 -3.5 -20.5t-5.5 -17.5q-3 -3 -3 -13v-7q-2 -10 -4 -15l-4 -8v-5
q0 -5 -0.5 -9.5t-1.5 -9.5l-3 -16l10 14q8 11 20.5 27t16.5 22q2 8 4 9t5 5q3 3 13 19.5t19 30.5l18 31q11 19 15.5 25.5t9.5 16.5q3 3 8.5 13t11.5 22l11.5 23t10.5 16q4 6 7.5 14t7.5 16t8 14.5t9 9.5q1 1 5.5 8.5t9 17.5t9 19.5t7.5 14.5q1 2 6 8.5t10 21.5q1 4 6 14
q2 5 1.5 11.5t4.5 6.5h17q9 0 14.5 -1t10.5 -6q3 -5 3.5 -7t0.5 -6t-2 -10.5t-6 -11.5q-1 -14 -3.5 -21.5t-2.5 -10.5l-3 -18q-2 -3 -3 -6.5t-3.5 -11t-5.5 -21t-8 -35.5q-1 -2 -2 -5t-1 -4q0 -2 -1.5 -6t-1.5 -6l-20 -83q-2 -6 -2 -10.5t-2 -6.5t-3.5 -6.5t-1.5 -9.5
q-1 -4 -2 -5t-1 -6l-1 -5q0 -6 -1 -7.5t-1 -4.5t-1.5 -8.5t-3.5 -10.5q-2 -4 -2 -12.5t-8 -31.5l-2 -11q-3 -14 -5.5 -25t-4.5 -20q-3 -18 -5.5 -30t-2.5 -23l1 -5q9 14 17 26q7 11 13.5 20t9.5 12q3 6 11 17t10 16q5 9 8.5 14.5t8.5 11.5q4 6 9 17t10 15q5 5 8 11.5t5 11.5
q3 5 7.5 11.5t9.5 16.5q2 5 5 9t5 8q3 4 5 9l6 11q3 2 7.5 12t9.5 16q1 2 3 3t2 4q-1 1 0.5 1.5t1.5 1.5q2 7 8 17t7 11q6 11 13.5 23t14 22t11 17l4.5 7q10 16 11.5 21t6.5 10z" />
    <glyph glyph-name="X" unicode="X" horiz-adv-x="419" 
d="M220 207q-5 -6 -8 -10t-5 -6q-2 -1 -1.5 -1.5t-0.5 -1.5q-3 -5 -9 -11t-12 -13t-11 -13.5t-8 -10.5q-4 -6 -16.5 -21t-28.5 -35l-48 -62q-1 -1 -2 -6t-5 -7q-2 -1 -3.5 -5t-2.5 -6t-7.5 -13t-13.5 -18q-2 -2 -4.5 -3t-2.5 -2q0 -8 -11 -14t-17 -6q-5 2 -11 3.5t-6 6.5
q0 3 1 4q0 1 -0.5 6t-0.5 11q0 7 4 6.5t5 5.5q0 6 6.5 13t15 13t16 11t10.5 8t9.5 8t13.5 11t13 12t7 10q10 5 14 13.5t8 10.5q5 5 12 11t7 8q0 1 8.5 11t22 25.5t29.5 34t31.5 36.5t28.5 33.5t20 24.5l-2 29q0 9 -0.5 18.5t-0.5 14.5v8q0 1 -0.5 2t-0.5 3q0 3 -1 4
q0 1 0.5 1.5t0.5 1.5q0 5 -0.5 9t-0.5 9q0 2 -1 3t-1 3t1 3l-2 24t-1 24v5.5t-1 9.5v10q-1 5 -1.5 9t-0.5 9v7q-1 2 -1 10l-1 11q0 1 -0.5 1.5t-0.5 3.5v8q-4 26 -11 42.5t-23 23.5q-2 2 -9 2q-4 -1 -8 -1h-4q-1 0 0 1q0 3 5 6q4 2 5 2q3 0 5.5 -1t3.5 -1q2 2 5 2
q4 0 9 -1.5t6 -1.5q8 0 14.5 -8t12.5 -10q4 -2 4.5 -6t2.5 -6q2 -5 4.5 -10.5t4.5 -10.5l4 -12q2 -2 1.5 -3.5t0.5 -3.5q3 -26 5 -39t2 -21q0 -5 1.5 -14.5t1.5 -15.5q0 -3 -1 -4l3 -32q0 -7 1 -10q1 -1 1 -3l-1 -11q1 -3 1 -9v-12q0 -1 0.5 -2.5t0.5 -3.5v-9l1 -17l13 15
q2 2 3 6t3 4q3 2 6.5 7t10.5 13q4 5 13.5 15.5t19 22.5t18 22t10.5 14q2 2 3 4t4 5q11 11 11 15q0 1 6.5 6.5t8.5 10.5q10 13 16 20.5t8.5 11t3 5l0.5 1.5q0 3 2 5q3 2 7 7.5t8 11.5q4 7 9 15q1 4 2 7q2 6 8 7q5 1 6.5 6.5t5.5 7.5q3 2 3 4t3 3q10 1 16.5 4t11.5 3q2 0 5 -3
t3 -11q0 -10 -8 -23q-2 0 -6 -1t-6 -5q-1 -3 -2 -8t-6 -5q-2 0 -5 -4.5t-5 -3.5q-7 0 -18 -13t-21 -21q-6 -7 -14 -16.5t-15.5 -18.5t-13.5 -15.5t-7 -6.5q-3 -1 -6 -7.5t-4 -6.5q-2 0 -11 -8.5t-16 -19.5l-3.5 -3.5l-5.5 -5.5l-8 -10q0 -1 -4.5 -5.5t-9.5 -10t-9.5 -10.5
t-4.5 -6q0 -2 -4 -5t-5 -4l-9 -11q-8 -10 -12.5 -16.5t-6.5 -9.5q0 -7 0.5 -26t2.5 -37v-14q1 -15 1.5 -29t0.5 -16t0.5 -3.5t0.5 -3.5v-4q0 -10 1.5 -22.5t1.5 -19.5v-7.5t1 -11.5t1 -10v-12v-11l1 -10q0 -6 1 -7q0 -2 1 -2q0 -6 1 -9v-8q1 0 0.5 -3t1.5 -6q1 -2 1 -4
q3 -4 9 -4q8 0 16 4t15 10q5 4 13 11t13 12l29 27q2 2 4 2q1 0 3 -3q0 -6 -18 -22l-16 -17q-2 -2 -4.5 -2.5t-4.5 -0.5v-1q0 -1 1 -2q-2 -5 -8.5 -11t-9.5 -8q-2 -2 -4.5 -3.5t-3.5 -1.5h-4v-1q0 -1 -0.5 -1t-0.5 -1q-3 -5 -12.5 -10t-14.5 -6l-7 -1q-13 0 -18 5t-10 12
q-5 5 -5 12l-3 9v7.5t-2 10.5q0 2 0.5 4t0.5 4t-1 3q-1 2 -1 4.5v4.5q0 1 -0.5 1.5t-0.5 1.5v2v10q0 4 -1 8q-1 14 -1 25v32v7q-1 0 -1.5 2.5t-0.5 4.5v12v2q0 1 1 1q-1 2 -1 5.5v5.5l-0.5 10t-1.5 22.5t-1.5 24t-0.5 14.5z" />
    <glyph glyph-name="Y" unicode="Y" horiz-adv-x="297" 
d="M88 -77q15 26 30 48t15 27q0 1 3.5 4t5.5 8q3 5 4.5 9.5t3.5 5.5q1 0 6 8t10 17t9.5 16l4.5 7l-45 -33q-2 -1 -7.5 -7t-7.5 -6q-2 -1 -3.5 -1t-1.5 -2q-1 -2 -13 -12t-26 -24q-2 -2 -2 -1.5t-1 -1.5q-2 -3 -19.5 -19.5t-35.5 -38.5q-3 -5 -5.5 -7t-4.5 -4q-2 -1 -4 -6
t-9 -13q-5 -5 -9 -12t-6 -9q-1 -2 -1.5 -2t-2.5 -2q-17 -23 -29.5 -38t-14.5 -17l-2 -3l-2 -3q-6 -8 -11.5 -15t-10.5 -17q-2 -2 -2 -4t-2 -3q-2 0 -3 -2t-1 -3q0 -2 -2 -4q-1 -1 -4 -7t-6.5 -14t-7.5 -17t-7 -16q-1 -2 -2 -3t-1 -2t-4.5 -10.5t-4.5 -27.5v-9q0 -2 -1 -3
q0 -4 3 -12.5t13 -10.5q2 0 3.5 -0.5t3.5 -0.5q13 0 22.5 10t14.5 15l11 15q1 1 5 6.5t8.5 12.5t8.5 12.5t4 6.5q3 4 8 13l10 18t9 16.5t5 7.5q2 0 3.5 3l3.5 7q2 3 4.5 6t2.5 5q0 1 3 5.5t6.5 10t6.5 10.5t3 6q0 3 2 4.5t4 3.5q12 20 30 48t32 51zM191 531q0 -1 -1 -1h-4
q-7 0 -16.5 4t-14.5 18q-2 3 -2 5.5t-1 4.5t-1 5v5q0 1 -0.5 1t-0.5 1v1q-7 -6 -13 -12q-5 -5 -9.5 -11.5t-5.5 -12.5q0 -5 -3 -8q-2 -2 -2 -8v-5q0 -4 -2 -5t-2 -6q0 -4 -4 -10q-2 -3 -3.5 -5.5t-3.5 -4.5l-3 -3q-2 -1 -2.5 -2t-4.5 -1q-6 -3 -10 -3h-4q-2 0 -4 2l-1 1
q-11 4 -11 13q0 2 2 6l5 11l7 10q10 9 14 14t6 5l3.5 7t3.5 3q1 -1 7 6t11 11t9 8t12 9q1 3 3.5 6t4.5 5q2 3 3 9t6 6q2 0 5.5 -1.5t5.5 -1.5h4q5 0 7 -8q0 -2 -0.5 -3t-0.5 -3t0.5 -3t0.5 -2t-1.5 -1.5t-1.5 -2.5q-1 -4 -3.5 -7t-2.5 -4q-1 -1 -1 -3q-1 -2 -1 -8q0 -4 1 -6
q0 -3 2 -8.5t13 -7.5q11 0 33 14q19 11 25 22t12 11q1 0 1 2t1 3q4 1 5 2.5t1 4t0.5 5.5t5.5 6q2 2 7 9t7 7q9 0 17 -3.5t9 -2.5q3 0 3 -7v-15q0 -4 -6 -10q-10 -5 -14.5 -17t-6.5 -12t-3.5 -5.5t-7.5 -7.5q-11 -20 -21 -37q-8 -14 -15.5 -26t-9.5 -12l-5 -8
q-6 -10 -16.5 -29.5t-18.5 -28.5q-1 -1 -7 -10.5t-13 -20.5t-12.5 -20.5l-5.5 -9.5q-12 -20 -31 -54.5t-33 -65.5q-1 -2 -5 -11.5t-4 -11.5q-1 -2 -2 -4.5t-1 -5.5q0 -2 -1 -3.5t-1 -2.5q0 -3 -0.5 -8t-0.5 -6q0 -2 1 -4.5t1 -4.5q0 -14 7 -20t16 -6h4q14 0 32 9.5t36 22
t34 26.5t26 23q1 2 7 8t12.5 12t12 11.5l7.5 7.5l10.5 10.5l15 15l13.5 13.5t7 6q9 13 15 24q5 9 9.5 17t5.5 9q1 2 2 2t3 2q0 4 3 7q1 1 4.5 7.5t8 14t8 13t4.5 4.5q0 -1 2 1t2 4q0 5 6 13t6 12q0 1 4.5 7.5t10 14t10.5 13.5t7 6q1 1 1 3q0 3 1 4q17 22 30.5 35t24 19.5
t17.5 8.5t11 3q6 1 7.5 2.5t4.5 1.5q8 -2 14 -2t10 2q1 0 2 0.5t2 0.5q5 0 11.5 -4t12 -9t9.5 -11t4 -10q0 -8 -3 -12t-12 -4q-5 0 -7 1q-2 0 -4 1q-4 5 -9 5q-2 0 -4.5 1.5t-5.5 8.5q-7 14 -14.5 17t-12.5 3t-6.5 -1.5t-3.5 -1.5q-3 1 -9.5 -6.5t-8.5 -6.5q-5 -3 -11 -12.5
t-12.5 -21t-12 -22.5t-9.5 -15q-2 -2 -8.5 -13t-7.5 -13q-12 -23 -31 -54t-33 -54q-2 -4 -6 -14t-6 -10t-12.5 -20.5t-33.5 -58.5l-15 -26q-4 -5 -6 -7t-2 -4t-6 -11.5t-10 -15.5q-2 -4 -6 -8.5t-4 -6.5t-4 -7t-5 -6l-9 -16q-3 -5 -8 -14.5t-9 -11.5q-2 -2 -4 -5t-2 -4
q-3 -6 -5 -7q-2 -2 -10.5 -16.5t-16.5 -22.5q0 -1 -2 -4t-4 -5q-4 -4 -6 -11q-3 -5 -8.5 -13t-11 -15.5t-9.5 -13.5l-4 -6q0 -1 -2.5 -4.5t-4.5 -7.5q-1 -1 -5 -8t-9.5 -15.5t-9.5 -14.5t-5 -6t-0.5 -2t-1.5 -3q-5 -3 -7 -9t-6 -8q-2 -1 -2.5 -2.5t-1.5 -3.5l-2.5 -5
t-7.5 -12.5t-10.5 -16t-11.5 -17.5q-6 -10 -12 -17.5t-8 -10.5l-16 -23q-10 -15 -20 -29.5t-18.5 -27t-15.5 -22t-10 -12.5q-5 -5 -7 -8t-3 -5t-3.5 -4t-4.5 -4q-1 -2 -1.5 -4.5t-4.5 -4.5l-6 -6q-10 -11 -21 -20q-10 -8 -22.5 -13.5t-26.5 -5.5q-6 0 -9 1q-7 1 -13 7
q-3 3 -4 5t-3 3q-5 2 -6 9t-1 9q-1 4 -1 12q0 10 3 22.5t6.5 23t6.5 17.5l3 7q2 1 3 5.5t3 6.5q18 40 31.5 57.5t17.5 19.5q2 0 2 2.5t2 4.5q8 8 9 13.5t3 6.5q2 0 8 8t5 10t2.5 4t4.5 4q26 28 40 42.5t21.5 22.5t11.5 11.5t10 9.5q1 1 1.5 2t2.5 2q60 55 98 81t41 30
t8.5 7.5t9.5 4.5q3 2 6 6t8 6q2 1 6 6.5t8.5 12l9 13t6.5 9.5q5 8 8 15.5t7 9.5q2 2 13.5 20.5t25.5 41.5q16 26 37 60q-2 -2 -6 -5q-8 -6 -14 -13l-25 -25q-2 0 -4.5 -4t-5.5 -7l-17 -18q-6 -6 -10 -8t-7 -7q-3 -4 -14 -12t-23.5 -16.5t-24.5 -15.5t-17 -9t-16.5 -6.5
t-23.5 -4.5q-3 0 -9 1t-13 2.5t-12.5 4t-6.5 6.5q-1 2 -3.5 3t-2.5 3q0 1 -0.5 2t-0.5 2q-3 0 -5 4.5t-3 10.5t-1 11.5v7.5q0 6 1 7q0 21 8 34q2 2 3 7.5t2 6.5q6 7 10.5 20.5t6.5 15.5q3 3 7.5 10.5t9 15.5t8 15t6.5 10q5 7 12 19t13.5 24t11.5 21.5t7 11.5q5 5 10.5 13.5
t10 17t8 15t4.5 6.5t3 3t4 7t4.5 8t3.5 5q6 8 12.5 18t11.5 19l12 22l3.5 7t4.5 8q-2 -2 -10 -7.5t-12 -5.5h-2q-1 0 -2 -1q-2 -2 -7.5 -3t-10.5 -1z" />
    <glyph glyph-name="Z" unicode="Z" horiz-adv-x="338" 
d="M101 518q8 6 12 14t6 8q2 -1 9.5 7.5t12.5 13.5q8 6 12.5 11.5t17.5 13.5q5 2 5 4q0 1 2.5 3.5t5.5 2.5q1 0 4.5 1.5t7.5 1.5q3 0 5 -2t1.5 -2.5t4.5 -1.5q6 0 6 -7q0 -5 -3.5 -10.5t-4.5 -6.5v-5q-1 -2 -5 -6.5t-5 -11.5q-1 -4 -1 -10q0 -19 10 -27t22 -8q18 0 39 10.5
t31 23.5q4 0 5 1q1 2 3 4.5t5 2.5q2 1 2 4.5t3 3.5q6 6 9.5 15t4.5 11q4 9 10 9t12 -8t8 -8t7.5 -4.5t5.5 -7.5q0 -2 -4.5 -10t-6.5 -8q-3 -2 -10 -11.5t-16 -22.5t-18.5 -28t-16.5 -27l-3.5 -7t-4.5 -4q-1 0 -4 -3.5t-3 -5.5q0 1 -7 -8t-18.5 -25t-26.5 -37t-31 -44
q-1 0 -2 -1t-1 -2q0 -4 -2 -4q-5 -6 -12 -16q-6 -8 -15.5 -21.5t-22.5 -31.5l-7 -10l-2 -3q-3 -4 -7.5 -10.5t-9.5 -13.5q-5 -8 -11 -17q18 15 32 21.5t25 10.5q4 4 11 5.5t12 3.5q12 4 27 4q8 0 19 -3q2 -1 7.5 -4.5t8.5 -4.5q9 -2 14 -9t7 -8t11.5 -16.5t12.5 -38.5v-7
l3 -14v-21q0 -2 -1.5 -4.5t-0.5 -2.5v-3q0 -2 0.5 -2.5t0.5 -1.5q0 -8 -3.5 -25t-9.5 -38q0 -2 -1.5 -5.5t-3.5 -4.5q-4 -17 -9 -27.5t-9 -17t-6.5 -10t-2.5 -6.5q0 -8 -4 -12.5t-7 -9.5l-4 -6q-1 -1 -1 -5q0 -1 -7 -12.5t-15.5 -24.5t-16.5 -23.5t-9 -9.5q-1 0 -0.5 -3
t-1.5 -2q-2 0 -3 -3l-2 -4t-3 -3t-7.5 -9.5t-7.5 -10.5q-2 -4 -5 -5q-5 -1 -8 -9t-8 -10q-1 0 -6.5 -6t-11.5 -12.5t-11.5 -12t-6.5 -4.5q-1 0 -0.5 -1.5t-1.5 -1.5l-4 -3q-9 -8 -21 -17t-13 -9q-2 0 -5 -3t-7 -6t-7.5 -5.5t-4.5 -2.5q-2 -1 -9 -5t-14.5 -8.5t-14.5 -8.5
t-9 -4l-8.5 -4t-22.5 -9.5t-33 -9.5t-38 -4q-14 0 -30 3t-28 11q-1 0 -2 -0.5t-2 -0.5l-2 2q-3 3 -4 3q-2 0 -10 8t-9 11q-2 5 -7 9q-2 2 -5 6t-4 6q-10 18 -11 44v8v12q0 3 1 5q1 1 1 4q0 1 0.5 1.5t0.5 2.5q11 45 32.5 74t56.5 58q2 2 4 2.5t6 4.5t18 12.5t21 8.5
q2 0 3.5 1.5t3.5 2.5h4q6 0 9 2q1 1 3 1t5.5 -0.5t9.5 -0.5q8 0 19.5 -2.5t24.5 -13.5q8 -2 8.5 -4.5t2.5 -4.5q3 -2 3 -5q0 1 6.5 -6t6.5 -12q0 -1 0.5 -4.5t2.5 -4.5q2 -2 2 -6q0 -3 -6 -15t-18 -12q-2 0 -8 2q-8 4 -14 11t-8 12l7 10q0 15 -5.5 23.5t-13.5 13t-16 6
t-14 1.5q-9 0 -21 -5t-21 -13q-6 -4 -17 -15l-11 -13q-7 -8 -14 -19.5t-12 -23t-8.5 -21.5t-3.5 -16t-2 -12.5t-2 -14.5q0 -2 0.5 -4t0.5 -4v-18q0 -16 7 -38q5 -14 16.5 -28.5t24.5 -20.5q11 -5 20 -6.5t19 -1.5q34 0 64.5 14.5t53 32t36 32.5l13.5 15q0 4 4.5 4t7.5 6
q0 4 1 4t4 3.5t6.5 7.5t6.5 8t4 4q6 3 16.5 16.5t21.5 30t20 31.5t12 21q1 2 2 5t3 5t2 5t2 2t3.5 3t3.5 7q5 10 15 31.5t17 41.5q2 5 2 9.5t3 6.5q3 1 3.5 9t4.5 12q1 1 1 4v5q4 11 5.5 25.5t1.5 22.5t-0.5 13.5t-0.5 6.5q0 2 -0.5 4t-0.5 4q0 12 -4 24.5t-7 18.5l-2 4
q0 2 -1.5 3t-2.5 3q-8 18 -17 18q-2 0 -5 1t-4 1t-1.5 0.5t-2.5 0.5q-4 0 -7.5 1t-8.5 2l-20 -1q-1 0 -2 -0.5t-3 -0.5q-1 0 -7.5 -2t-9.5 -4q-18 -9 -30 -18.5t-17 -20.5q-1 -2 -1 -4.5t-2 -3.5q-2 0 -5 -8.5t-3 -10.5q0 -5 -4 -13.5t-16 -13.5q-6 -3 -12 -3q-2 0 -3 2.5
t-1 3.5q-2 2 -3 2t-2 -0.5t-3 -0.5q-6 0 -6 8q0 6 2.5 12.5t2.5 8.5t2.5 3t4.5 3q11 18 21.5 26t10.5 10t5 7t11 14q3 4 8.5 13.5t11.5 19t11.5 18.5t8.5 12q4 5 7 14t7 11q2 1 7 8t11 16.5t11.5 18.5t8.5 15q3 3 3 7q0 1 1 4t3 3q0 -2 3 3t7 11.5t6.5 12t1.5 5.5l20 32
q11 17 21 33.5t18 29.5l18 27q-8 -5 -16 -9q-15 -8 -28 -12q-3 -1 -9 -1.5t-8 -1.5h-13q-3 0 -3.5 0.5t-2.5 0.5q-20 2 -31 16t-11 41q0 1 0.5 4.5t0.5 8.5q0 6 2 12l-3 -1q-2 -1 -4 -3t-9 -8t-14 -14t-9.5 -15t-6.5 -18q-1 -4 -1.5 -7.5t-2.5 -5.5q-1 -1 -1 -6q0 -6 -1 -6
q-2 0 -2.5 -3.5t-0.5 -8t-1 -9.5t-5 -7q-2 -1 -2.5 -2t-3.5 -1q-4 0 -7.5 -2t-6.5 -2q-5 0 -9 2q-2 1 -2 2q0 4 -2 4q-8 0 -8 15q0 11 8.5 22.5t19.5 19.5z" />
    <glyph glyph-name="bracketleft" unicode="[" horiz-adv-x="389" 
d="M434 511q-2 0 -7 -9.5t-11 -21t-11 -21.5t-7 -11q-4 -3 -5.5 -7t-3.5 -5q-1 0 -3 -8.5t-5 -10.5q-1 0 -6.5 -8t-11 -18t-10 -19t-4.5 -12q0 -1 -1.5 -1.5t-1.5 -1.5q0 -3 -2.5 -4t-2.5 -2q0 -3 -10 -19t-22.5 -34.5t-24 -35t-14.5 -22.5q-1 -2 -4 -5.5t-3 -5.5l-3 -6
q-21 -36 -33.5 -58t-19.5 -33q-8 -14 -10 -19l-2 -4q-2 -4 -6 -8q-7 -5 -10.5 -11.5t-5.5 -11.5q-5 -8 -14 -20.5t-13 -19.5q-2 -5 -7.5 -13t-10.5 -17q-6 -11 -13 -22h15h26q6 0 11 -1t9 -1q2 0 3.5 1t2.5 1t2 -0.5t3 -0.5t4 0.5t5 0.5h10q9 0 21.5 0.5t24.5 2.5
q3 -2 6.5 -5t3.5 -5q0 -3 -1.5 -4t-2.5 -2q-4 -2 -8 -2q-3 1 -7 1q-3 0 -5.5 -0.5t-3.5 -0.5h-10.5t-23.5 0.5t-30 0.5h-31h-26t-13 -1q-2 0 -3 0.5t-3 0.5q-5 0 -8.5 -1t-7.5 -1q-8 0 -8 0.5t-5 1.5q-3 -1 -5 -1h-1q-2 0 -4.5 -1t-4.5 -1t-3 1q-2 -1 -4 -1h-6q-4 0 -5 1
q-1 0 -3.5 0.5t-5.5 0.5q-4 0 -6 -1q-7 -4 -11 -4q-3 0 -5 2q-1 1 -1 2q0 3 2 5l6 7q8 10 15 23.5t9 16.5q9 9 14 20.5t8 16.5q14 25 23.5 41.5t15 26.5t8.5 14.5t3 5.5q5 4 10.5 12.5t10.5 17.5t8.5 15.5t4.5 7.5q5 4 14 19l6 11q25 42 47.5 78.5t43.5 70.5t40.5 66
t39.5 64q2 2 2.5 4.5t2.5 4.5t2.5 3.5t1.5 3.5q1 5 7 11q12 16 18 28t6 10q10 14 15 25.5t7 14.5q0 1 6 1h7t9 -1h12q3 0 5.5 -1.5t5.5 -1.5h31l71 -6q1 0 3 1q2 0 2.5 0.5t1.5 0.5q2 0 3 -0.5t2 -0.5h4q13 0 21 2t12 4t6 4t4 2q7 -2 10.5 -7.5t3.5 -11.5q0 -8 -14 -8
q-4 0 -11 0.5t-18 0.5h-19h-15.5t-15.5 2t-15 2h-14l-4.5 -6l-10.5 -14t-11.5 -16.5t-7.5 -15.5q-2 -6 -5.5 -10t-3.5 -6q0 -1 -1.5 -2.5t-3.5 -4.5t-3.5 -6t-3.5 -4zM155 100q5 3 7 9t6 11q5 8 9 14t5 8q3 5 8.5 13.5t11.5 18t10.5 18t6.5 14.5q0 1 2.5 3.5t2.5 6.5
q0 2 2 2.5t2 2.5q0 1 4.5 4.5t4.5 4.5q0 2 6.5 12t15.5 24t18.5 29t16.5 28q6 11 12.5 18.5t6.5 9.5t2.5 5.5t3.5 4.5q16 24 22 37.5t12 21.5l7 11q7 19 19.5 36t13.5 22q0 1 3 4l5 8q0 1 3 6.5t6.5 12t7 12t4.5 5.5q2 0 3.5 3.5t3.5 7.5q1 2 2.5 3.5t2.5 3.5t2 3l26 40h-46
q-2 -2 -7 -10.5t-8 -17.5q-2 -6 -5.5 -9.5t-4.5 -8.5q-1 -3 -11 -15t-17 -27q-2 -4 -4.5 -6t-3.5 -6q-1 -2 -2.5 -2.5t-2.5 -2.5q0 -2 -3 -6.5t-6 -10t-6.5 -10.5t-5.5 -7q-5 -5 -8 -11t-5 -7q-3 -2 -4.5 -8.5t-3.5 -7.5q-5 -4 -10.5 -14l-11 -20t-9.5 -18t-5 -8t-7 -10
t-13 -22t-13 -22.5t-6 -11.5q-1 -1 -5.5 -12t-6.5 -12q-4 -3 -8 -9t-7.5 -12t-5.5 -10.5t-3 -4.5q-2 -1 -2 -1.5t-1 -2.5q0 -1 -8 -13t-17.5 -26.5t-17 -27t-7.5 -13.5q0 -2 -2 -3.5t-3 -3.5q-2 -3 -3 -7t-5 -8q-2 -2 -6 -9.5t-6 -8.5q-4 -5 -9 -12.5t-9 -14.5t-7 -12t-4 -5
q-2 -2 -6 -7t-6 -13q0 -2 -4.5 -9.5t-10.5 -17t-13 -20t-12 -19.5q2 -1 6 -1h3l42 2z" />
    <glyph glyph-name="backslash" unicode="\" horiz-adv-x="239" 
d="M93 349q2 -5 4 -11q0 -1 1 -2q2 -2 2 -4q-1 -2 -1 -5q0 -6 4.5 -14.5t4.5 -11.5q0 -10 8 -36.5t17.5 -55t17.5 -51t9 -25.5l2.5 -7.5t5.5 -17.5t6 -19t4 -13q1 -2 1 -5q4 -8 9 -24t13 -27l6 -19q1 -2 1 -6v-7q0 -3 -2 -3q-3 0 -3 -2v-4q0 -3 -1 -5q-2 -2 -10 -2t-14 4
t-6 16q0 14 -5.5 23.5t-7.5 19.5q-3 12 -7.5 24t-8.5 22.5t-7 18t-3 8.5q0 4 -2 10t-4.5 11.5t-4.5 10l-2 4.5q0 16 -6 36t-13 38q0 2 -0.5 5t-0.5 5q0 7 -5 12.5t-5 13.5q0 2 -0.5 5t-0.5 5q0 4 -2.5 7t-2.5 6q-2 5 -6.5 18.5t-9 29t-8 29.5t-3.5 21q0 4 -4 11.5t-3 9.5
q0 2 -1 10t-6 12q-1 1 -1 7.5t-1 6.5q-2 2 -7 19t-10.5 36.5t-10 35.5t-5.5 16q-2 1 -2 5v5q0 5 -3 10q-2 2 -2 6q0 2 0.5 4t0.5 3q1 1 3 1.5t2 3.5t-0.5 5.5t-0.5 4.5t3.5 3t7.5 1q10 0 10 -4q0 -3 4 -3t5 -2q7 -54 15 -77.5t8 -28.5q1 -5 3 -14t4 -17.5t4 -15.5t4 -8
q5 -5 6 -15.5t1 -11.5q0 -3 1.5 -7t1.5 -5q0 -6 2 -10.5t2 -7.5z" />
    <glyph glyph-name="bracketright" unicode="]" horiz-adv-x="386" 
d="M467 381q-2 -2 -4 -6l-4 -8l-6 -10v-3q0 -3 -2 -3q-2 -2 -3 -4t-4 -5q-4 -4 -6 -8.5t-4 -6.5q-9 -12 -24.5 -40t-31.5 -56.5t-28.5 -50.5t-15.5 -23l-4.5 -8t-9.5 -17.5l-10 -19t-7 -12.5q-4 -5 -5 -5q-2 0 -2.5 -2.5t-4.5 -9.5q-5 -9 -11.5 -22t-14 -26.5t-14.5 -26
t-12 -20.5q-7 -11 -6 -11t-1 -2q-4 -8 -8 -8h-11q-2 0 -6.5 -0.5t-6.5 -0.5h-4q-4 0 -7 0.5t-6 0.5q-2 0 -4 -0.5t-5 -0.5q-3 1 -6 1h-5q-3 0 -5 -1q-4 -1 -14 -1h-5q-6 0 -12 1q-6 0 -13.5 0.5t-18.5 0.5h-10q-7 -1 -12 -1h-10h-18q-1 0 -4 -0.5t-9 -0.5q-2 0 -4 -1t-4 -1
q-1 0 -5 2q-3 0 -3 2q0 7 5 9.5l11 5.5q2 0 3.5 1t3.5 1q7 0 14.5 -1t8.5 -1q1 1 3 1h38h8q1 0 2 1q1 0 4.5 5.5t8 12.5t8 13t4.5 8q3 3 4.5 6.5t3.5 6.5q5 7 7 12t4 8q31 44 46 70.5t17 30.5q0 2 4.5 10.5t10.5 17.5t10.5 16.5t4.5 9.5q1 0 2 2q2 2 5 8q1 2 3.5 4t2.5 4
q2 4 10.5 18.5t18 29.5t17.5 27t10 12t2 3t1 5q2 3 3.5 4.5t1.5 2.5q0 2 2.5 4.5t4.5 6.5q2 6 5.5 11t4.5 7q1 1 11.5 17.5t25.5 39.5t31.5 49.5t28.5 47.5l3.5 3.5t2.5 3.5q4 4 6 9t7 10t6.5 9t4.5 9q10 16 17.5 26.5t7.5 9.5h-39q-7 0 -15 0.5t-14 0.5q-2 0 -4.5 -0.5
t-5.5 -0.5q-2 0 -4.5 0.5t-6.5 0.5q-5 -2 -9 -2h-7h-5q0 -1 -2 -1q-2 -1 -8 -1q-2 0 -2.5 0.5t-2.5 0.5h-10q-7 0 -7 3q0 4 3.5 5.5t13.5 6.5q3 2 8 2h6q1 0 1.5 -0.5t1.5 -0.5l1 -1h5q2 0 5 0.5t7 0.5t9 -1.5t11 -1.5q2 0 4 1.5t4 2.5q4 0 6 -2q7 0 16 -1t16 -1q2 0 4 -0.5
t4 -0.5q11 0 20 1l18 2h24q3 -1 7 -1l8 1q5 0 6.5 -0.5t3.5 -0.5t3 1q1 0 1.5 0.5t1.5 0.5q3 0 5 -0.5t3 -0.5t3 1q2 0 3.5 0.5t3.5 0.5q1 -1 3 -1t5.5 1t5.5 1q4 0 4 -4q0 -1 -0.5 -1.5t-0.5 -1.5t-3.5 -4.5t-3.5 -5.5t-7.5 -13.5t-18 -26t-20.5 -29t-15 -22.5q0 -1 -2 -3
q-6 -11 -17 -25.5t-11 -19.5q0 -2 -3 -7.5t-7 -12.5t-8 -13.5t-7 -10.5q0 -5 -7.5 -14.5t-10.5 -14.5zM189 -17h5q2 0 4 0.5t4 0.5q1 2 2 2.5t3 2.5l38 60q2 2 2 4.5t2 4.5q10 15 20 32.5t18.5 33t14 26t6.5 10.5q2 1 4 6.5t6 10.5q5 6 7 11t3 5q2 0 4.5 8t8.5 14q5 5 8 11
t3 7q0 2 5 10.5t10.5 17.5t10.5 16.5t6 9.5q1 1 3 5t4.5 8.5t4 8.5t2.5 4q5 2 5 6l5 5q0 7 16 31t39 63q0 1 3 6.5t7 12t7 12t4 5.5q1 1 1.5 3t2.5 6q5 8 5 10q0 1 3.5 5t5.5 7q10 15 21.5 34t22.5 36q12 19 25 39h-52q-2 -1 -3 -5.5t-3 -4.5q-2 -2 -3 -5.5t-3 -7.5
q-2 -5 -5.5 -9t-4.5 -8q-1 -2 -6 -7.5t-10 -16.5q-1 -2 -3.5 -4t-3.5 -4q-2 -6 -8 -12t-8 -12q-2 -5 -8 -17.5t-13 -21.5l-6 -9t-6 -7q-2 -2 -3 -4.5t-4 -6.5q-6 -10 -14.5 -24t-16 -27t-13 -22.5t-6.5 -9.5q-2 0 -8 -9t-6 -11q-1 -1 -3.5 -8.5t-4.5 -8.5q-3 -3 -9.5 -12.5
t-13.5 -20.5t-12 -20t-6 -9q-5 -2 -6 -3v-1q0 -1 0.5 -1.5t0.5 -1.5q0 -2 -1 -4l-33 -50l-4 -8q-5 -7 -8 -10.5t-3 -4.5q0 -5 -4.5 -11t-8.5 -11q-1 -1 -7.5 -12.5t-14.5 -25t-15 -25t-8 -13.5q-2 -1 -3.5 -4l-3.5 -7q-2 -2 -3.5 -4t-2.5 -5q0 -2 -4.5 -9t-10.5 -16.5
t-12.5 -20t-11.5 -19.5h48z" />
    <glyph glyph-name="asciicircum" unicode="^" horiz-adv-x="227" 
d="M146 538q5 -4 11 -13t11 -14q2 0 3 -2.5t1 -4.5l3 -4q3 -2 3.5 -4t5.5 -7q1 -2 2 -3.5t2 -3.5l2 -4q0 -2 -2 -4q-1 -1 -1 -2q-2 -2 -3 -5.5t-9 -3.5q-3 0 -6 3q-3 2 -5 1t-5 4q-5 8 -8.5 14t-11.5 15l-7 7q-2 2 -2.5 4t-3.5 4t-4 4t-2 2q-5 0 -6.5 -1.5t-6.5 -3.5
q-2 -1 -5.5 -1.5t-7.5 -4.5q-5 -4 -11 -7t-11 -6q-6 -4 -13 -6q-5 -2 -9.5 -6t-6.5 -4q-5 -4 -11 -4h-5q-1 1 -1 5q1 4 2.5 4.5t3.5 2.5q4 1 6 3t5 2l42 26q5 4 11.5 8t11.5 8q6 4 13 9l7 3h2q1 0 2 0.5t3 0.5q3 0 4 -1z" />
    <glyph glyph-name="underscore" unicode="_" horiz-adv-x="363" 
d="M296 -57q-3 0 -6 1t-6 1l-7 -1l-13 1h-9t-8 -2q-2 -1 -9 -1q-3 0 -6.5 0.5t-8.5 0.5h-8q-13 0 -25.5 1t-19.5 1q-2 0 -2.5 -0.5t-1.5 -0.5q-1 -1 -4.5 -1h-8.5q-3 0 -7 1t-5 1q-2 0 -4 -0.5t-4 -0.5q-1 0 -1.5 1t-1.5 1q-8 -2 -18 -2.5t-17 -0.5h-8h-9q-2 0 -3 0.5
t-2 0.5h-4q-4 0 -6.5 0.5t-3.5 0.5q-2 -1 -12.5 -1t-23.5 -2h-6q-15 0 -19.5 1.5t-4.5 5.5q0 1 1.5 1t0.5 1t-1 3v3q0 6 16 6h8q1 0 2 -0.5t2 -0.5q4 0 7.5 0.5t8.5 0.5q2 -1 7 -1q3 -1 8 -1q4 0 7.5 0.5t6.5 0.5q7 0 11.5 0.5t8.5 0.5q5 0 7 -1q1 -1 2.5 0.5t6.5 1.5
q3 0 6 -1t6 -1h4l1 1q0 1 1 2q2 -2 5 -2h4q4 0 6 -1t8 -1q5 0 11.5 1t11.5 1q8 0 11 -1q1 0 3 -0.5t5 -0.5h100q14 0 31 1t33 1h10q5 0 5 -4q0 -1 -0.5 -1.5t-0.5 -1.5v-1q2 -1 4 -1.5t2 -1.5q0 -2 1 -2.5t1 -1.5q0 -4 -7.5 -4.5t-16.5 -0.5h-52z" />
    <glyph glyph-name="grave" unicode="`" horiz-adv-x="137" 
d="M127 251q-1 -3 -4 -6t-4 -3t-3 1t-3 1q-2 5 -7.5 6.5t-10.5 4.5l-8 6l-12 6q-1 0 -2 1t-2 1q-5 3 -5.5 3.5t-4.5 1.5l-38 19q-10 6 -12 14l3 8q3 8 8 9t12 2q1 -2 4 -4q3 -3 15 -12q2 0 3 -1.5t3 -1.5q3 -1 8 -7.5t14 -13.5q4 -1 9 -6q11 -10 24 -18t13 -11z" />
    <glyph glyph-name="a" unicode="a" 
d="M37 132q8 8 9 10l7 6q0 3 6.5 9t14 12t14 11t6.5 6q0 3 6 5q2 0 5 3.5t7 5.5t7 3t4 3q3 7 9 10t8 5q9 5 17 11.5t18 6.5q2 0 3 -0.5t3 -0.5q1 0 2 1q1 0 2 0.5t2 0.5q4 0 15 -4.5t13 -4.5q0 1 0.5 -1.5t2.5 -2.5q8 -1 16.5 -10.5t8.5 -16.5q-1 -2 -1.5 -4t-2.5 -4
q-2 -3 -3 -6q3 0 6 -1q6 -2 6 -5q-8 -15 -14 -27q-5 -11 -10.5 -19.5t-8.5 -10.5q-2 -2 -3 -5t-6 -6q-1 -1 -2 -3t-1 -5q0 -5 -4 -13t-8.5 -16t-8.5 -16.5t-4 -15.5q-1 -3 -1 -7t2.5 -9t7.5 -5q6 0 14.5 5.5t16.5 12t14 12t7 5.5q3 1 8.5 6.5l11.5 11.5l11 11t8 5t3 -4
q0 -2 -2.5 -4.5l-4.5 -4.5l-44 -45q-3 -3 -9 -5q-1 0 -5.5 -4t-12 -9t-18 -9t-23.5 -4h-4q-13 0 -17 10l-3 4.5t-1 3.5v5q0 6 3 15t7 17q4 10 10 19q-18 -17 -34 -30q-14 -11 -26 -20.5t-17 -9.5q-2 -1 -2 -1.5t-2 -2.5q-26 -14 -42 -14q-31 0 -31 40q0 2 0.5 4.5t0.5 5.5v6
q0 9 2.5 17t5.5 14q1 2 2 4.5t3 4.5q2 3 3 6l-11 -11q-9 -7 -12 -7q-2 0 -2 3q0 2 1.5 4t2.5 3q15 16 23.5 24t11.5 12zM135 116q-2 2 -2 4q0 4 3 4t9 3.5t12 8t10.5 8t4.5 4.5q1 0 2.5 2t3.5 2q3 0 4.5 3.5t4.5 5.5q8 6 8 12q0 3 1.5 3t3.5 2q2 4 2 10q0 5 -4.5 9.5
t-12.5 4.5q-2 0 -3 0.5t-3 0.5t-3 0.5t-2 0.5t-4.5 0.5t-5.5 2.5q-2 0 -13 -1t-12 -6q0 -1 -10.5 -7t-25.5 -21.5t-31 -42t-27 -67.5v-5q0 -2 -1.5 -4.5t-2.5 -3.5q0 -1 1 -2t1 -3v-5q0 -2 0.5 -5.5t1.5 -4.5q2 -3 3 -5t9 -2h5q4 0 8.5 1t12.5 6q6 4 13 9t9 7
q10 8 16.5 16.5t8.5 7.5q1 -1 4 3t5 6q6 4 19 17t21 27q6 10 13 21l6 9q-3 -3 -6 -5q-6 -4 -8 -4l-6 -4t-13.5 -9.5t-16 -9.5t-13.5 -4zM124 109q-2 0 -2 3q0 5 4 6q2 0 3 -2t1 -3q1 -1 -1.5 -2.5t-4.5 -1.5zM117 111q0 -5 -2 -5t-2 2q0 3 4 3z" />
    <glyph glyph-name="b" unicode="b" horiz-adv-x="289" 
d="M223 306q-2 -2 -6.5 -7t-9.5 -11t-9.5 -10.5t-4.5 -5.5q-2 -4 -6.5 -9.5t-9.5 -15.5l-36 -57l20 16q2 1 3 2.5t3 1.5t2.5 1.5t2.5 2.5l5 3q9 5 18.5 9t17.5 5q5 0 11.5 -2.5t6.5 -7.5q1 -1 3 -2t3 -2l3 -3q1 -1 2 -1.5t2 -2.5q2 -4 4 -5q3 -2 5.5 -10t3.5 -16
q0 -2 0.5 -5t0.5 -7v-12v-9t-2 -8q-1 -1 -1 -2v-1q0 -1 0.5 -1t0.5 -2t-0.5 -3.5t-1.5 -6.5q-2 -11 -6 -19q-1 -2 -1 -5q0 -2 -1.5 -4t-2.5 -4l-3 -8q-1 -3 -3 -4.5t-2 -2.5l-10 -14q-11 -12 -20.5 -22t-17.5 -16l-10 -7l19 8q7 2 9 5q1 1 6.5 4.5t10.5 5.5l16 12
q2 2 4.5 3.5t4.5 1.5q0 2 1 1.5t3 1.5l3 3q4 3 7.5 6.5t5.5 4.5l23 19q3 0 3 -2q0 -5 -5.5 -10.5t-13.5 -11.5q-11 -9 -22.5 -18t-23.5 -16q-2 -2 -7.5 -5.5t-14.5 -8.5q-7 -4 -18.5 -9t-13.5 -5q-4 -1 -6 -2t-6 -1q-8 -3 -14 -3t-12 -2h-4q-3 0 -4 0.5t-4 0.5h-6q-3 0 -4 1
q-8 1 -9 3t-4 4q-9 2 -14 8t-10 11q-2 2 -2 3q-2 2 -2 6.5v6.5l1 6q0 7 3.5 9.5t3.5 3.5q0 7 12 10l4 1q1 0 5.5 -0.5t7.5 -5.5q4 -2 4 -5l2 -4q2 -1 2 -8v-5q0 -3 -3.5 -6.5t-3.5 -9.5q0 -2 -1.5 -5.5t-1.5 -5.5q0 -5 7 -6l3 -1h4q6 0 13 2.5t11 5.5q2 0 7.5 5t10.5 10
q2 2 3.5 5t4.5 3q3 2 4.5 4.5t2.5 3.5l4 4t3 4q2 4 4 5t2 4q0 2 1.5 3t2.5 3q1 1 2 4t6 10l10 17q2 7 3.5 11.5l3 9t2.5 11.5t1 19v6t-1 5v10q0 1 -2 5q-1 2 -1.5 2t-0.5 2q-4 6 -7 9q-2 2 -5 4t-7 3.5t-9 1.5q-2 0 -3 -0.5t-3 -0.5q-1 0 -2 -0.5t-4 -0.5t-5 -1t-5 -2l-6 -3
q-6 -3 -8 -5t-5 -4q-9 -7 -20 -21q0 -2 -3 -3.5t-4 -3.5q-3 -7 -5 -6.5t-2 -1.5t-6.5 -13.5t-15 -25.5t-16.5 -27t-11 -17q-3 -6 -6 -10t-7 -9q-2 -2 -1.5 -4.5t-1.5 -4.5l-5 -10q-2 -3 -3.5 -4t-2.5 -6q0 -6 -6 -12q-2 -2 -2 -4t-2 -3q-11 0 -15.5 2.5t-8.5 7.5q-3 3 -3 4
t-1 1.5t-1 2.5t2 4t3 4q2 7 8 13l12 18q2 3 3.5 6l3.5 7q0 1 2 3q5 8 10.5 18.5t8.5 13.5l12 18q4 5 5 9t2 5q3 5 9.5 15t12.5 21q7 12 16 26q-7 -8 -13 -15q-5 -6 -10 -11.5t-7 -7.5q-13 -15 -23 -24.5t-21 -20.5q-5 -5 -11.5 -13t-11.5 -11q-2 -1 -6 -6.5t-9 -5.5
q-3 1 -3 3q0 4 4.5 7.5t6.5 4.5q2 3 6.5 8t9.5 10l28 28q1 1 3 4q2 2 3.5 4t3.5 4q5 5 13.5 14.5t13.5 16.5t12 15l14 16q8 9 16 17q5 8 9 15q8 13 14 17q3 1 3 5l3 5q0 2 5 8.5t6 8.5q2 4 8 15l12 22q7 13 15 29q2 5 5 9q2 4 4.5 7t4.5 5q4 7 11.5 22t14.5 25
q11 19 18.5 30.5t13.5 21l12 19t14 24.5q0 2 5 8t7 8q4 6 10.5 13.5t13 14.5t11.5 12.5t7 7.5q8 10 17.5 16t21.5 6q7 0 11 -1q5 0 5 -7q0 -5 1.5 -7t1.5 -7t-1 -9q-1 -3 -1 -11.5t-2 -11.5q-1 -1 -1 -2v-1q-2 -7 -5.5 -17.5t-14.5 -30.5l-12 -20q-11 -18 -21 -33.5
t-18 -20.5q1 -2 -5.5 -11t-15.5 -19.5t-17 -19t-11 -10.5l-21 -20l-9.5 -9.5l-13 -13t-12 -11.5t-5.5 -6q-1 -2 -2.5 -2t-3.5 -2zM208 304q14 12 27 25l24.5 24.5t26.5 27.5q14 14 24.5 27.5t19.5 26.5q20 28 32 49t18 35q7 17 9 29q0 3 2 7q0 1 0.5 2t0.5 3q0 5 -1.5 9
t-5.5 4q-2 0 -3 -2.5t-4 -5.5l-6 -6l-3.5 -3.5t-3 -4t-4.5 -6.5q-6 -8 -13 -15.5t-16 -23.5t-19.5 -30t-11.5 -19q-4 -8 -10 -14.5t-11 -16.5q-14 -23 -26 -45t-23 -39q-12 -20 -23 -38z" />
    <glyph glyph-name="c" unicode="c" horiz-adv-x="223" 
d="M136 16q-5 -1 -5.5 -3.5t-8.5 -5.5q-10 -4 -13 -4q-1 0 -3 -0.5t-4 -0.5t-5.5 -2t-5.5 -2q-3 0 -9.5 -0.5t-11.5 -0.5h-4q-2 1 -4 0.5t-4 1.5t-15 6t-21 21q-1 1 -1 6q-3 6 -4.5 8.5t-1.5 10.5q0 2 -0.5 5.5t-0.5 6.5q0 4 2 6q2 1 4 13t8 29q-3 -3 -12 -13t-14 -13
q-1 -1 -4 -1q-2 0 -2 2q0 3 4 7q9 9 19.5 22.5t21.5 25.5l5 7l6 6q3 4 8.5 10.5t12 13t13.5 11.5t12 7q1 2 3 5q3 4 7 7q16 9 26 14t16 7.5t8.5 3t2.5 1.5q3 4 8 4q1 0 2 -0.5t2 -0.5h1q7 0 16.5 -3t20.5 -16q2 -2 3 -6t5 -15q1 -3 1 -9q0 -14 -8 -26t-22 -12q-7 0 -11 2
q-5 2 -5 6.5t-2 6.5q-1 2 -2 3t-1 2q5 8 4 10.5t1 5.5q5 5 7 10.5t2 9.5q0 5 -2 5q-2 -1 -1.5 5.5t-8.5 6.5q-5 0 -13.5 -3.5t-17 -9t-16 -12.5t-10.5 -15q-1 -2 -1.5 -4t-2.5 -3q-2 0 -10.5 -10.5t-18 -27.5t-17.5 -38t-8 -42q0 -12 7.5 -26t26.5 -15l17 1q3 0 7 2.5t8 2.5
q20 6 30.5 14t24.5 18l5 3q14 8 25 20.5t18 12.5q2 0 2 -2q0 -3 -4 -7.5t-9.5 -9.5t-11.5 -9.5t-10 -8.5l-7 -7t-6 -5q-1 0 -7 -4t-13 -9t-13.5 -9t-9.5 -4z" />
    <glyph glyph-name="d" unicode="d" horiz-adv-x="295" 
d="M175 101q5 9 15 23t12 18l3 7q-2 0 -4.5 3t-2.5 9q0 4 -1 5.5t-1 3.5v4q0 8 1 10t2 2l3.5 3.5l2.5 2.5t1 2l3 8v2q0 1 0.5 2.5t0.5 3.5q0 4 -1 6q-1 4 -5.5 6.5t-9.5 2.5q-14 0 -42.5 -14.5t-48.5 -47.5q-2 -3 -7.5 -12t-11.5 -14q-3 -2 -5.5 -9t-6.5 -9q-2 -1 -1.5 -2
t-0.5 -2q-4 -4 -3.5 -5.5t-1.5 -3.5t-5.5 -9.5t-7 -15.5t-6 -15.5t-2.5 -10.5q0 -1 -0.5 -7.5t-0.5 -10.5q0 -5 3 -10t12 -7q2 0 3 -1t5 -1q22 1 42 13t34.5 27t23 28t9.5 15zM293 80q-2 -1 -2.5 -2t-1.5 -1q-2 -1 -3.5 -2.5l-3.5 -3.5q0 -1 -1 -1q-1 -1 -2 -1q-3 0 -3 -2
q-1 -4 -13 -14.5t-25 -20.5q-10 -8 -26 -16.5t-29 -10.5q-2 0 -4.5 -0.5t-6.5 -0.5q-10 0 -17 4q-6 4 -8 10.5t-2 13.5q0 6 1 13t2 9q-2 -2 -9.5 -11.5t-11.5 -10.5q-5 -1 -13.5 -8t-10.5 -9q-9 -8 -20 -11.5t-13 -4.5q-3 -2 -9.5 -2.5t-15.5 -0.5q-2 0 -2.5 0.5t-2.5 0.5
q-16 4 -26.5 13.5t-10.5 25.5v5q2 8 2 13v6q1 1 5 14.5t17 32.5q-6 -6 -14.5 -15t-13.5 -9q-3 0 -3 2q0 4 3 6q11 9 17 15l10 10t6 8l10 11q0 2 3.5 5.5l5.5 5.5l8.5 8.5l17 17t20 18t17.5 12.5q14 8 25.5 18.5t19.5 10.5h6q2 0 2.5 1.5t3.5 1.5q1 0 2.5 1t2.5 1q2 2 13 2
q8 0 17 -2.5t12 -8.5q2 -3 7 -5t5 -16q0 -2 1.5 -5.5t1.5 -6.5q0 2 3.5 7.5t8.5 12.5q5 8 11 17q0 3 3.5 8.5t5.5 8.5l25 41q3 5 8.5 14.5t11 18.5t9.5 16t6 7q3 0 7 11t6 13l19 30q1 1 8.5 13.5t17.5 28.5t19 31.5t12 22.5q3 4 3 5q2 5 4.5 7.5t2.5 4.5q0 3 1.5 4t2.5 2
q1 3 3 6q1 2 2 4.5t2 4.5q1 1 2.5 1.5t1.5 2.5v5q0 3 1 5q4 7 6.5 8.5t4.5 1.5q3 0 3 1q2 5 9 5q3 0 7 -2q2 -1 7.5 4t11.5 5t8 -6l-3 -4t-6.5 -9l-7 -10t-3.5 -8q-1 -6 -2.5 -6.5t-4.5 -2.5q-2 -1 -5.5 -7.5t-7.5 -14.5q-4 -10 -10 -21q-6 -2 -9 -10.5t-5 -8.5
q-5 -2 -7 -10.5t-5 -9.5q-4 -2 -5.5 -6t-3.5 -9q-7 -12 -14 -23t-15 -24t-17 -28.5t-20 -37.5q-1 -2 -8 -13.5t-16.5 -27t-19.5 -31t-17 -24.5q-2 -4 -2.5 -5.5t-5.5 -8.5q-1 -2 -1.5 -4t-3.5 -4q-2 -1 -1.5 -3t-0.5 -4t-3.5 -4.5t-3.5 -5.5q-3 -1 -12 -17t-32 -51
q-2 -2 -4.5 -8t-5.5 -7q-3 -2 -7.5 -12.5t-8.5 -12.5q-3 -2 -2.5 -3.5t-1.5 -6.5q-6 -8 -6 -18q0 -2 -0.5 -6t-0.5 -7q1 -5 4 -6.5t6 -1.5q2 0 3.5 0.5t3.5 0.5q17 5 31.5 16t19.5 13q1 0 9.5 7t16.5 15q0 1 1 2t1.5 1t1.5 1q3 2 4 3l3 3q1 2 4 4.5t5 2.5q3 0 3 -4
q0 -1 -6 -7z" />
    <glyph glyph-name="e" unicode="e" horiz-adv-x="223" 
d="M72 101q-1 -1 -2 -1h-1q-3 0 -3 3h1q1 0 1 0.5t1 0.5q3 2 8 6t11 4h9q-1 1 -1 3t9 6t12 5q6 2 9.5 5.5t8.5 5.5q4 1 5 2l1.5 1.5l2.5 2.5t8 6q1 2 5.5 6t5.5 9l11 17q2 2 3.5 9t1.5 13q0 8 -3 10q-4 2 -6 2h-5q-5 0 -14.5 -5t-20.5 -16q-2 -2 -4.5 -2t-4.5 -2l-3 -3
q-8 -8 -17.5 -19.5t-17.5 -23.5q-1 -1 -3.5 -6t-6 -10t-6 -9.5t-3.5 -5.5q-5 -4 -4 -9t-3 -10q-5 -8 -5 -13t-2 -11t-2 -10q0 -5 1 -9t1 -5q0 -4 1.5 -8t3.5 -5l3 -3q-1 0 2 -3q6 -8 14.5 -10t14.5 -2q7 0 15 2t16 3.5t13 6.5q3 3 6 3q1 0 6.5 3.5t10.5 5.5t8.5 5t7.5 5
q2 2 5 3.5t3 2.5q0 2 3 2.5t5 2.5q4 3 6.5 7t4.5 5t7 5t9 7q5 5 9 5q3 0 3 -3q0 -2 -6 -8l-20 -18q-9 -8 -19 -16.5t-20 -13.5l-22 -13q-7 -4 -18.5 -9t-13.5 -5q-5 -1 -7 -3t-7 -2q-2 0 -2.5 -0.5t-2.5 -0.5h-7q-1 0 -6 -1.5t-13 -1.5q-9 0 -19 3q-16 5 -25 18.5t-10 46.5
q1 9 4 18t6 16q-5 -2 -11 -9t-9 -7q-4 0 -4 2q0 3 3 6q9 9 18.5 20t14.5 17q3 1 3 2.5t2 6.5l9 8l7 10q9 9 15.5 13.5t7.5 6.5q11 12 24 20.5t15 9.5t9.5 6.5t9.5 5.5q2 1 8 6t8 5t5 2.5t12 2.5q1 0 2.5 0.5t2.5 0.5q2 0 3 0.5t2 0.5h5q2 0 8 -4q3 -2 5 -4h1q1 0 1 0.5
t1 0.5q4 0 10 -5t8 -7l3 -7q1 -1 1 -5q0 -3 -0.5 -6.5t-0.5 -2.5q1 -2 1 -6q0 -5 -1 -7l-2.5 -5t-3.5 -5q-1 -1 -4 -3t-2 -3q1 -2 -3 -4t-9 -6l-9 -5q-3 -2 -10 -5.5t-9 -5.5q-2 0 -2.5 -0.5t-1.5 -0.5h-1q-4 -2 -8 -5q-8 -5 -25 -11q-1 -1 -2 -1h-5q-2 0 -5.5 -2t-4.5 -2
q-4 0 -7 -3q-2 -2 -4 -2q-3 -4 -14.5 -7.5t-13.5 -3.5z" />
    <glyph glyph-name="f" unicode="f" horiz-adv-x="201" 
d="M416 526q11 19 21.5 41.5t12.5 44.5q1 1 1 6q0 7 -6 7q-3 0 -5.5 -0.5t-5.5 -0.5q-7 0 -20.5 -12.5t-27.5 -31.5q-3 -4 -6 -9t-8 -11q-2 -2 -4.5 -7t-5.5 -10.5t-5.5 -10t-3.5 -4.5q-1 -2 -6 -10t-10.5 -17t-10.5 -16t-5 -8q0 -4 -3 -7l-3 -3t-2 -4q0 -1 -3.5 -6
t-8 -12.5t-10 -16t-8.5 -16.5q-2 -4 -4 -7t-3 -5q0 -2 -1.5 -3t-2.5 -4q-2 -8 -5 -11q-2 -2 -5 -10.5t-10 -17.5q-3 -4 -2.5 -6t-6.5 -9q-1 -1 -7 -12t-14 -24l-20 -34l26 26q10 10 18 18.5t10 10.5q7 8 15 15.5t12 11.5q4 6 7.5 10t8 8.5t9.5 10t12 14.5l37 47
q15 19 30 40.5t29 44.5zM38 -67q-1 7 -3 12.5t-4 11.5l-4 8l-24 -38q-2 -2 -2.5 -4.5t-3.5 -5.5l-3 -4q0 -2 -8 -14.5t-18.5 -30t-21 -36t-15.5 -32.5q-1 -2 -3.5 -7.5t-2.5 -7.5q0 -1 -4 -11t-8 -21t-4 -18q0 -5 0.5 -9.5t2.5 -6.5q2 -4 4.5 -4.5t3.5 -2.5q0 -1 2 0.5
t3 1.5t1.5 -0.5t2.5 -0.5q3 0 9 3q18 7 38 28t40 67q3 7 5.5 15.5t3.5 10.5q4 12 6.5 24.5t4 23l2.5 17.5t1 9t0.5 2.5t0.5 1.5q0 3 -0.5 5.5t-0.5 3.5q0 3 -0.5 5t-0.5 4zM73 6q-5 -1 -11 -1.5t-11 -0.5l-5 -8l4 -11q3 -5 4.5 -10.5t2.5 -9.5q1 -5 2 -9l1 -5
q2 -8 2.5 -14.5t0.5 -11.5v-12q-1 -22 -7.5 -43t-11.5 -32q-1 -2 -4 -9t-5 -9q-3 -8 -8 -20t-11 -15q-2 -2 -3.5 -6.5t-4.5 -8.5q-15 -19 -31.5 -39.5t-36.5 -33.5l-3 -2q-8 -5 -16 -9t-22 -4l-3 -1.5t-3 -0.5t-6 2q-1 0 -1.5 0.5t-1.5 0.5q-4 3 -5 8q-1 2 -2.5 2t-2.5 2
q-2 7 -2 11t-2 11q-2 8 -2 9q0 2 0.5 4t0.5 4q2 12 5 20.5t5 11.5v4q0 3 2 6.5t4 5.5q5 7 8.5 16t3.5 11q0 1 4 8t9.5 17t11.5 20.5t11 18.5l38 63q2 2 5.5 8.5t4.5 8.5q0 -1 2.5 3t6.5 10.5t8 13.5t7 12q-3 2 -6.5 6.5t-13.5 6.5q-2 2 -3.5 2t-3.5 3q-1 1 -1 4t1 6t1 5
t1.5 4.5t1.5 4.5l3 4q1 1 1 3.5t2 4.5q3 3 8.5 4.5t6.5 1.5q4 -2 6.5 -7.5t6.5 -8.5q1 -2 3 -4t3 -3.5t3 -2.5l22 36q5 9 10.5 18.5t10.5 17.5t8.5 13.5t5.5 6.5q3 2 3.5 4.5t2.5 6.5q0 2 6.5 12.5t6.5 11.5q2 1 1.5 3t1.5 3q3 2 3 3.5t1 3.5q5 10 11 19t7 10q-1 0 -2 -1
l-3 -3q-3 -2 -5 -5l-10 -10q-4 -4 -7.5 -7t-4.5 -4q-6 -3 -10.5 -8t-6.5 -7l-38 -34q-15 -13 -25 -22.5t-15 -11.5q-4 0 -4 2t1 3q6 8 20.5 20.5t25.5 23.5q1 1 2 2.5t2 1.5q2 0 3 2.5t2 2.5t2.5 3t5.5 4q3 2 6 5q2 2 4 3.5t3 2.5q28 25 48 46t21 21q3 4 5 8l5 10q2 4 4 7
t4 5q2 3 3 5q1 3 3 6q4 7 5 7q3 1 3 4t1 4l2 2q5 8 9 17q4 7 8 14.5t7 12.5q1 2 10 17.5t19 33.5t18.5 32.5t9.5 15.5q2 2 2 3.5t2 3.5t2 4t2 3t2.5 3.5t0.5 4.5t1.5 4t2.5 3q3 5 8.5 14t11 18.5t10 18t6.5 11.5q5 2 7.5 10t9.5 14q1 0 1 3q0 2 1 3q2 2 2 3q0 2 1 2.5t1 1.5
l7 9q0 1 3.5 6t8.5 11.5t9 12t4 6.5q0 3 2 3t2 1.5t2 3.5t3.5 5.5t4.5 5.5q2 2 5 4.5t6 4.5q7 5 16.5 16.5t23.5 12.5q2 0 4.5 1t6.5 3l9 3q3 1 5.5 1.5t5.5 0.5q13 0 14 -13l2 -13v-8.5t-2 -9.5q0 -2 -1.5 -11.5t-8.5 -18.5q-2 -2 -5 -7t-3 -10q0 -4 -2 -6
q-4 -5 -12.5 -23.5t-27.5 -44.5l-11 -16.5t-10 -13.5q-5 -5 -8.5 -10t-12.5 -16l-20 -27q-1 -2 -5.5 -7t-11.5 -13q-1 -2 -3 -4l-4 -4t-13 -16t-22 -25q-1 -1 -8 -8.5t-10 -9.5q-2 -2 -16 -17.5t-31 -32.5q-19 -21 -44 -46q0 -1 -1 -2q-2 -2 -2 -4l-3 -6q-2 -5 -4 -7t-5 -8
q-2 -2 -2.5 -4.5t-2.5 -5.5t-3.5 -7t-4.5 -8q-7 -9 -11 -19.5t-5 -11.5q-5 -7 -7.5 -11.5t-7.5 -12.5q-1 -1 -5.5 -8t-11 -18t-14.5 -25t-15 -27l-19 -32q7 0 17 2q6 2 13 3.5t14 3.5l30 15q1 0 3.5 2t3.5 3l35 24q3 3 4 4.5t2 3.5h1q1 0 2 1h1l2 1l9 8q4 4 6 4q3 0 3 -4
q0 -2 -5 -7q-12 -11 -29.5 -25t-30.5 -21q-5 -3 -11 -7q-5 -3 -13 -7t-18 -8q-13 -5 -25 -7z" />
    <glyph glyph-name="g" unicode="g" horiz-adv-x="283" 
d="M26 118l5.5 6t13 13.5t15 14.5t10.5 9q11 13 23.5 23.5t13.5 12.5t5.5 5.5t10 6.5t10.5 5.5t5 3.5q5 8 16 12t24 4q6 0 15 -1.5t13 -3.5q1 -2 4 -4q2 -2 4.5 -4t5.5 -4t6.5 -6t5.5 -9l3 5q1 1 4.5 8t7.5 14.5t7 14t4 7.5q2 2 6.5 9.5t10.5 7.5l10 -7q11 -8 11 -16
q0 -4 -4 -8q-1 -1 -1 -5q0 -3 -2 -5q-5 -2 -6 -3t-1 -4q-1 -4 -7 -10t-6 -8q0 -3 -1 -4l-3 -8q-8 -12 -14 -21.5t-10 -16.5q-4 -8 -8 -14q-1 -1 -1 -2q-1 -1 -1 -2t-1 -2q-1 -3 -5 -6t-4 -6q-2 -5 -10.5 -20.5t-27.5 -43.5q-1 -1 -9.5 -14.5t-19.5 -29.5q-12 -19 -28 -43
q15 9 31 20q14 9 29 20.5t29 22.5t33 29t33 29q1 1 3 1q3 0 3 -3q-1 -3 -3.5 -5t-2.5 -4q-1 -3 -9.5 -8t-23.5 -22q-2 -3 -4 -4.5t-4 -3.5q-4 -4 -10.5 -8.5t-12.5 -9t-10.5 -8t-5.5 -5.5q-8 -5 -18.5 -12.5t-22 -16t-23 -16t-20.5 -12.5q-3 -6 -6 -11q-2 -5 -5 -8.5
t-4 -5.5t-4 -6t-6 -9q-4 -6 -8 -13q-1 -3 -3 -7q-3 -6 -10 -13q-2 -2 -1.5 -3.5t-1.5 -3.5q-5 -5 -6 -8.5t-3 -4.5q-4 -3 -7 -9q-2 -4 -4 -7q-1 -1 -4 -5q-2 -4 -7 -11t-13 -19q-1 -2 -4 -6.5l-5 -7.5q-11 -21 -29 -45t-30 -39q-2 -3 -5 -5.5t-5 -4.5q-3 -3 -5 -4
q-6 -9 -14 -19q-7 -8 -17 -18t-23 -19q-5 -4 -9 -8t-8 -6q-6 -4 -17 -9t-19 -5q-6 0 -8 2q-5 4 -12.5 6.5t-7.5 18.5v5q0 5 1 9t1 11v2q0 1 1 1q2 3 4 8t2 10q0 3 1 5q2 5 5.5 12.5t8.5 15.5q0 3 8 14.5t17 19.5q6 9 16 21.5t22 25.5t25 25t25 20q3 2 8 8t10 8q3 2 5 3.5
t4 2.5q10 9 21 14.5t28 17.5q2 2 3.5 2.5t3.5 2.5q2 3 4 3.5t4 2.5l35 22q13 21 25 40q10 17 20.5 34t17.5 28q9 13 10 17l4 6q1 2 3 5q-9 -8 -20 -16q-9 -7 -19.5 -14.5t-21.5 -12.5q-10 -5 -14.5 -8.5t-14.5 -7.5q-5 -2 -9.5 -2.5t-7.5 -0.5h-7q-3 0 -8.5 2t-11.5 5.5
t-10.5 9t-5.5 11.5q0 9 1.5 17.5t1.5 11.5q0 2 -0.5 3t-0.5 2v1q0 2 1 3q0 2 1 4l5 10q2 5 5.5 10t6.5 10q-6 -5 -12.5 -11.5t-10.5 -6.5q-2 0 -2 2q0 3 6 9zM198 145q2 3 4 6.5t4 7.5t4 9h-3h-3q-1 0 -1 1q-5 0 -5.5 7t-1.5 10q-1 1 -1 4q0 5 2 9t2 9q0 3 -3 8t-17 5
q-3 0 -7.5 -0.5t-8.5 -2.5l-9 -4q-17 -8 -28 -19t-21 -23l-3 -4q-7 -8 -15.5 -23.5t-17.5 -28.5q-8 -11 -10.5 -17.5t-4.5 -8.5q-9 -12 -13 -25t-4 -24q0 -18 8 -21q3 -2 7.5 -3.5t5.5 -1.5q19 5 27.5 12.5t13.5 9.5q3 1 10.5 6t16.5 11.5t17 13.5t12 12q3 4 3.5 4t5.5 6
l8 10q3 4 3.5 5t3.5 6q9 12 12.5 20.5t6.5 13.5zM49 -106q4 6 6.5 11t4.5 8q2 4 4 6q-15 -11 -32 -22q-14 -11 -32 -24t-35 -28q-3 -3 -8 -8.5l-10 -11t-9 -10t-6 -4.5q-4 -1 -3 -1.5t-1 -2.5t-9 -9.5t-14.5 -16.5t-13 -17.5t-5.5 -11.5l-6 -9t-8.5 -13.5t-8 -16t-4.5 -15.5
q-1 -6 -1.5 -6.5t-1.5 -5.5q0 -2 -1.5 -4.5t-1.5 -4.5q0 -8 -2.5 -13t-2.5 -10q0 -8 1.5 -16t4.5 -8q2 0 9 5.5t15.5 13t16.5 16t13 14.5q35 45 50 66.5t18 27.5q1 2 4 6t5 6q0 2 1 3.5t2 3.5t3 3l23 40q2 2 2 3.5t2 3.5q1 1 1 1.5t1 1.5q0 1 1 2q0 1 2 5q1 2 3 3l7 11z" />
    <glyph glyph-name="h" unicode="h" horiz-adv-x="334" 
d="M268 358q1 2 2.5 3.5l3.5 3.5l4 4q12 14 23 26q9 11 18 21.5t14 16.5q1 2 3 2.5t4 2.5q8 11 10.5 11.5t3.5 2.5q0 2 3 7t6.5 10.5t7 10t4.5 6.5q23 29 30 49.5t7 22.5q-1 0 -1 1v2q0 5 2 8.5t2 8.5t-3 5q-6 0 -19.5 -13t-27 -28.5t-24 -28.5t-11.5 -14t-4 -7t-5 -7
t-4 -7.5t-6 -8.5q-1 -1 -3 -4t-4.5 -7t-4 -6.5l-1.5 -2.5q1 1 -5.5 -9.5t-15 -24.5t-16.5 -27.5t-10 -17.5q-1 -1 -3 -4t-4 -7l-6 -10q-1 -2 -6 -9.5t-11 -17.5q-7 -11 -15 -25q18 17 31 30zM60 36q-3 -5 -4 -11q-2 -4 -3 -8l13 11q9 14 30 36.5t44.5 45.5t43.5 41.5
t27 25.5l3 3q9 10 20 18t14 11q2 2 3.5 4.5t3.5 2.5q8 1 14 8.5t11 7.5q5 -2 5 -2.5t2 -2.5q2 0 7.5 -3.5t6.5 -5.5q0 -4 -1 -6q0 -1 1.5 -3.5t1.5 -4.5t-2 -4q-3 -5 -6 -9q-5 -8 -5 -10l-17 -31q0 -3 -2 -7q-1 -3 -3 -7q-1 -2 -2 -3l-4 -6q-4 -6 -4 -8q0 -1 -2 -5.5t-4 -10
t-4 -10t-2 -6.5q-2 -7 -4 -18.5t-2 -16.5q0 -6 1.5 -10t2.5 -9q0 -1 2.5 -3t5.5 -2q6 0 12 2q5 2 8 4.5t11 10.5q0 1 4 4t9 7t9 7t5 3q3 0 3 3q3 8 7 8q3 0 3 -5q-2 -4 -6 -5.5t-4 -4.5q0 -2 -7 -8t-12 -11l-5 -3q0 -3 -1 -3q-11 -6 -24 -17t-29 -11q-5 0 -11 2.5t-7 2.5
t-1.5 0.5t-1.5 0.5t-3 5t-5 6q-4 1 -4 9v15q0 18 3.5 35t8.5 32q3 1 3 6q0 2 4.5 12t6.5 12q0 1 0.5 1.5t0.5 2.5l10 20q4 9 10 19q-8 -4 -16 -10q-7 -5 -16 -12.5t-17 -18.5q-1 0 -6.5 -5t-11.5 -10.5t-11.5 -10.5t-6.5 -6q-4 -3 -11.5 -11.5t-16 -17.5t-14.5 -16.5
t-7 -7.5l-8 -4q-2 -1 -2 -2l-8 -10.5t-19 -22.5t-22 -21.5t-16 -9.5q-1 0 -2 1t-3 1h-5q-11 0 -14.5 7.5t-3.5 10.5q0 2 1 3t1 3q0 11 4 15.5t4 6.5q1 2 3 8t4 8q4 4 4 5l16 32q1 2 3.5 3t2.5 3q2 9 7 16q3 4 6 7q0 1 1 3t2 3.5t3 5.5l35 55l-21 -24l-8 -8q-7 -5 -14.5 -14
t-9.5 -11q-9 -8 -16.5 -15t-12.5 -12l-12 -12l-4 -4q-4 -4 -8 -6q-2 -2 -4 -2q-3 0 -3 2q0 3 3 6l4.5 4t10.5 9.5t11.5 11.5t8.5 10l7 6q1 2 11.5 13t24 24t25 25.5t13.5 17.5t6 7t4 4q0 3 6 11q7 10 13 19t12.5 19.5t14.5 23.5t19 30l7 13q1 2 1 3t3 3q3 3 6.5 8.5
t3.5 10.5q8 16 18 31t15 24q0 2 1.5 5t2.5 4q6 3 8.5 9.5t4.5 10.5q22 34 34.5 52.5t12.5 20.5q0 1 3 6t6 7q2 1 8 8t8 9q5 7 11 12t11 12q1 2 11 8t16 13q2 2 6.5 4t7.5 3q8 3 13 6.5t13 3.5q7 0 14 -11v-4q0 -4 1 -4q-1 -2 -1 -3v-4q0 -8 -1.5 -18t-7.5 -26
q-2 -5 -4.5 -10.5t-2.5 -7.5q-6 -11 -14.5 -23t-17.5 -24t-17 -21.5t-14 -15.5l-42 -45q-8 -8 -13.5 -14.5t-10.5 -11.5q-5 -6 -9 -12v-2q0 -1 -3 -1t-5 -3.5t-4 -5.5q-10 -11 -24.5 -23.5t-34.5 -33.5q-3 -3 -9.5 -8t-10.5 -15l-4 -7q-6 -9 -15 -24.5t-17.5 -30.5
t-15.5 -26t-8 -12t-2 -6t-4 -7q-2 -2 -7 -10t-6 -9q-2 -2 -6 -11q1 2 -6.5 -12.5t-18.5 -34.5q-1 -2 -4 -7.5t-6.5 -12t-6.5 -12.5zM324 77q0 5 5 9.5t6 4.5q3 0 3 -4q-2 -4 -6.5 -7t-7.5 -3z" />
    <glyph glyph-name="i" unicode="i" horiz-adv-x="180" 
d="M160 273q-3 4 -3 9v5q0 4 3 5q2 1 2.5 2.5t2.5 3.5q6 6 14 6q2 0 2 2.5t7 3.5q2 0 4 1t4 1q6 0 10.5 -3.5t4.5 -9.5v-5q0 -2 -0.5 -5t-3.5 -8q-2 -2 -4 -1.5t-2 -1.5q0 -14 -21 -14q-14 0 -20 9zM59 151l14.5 14.5t14.5 15.5l10 7q2 3 6 10.5t7 8.5q1 1 4 1.5t5 1.5
q12 12 21 12t10.5 -9t1.5 -14q-7 -4 -9 -14h-1q-2 0 -2 -2q0 -1 -13.5 -23t-33.5 -51q-1 -1 -1.5 -5t-3.5 -7q-1 -1 -1.5 -2t-2.5 -3t-3 -5q0 -3 -0.5 -3.5t-0.5 -1.5t-4.5 -7t-4.5 -11q0 -1 -2 -6t-5 -7t-3 -7l-2 -10q0 -14 7 -14q2 0 2.5 -0.5t2.5 -0.5q9 0 19.5 4.5
t19.5 10.5t15 11l6 5l29 24q1 2 5.5 5.5t6.5 5.5l4 4t5 2q2 0 2 -3q0 -2 -4 -7t-9 -9.5t-9 -8t-5 -3.5q1 1 -4 -3.5t-8 -6.5q-11 -8 -22 -19.5t-17 -13.5q-8 -3 -13 -6.5t-10.5 -6.5t-14 -5t-21.5 -2q-17 0 -22 7.5t-5 9.5q-1 2 -1 7v5q0 1 1 2q-1 1 -1 2q-1 1 -1 5t3 13
q5 5 4 7t1 4l7 11q16 25 25.5 40.5t15.5 25.5t9.5 16t6.5 12q-9 -7 -18 -15q-8 -7 -16.5 -15t-15.5 -17q-2 -2 -6.5 -5l-7.5 -5q-11 -10 -16.5 -16.5t-10.5 -8.5q-2 0 -3 1t-1 3q2 3 5 6t4 5q0 1 2 3q1 1 2 1q3 2 7.5 6.5l6.5 6.5q12 11 23.5 23t13.5 14z" />
    <glyph glyph-name="j" unicode="j" horiz-adv-x="173" 
d="M-233 -275q0 1 2 7l2 6q2 11 7 18.5t15 27.5q1 2 6.5 10t7.5 9q2 0 3 3t3 5q2 4 5 7l3.5 3.5l2.5 2.5q22 28 43.5 46.5t23.5 19.5q17 12 25.5 19t10.5 8t7.5 4t10.5 7q2 2 5 4t5 5l1 1l4 2q2 1 5 3q9 15 17 28q7 11 14 23t12 20q1 1 1 2.5t2 1.5q1 0 0.5 2.5t1.5 2.5
q1 0 1.5 3t0.5 5t4.5 5t4.5 8q1 4 8.5 15.5t9.5 18.5q0 1 2.5 2.5t2.5 2.5t3 9.5t8 10.5q1 1 8 13t16 26t16 26.5t8 14.5q2 4 3.5 8.5t11.5 18.5q-5 -4 -9 -8q-4 -3 -7 -5.5t-4 -4.5t-9 -11.5t-18 -21.5t-19.5 -22.5t-12.5 -13.5q-1 0 -4 -3t-6.5 -6t-7 -6.5l-4.5 -4.5
q-5 -8 -10.5 -12.5t-7.5 -6.5q-1 -1 -3 -1q-4 0 -4 2t1 3t2 3q17 17 36 38.5t35.5 40.5t27.5 32.5l11 13.5q10 7 12.5 14t4.5 9q6 8 13.5 21t12.5 13q6 0 8 -4l2 -4q4 3 6 3q1 0 7 -11h5q5 0 5 -7q-2 -14 -7 -17t-5 -9q0 -4 -8 -10q-4 -3 -7 -6q0 -1 -4 -10.5t-9 -14.5
q-2 -2 -4 -9.5t-4 -7.5q-1 0 -11 -15t-21 -33t-20.5 -34t-9.5 -19q0 -2 -5.5 -12t-10.5 -14q-2 -2 -6 -8.5t-7 -11.5q-4 -6 -10.5 -16t-12.5 -19q-7 -11 -15 -22q8 7 15 12q6 5 11 8.5t7 4.5q1 0 6 5t7 5q3 0 5.5 3.5t4.5 3.5q4 1 10 5t12 8.5t10 8t4 4.5t3.5 3.5t8 5.5
t8 5.5t4.5 3.5q2 4 9.5 9.5t9.5 7.5l11 9q9 8 13.5 12.5t7.5 4.5t3 -4q0 -1 -7 -8t-16 -15q-3 -3 -3 -3.5t-2 -1.5q-11 -9 -26 -20.5t-21 -16.5q-10 -8 -26.5 -20.5t-32.5 -24.5t-29 -21.5t-16 -10.5q-9 -14 -19 -30q-8 -14 -18 -30t-18 -32q0 -1 -4 -7t-6 -8q-1 -1 -9 -13
t-17.5 -26.5t-18 -27t-10.5 -14.5l-6 -8q-2 -3 -3.5 -5t-2.5 -4q-1 -3 -2.5 -6t-3.5 -3q-3 0 -3.5 -4t-2.5 -4q-2 -1 -3 -3t-2 -3q-3 -5 -11 -16.5t-17.5 -23t-20 -20.5t-17.5 -9q-2 0 -6 0.5t-6 1.5l-2 5l-2 4q0 -1 -1 2q-1 2 -2 6.5t-2 14.5q-1 2 -1 8v7q0 2 1 3l1 5
q0 8 2 13.5t2 6.5zM204 383q-1 3 -1 8q0 10 5.5 11.5t7.5 1.5q9 2 9 4.5t4 2.5t9 -2q1 0 3.5 1t5.5 1q7 0 11.5 -8t4.5 -14q0 -3 -2 -5q-4 -2 -8 -13q-2 -2 -3 -4t-4 -3q-2 -1 -3 -2.5t-2 -2.5q-2 -3 -6.5 -4t-9.5 -1h-7q-2 0 -4 1q-6 0 -9 4t-3 8q0 3 1 4t1 7v5zM-197 -288
q0 -1 -0.5 -3.5t-0.5 -6.5q0 -3 2 -9q1 -3 2 -5q5 0 9 3q6 3 14 14.5t15.5 25t13.5 25t8 15.5q4 8 6 10t4 6q0 3 2.5 5.5t2.5 6.5q2 4 9.5 16.5t15.5 29.5q1 2 5.5 8t5.5 8q3 5 9 15.5t12 20.5q7 11 16 25l-6 -4q-6 -4 -7 -5t-9 -6t-18.5 -12t-21.5 -15.5t-17 -16.5l-3 -6
q-1 -1 -2 -1.5t-2 -2.5t-1.5 -1.5t-2.5 -1.5t-4.5 -6t-4.5 -7l-12 -16q-11 -14 -20.5 -37t-16.5 -47q0 -2 -0.5 -5.5t-1.5 -8.5t-1 -11zM126 213q0 4 -1 4h-2q-1 0 -1 -2q0 -1 1 -1q1 -1 3 -1zM136 223h3t2 1q0 2 -2 2q-1 0 -2.5 -1.5t-0.5 -1.5z" />
    <glyph glyph-name="k" unicode="k" horiz-adv-x="298" 
d="M283 76q6 6 7 6q3 0 3 -3q0 -1 -0.5 -1t-0.5 -1v-1q-3 -3 -5.5 -6.5t-5.5 -4.5q-1 0 -2.5 -2.5t-3.5 -4.5q-3 -4 -6 -7t-10 -3q-3 0 -3 2q0 1 3 3q2 1 8 8t10 7q1 1 2 3t4 5zM294 82q0 8 4 8q2 0 3 -3q0 -5 -7 -5zM15 97q-4 -4 -9.5 -9t-6.5 -5q-3 0 -3 3q0 1 6 7t11 12
q2 0 3 4t6 4t5 -2t-1 -3zM26 119q10 12 14 14q4 4 5 7q0 2 9 10t22 22l49 54q1 1 7.5 12.5t14.5 25.5t15.5 26.5l10.5 17.5q7 9 14 21.5t8 14.5q1 4 7 14t8 14q5 11 8.5 16t5.5 7t5 10.5t5 12.5q6 9 17 27t22.5 36.5t22.5 35t17 23.5t8.5 11.5t4.5 5.5q3 2 6 6.5t4 7.5
q0 1 9 9t20.5 16.5t23.5 15.5t19 7h10q5 0 7 -2.5t7 -12.5q1 -2 1 -6t-1 -6.5t-1 -5.5q0 -9 -3 -14t-3 -8q-1 -4 -3.5 -12.5t-6.5 -12.5q-5 -4 -8.5 -11t-5.5 -14q-5 -9 -14.5 -21.5t-14.5 -19.5q-2 -2 -3 -4.5t-3 -4.5q-3 -4 -18 -21t-33 -37.5t-34.5 -38.5t-22.5 -25
l-52 -54q-8 -9 -13.5 -14.5t-8.5 -9.5q-4 -4 -6 -7l-22 -37q-2 -2 -4.5 -7.5t-5.5 -11t-5.5 -10.5t-3.5 -6q-7 -7 -11 -17.5t-5 -12.5q-2 -4 -4.5 -7t-5.5 -10q-1 -2 -5 -6q0 -3 4 -3q23 7 39.5 14t27.5 12q12 6 19 12q3 0 6.5 3t5.5 5q4 3 5 6t4 6q2 3 3 4t1 2q0 2 2 4t2 4
t2 4.5t2 5.5v6q0 7 -4 9t-6 2t-3 -1t-3 -1t-2 4q5 6 8 8t5.5 2.5t4.5 0.5t6 3q2 1 5 1q6 0 10 -4h4q8 0 12 -5.5t4 -7.5q-1 -2 -1 -5v-2v-1q0 -1 0.5 -1.5t0.5 -1.5q0 -3 -3 -10t-11 -15l-6 -4q-2 -5 -8 -8.5t-11 -6.5q-2 -2 -4.5 -3.5t-7.5 -3.5l-27 -15q-15 -8 -28 -13
q-7 -3 -13 -4l38 2q4 0 6.5 -1t4.5 -1q11 0 11.5 -6t1.5 -8v-6q0 -6 -3 -16t-5 -15l-1 -5q-2 -6 -4 -11q-5 -11 -6.5 -23.5t-1.5 -17.5v-10q0 -2 2 -4.5t3 -2.5q7 0 15.5 6t16.5 12.5t15 12.5t10 6q4 0 4 -3q0 -4 -9 -13l-11 -9q-3 0 -7 -4.5t-9.5 -9.5t-13.5 -9t-20 -5
q-1 0 -2.5 1t-5.5 1q-5 0 -11.5 2.5t-10.5 12.5q-1 3 -1 6v8q0 2 1 7.5t1 6.5t2 11q3 11 4 18t3 9q1 1 1.5 3.5t0.5 4.5q0 5 5 15t5 15q0 3 -1 4q-1 2 -4.5 6t-11.5 4q-6 0 -18.5 -1.5t-26.5 -6.5q-3 -2 -12 -5.5t-14 -8.5l-7 -9q-3 -6 -10 -17t-13.5 -22t-12 -21t-5.5 -14
q-3 -5 -8 -14t-10 -9q-6 2 -7 2q-2 0 -3.5 -1t-6.5 -1q-12 0 -12 13q0 1 1.5 2t2.5 3q2 5 3 5.5t2 5.5q0 1 2 3l2 2l32 52l3 8l27 40q1 1 4 6.5t6.5 11.5t6.5 11.5t5 7.5t5 6.5t5 9.5l6 10q-8 -9 -14 -15q-3 -3 -5.5 -6t-4.5 -5q-3 -3 -5 -4q-6 0 -4.5 -2t-2.5 -6
q0 -3 -13.5 -14.5t-27.5 -28.5q-2 -2 -5 -2t-3 2t1 3zM354 465q2 5 8.5 12t6.5 9q0 4 3 7q1 1 5.5 8.5t9.5 17t9 19.5t6 16q1 2 2 2.5t1 3.5l3 11q1 3 2 9.5t1 11.5q0 2 -1 4t-2 2q-2 0 -3 -2t-3 -2q-4 0 -8 -3q-10 -7 -15 -13t-7 -8q-9 -8 -24 -31t-32.5 -50.5t-33.5 -55.5
t-26 -44l-6 -10l-2 -3q-2 -2 -2 -3q-8 -14 -17 -29.5t-17 -27.5q-9 -15 -18 -28q15 16 31 32q13 14 28 30t27 30q2 2 1.5 4t1.5 2q1 0 6 4t11 10t12 12.5t11 11.5q3 2 7 6.5t6 9.5q0 1 1 2t1.5 2t1.5 2q3 2 6 8t8 11z" />
    <glyph glyph-name="l" unicode="l" horiz-adv-x="182" 
d="M165 236l-6 -9.5t-13.5 -20.5t-13.5 -20.5t-6 -10.5q-8 -17 -19.5 -35.5t-15.5 -26.5q-2 -4 -7 -16t-9 -15t-4 -9t-1 -7q-5 -5 -5.5 -10t-0.5 -13q0 -3 1 -7.5t6 -9.5l4 -2t4 -1q10 0 19.5 4t17 9t12.5 9t6 5q20 13 30.5 25t18.5 16q3 0 3 -2q0 -6 -11 -15q-2 -1 -6 -5.5
t-9 -9.5l-9.5 -9.5t-7.5 -5.5q-4 -2 -6 -4t-5.5 -5t-9 -7t-15.5 -11q-11 -8 -24 -13.5t-30 -5.5q-2 0 -3 0.5t-3 0.5q-21 5 -21 24q0 3 -1 6.5t-1 6.5q0 5 1 11.5t4 14.5q1 2 1 4q0 3 1 5q1 1 3 5q1 2 2 3q5 12 13.5 27t16.5 28l18 30q-7 -7 -13 -14l-12.5 -12.5
t-12.5 -11.5l-8.5 -8.5t-9.5 -8.5q-2 -1 -5.5 -5.5t-8 -9t-9 -8t-7.5 -3.5q-2 0 -2 2t3.5 5t5.5 5t13.5 14t25.5 26q16 17 37 38q6 6 11 12q5 5 9.5 11t7.5 12q2 5 8 11.5t8 11.5q9 18 17.5 30t12.5 19l13 23q4 5 7.5 10.5t4.5 8.5q15 29 24 44.5t14 23.5l11 18
q9 14 13.5 22t9.5 17q3 6 9 14.5t11.5 17.5t10 16t4.5 9q0 1 2.5 5.5t6.5 9.5l8 10t6 7q1 1 4 6t6.5 10.5t6.5 10.5t5 7q28 34 40.5 44.5t11.5 13.5q0 1 3 2.5t4 1.5t5 4t7 5h4q10 0 12.5 -1t4.5 -5q1 -2 6 -11q0 -1 0.5 -2.5t0.5 -3.5q0 -6 -3 -19q-2 -8 -4.5 -16t-6 -17
t-9.5 -21t-15 -29q-1 -2 -4.5 -8.5t-8 -13.5t-8.5 -13.5t-6 -8.5t-5.5 -6t-5.5 -8q-4 -4 -6 -10q0 -2 -1 -3l-3 -3q-2 0 -14 -20q-1 -2 -5 -7t-8.5 -10t-8 -9.5t-4.5 -5.5q-11 -15 -27 -33q-14 -16 -34 -38.5t-47 -49.5zM223 308q10 12 17 18.5t10 11.5q3 3 9.5 11t14 17
t13 16.5t6.5 8.5q2 2 2.5 3.5t3.5 5.5q7 7 13.5 15.5t6.5 13.5q0 4 8 10.5t8 11.5q0 2 4.5 8.5t9.5 13.5t9.5 13t4.5 9q0 1 1 2t2 3t3 3q3 9 7 13t6 12q1 4 3 7.5t5 9.5v5t2 6q5 7 8 20.5t5 18.5l2 4q0 2 -2 3q-5 0 -11 -7t-8 -9q-13 -14 -29.5 -37.5t-28.5 -43.5
q-5 -7 -5 -6q0 -2 -5 -9.5l-12 -18t-13.5 -22t-9.5 -20.5q-1 -2 -6 -8.5t-5 -11.5q0 -1 -4.5 -5.5t-6.5 -9.5q-1 -3 -6 -11.5t-11 -18t-11.5 -18t-7.5 -9.5q-5 -4 -7 -8.5t-7 -13.5q-3 -5 -8 -13.5t-10 -16.5l-12 -20z" />
    <glyph glyph-name="m" unicode="m" horiz-adv-x="495" 
d="M19 101q-2 -2 -9 -10t-10 -8q-4 0 -4 3q0 2 1.5 3.5l3.5 3.5q2 1 2.5 2t2.5 2q0 2 3 4.5t4 3.5q2 3 3.5 6t6.5 5q0 1 5 6t5 7l4 4t9 9.5l10 11t7 10.5q0 2 5.5 6.5t10.5 9.5q11 13 17.5 20.5t8.5 9.5l14 15q5 5 7 12.5t7 7.5q1 0 1.5 -0.5t1.5 -0.5q4 0 7.5 -1t5.5 -1
q13 -3 13 -12v-5q0 -1 1 -2l-3 -6q0 -2 -2 -8q-1 -3 -2 -5q0 -5 -5 -12t-5 -8q-2 -5 -8 -17t-14 -27l-4 -6t-4 -5q-3 -3 -4 -5l-55 -101q10 7 21 17q10 8 21.5 18.5t23.5 24.5q5 6 7 6.5t3 2.5q6 8 11.5 11t5.5 5t4 6t6 4q0 1 8.5 9t20.5 19.5t25.5 23.5t23.5 20l26 29
q1 1 3 1q3 0 5 2q1 1 4 1h6q5 0 12 -4t7 -13q0 -3 -2 -6.5t-4 -8.5q-2 -6 -2 -8t-4 -7.5t-7 -12.5q-1 -3 -3.5 -9.5t-5 -13.5t-5.5 -12.5t-4 -6.5q-3 0 -3 -6q0 -5 -4 -13q-2 -4 -3 -7q-3 -8 -7 -17l-6 -16l-6 -16q-2 -2 -2 -6t1 -4l12 11t27 24.5t27.5 25t13.5 11.5
q11 11 19 15.5t20 20.5q3 4 10 8.5t16 15.5q2 2 7.5 5.5t13.5 10.5q1 3 5 4.5t5 3.5l5 5l5 5q3 3 6 5q1 -1 2 0.5t3 1.5q7 0 16 -5.5t9 -10.5q0 -2 1 -2.5t2 -2.5q0 -2 -4 -8t-8 -11q-3 -3 -7 -11.5t-8 -17.5t-8 -15.5t-6 -6.5l-4 -12q0 -2 -3 -4t-5 -10q-1 -3 -4 -6l-2 -2
q-3 -6 -5 -11t-3.5 -10t-2.5 -9q-2 -10 -2 -13q0 -7 3.5 -8.5t8.5 -1.5q11 0 26 6.5t34 23.5q2 1 4.5 2.5t6.5 6.5q1 1 6 5q9 6 10.5 8t6.5 6q2 2 3 2q3 0 3 -3q0 -2 -1 -3q-3 -3 -10 -10.5t-14.5 -15.5t-14.5 -14t-10 -6q-5 -1 -7 -3q-1 -1 -1 -2q-2 -1 -4 -3q-4 -4 -8 -4
q-2 0 -15 -9t-30 -9h-6q-5 0 -9 0.5t-9 3.5q-7 0 -7.5 3.5t-2.5 4.5q-1 1 -1 5q-2 0 -2 5v10q0 2 1 5t1 6q0 7 7 20q0 2 1.5 4t3.5 7q3 9 5.5 13.5t4 6t2.5 2t1 2.5q1 4 2.5 6.5t3.5 5.5q6 11 11 20.5t8 16.5q4 8 7 15q-1 1 -8.5 -4.5t-17.5 -13.5t-20.5 -18t-17.5 -17
q-23 -23 -35 -31.5t-13 -12.5q-1 -3 -9 -11t-18 -17q-11 -11 -25 -23q-5 -9 -15 -12.5t-24 -5.5q-8 1 -12.5 4t-4.5 14q0 3 1.5 5.5t1.5 7.5q0 7 2.5 10.5t4.5 5.5q1 1 4 7.5t6 14t5.5 14t2.5 8.5q0 5 3 6t3 4q1 5 4.5 15t8 20.5t8.5 19t5 10.5q0 1 4 11q2 4 5 9l-25 -25
l-17.5 -17.5t-8.5 -7.5q-3 0 -12.5 -8.5t-21 -19.5l-23 -22t-17.5 -17q-2 -2 -9 -10.5t-11 -10.5q-12 -9 -21.5 -22t-15.5 -16q-8 -3 -11.5 -8.5t-4.5 -5.5q-3 -3 -7.5 -2t-10.5 -3q-1 -1 -3 -1q-5 0 -11 5.5t-6 12.5q0 1 0.5 1.5t0.5 2.5t-0.5 3.5t-0.5 6.5t2.5 11t11.5 15
q3 3 8 16t8 17q2 3 7 10t10 15.5t9 16t4 10.5q1 2 2 3t2 3t2 3q6 8 11 18q5 8 9 17.5t8 19.5q1 2 -6 -7t-30 -33q-2 -2 -6 -7.5t-9 -9.5l-15 -14z" />
    <glyph glyph-name="n" unicode="n" horiz-adv-x="322" 
d="M70 168q1 2 6.5 8t12.5 13l14 14t12 13l5 5t3 6t4 6.5t9 5.5q2 1 5 1q5 0 9 -4.5t11 -6.5q5 0 5 -5q0 -1 -0.5 -1.5t-0.5 -1.5q-8 -20 -21.5 -42t-23.5 -34q-1 -1 -1 -4l-4 -8t-6.5 -12t-6.5 -11t-3 -6l-4 -6q-19 -31 -30 -54.5t-11 -28.5q2 0 7 4.5t12 11.5l25 26
q20 23 31 35.5t17 17.5q7 6 9 7q0 2 1 4q2 4 5 4q1 0 6.5 4.5t11.5 10.5l11.5 11.5l7.5 7.5q5 3 7.5 6.5t5 7.5t6 7t11.5 5q2 0 3 2q2 6 8.5 7.5t11.5 1.5q2 0 3 -1q2 -2 2.5 -3.5t2.5 -2.5q4 -1 8.5 -3.5t4.5 -4.5v-5q0 -10 -4.5 -16t-4.5 -11q0 -8 -6.5 -14.5t-6.5 -14.5
q0 -3 -1 -4l-6 -12q-1 -1 -1 -3v-4q-4 -9 -6 -22t-2 -24q0 -10 1.5 -15t8.5 -5q5 0 11.5 3.5t19.5 17.5l4.5 4.5t5.5 4.5q10 6 19 14.5t15 13.5q2 2 5 2q2 0 2 -2v-2q-2 -4 -7 -9t-6 -5q-2 0 -5.5 -3.5t-7 -7.5t-6.5 -8t-6 -5q-4 -2 -7.5 -5t-6.5 -6q-4 -4 -7 -8q-2 0 -3 -1
q-2 -1 -5 -6l-5 -2q-3 -1 -5 -2q-3 -3 -6 -5q-6 -4 -11 -4q-2 0 -3 1t-3 1t-3 -0.5t-5 -0.5l-2 2q-1 1 -2 1t-2 1q-3 0 -9.5 11t-6.5 33q0 16 6 39q2 5 4.5 13t5.5 15q4 8 6 14.5t3 8.5q0 1 0.5 2.5t0.5 3.5v3q-21 -16 -39 -33q-16 -14 -33 -30t-28 -29q-11 -12 -18 -16.5
t-15 -14.5q-8 -11 -24 -24.5t-35 -13.5h-4q-1 2 -9.5 5t-8.5 11q0 5 4 10q3 5 5 11t4 8q3 2 5 8.5t4 8.5t3.5 2.5t1.5 2.5q8 17 13.5 26.5t9 15t5.5 7t3 3.5l39 74q0 1 -6.5 -7t-16.5 -19.5t-21 -22.5t-18 -15q-2 -1 -5.5 -8t-8.5 -9q-6 -4 -11.5 -9.5l-11.5 -11.5
q-1 -1 -2.5 -3t-3.5 -2q-3 0 -3 5q8 11 19 21.5t24 27.5q1 1 2.5 1t2.5 2q3 6 11.5 13.5t8.5 8.5q0 2 2 3t3 3z" />
    <glyph glyph-name="o" unicode="o" horiz-adv-x="241" 
d="M176 98q1 2 2.5 4.5t1.5 4.5q0 3 2.5 5.5t2.5 4.5q0 1 5 14t5 33q-1 20 -9 31t-13 13q-3 1 -8 1q-10 0 -19 -7t-16.5 -18t-12.5 -23.5t-6 -24.5q-1 -2 -1 -6q-1 -3 -1 -6.5v-6.5q0 -11 2 -25t9 -20q2 -4 6 -7q6 -6 17 -9q13 14 22.5 27.5t10.5 14.5zM73 177q7 8 17.5 18
t22.5 19t24 15t23 8q2 0 4 0.5t4 0.5q7 0 13.5 -1.5t7.5 -3.5q2 -2 1 -4t6 -2q1 0 3 -3.5t3 -5.5q0 -2 4 -3t5 -5q2 -10 2 -12q0 -3 -0.5 -6t-0.5 -5t2 -7t2 -16t-4 -28.5t-21 -43.5q-4 -6 -10 -13t-11 -13q-7 -7 -14 -13h10q8 0 10 1t11.5 3t15.5 7q14 7 23 16t16 11
q3 0 3 -2q0 -5 -12 -14t-23 -17q-2 -1 -3.5 -2t-3.5 -2l-5 -1q-4 -1 -6 -3t-4 -2l-14 -4q-1 -1 -3 -1h-9l-4 -1h-8q-2 0 -3 1l-3 -3q-4 -4 -6 -4q-4 -2 -10 -10t-18 -13q-4 -2 -12.5 -8t-24.5 -8q-2 0 -2 0.5t-2 1.5q-1 0 -7 -1.5t-11 -1.5q-7 1 -10 4l-1 1q-10 3 -17 8
q-6 5 -11 13t-5 20v7q0 4 0.5 8t2.5 9q2 4 2 8v4q1 0 2 2q1 1 1 2.5t1 3.5q1 6 5 13q2 4 3 7q-3 -2 -6 -6q-3 -3 -6 -6.5t-6 -6.5q-2 -2 -4 -3.5t-5 -1.5q-2 0 -2 3q0 2 5 7l7 8q14 15 29 32.5t26 30.5l3 4zM96 168q-6 -8 -9 -11q-4 -3 -7 -11t-5 -9l-2 -2v-2
q-8 -11 -14 -22q-5 -10 -9 -22.5t-4 -23.5v-7q0 -13 5 -20q2 -4 5 -5q2 -2 2.5 -4t2.5 -2q1 0 2.5 -1t2.5 -1h6.5t6.5 -1q3 -1 8 -1q13 0 24.5 8t21.5 16q-7 2 -17 9t-12 14q-2 5 -5.5 10.5t-3.5 12.5v2q0 1 -0.5 1.5t-0.5 1.5q-3 7 -3 14q0 3 0.5 5t0.5 4l-1 14q0 2 0.5 3
t0.5 2q0 2 0.5 5t2.5 10q0 1 0.5 2t0.5 3t1 5t2 5q1 3 3 6z" />
    <glyph glyph-name="p" unicode="p" horiz-adv-x="306" 
d="M15 -16q-2 -4 -4 -7.5t-4 -7.5l-4 -8q-1 -3 -3 -7q-2 -3 -3.5 -6.5t-2.5 -5.5l-3.5 -7t-3.5 -6q-2 -4 -3 -7l-9 -18q-2 -2 -11.5 -22.5t-26.5 -49.5l-3 -4q-7 -17 -12 -23t-8 -13q-2 -4 -10.5 -16.5t-19.5 -28t-24 -32t-23 -28.5q-2 -3 -4 -4.5t-3 -3.5l-2 -2
q-11 -13 -21 -24q-8 -9 -17.5 -16.5t-15.5 -7.5q-2 0 -3 1q-5 3 -6 7.5t-1 7.5v4q-2 2 -2.5 4.5t-0.5 3.5q0 7 4 19.5t9 25.5t11 24.5t10 17.5q5 8 13 17q5 6 9.5 12t10.5 17q11 16 20 25t23 29q2 2 6.5 8.5t11.5 11.5q4 3 14 16t20.5 27.5t19 26t8.5 12.5t7.5 11t15.5 21.5
t15.5 21.5t7.5 12q2 2 4 2q0 2 0.5 2t0.5 1q1 1 1 3q0 1 2 4.5t4 5.5q5 7 10.5 16.5t6.5 12.5q2 5 6.5 6.5t4.5 9.5t5.5 13t5.5 7t4 10.5t14 20.5q2 3 8 11.5t12 18.5q7 11 14 25q-6 -7 -12.5 -14t-11.5 -12q-6 -7 -11 -13q-5 -7 -16 -12q-4 -3 -11 -13t-11 -10q-2 0 -5 -4
t-7.5 -8.5t-9 -8t-7.5 -3.5q-2 0 -2 2q0 4 5 8t6 5l16 16t19 19.5t15.5 16.5t7.5 7q5 5 9 10q4 4 8 8.5t7 7.5q21 24 26.5 34t8.5 12q11 9 10.5 13t3.5 8l4.5 6t6.5 7t4.5 8.5t3.5 10.5l4 8q2 3 3.5 6.5t3.5 5.5q11 14 18 28.5t9 16.5q2 1 6 9.5t7 13.5q3 6 7 11q2 5 4.5 10
t2.5 10q0 1 4 7t6 11q1 3 3 3t3.5 -3t3.5 -5t3 -2q2 0 3 1q1 0 1 1q3 0 12 -2.5t9 -13.5q0 -6 -3 -13q-1 -2 -8 -6t-7 -10q-1 -3 -3 -5t-2 -4q0 -5 -5 -11q-2 -2 -9.5 -13.5t-17 -27t-19 -31.5t-15.5 -26l-11 -18q-7 -13 -15.5 -22.5t-13.5 -17.5l-8 -10q-3 -5 -6 -9.5
t-4 -6.5t-3.5 -6t-5.5 -9q-4 -5 -9 -12q14 12 22.5 21.5t17.5 18.5l10 10q14 20 35 31t35 11h6q2 0 4 1q2 0 4 -1l4 -2q3 -2 5 -3t4.5 -3t3.5 -3q4 -5 8.5 -12.5t5.5 -20.5v-4q0 -5 1.5 -10t1.5 -10q0 -10 -3.5 -25.5t-13.5 -37.5q-2 -3 -6 -8.5t-4 -8.5q-2 -4 -6 -8l-5 -5
q-14 -23 -27 -34.5t-24 -19.5q8 2 22 7.5t18 9.5q5 3 9 5t9 6q1 0 5.5 2t16.5 11q3 3 5 4l3 2l2 2t4.5 3t4.5 4q2 2 2.5 2t1.5 1q7 6 12.5 10.5t7.5 4.5q3 0 3 -3q0 -5 -13 -14t-21 -16l-5 -4q-2 -3 -8.5 -7t-8.5 -5q-14 -10 -31 -18q-14 -8 -32.5 -14.5t-38.5 -9.5
q-1 0 -7 -1t-8 -1h-10q-4 0 -4.5 0.5t-4.5 0.5q-8 0 -21 6q-2 0 -2.5 3t-2.5 4q-14 13 -14 24q0 7 0.5 11.5t0.5 7.5q0 7 4 8.5t4 2.5q1 3 2.5 5.5t7.5 2.5h7q5 0 5 -2q0 -3 3 -3t6 -5q3 -3 3 -8q0 -6 -1.5 -9t-1.5 -5q0 -5 -6.5 -9.5t-6.5 -10.5q0 -5 5 -8q2 -1 4.5 -2.5
t9.5 -1.5q5 0 10 1t10 5q7 3 9 6t4 4t8.5 9t8.5 10q11 11 18.5 22.5t7.5 12.5q1 1 1 1.5t1 1.5q0 1 1 1q6 7 11 17q5 8 9 19.5t6 25.5q0 2 3 5v7q0 2 0.5 4.5t0.5 10.5q0 2 -2 6q0 1 -0.5 3t-0.5 3q-1 2 -3.5 6t-3.5 8q-1 1 -4 3q-6 4 -12 4q-8 0 -22 -5.5t-30 -25.5
q-1 -1 -4.5 -5.5t-9.5 -9.5l-3.5 -3.5t-3.5 -4.5q-1 -1 -5.5 -4.5t-6.5 -8.5q-3 -7 -27 -38t-69 -100zM-48 -79q-10 -17 -20 -30q-8 -11 -16 -21.5t-10 -12.5q-6 -5 -9 -11t-11 -17q-2 -2 -6 -8t-8.5 -13t-9 -13t-6.5 -8q-5 -5 -19.5 -30.5t-28.5 -57.5q-2 -3 -4 -16t-3 -16
q3 0 8.5 4.5t11.5 10.5t11.5 13t8.5 11q11 14 16 23t7 11q15 17 28.5 42t27.5 51q2 5 5.5 10t4.5 10q1 4 2 5.5t2 3.5q2 2 2.5 5t2.5 4t1.5 2.5t1.5 3.5t2 3.5t1 3.5q7 15 13 27.5t10 22.5q4 11 8 21z" />
    <glyph glyph-name="q" unicode="q" horiz-adv-x="282" 
d="M134 54l10 10l3 3t3 2l12 16l28 44l1 3v4q0 7 1 10t4 8l2 7q2 10 2 9q0 2 -0.5 2.5t-0.5 2.5t-1 4t-1 4l-2 7q0 8 -12 14t-26 6q-6 -1 -18.5 -10.5t-25 -21t-22 -23t-10.5 -16.5q-5 -6 -18 -24t-20 -47q0 -2 -1.5 -6t-1.5 -9q0 -2 -1 -5t-1 -5v-6q0 -2 2.5 -7.5t7.5 -6.5
q2 -1 7 -1h7h4q13 0 23 4.5t18 9.5zM279 89q2 2 5 2q2 0 2 -2v-2q-2 -3 -5.5 -5.5t-5.5 -4.5q-2 -3 -7 -3l-4 -6q-3 -3 -5 -3t-2 -0.5t-2 -0.5q0 -2 -6 -6q-4 -2 -5 -2q0 -6 -7 -6q-4 0 -4 -3q-2 -4 -9 -5l-5 -5q6 -2 11 -7.5t7 -13.5q0 -2 -1 -3q1 -1 3 -2q3 -3 3 -6
q0 -1 1.5 -1.5t0.5 -1.5t-1 -3v-5t1 -5q1 -2 1 -6q0 -5 -1 -9.5t-3 -9.5q0 -8 -2.5 -12t-3.5 -5q-3 -14 -13 -28.5t-21 -27t-21 -22.5l-13 -13l-15 -11q-2 -2 -5 -4.5t-5 -4.5l-18 -14q-2 -1 -2.5 -2t-2.5 -2t-3 -2.5t-3 -2.5l-6 -5q-11 -10 -19.5 -15.5t-9.5 -6.5t-6.5 -4
t-13 -8t-15.5 -12t-14 -16q-2 0 -4.5 0.5t-1.5 1.5q3 5 15.5 15t20.5 18q6 5 11.5 9.5t8.5 6.5q1 3 7.5 9t14.5 13.5t17.5 15.5t16.5 16q5 5 9.5 10.5t10.5 10.5q17 17 23.5 26.5t12.5 20.5q5 8 7.5 16t4.5 16q2 9 4 17l1 9q0 16 -7 30q-1 2 -2.5 2.5t-2.5 2.5q-2 2 -5 3.5
t-7 1.5t-6 -1l-6 -2q-1 0 -3 -2q-1 -1 -1 -2q-12 -5 -12 -17q0 -2 1.5 -4.5t1.5 -6.5q0 -5 -4 -5q-2 0 -3.5 0.5t-2.5 0.5q-2 0 -2 13q0 3 0.5 5.5t1.5 5.5q-1 -1 -6 -10t-8 -13q-3 -3 -3 -5t-1.5 -3.5t-2.5 -3.5q-17 -30 -31 -52t-25.5 -40.5t-22 -35t-20.5 -34.5l-10 -14
q-2 -3 -4.5 -5.5t-3.5 -5.5q-2 -6 -5 -9.5t-5 -5.5t-7.5 -13t-16.5 -24q-12 -16 -19 -30.5t-9 -16.5q-1 -1 26 23l19 14q2 2 3.5 4t1.5 3v3q1 2 6.5 4.5t12.5 10.5q2 2 5 2q0 -1 -1 -2.5t-2 -4.5q-2 -5 -6 -9.5t-9 -6.5q-3 0 -6.5 -5.5t-8.5 -9.5q-2 -5 -5.5 -7t-5.5 -3
q-8 -6 -11 -9t-4 -6l-8 -7q-3 -2 -10.5 -10t-16 -17.5t-15 -18.5t-8.5 -13t-4 -3t-4 -5q-2 -8 -6.5 -8t-4.5 -5q0 -3 1 -4q0 -1 -5 -1h-6q-5 0 -5 10q0 2 0.5 3t2.5 4q6 9 12.5 20.5t12 21t9.5 16.5t5 9t3.5 5.5t4.5 7.5q3 4 6 9q3 3 6 7q4 5 6 13q0 2 6.5 12t15 23t15.5 26
t9 20q4 3 8 8q3 4 6.5 10t5.5 14q4 12 16 25.5t13 23.5q0 1 7.5 13t17.5 28.5t20.5 34t16.5 29.5q9 14 16 25q6 10 11 19t7 11l4 7l2 4l-13 -12q-2 -1 -5 -3q-2 -2 -5 -4.5t-7 -4.5q-12 -8 -29.5 -16t-32.5 -9q-2 -1 -4 -1h-10q-7 0 -13.5 1.5t-11.5 6.5q-2 6 -4 8t-2 5v5
q0 14 4 34.5t16 39.5q-5 -6 -12 -11t-10 -5q-2 0 -2 2q0 5 5 8q11 10 24 24t25 28l8 8l8 8l8 8l10 8q2 2 5 4.5t6 3.5t11 8t18 15t20.5 15t19.5 7q8 -1 12.5 -2.5t9.5 -1.5h4.5t7.5 1q3 0 6 -3l2 -2q1 0 2 -1t2 -1.5t2 -1.5l2 -4t3 -4q4 -5 5 -10t1 -13l15 28q3 5 5.5 10.5
t4.5 10.5l1 1q1 1 1 1.5t1 1.5q3 9 5 14q1 2 1 3l4 10t3 11v6l2 1q1 0 2.5 0.5t3.5 0.5q4 0 6.5 -1.5t4.5 -3.5q3 -3 2 -3.5t3 -4.5q3 -3 9 -3l2 -4q5 -3 5 -9q0 -1 -0.5 -2t-0.5 -2q-2 -8 -7 -16t-10 -14q-3 -3 -7.5 -10.5l-9 -15t-8.5 -13t-5 -5.5t-3 -7q-1 -4 -2 -7
q-5 -7 -9 -13q-4 -5 -7.5 -11t-4.5 -10q-2 -4 -13 -16.5t-16 -26.5q-2 -7 -5 -11.5l-5 -7.5q-3 -3 -4.5 -9t-4.5 -8q-2 -1 -7.5 -10t-7.5 -12q8 7 13.5 8t10.5 3q27 8 48 20q0 2 1 2h2q3 0 7 3q7 3 18 13z" />
    <glyph glyph-name="r" unicode="r" horiz-adv-x="240" 
d="M14 106l46 51q0 1 4.5 6t9.5 11.5t11 14.5t9 14q4 7 4 9t-0.5 4t-0.5 7q0 2 5 7.5t17 22.5q0 1 4 1h6q3 0 6.5 -1t4.5 -3q2 -3 6 -6.5t4 -4.5q0 -5 -3 -13t-3 -9q-1 -1 -1 -3t1 -3t1 -3q0 -7 1 -15.5t9 -8.5q4 0 8.5 2t5.5 2q2 0 4 -2t3 -2q2 2 10.5 6.5t13.5 4.5
q2 0 2 -3t8 -5q2 0 2 -2t-3 -5q-2 -1 -3 -2v-4.5t-1 -4.5q-5 -8 -18 -15.5t-18 -15.5q-3 -3 -7 -3q-2 0 -3 -2t-2 -2q-2 0 -6 -4.5t-7.5 -10.5l-7 -12t-3.5 -9q-1 -2 -3 -7.5t-5 -10.5l-8 -14v-3q0 -4 -1 -5q-2 -5 -5 -12t-3 -13q0 -4 4.5 -7t9.5 -3q14 2 30.5 9.5
t31.5 17.5t27 19.5t18 15.5l2 1q1 0 1 1q4 3 5.5 5t3.5 2l2 -2q0 -1 1 -1q0 -3 -6.5 -9t-8.5 -8l-19 -18q-1 -1 -7 -5.5t-6 -6.5q-2 -5 -6 -5q-3 0 -4 -2t-4.5 -4.5t-6.5 -4.5q-19 -14 -39.5 -21t-34.5 -7q-6 0 -9 1h-5q-6 1 -9 5t-4.5 8.5t-2.5 8.5t-2 5q-2 2 -2 3t0.5 2.5
t0.5 5.5q0 6 1 7l2 2q3 9 8 20q5 9 11.5 19t17.5 21q24 23 33 40.5t10 17.5q2 0 -2 3t-6 3t-4 2t-4 2t-3 1t-7 2q-3 0 -9 8q-3 4 -5 8q-7 -7 -17 -16l-19.5 -19.5t-25.5 -26.5l-8 -8q-5 -7 -13 -13t-21 -20q-6 -6 -9 -6t-3 5z" />
    <glyph glyph-name="s" unicode="s" horiz-adv-x="219" 
d="M173 42q-7 -7 -17 -13q-8 -5 -19 -11t-22 -11q-7 -2 -16 -5t-17 -4l-5 -1h-12q-4 0 -8 1q-6 0 -8 1q-4 0 -4 2q-2 0 -2.5 0.5t-2.5 1.5q-7 2 -11.5 7.5t-5.5 8.5q-3 4 -5 10q-3 9 -3 15l1 4q0 7 4 10.5t4 4.5q1 3 5 5.5t8 2.5h7q5 0 5 -4q1 0 1.5 0.5t2.5 0.5q0 -2 2 -4
q7 -4 7 -9q0 -1 -0.5 -2t-0.5 -2t0.5 -1.5t0.5 -1.5t-2 -5q-2 -2 -2 -4q0 -4 -3.5 -4.5t-4.5 -4.5q-2 -2 -2 -6q0 -5 3 -9q1 -1 2.5 -3t4.5 -3q2 -1 7 -1l5 -1q2 0 3.5 0.5t3.5 0.5q3 0 3.5 0.5l1.5 1.5q1 0 3 2q1 1 2 1q4 2 8.5 10t8 17.5t6 18.5t2.5 15v9q0 2 1 3t1 3
l5 33q0 7 1 9l2 4l3 15q1 6 3.5 15t4.5 17q3 10 6 21l-8 -6q-2 -2 -14.5 -12t-19.5 -19q-2 -2 -6 -4.5t-6 -3.5q-2 -2 -10.5 -10t-10.5 -9l-28 -25q-2 -2 -7.5 -6t-5.5 -6q-1 -2 -10 -9.5t-11 -8.5q-1 0 -1.5 -0.5t-1.5 -0.5q-3 0 -3 3q0 2 3 5l53 49q3 2 10.5 10t11.5 11
q23 18 36.5 31.5l15.5 15.5l13 11q1 1 1 1.5t2 1.5q4 2 5 2q2 0 2 1t2 3q4 4 10 7q2 2 9 4.5t9 3.5q3 0 4 1q2 2 6.5 2.5t6.5 0.5q3 0 6 -3q-1 0 2 -3q0 -1 1 -2q0 -1 -0.5 -1.5t-0.5 -1.5q1 -1 -2 -2t-4 -1t-3.5 1t-4.5 1q-5 -1 -7 -7q-1 -3 -1 -6q-5 -7 -6 -18.5t-3 -16.5
q-2 -2 -3 -11.5t-3 -10.5q-1 -1 -1 -3v-12l-2 -3v-5q0 -5 -5 -17q0 -4 -2.5 -12t-2.5 -16l-1 -5q-1 -2 -2 -11t-6 -18q-3 -8 -9 -21.5t-21 -26.5q7 2 13 6q5 3 10.5 6t8.5 7q5 2 9 5t9 7l14 10q14 12 22 19.5t13 11.5q6 4 7 4q2 0 2 -3q0 -2 -7 -9l-18 -16q-3 -3 -6 -5
t-4 -4q-2 -3 -7.5 -7t-7.5 -5z" />
    <glyph glyph-name="t" unicode="t" horiz-adv-x="184" 
d="M279 360q2 0 2.5 0.5t1.5 0.5q2 0 2.5 -1t1.5 -1l42 3q4 0 7.5 1t5.5 1q5 0 9.5 0.5t8.5 0.5h39l16 -3q4 0 4 -5q0 -6 -2 -6q-5 -3 -8.5 -3.5t-8.5 -0.5q0 -2 -9 -2h-13q-4 0 -6 1q-6 0 -9.5 1.5t-7.5 1.5t-6 -1q-1 0 -2 0.5t-3 0.5q-5 -2 -6.5 -2.5t-2.5 -0.5
q-5 0 -12.5 0.5t-15.5 0.5h-65h-15q-8 -12 -13 -22q-5 -8 -9 -16t-6 -10q0 -1 -1 -2t-1 -2t-1 -1q-2 -4 -3 -4t-1 -1q-5 -15 -11 -23.5t-7 -9.5q-10 -16 -21.5 -34.5t-23.5 -37.5t-23 -37t-19 -33q0 -1 -1 -1h-2q-1 -1 -2 -3t-1 -5q-2 -7 -6.5 -12t-5.5 -9q-2 -9 -8.5 -19.5
t-6.5 -23.5q0 -2 0.5 -4.5t0.5 -4.5q0 -6 3 -10q2 -2 5.5 -2.5t6.5 -0.5l4 -1q14 0 21 4.5t11 6.5q1 0 3.5 1.5t3.5 2.5l26 20q8 5 20 15.5t18 16.5t9 6t3 -3q-3 -6 -10 -12t-8 -7q-2 -2 -2.5 -3t-2.5 -3q-13 -8 -26 -21.5t-24 -19.5q-10 -5 -17 -11.5t-12 -6.5
q-1 0 -1.5 0.5t-1.5 0.5t-1 -1t-5 -3l-21 -4l-5 2q-4 0 -5 -1q-2 0 -6.5 1.5t-9.5 6t-9 12.5t-4 21q0 15 10 39q0 3 4 3q-1 0 -1 3l4 8q3 6 7 12q4 5 9.5 14.5t10.5 18.5q6 11 12 21l-22 -24q-8 -9 -16 -16.5t-9 -8.5q-2 -1 -5.5 -5t-8 -8.5l-8.5 -8.5t-6 -4q-3 0 -3 2
q0 3 4 7q9 9 23 25t28 31.5t25 28.5t14 17q2 4 3.5 6t3.5 4v2q0 1 2 3q8 5 10.5 11.5t4.5 8.5q1 1 6 8t10 15t9.5 14t5.5 6l3 5q2 8 5.5 9t6.5 12q2 5 5 10.5t4 7.5q1 1 3.5 6.5t6.5 10.5q4 6 9 14h-7q-5 0 -15 -0.5t-27 -0.5q-2 -1 -4 -1h-4h-7q-3 0 -5.5 0.5t-5.5 0.5
q-5 0 -7 -2q-2 0 -2 3q0 1 0.5 2.5t0.5 2.5q1 2 3 1.5t3 1.5q1 4 6 4h5q1 1 5 1q5 0 10 -1t10 -1q4 0 8 2l8 -1h11q1 0 5 0.5t9 0.5h7q4 7 8 12q3 5 6.5 9.5t5.5 7.5q0 1 1 2l2 4l4 6l12 22q5 8 8.5 16t4.5 10q6 17 18 31.5t18 25.5q0 1 1 3.5t1 4.5t2 2q1 0 8 4t7 9
q4 5 10 5q4 0 8 -2.5t4 -5.5q0 -1 -2 -3q-3 -4 -3.5 -7.5t-0.5 -6.5q0 -6 -1 -7q-3 -3 -3 -4t-1 -6.5t-1 -10.5t-5 -8t-5 -6q-1 -5 -5 -9t-4 -7q0 -7 -5.5 -10t-11.5 -11l-42 -70l21 -1h15t9 1z" />
    <glyph glyph-name="u" unicode="u" horiz-adv-x="292" 
d="M3 94l3 3l3 3l8 9q14 14 25 27.5t20 22.5q4 4 5 6t3 4q2 4 3.5 5t1.5 3t1 3q7 11 11.5 20t9.5 17q4 8 4 23q0 3 3 4t4 1q2 -1 8 -8.5t10 -9.5q9 -2 9 -14q-10 -23 -15 -27t-12.5 -18t-18.5 -31q-3 -5 -4.5 -8.5t-6.5 -8.5q-2 -2 -5 -7.5t-5 -10.5t-6.5 -15.5t-8.5 -15.5
q-2 -2 -2 -6q0 -2 -1 -4.5t-1 -3.5q-1 -2 -2.5 -6t-1.5 -10q0 -2 0.5 -3t0.5 -3q0 -3 3 -6q5 -7 16 -7q13 0 21 5t11 7t7 5.5t5 3.5q4 2 8 5.5t8 6.5q23 18 40 37t25 28q2 2 3 5t3 5t4.5 9.5t10.5 16.5l14 25l6 10t8 13q1 2 5.5 5t6.5 3q5 0 13 -2.5t8 -7.5q0 -1 -0.5 -2
t-0.5 -3t1 -3q0 -1 -1.5 -6t-7.5 -11q-3 -3 -10.5 -15.5t-12.5 -16.5q-2 -2 -2.5 -5t-1.5 -4q-4 -8 -12 -21.5t-19 -35.5q0 -3 -4 -10t-5 -9q-1 -6 -5 -14t-4 -16q0 -4 1.5 -7t7.5 -4q4 0 12 4q4 2 7.5 4.5t6.5 4.5q4 2 6 4q5 5 14 11.5t27 22.5q5 5 10 9.5t7 6.5q3 2 4.5 4
t3.5 2q3 0 3 -2q0 -3 -2 -4q-2 -3 -7 -8.5t-11 -11.5t-12 -11.5t-8 -7.5q-6 -5 -10.5 -9.5t-7.5 -6.5q-4 -2 -9 -7t-11 -10l-10 -6q-5 -2 -9 -4t-7 -2q-4 -2 -7 -2h-7q-2 0 -3 0.5t-3 0.5q-8 0 -9 4t-5 6q-2 1 -1.5 3t-1.5 3q-2 2 -3.5 8.5t-1.5 8.5q0 3 1 5t1 7
q3 8 6.5 15.5t6.5 13.5q4 7 8 13q-9 -10 -18 -19q-8 -8 -15 -14.5t-9 -8.5l-5 -4q-2 -1 -7 -6l-13 -11q-11 -9 -27 -18t-30 -9h-7q-9 0 -9 1q-1 2 -3.5 2t-3.5 1q-2 2 -6 3.5t-4 3.5l-3.5 7t-3.5 8q0 1 -0.5 3.5t-0.5 4.5v4q-2 2 -2 5q0 4 2 8q1 3 0.5 7.5t1.5 8.5q4 8 7 17
t8 14q2 2 3.5 5.5t3.5 6.5l13 18l-28 -26q-5 -6 -11 -11.5t-9 -5.5q-2 0 -2 2t4 6z" />
    <glyph glyph-name="v" unicode="v" horiz-adv-x="272" 
d="M138 39q-6 -6 -14.5 -17t-23.5 -23q-1 -2 -6 -2q-3 0 -6 0.5t-7 0.5l-11 2q-1 0 -3 2q-1 1 -1 2q-1 1 -1 3t0.5 5t0.5 8q0 2 1 5t1 6q-1 1 -1 3t1 3l4 20t2 22q0 2 1 4q4 10 4.5 22t3.5 18q0 2 1 4.5t1 3.5q0 3 1 7.5t2 9.5t2 9l1 4q1 2 3 8t3 12t1.5 10l0.5 4l-7 -9
q-6 -7 -16.5 -21.5t-15.5 -22.5l-4.5 -4.5t-7 -7.5t-7 -7t-4.5 -3q-4 0 -4 -4q0 -1 -2 -4.5t-11 -10.5l-2.5 -2.5t-3.5 -2.5t-8 -7.5t-6 -5.5q-3 0 -3 4q0 2 2.5 4t6.5 7l3 4q4 4 12.5 13t18 20t19 23t16.5 21l6 9q5 8 5.5 11t5.5 5q2 1 2 7t5 10q3 2 4 5.5t2 3.5t3 1
q2 0 3.5 0.5t3.5 0.5q4 0 7 -3q2 -2 5.5 -2.5t5.5 -2.5q11 -6 11 -18q0 -8 -3.5 -18t-5.5 -16q-2 -5 -3 -8.5t-2 -9.5q0 -1 -1 -2.5t-1 -2.5l-1 -8q0 -2 -1 -7t-3 -9q-2 -6 -2.5 -14t-4.5 -18q-1 0 -1.5 -9t-1.5 -11q-2 -7 -4 -17t-2 -13q-1 -5 -1.5 -13t-0.5 -9q2 0 6.5 5
t17.5 18q3 2 5.5 5.5t5.5 6.5l22 26q26 32 41 53.5t29 38.5q2 3 2 4.5t3 5.5l4 3q0 1 0.5 1.5t0.5 1.5l3 4q0 2 3 5l2 4q4 5 6 7q1 2 5 6l4 4q1 2 6.5 7t8.5 7q11 11 15.5 11.5t7.5 2.5q12 6 25 6q6 0 14 -2q4 -2 5.5 -2t5.5 -2l5 -5t4 -6q0 -3 -2 -5q-1 -1 -3.5 2.5
t-9.5 3.5q-2 0 -2 -0.5t-2 -0.5q-11 0 -19.5 -6.5t-15.5 -10.5l-1 -1q-1 -1 -1 -2l-2 -2q-2 -2 -14 -11q-3 -4 -5 -5l-16 -14q-2 -3 -3.5 -4t-3.5 -3q0 -3 -3.5 -6t-7.5 -7q-2 -2 -7 -8t-16 -19l-90 -99v0z" />
    <glyph glyph-name="w" unicode="w" horiz-adv-x="390" 
d="M107 236q3 0 3 2q0 1 0.5 1.5t5.5 0.5q2 0 3.5 -1t4.5 -1q2 0 6 2q8 0 14.5 -6.5t6.5 -12.5q0 -2 -1.5 -8.5t-3.5 -12.5l-3 -7q-4 -6 -5 -9t-1 -6q0 -2 -1 -3l-8 -22q-2 -5 -3.5 -9t-2.5 -7q-2 -4 -2 -7q-3 -10 -6.5 -20t-7 -18t-6 -13.5l-2.5 -5.5q-1 -1 -1 -3v-4
q-1 -2 -1 -3.5t-1 -3.5l-2 -4q-1 -3 -2 -7q-1 -3 -2 -7t-2 -7q-2 -4 -2 -9v-3q0 -1 1 -1l8 8l9 9t11 12q2 3 5 6l9 9q3 2 6.5 6.5t6.5 9.5q4 5 8 11q6 8 11 15q5 6 9.5 12t7.5 9q21 26 30.5 43t15.5 17q3 0 5 -2q2 -3 8 -3h7q8 0 10 -3.5t5 -6.5q-2 -7 -4.5 -17.5
t-4.5 -15.5q-4 -9 -5 -16t-3 -12q-1 -2 -1 -4t-1 -4q-1 -3 -2 -5q-3 -12 -7 -23q-3 -10 -6 -21t-4 -22q0 -1 -0.5 -2t-0.5 -2v-4q0 -3 1 -5t2 -3l2 2q2 2 3 2t4.5 4.5t5.5 6.5l12 13q5 7 10.5 14t9.5 12q4 6 8 11q7 11 18.5 27.5t23 32t19.5 26.5l8 11q0 1 2.5 4.5t5.5 3.5
q1 2 1 3.5t2 2.5q0 2 2 2q2 4 4 6l4 4q2 5 5 8.5t8 7.5l5 5q2 2 7.5 5.5t8.5 5.5q11 11 16 12t8 3q6 3 12.5 3.5t12.5 0.5t14 -4q4 -2 5.5 -2t5.5 -2q3 -2 7 -6t4 -7q0 -1 -2.5 -2.5t-3.5 -1.5q-2 0 -6 3.5t-11 3.5q-11 0 -19 -6.5t-16 -10.5l-1 -1q-1 -1 -1 -2q-1 0 -3 -2
q-3 -2 -15 -11q-2 -4 -5 -5t-6 -4l-2 -2l-3 -3q-8 -8 -16 -16.5t-18 -20.5q-1 -2 -18.5 -20.5t-40.5 -46.5l-7 -8q-4 -5 -9 -12t-10 -10q-2 -1 -3 -4t-2 -2q-1 0 -1 -1.5t-1 -2.5l-30 -34q-8 -7 -10 -11t-10 -4h-8l-5 1q-22 4 -22 14q0 3 -0.5 4t-0.5 6q0 6 1 7l1 8
q2 15 4 18t3 8q1 8 2.5 14.5t3.5 10.5q1 1 3 12t7 25q1 2 2 6t3 9t4 11l-14 -16l-10 -12t-6 -7q-4 -2 -5 -5.5t-5 -8.5l-10 -8l-2 -3q-5 -7 -9.5 -12.5t-13.5 -14.5l-6 -9q-1 -2 -6.5 -7t-7.5 -7t-11.5 -14t-19.5 -20q-6 -5 -6.5 -6t-5.5 -3q-4 -2 -9 -2q-11 3 -17.5 4
t-7.5 12q0 4 1 7l2 9q1 4 1.5 6.5t0.5 4.5q1 4 2.5 7t1.5 8l2 5q1 6 4 11l4 10q1 3 2 7q2 7 5 12l11 29q3 8 7.5 21t8.5 21l12 37l-2 -2q-3 -3 -3 -4q-14 -20 -30 -41.5t-30 -35.5l-12 -13q-2 -2 -7.5 -8.5t-13.5 -12.5l-4 -5q-4 -4 -7 -4q-2 0 -2 3t2 5t7 8l7 7q7 7 15 16
t15 18.5t13 18.5t10 16q2 4 8 10t15 22q1 2 2 4.5t3 4.5q2 3 3 6q1 0 2 2q1 1 1.5 2.5t1.5 3.5l2 5z" />
    <glyph glyph-name="x" unicode="x" horiz-adv-x="286" 
d="M240 182q-3 -3 -6 -3q-2 0 -2 2q0 6 9 15l10 8q2 1 2 3t4 3q1 0 4 5q2 2 1.5 3t3.5 3q2 1 3 3t1 4q1 4 2 4t2 1q2 3 4 4.5t4 3.5t5 2t5 -2q1 -1 1 -5q0 -8 -7 -14t-15 -11q-2 -2 -12.5 -12t-18.5 -17zM128 23q0 5 -0.5 14t-1.5 17q-1 10 -2 21q-1 -1 -4 -3.5t-7 -6.5
t-10 -9v-2q0 -3 -2 -3q-6 -2 -11 -10t-11 -12q-10 -6 -18.5 -14t-15 -15t-10.5 -12t-5 -6q-4 -4 -11 -6.5t-7 -5.5q0 -5 -5 -9t-9 -4t-4 4q0 3 3 7.5t7 9t7.5 7.5l3.5 3q2 0 3.5 1.5t3.5 2.5q4 2 7 6t5 6l12 12q6 4 7.5 6.5t4.5 5.5l11 10q11 10 20 19t17 16q9 8 17 15
q-1 7 -1 14q-1 6 -1 13t-1 14q0 2 -1 5t-1 5v5q0 1 1 2v21q0 6 -1 7q-1 2 -1 7q0 2 -0.5 4.5t-0.5 5.5v7q-2 -1 -6 -5.5t-8.5 -10t-8.5 -10t-5 -5.5q-5 -2 -6.5 -7t-6.5 -6q-2 0 -7.5 -6t-12 -13.5t-13.5 -14.5t-11 -8l-6 -8q-3 0 -5 -3t-17 -17q-2 -2 -3 -2q-4 0 -4 4
q1 2 5 6.5t8.5 9.5t9 9t6.5 6q24 23 44.5 47.5t33.5 39.5q5 5 7.5 12t5.5 9q1 1 1 7h5q2 0 5 0.5t7 0.5h7q11 -1 16 -11.5t5 -19.5q0 -5 -1 -7q-2 -2 -2 -5q0 -2 0.5 -4.5t0.5 -6.5q0 -7 -1 -12t-1 -10.5v-10.5v-21q0 -5 1 -9q5 6 10 11l22 22q3 3 5 5.5t6 2.5q2 0 2.5 2.5
t1.5 3.5l4 3q3 2 7.5 7t7.5 5t3 -3q0 -4 -6.5 -11.5t-10.5 -9.5q-7 -5 -12.5 -11t-13.5 -12l-24 -26v-7v-5q0 -1 1 -2v-7q0 -2 1 -3q0 -2 0.5 -2.5t0.5 -2.5q0 -1 -0.5 -2t-0.5 -2t2 -12.5t2 -22.5l2 -6q0 -11 7 -11q2 -2 4 -2t6 2q9 2 22 10t25 17t20.5 16.5t9.5 8.5
q3 4 9 8.5t8 5.5q0 5 8 5q2 0 2 -3q-2 -6 -5 -8q-1 -2 -6 -6t-7 -6q-4 -3 -7.5 -7.5t-5.5 -6.5q-2 -1 -6.5 -4t-8.5 -8q-2 -2 -4.5 -3t-3.5 -4q0 -1 -7 -5q-3 -2 -6 -3l-7 -7q-4 -3 -8.5 -5.5t-7.5 -4.5q-15 -11 -26.5 -12.5t-16.5 -1.5h-7q-10 1 -14.5 7.5t-6.5 14.5
q0 1 -0.5 2.5t-0.5 2.5z" />
    <glyph glyph-name="y" unicode="y" horiz-adv-x="310" 
d="M88 -152q-9 -15 -12 -18q-1 -1 -4.5 -6.5t-8.5 -13t-10.5 -15t-9.5 -10.5q-2 -1 -3 -4t-3 -5t-3.5 -3t-1.5 -3q0 -3 -11.5 -16t-25.5 -28t-25.5 -28.5t-12.5 -17.5q-1 -2 -5 -3.5t-6 -5.5t-2 -3l-1 -1q0 -2 -5 -8t-10 -8q-5 -3 -10.5 -9t-13 -12t-17 -10.5t-22.5 -4.5
q-11 0 -11 2t-2 2q-5 0 -8 7t-3 18q0 14 5 30.5t11 21.5q1 1 1.5 5t1.5 6q0 2 1.5 2.5t2.5 2.5q7 13 15.5 25t16.5 21.5t13.5 15.5t7.5 7t2.5 3t2.5 3q4 2 5 4t2 3l27 26q2 1 5.5 4.5l5.5 5.5q16 16 27 24.5t21 14.5q4 3 8 7q8 7 23 16q10 6 16.5 10.5t12.5 8t11.5 7.5
t14.5 10l11 18l5.5 9.5t12 20t12 19.5l5.5 9q2 2 4 5.5t2 4.5t6 9t5 10q0 3 1.5 4.5l3.5 3.5q7 11 9 13.5t4 4.5v3t1 3q1 2 9 13.5t16 25.5t15 26t7 15q0 2 -8.5 -5t-23 -19.5t-33.5 -30.5t-39 -37q-17 -17 -20 -17q-2 0 -8 -4.5t-12.5 -10t-12.5 -10t-8 -4.5q-2 -1 -5 -4
t-12 -6q-10 -4 -23 -4q-6 0 -9 2q-9 5 -12 10.5t-3 10.5q0 10 8 24.5t12 22.5q1 1 4.5 9.5t5.5 10.5q6 6 8.5 12.5t4.5 8.5t6.5 4t4.5 4q0 5 2 9q1 1 5 8.5t8.5 15.5t8 14t2.5 6l-6.5 -7.5t-14 -15.5t-14.5 -15t-9 -7t-6.5 -6.5t-6.5 -6.5q-1 0 -6.5 -6.5t-10.5 -11.5
q-2 -2 -4.5 -4t-4.5 -2t-2 3q0 2 4.5 7.5t10 11.5t10.5 10.5t7 6.5l15 19q3 1 8.5 6.5t11 12t10 12t5.5 6.5q5 7 17.5 22t12.5 32q0 2 0.5 5t0.5 6v7l2 1q1 0 2.5 0.5t3.5 0.5q5 0 9 -4t5 -4t5 -4q4 -3 6 -3t4 -1q2 -2 2 -9q0 -5 -0.5 -9t-0.5 -6q-2 -5 -7 -15.5t-10.5 -21
t-10.5 -18t-6 -7.5t-6 -10t-7 -12q-1 -2 -5 -9t-9.5 -17t-12 -21t-12.5 -20q-1 -2 -2 -3t-1 -3l-3 -6l-6.5 -13t-6 -13t-2.5 -7t-1 -2.5t-1 -2.5q0 -4 7 -4q4 1 8 3.5t6 4.5q17 8 27.5 20t12.5 12q3 0 8 5q3 2 5 5q11 7 18 15t24 23q9 9 22 20.5t24.5 22t19.5 18t9 7.5
q5 0 5 3t2 4q5 2 6.5 5t2.5 4q1 3 4 6q6 6 10 6q2 0 3 -1q1 1 3 1q3 0 4 1t3 1q7 0 9 -8.5t2 -15.5q-2 -9 -8 -20q-4 -6 -8 -13q-1 -1 -1 -2t-0.5 -1.5t-0.5 -1.5q-2 -4 -5.5 -8t-7.5 -12q-2 -4 -3 -5.5t-3 -5.5q-1 -2 -8 -14t-12 -17q-4 -3 -7 -8t-9 -14.5t-15.5 -25.5
t-26.5 -40l-5 -8q0 -1 -1.5 -3.5t-3.5 -4.5l-4 -6q8 6 15 10l12 8t9 8q17 14 35 29t29 23q3 3 7 3q2 0 2.5 -0.5t1.5 -0.5q0 -3 -14 -13l-12 -12q-8 -5 -14 -11t-9 -8t-11 -8t-16 -12.5t-15.5 -12.5t-10.5 -8q-1 -1 -4 -3l-6 -4l-8 -6q-2 -3 -4 -7q-2 -3 -4 -6.5t-4 -5.5
q-7 -9 -11 -16q-4 -6 -7.5 -11t-2.5 -6q1 -2 -4.5 -8.5t-6.5 -8.5q-2 -6 -6.5 -13.5t-6.5 -10.5zM70 -126q0 2 3 7.5t8 12.5q4 8 11 17q-24 -15 -44 -29q-17 -12 -32.5 -24t-20.5 -20q-2 -3 -4.5 -4t-6.5 -6q-2 -2 -3 -2.5t-3 -2.5t-5 -6t-6 -6q-20 -18 -33.5 -35.5
t-21.5 -31.5t-11.5 -22.5l-3.5 -8.5q-5 -11 -4.5 -15t-1.5 -10q-1 -2 -2 -3.5t-1 -2.5q0 -4 0.5 -5t0.5 -3t-1 -5v-4q0 -8 6 -8q2 0 2.5 -1t2.5 -1q11 1 23 9.5t25 22t25.5 30.5t24.5 34q27 40 54 92zM267 47q3 2 3.5 3t2.5 3q2 0 2 -3q0 -2 -4 -6q-2 -2 -4 -3q-1 0 -1 1
q-1 1 -1 2q0 3 2 3zM276 56q1 4 12 13l6 6l5 5l4 4q2 2 4 4.5t3 2.5q4 0 4 -3q0 -1 -2 -5l-5.5 -5.5t-5.5 -4.5q-1 0 -4 -3.5t-6.5 -7t-7 -6.5t-5.5 -3t-2 3z" />
    <glyph glyph-name="z" unicode="z" horiz-adv-x="209" 
d="M147 -76q-5 -17 -14.5 -37t-20.5 -36q0 -3 -3 -5.5t-3 -5.5q-6 -9 -23.5 -31.5t-40.5 -38.5q-2 -1 -2.5 -4t-4.5 -3l-3 -4q-1 -2 -6 -5t-10 -10q-2 -3 -5 -4t-5 -4q-2 -2 -7.5 -4.5t-10.5 -7.5q-2 -2 -4.5 -2.5t-4.5 -2.5t-6.5 -4.5t-6.5 -3.5q-1 0 -17 -8.5t-37 -14.5
q-16 -4 -34 -4q-3 0 -5 0.5t-4 0.5q-4 0 -10 3q-1 -1 -2 0.5t-3 1.5q-4 1 -4 2t-1 2q-2 1 -2.5 2t-3.5 2q-4 2 -6 4.5t-2 4.5q-1 3 -2.5 6t-1.5 6l-1 7q0 34 16 59.5t35 42.5l46 41q14 13 27 22.5t31 24.5l4.5 4.5t4.5 3.5q2 2 11 9.5t14 11.5q4 3 15 11.5t25.5 19.5
t29.5 22.5t27 20.5q-1 5 -2 9.5t-1 5.5l-1 4q0 14 -11 23.5t-19 9.5q-4 0 -7 -4t-5 -9t-3.5 -9t-2.5 -4q-2 0 -3 -4.5t-4 -4.5t-5.5 -3.5t-11.5 -4.5q-13 0 -13 7q0 2 1 4q1 3 8.5 10.5t9.5 8.5t5.5 5t5.5 5l11 10q2 2 4 3.5t4 1.5q16 18 32.5 36t17.5 45q0 5 0.5 6.5
t0.5 2.5t-0.5 1.5t-0.5 1.5l-2 12q-1 3 -1.5 4t-0.5 3q-3 6 -5 7t-3 1q-6 -8 -14 -18q-7 -8 -16 -18.5t-20 -20.5q-2 -2 -4 -4.5t-4 -3.5q-1 0 -6.5 -5.5t-12 -13t-13 -14.5t-10.5 -10q-1 -1 -2.5 -1.5t-2.5 -2.5q-2 -5 -5.5 -6.5t-4.5 -1.5q-2 0 -3 4q0 1 4 5q3 4 7 7.5
t6 5.5q12 13 20.5 22t16 16.5t14 15t13.5 16.5l14 18l4 9q2 4 5 6.5t7 7t8.5 11.5t8.5 21q2 4 7 4q2 0 2 -4v-7l3 -1q2 0 9.5 -11t11.5 -22l2 -6t2 -7q1 -2 1 -9t1 -9q-1 -27 -8 -34t-8 -9q-2 -6 -13.5 -14t-19.5 -11q-4 -3 -11.5 -9t-11.5 -13q7 -1 13 -1.5t8 -0.5t4 0.5
t3 0.5t3 -3t4 -4q8 -5 10.5 -9.5t4.5 -5.5q1 -1 2 -1t1 -2l7 -14q3 2 8 5t9 7l9 7q2 1 3 3t2 2l14 11q2 2 4.5 4t6.5 4q1 0 1.5 1t1.5 1q3 0 3 -3q0 -2 -1 -3l-7 -7l-3 -3q-4 -4 -11 -9.5t-14.5 -11t-14 -10t-8.5 -6.5q2 -4 2.5 -10.5t0.5 -18.5v-14q0 -6 -0.5 -14.5
t-2.5 -19.5q0 -2 -1 -3t-1 -4v-5q0 -5 -2 -11t-3 -14zM-68 -143q-2 0 -5.5 -3.5t-7 -8.5t-7.5 -10t-6 -7q-5 -5 -11.5 -14t-11.5 -20t-8.5 -22.5t-3.5 -21.5l-1 -8q0 -2 0.5 -6t0.5 -5t1 -2q0 -1 1 -1q2 -5 2 -6t2 -3l5 -5q11 -9 36 -9q19 2 30 6.5t22 12.5q1 0 1.5 1t1.5 1
q5 2 19 13q14 7 29.5 26t29.5 39.5t24 38.5t13 25q5 11 13 27.5t8 31.5l2 4q0 5 1.5 10.5t1.5 10.5t1 11t2 11v35l-15 -12q-3 -5 -7 -5q-5 -4 -12 -9t-13.5 -10t-11.5 -8.5t-5 -4.5q-1 -2 -7.5 -5.5t-16.5 -11.5q-5 -3 -12 -9t-7 -7t-2.5 -4t-4.5 -4q-6 -4 -10 -8
q-3 -3 -6 -5q0 -1 -1 -2q-3 -3 -4 -3q-7 -2 -9 -6.5t-8 -5.5q4 0 -33 -32z" />
    <glyph glyph-name="braceleft" unicode="{" horiz-adv-x="300" 
d="M186 259q0 -3 -2 -3q-1 0 -4 -5.5t-6.5 -11.5t-6.5 -11.5l-3 -5.5l-10 -15q-2 -3 -4 -5t-3 -5q-1 -5 -3 -7.5t-4 -4.5q-3 -5 -3.5 -7.5t-4.5 -7.5q-2 -2 -7 -9.5t-10 -16t-10 -16t-6 -9.5q-2 -3 -4 -7q-2 -3 -4 -6.5t-4 -7.5q-5 -8 -8 -10.5t-5 -7.5q-1 -3 -4.5 -9
t-8 -12.5t-8.5 -12t-5 -6.5q-8 -11 -12.5 -23.5t-4.5 -17.5v-5q0 -1 1 -1q5 -10 17 -10q5 0 13 1t13 1h6q0 1 4 1h7q2 0 4.5 0.5t3.5 0.5q2 -1 6 -1q8 0 17.5 2t14.5 2q4 0 6 -2h8q3 0 4 -1q2 -2 2 -6t-0.5 -4t-2.5 -1q-6 -3 -12 -3q-3 0 -5 0.5t-4 0.5h-65h-20.5t-13.5 1
q-8 2 -14.5 6.5t-6.5 8.5t-3 5.5t-3 5.5q0 2 -0.5 5.5t-0.5 6.5q0 1 0.5 3t0.5 4q0 3 15 28.5t37 62t46 76.5t41 71l5 5v4q0 3 4 3q0 1 0.5 2t0.5 2q5 10 5 17q0 9 -9 17q-12 10 -19 10q-1 0 -1.5 -0.5t-1.5 -0.5q-1 -1 -1.5 0.5t-1.5 1.5q-2 0 -3.5 -0.5t-3.5 -0.5
q-3 0 -4 1t-4 1q-2 0 -5.5 -0.5t-6.5 -0.5h-7q-1 0 -1 1v3q0 4 6 5q5 -1 10 -1q4 -1 8.5 -1h8.5h4q15 0 27.5 2.5t32.5 13.5q12 6 20.5 19.5t13.5 19.5q5 7 9 15t9 16l6 10q3 9 10 21t13.5 23t12 18.5t5.5 8.5l3 8l8 10l3 5.5t7 12t7.5 12l3.5 5.5q4 4 7 11q2 4 4 9q1 2 5 7
t7 10q0 1 6.5 5.5t5.5 6.5q0 2 8 8t21 10q7 2 16.5 2.5t19.5 0.5q4 0 8 -0.5t7 -0.5q4 -1 6 -1h5q2 0 3.5 -0.5t2.5 -0.5q6 0 14.5 0.5t9.5 0.5q4 0 9 -6t3 -6q-3 -3 -6 -3q-2 0 -5.5 -0.5t-8.5 -0.5q-3 0 -7 1t-10 3q-5 2 -15.5 3.5t-21.5 2.5h-9q-9 0 -14.5 -4t-9 -9.5
t-5 -9.5l-1.5 -4q-2 -1 -5 -7t-7 -13t-7 -13l-3 -6l-1 -3q0 -2 -0.5 -2t-1.5 -2t-10.5 -18t-21 -35t-21.5 -35.5t-12 -19.5q-5 -8 -5 -13t-4 -6q-2 0 -3 -3.5t-3 -6.5q-2 -4 -5 -7.5t-3 -5.5q0 -1 -6 -7l-6 -6l-2 -4q-2 -4 -3 -4q-17 -17 -36 -29t-47 -14h-11q8 0 19 -4
t18 -15q4 -8 4 -16q0 -7 -4 -19z" />
    <glyph glyph-name="bar" unicode="|" horiz-adv-x="135" 
d="M107 539q0 -8 -1 -15q-1 -6 -1.5 -11t-1.5 -6q-2 -2 -2 -3t0.5 -2t0.5 -4q-2 -9 -2 -13v-6q-2 -10 -2.5 -19t-0.5 -10l-2 -7q1 1 1 -3q0 -6 -2 -21l-5 -37.5t-5.5 -50.5t-3.5 -59v-6q-2 -2 -2 -3q0 -2 1 -4t1 -4q0 -5 -2 -17.5t-4 -34.5q0 -8 -1 -16.5t-1 -17.5
q0 -5 1 -11.5t1 -8.5q-3 -5 -3 -28.5t-4 -45.5q0 -2 1.5 -4t1.5 -4q-1 -1 -1.5 -11t-0.5 -18t1 -9q0 -1 1.5 -2t1.5 -3q0 -1 -0.5 -1.5t-0.5 -1.5q-2 -6 -2 -11q0 -8 1.5 -17t1.5 -16q0 -12 -7 -13q-11 -1 -9 -6.5t-3 -10.5q-4 -4 -6 -4t-2 2q-2 7 -9 7q-2 0 -3.5 -0.5
t-2.5 -0.5q-12 5 -12 12q0 5 2 10.5t2 13.5v4q0 4 1.5 14t2.5 10q1 -1 1 3v8q0 4 1 5t3 5t4 20.5t5 50.5t7 94q2 1 2 4.5v8.5v14q2 2 2 4l-1 2v1q-1 3 -1 8q0 6 2 6l1.5 13.5t3 29.5t3 30t1.5 15v4q0 8 3 8q0 2 -0.5 4t-0.5 3l6 59v12q0 7 1.5 19.5t3.5 35.5q0 2 1 6t1 7
q0 10 1 18.5t1 9.5q0 2 1 5t1 9v7q0 3 -0.5 6t-0.5 5q-1 2 -1 15q0 4 1 9t1 6q-3 1 -3 8q0 2 0.5 4t0.5 3q0 7 5 10q2 2 5 3q2 2 2.5 4.5t3.5 2.5l7 7q4 0 8 -1q8 -2 11 -10q2 -4 2 -14q0 -8 -2 -16t-4 -15q-3 -8 -6 -15q-1 -5 -1.5 -8.5t-0.5 -8.5z" />
    <glyph glyph-name="braceright" unicode="}" horiz-adv-x="319" 
d="M310 328q0 6 0.5 9t1.5 8q1 3 4 9t6.5 12.5t6.5 12t4 6.5t8.5 14.5t19 33.5t24.5 43t24 42l7 10q9 14 15.5 25.5t6.5 17.5q0 1 1 2.5t1 2.5v2q0 1 0.5 2t0.5 3q0 4 -2.5 7.5t-7.5 3.5h-4q-2 0 -3 0.5t-3 0.5q-5 0 -8 0.5t-8 0.5h-12l-10 -1q-5 0 -9.5 -0.5t-9.5 -1.5
t-11 -2q-1 -1 -4 -2t-10 -1h-4q-7 2 -7 6q0 1 -0.5 1.5t-0.5 1.5t1.5 2.5t6.5 3.5q2 2 5.5 2h6.5h10q1 0 3 -0.5t4 -0.5q3 -1 5 -1h9h8q4 1 10 1q5 0 7 1h10q1 0 2.5 0.5t3.5 0.5t5.5 -0.5t8.5 -0.5q8 0 13 -2.5t10 -5.5q2 -2 3.5 -2.5t2.5 -2.5t4.5 -6.5t3.5 -15.5
q0 -3 -1 -7t-4 -9q-2 -3 -12 -19t-22 -37q-2 -4 -8 -13.5t-13 -24.5q-2 -4 -4.5 -8t-4.5 -6q-4 -4 -13 -20t-18 -33.5t-16 -31.5t-8 -14q-2 0 -2.5 -6.5t-1.5 -8.5l-2.5 -5t-1.5 -9v-5q0 -6 2 -10q2 -2 2.5 -3.5t5.5 -4.5q7 -6 16 -8q8 -2 12 -2t5 -2l-2 -4q0 -1 -5 -1
q-5 1 -9 2q-10 2 -21 2q-9 0 -19.5 -2t-18.5 -8q0 -2 -4.5 -1.5t-6.5 -5.5q-1 -4 -3.5 -6.5t-5.5 -7.5q0 -1 -5 -8t-11 -16t-10.5 -16.5t-4.5 -8.5q0 -2 -2.5 -5.5t-5.5 -8l-6 -9t-3 -6.5l-5.5 -11t-10.5 -18.5t-10.5 -18t-5.5 -8.5q-4 -4 -8.5 -11t-8.5 -14t-7 -12.5
t-4 -6.5q-2 -2 -5 -7.5t-7 -12.5q-4 -9 -10.5 -19.5t-15 -21t-18 -19t-18.5 -12.5q-2 -1 -3 -1t-2 -1q-7 -3 -12.5 -5t-13.5 -3t-20.5 -1.5t-32.5 -0.5q-1 0 -3 0.5t-8 0.5q-3 0 -7 1t-6 6q0 1 -0.5 2t-0.5 3q0 4 2 3.5t7 1.5q1 1 4 1q6 0 16.5 -1.5t12.5 -1.5
q7 0 12.5 -1.5t15.5 -1.5h5q12 0 18.5 6t13.5 19l2 4q1 2 5.5 10t7.5 12q9 9 11 16t5 12q28 45 44 71t28 45t22.5 37t28.5 46q9 15 27 23t38 8q7 0 13.5 -1t12.5 -3q-9 2 -17 7q-7 4 -13 11t-7 18v5z" />
    <glyph glyph-name="asciitilde" unicode="~" 
d="M16 291q8 8 27.5 12t44.5 15h5t3 2q1 4 5.5 4t5.5 1q4 4 9 4q2 0 3 -0.5t3 -0.5q8 -1 10.5 -5.5t4.5 -4.5q1 -1 2.5 -4t3.5 -4q5 -3 5 -8q0 -2 1 -3q0 -1 1 -1q5 -8 8.5 -17.5t10.5 -11.5q4 -2 6 -7.5t14 -7.5q3 0 4.5 -0.5t3.5 -0.5q3 0 8.5 1t19.5 6q2 1 7 2.5t11 3.5
l16 4h8q2 -1 2 -4v-5l-1 -5q0 -3 -6 -3q-3 0 -7.5 -0.5t-8.5 -0.5q-7 0 -10 -1q-2 -2 -10.5 -2.5t-12.5 -2.5q-1 -1 -12.5 -2.5t-17.5 -3.5q-10 -2 -14 -2q-11 0 -17 3q-4 2 -6 4q-14 14 -20 30l-2.5 4.5t-6 9.5t-9 10t-11.5 6q-2 0 -4 0.5t-4 0.5t-4.5 -0.5t-4.5 -0.5
q-18 -7 -22.5 -15.5t-15.5 -11.5q-8 -2 -11 -2q-2 0 -3.5 0.5t-3.5 0.5q-11 2 -11 9z" />
    <glyph glyph-name="uni00A0" unicode="&#xa0;" horiz-adv-x="100" 
 />
    <glyph glyph-name="exclamdown" unicode="&#xa1;" horiz-adv-x="324" 
d="M108 162q2 2 6 8q2 3 3 5q1 1 1 2q0 2 1 3q7 4 9 13t5 11q2 1 8.5 12.5t15.5 27.5t19.5 34t19.5 33.5t15.5 26t8.5 11.5q1 0 1.5 5.5t3.5 10.5q1 1 2.5 3.5t3.5 2.5q5 5 8.5 17t12.5 29q6 11 7 15.5t3 7.5q6 9 10 9q3 0 4 1t1 2q2 0 2.5 1t2.5 1q3 0 12.5 -6.5t9.5 -14.5
q0 -4 -6 -13q0 -6 -1 -8q-3 -10 -9.5 -16t-8.5 -8q-11 -10 -22 -26t-21.5 -34t-20 -36t-16.5 -32q-1 -4 -6 -9.5t-7 -7.5t-5.5 -12t-5.5 -12q-2 -1 -4 -3.5t-2 -4.5l-2 -7q0 -2 -6.5 -14t-14.5 -25.5t-15.5 -25.5t-11.5 -14q-1 -1 -3.5 -7.5t-4.5 -8.5q-3 -1 -11.5 -16
t-18 -32t-17.5 -31l-8 -14q-2 1 -3.5 -4t-2.5 -6q-5 -5 -11 -5h-2q-1 0 -1 1l-7 7t-5 8q0 4 0.5 10.5t2.5 8.5q12 20 21.5 32.5t16.5 26.5q5 9 8 10.5t3 4.5q0 4 5.5 15t10.5 16t9.5 12t6.5 9zM309 504q-2 0 -3 1q-2 2 -2 7q0 2 -2 4l-1 1q0 1 -0.5 3t-0.5 4q0 4 4 7
q2 2 2.5 5.5t0.5 4.5q3 7 8 12.5t12 5.5t14 -4q3 -2 6 -5.5t5 -3.5q6 0 8 -3q1 -2 2.5 -4.5t1.5 -7.5v-4q-8 -30 -26 -30q-1 0 -1.5 -0.5t-2.5 -0.5q-4 0 -7 3q-2 2 -7 2q-3 1 -4 2.5t-4 1.5q-1 0 -1.5 -0.5t-1.5 -0.5z" />
    <glyph glyph-name="cent" unicode="&#xa2;" horiz-adv-x="302" 
d="M50 39q0 -1 -2 -2q-4 -2 -9 -2h-5q-4 0 -7.5 0.5t-4.5 3.5q-10 3 -10 7q0 7 7 11q6 2 6 7q0 2 2 3q5 2 8 7t5 7q6 6 9.5 10t8.5 12q7 11 13.5 20t13.5 20l5 7q-8 2 -15 6.5t-11 13.5q-1 1 -2.5 2t-1.5 3q-5 5 -5.5 8.5t-0.5 11.5q0 2 -0.5 5t-0.5 6q0 1 -0.5 2.5
t-0.5 2.5q1 0 1.5 4.5t2 12.5t5.5 20t13 27q1 1 1.5 2t2.5 3q1 2 3 3q17 31 30 41q7 5 13 7l3 3l3.5 3.5t4.5 3.5q31 19 49 23t20 5q1 1 4 1h5h4l11 -2l14 23q1 2 4 7.5t5 7.5l3 6q2 4 6 14q2 6 2 7q0 2 2 3.5t2 4.5q0 4 3 7.5t3 5.5q0 12 13 12q2 0 2.5 -0.5t2.5 -0.5h4
q2 0 3 -1q1 -2 3.5 -2h3.5q2 -2 4 -3.5t2 -6.5q0 -3 -4 -9q-1 -2 -2 -3q-3 -3 -5 -3q-1 0 -2 -1.5t-2 -2.5q-2 -2 -3.5 -2.5t-3.5 -5.5t-6 -9.5t-8 -8.5q-3 -3 -5.5 -7t-4.5 -8l-20 -29l12 -11q1 -1 1 -2.5t2 -1.5q4 0 10 -11q1 -2 2 -3.5t2 -4.5q2 -8 2 -13q0 -16 -16 -25
q-1 0 -1.5 -0.5t-2.5 -0.5q-5 0 -12 1t-7 5q0 2 1 6t1 8q2 5 2.5 10.5t0.5 8.5q0 8 -2 13.5t-4 6.5q-3 -5 -12 -19t-18 -29.5t-16.5 -28t-8.5 -13.5q-3 -5 -5.5 -9.5t-3.5 -6.5q-19 -32 -20 -32q-5 -11 -12.5 -23t-9.5 -14q0 -1 -1.5 -3t-3.5 -5q10 -5 24 -5h5q21 1 37.5 13
t27.5 23l14.5 14.5t5.5 3.5q3 0 3 -4q0 -1 -3.5 -4.5t-5.5 -7.5q-2 -3 -8 -10t-8 -8q-2 0 -6.5 -5.5t-6.5 -6.5q-2 -2 -16.5 -12t-38.5 -12q-4 0 -5.5 -1t-4.5 -1h-10q-4 1 -10 1q-4 0 -7 1q-6 -11 -12.5 -22.5t-12.5 -21.5t-10 -17t-5 -9q0 -2 -1 -3q-1 -2 -2 -3t-2 -5
q0 -2 -2 -3t-2 -3t-1.5 -3.5t-1.5 -3.5q-1 -2 -3 -7t-6 -5zM147 318q-2 -3 -11.5 -14.5t-19.5 -27.5t-18 -34t-8 -34q0 -17 5 -23t11 -10q5 7 9.5 15t9.5 13q1 1 5.5 8.5t5.5 10.5q2 4 6 10t4 7q0 3 6 10t8 10q4 9 11 17l41 67l4 6q2 2 3.5 4.5t2.5 4.5q-1 0 -2 0.5t-7 0.5
q-14 0 -27.5 -6.5t-34.5 -29.5q-2 -4 -4 -5z" />
    <glyph glyph-name="sterling" unicode="&#xa3;" horiz-adv-x="473" 
d="M135 25q5 0 7.5 3t5.5 3q9 0 16 5q4 3 7 6l-18 18q-8 8 -17.5 16.5t-17.5 14.5q-8 5 -14 5.5t-11 0.5q-2 0 -4 -0.5t-3 -0.5q-2 0 -4.5 -2.5t-2.5 -3.5q0 -2 -2 -3q0 -2 -1.5 -2.5t-1.5 -2.5t-1.5 -4t-1.5 -4q0 -1 2 -5v-6q0 -8 6 -20.5t23 -14.5q7 -1 8 -2t3 -1t4 1
q5 0 5 -0.5t1 -0.5q4 2 5 2t3 -1t4 -1zM254 201h-11q-3 0 -5 1h-11q-2 0 -2.5 0.5t-1.5 0.5q-2 0 -3.5 -0.5t-4.5 -0.5q-2 1 -7 1q-4 0 -7 -0.5t-5 -0.5q-14 0 -17.5 -0.5t-6.5 -0.5q-1 1 -3 1t-4.5 -1t-5.5 -1h-12q-3 0 -5 -0.5t-4 -0.5q-4 0 -4 5q0 -1 -0.5 1t-0.5 4
q-1 3 -1 5q0 1 2 3q1 1 3 1t3 0.5l3 1.5q13 0 21 -2.5t13 -2.5q5 -1 8.5 -1.5t7.5 -0.5q5 0 9 0.5t9 0.5q19 0 22 -0.5t5 -0.5h38q8 16 15 27q5 10 10 18t5 9q0 4 4 9t5 7q7 8 6.5 8t1.5 3q8 14 9 16l3 6t5.5 9t5.5 10q3 5 8.5 14t13.5 21q3 4 10 13t10 11q7 5 10 9.5t8 7.5
q14 9 27.5 12.5t24.5 3.5q14 0 26 -3t17 -7q0 -1 2.5 -2t5.5 -4t7 -9.5t7 -18.5q1 -2 2.5 -3t1.5 -2l-2 -5q2 -4 2 -9q0 -9 -4.5 -17t-10 -13t-10.5 -8t-6 -3q-7 0 -7 8q0 2 6 2h4q2 2 4 5.5t2 13.5v4q0 8 -3.5 18.5t-9.5 20t-15 16t-19 6.5t-20.5 -5.5t-21.5 -22.5
q-6 -8 -11.5 -17.5t-10.5 -17.5q-2 -4 -6 -11.5t-5 -9.5q-11 -20 -19 -37.5t-14 -25.5q-2 -2 -6.5 -10.5t-9.5 -19.5q-6 -12 -13 -27h24h5q5 0 10.5 -0.5t6.5 -1.5h6q6 0 15.5 0.5t19.5 1t17.5 1t9.5 0.5t6 0.5t8 0.5q8 0 8 -4q0 -1 -2 -5q0 -2 -7.5 -3t-16.5 -1.5
t-17.5 -0.5h-11.5q-2 0 -3.5 0.5t-3.5 0.5q-6 0 -9 -0.5t-5 -0.5q0 -1 -10 -1q-7 0 -16.5 -0.5t-18.5 -0.5h-22l-1 -1q-1 -1 -1.5 -3t-2.5 -4q-3 -5 -9.5 -16t-14.5 -26q-2 -3 -12 -18.5t-17 -24.5q-25 -32 -40.5 -48.5t-17.5 -16.5q1 -1 6.5 -4t12 -7t14 -7.5t13.5 -5.5
q2 -1 2.5 -1.5t3.5 -1.5q6 -3 8.5 -3.5t4.5 -1t5.5 -1t11.5 -3.5q2 -1 3.5 -1.5t6.5 -0.5q3 -1 11 -1h13q26 0 50.5 4t44.5 17q1 1 1 1.5t2 0.5q3 0 6.5 4t7.5 8.5t7.5 8t5.5 3.5q3 0 3 -4q0 -2 0.5 -2t0.5 -1t-2 -5.5t-8 -8.5l-30 -27q-3 -3 -7.5 -6.5t-5.5 -3.5
q-3 0 -9.5 -2.5t-7.5 -4.5q0 -2 -5.5 -3.5t-12.5 -2.5t-13 -2t-6 -2q-2 -2 -18 -2q-17 0 -30.5 2t-32.5 10q-17 7 -30 14.5t-23 15.5q-11 8 -20 17q-5 -3 -11 -7q-13 -7 -26 -10q-5 -2 -14.5 -4t-12.5 -2h-13h7h-4h-6q-26 3 -40.5 12t-21 19.5t-7.5 18.5t-1 9q0 6 1.5 15
t7.5 11t11.5 9t27.5 10q5 1 12 1q11 0 18 -3.5t15 -8.5q6 -5 16 -13t19 -16q11 -10 22 -19l18 25q1 3 6.5 12t12.5 21t14 24.5t13 22.5q2 5 5 9q2 4 4 7.5t3 5.5q3 5 5 9.5t4 6.5q2 3 3 5h-16z" />
    <glyph glyph-name="currency" unicode="&#xa4;" horiz-adv-x="316" 
d="M94 204q2 1 6 7q-2 2 -2 4q-1 2 -3.5 8t-7.5 9q-1 0 -3 2t-3 10q0 1 -0.5 2t-0.5 2q0 7 4 11.5t4 2.5q6 -9 13.5 -23t12.5 -16q11 6 21.5 11t23.5 7l12 -1q4 0 4 2q1 0 10.5 -1.5t21.5 -7.5q2 0 4.5 -2t3.5 -2q4 -2 8.5 -5.5t6.5 -8.5l4 -2q0 -3 2 -3q10 8 12 10.5t5 5.5
q2 2 6 4q2 1 3 2q2 2 6 3.5t5 1.5q2 -1 5 -1.5t3 -3.5q0 -2 -1 -3q-2 -10 -5 -12q-9 -4 -16.5 -9t-12.5 -10q7 -9 7 -13q1 -5 2.5 -9t1.5 -9v-5q0 -2 0.5 -4.5t0.5 -7.5v-5v-11t-2 -7l-2 -11q-5 -16 -12 -25t-9 -11l-9 -9q-1 -2 -2 -3q-1 -2 -2.5 -2.5t-3.5 -2.5
q5 -7 11.5 -15.5t14.5 -19.5q-2 -3 -4 -5t-4.5 -3t-7.5 -1q-5 9 -7 9q-4 3 -6.5 9.5t-4.5 8.5q-1 2 -3 4t-4 5q-7 -4 -16 -7.5t-21 -6.5h-11q-1 0 -1.5 -0.5t-1.5 -0.5h-2h-4q-4 0 -11.5 1t-16.5 5q-3 0 -5 1t-3 2q-4 2 -8.5 5.5t-7.5 7.5l-4 3q-5 -4 -7.5 -7t-4.5 -4
l-12 -8l-5 -7q0 -2 -3 -3l-1 -1h-2q-3 0 -6 3t-3 14q7 6 15.5 12t16.5 12q-3 4 -5.5 9t-2.5 8q-1 3 -3 7t-2 9l-1 5q0 6 -2 10v10q0 10 4 16q1 2 1 6q0 3 1 5q5 17 11 24t8 9zM153 50q6 0 15 4t17.5 10t15 13.5t7.5 14.5q2 1 2 4q0 1 4 9q6 11 9.5 28t4.5 27v14
q0 15 -8.5 31t-22.5 20q-3 2 -9.5 3t-10.5 1l-5 1q-17 0 -29.5 -11t-23.5 -28q-1 -1 -1.5 -2.5t-2.5 -3.5q-2 -4 -2 -5q0 -2 -0.5 -2t-2.5 -3l-8 -18q-1 -2 -3.5 -8.5t-4.5 -15.5v-11q-1 -2 -1 -5.5v-5.5q0 -17 8.5 -34t25.5 -23q2 -1 7 -2.5t10 -1.5h9z" />
    <glyph glyph-name="yen" unicode="&#xa5;" horiz-adv-x="359" 
d="M149 184q1 1 2 5q1 3 1.5 7t0.5 10v8q-8 0 -16 1q-7 1 -15.5 1.5t-17.5 0.5q-11 0 -21.5 -1t-15.5 -4q-4 0 -11.5 2.5t-7.5 5.5q0 8 4.5 14t9.5 6q12 0 35 -5t38 -5l17 -2q0 18 -3.5 35t-8.5 41q0 1 -0.5 1.5t-0.5 2.5l-1 5q0 4 -1.5 8.5t-1.5 9.5q0 4 -2 12.5t-3 10.5
q-1 3 -3 14t-5 23t-8.5 21t-12.5 9q-5 0 -13 -8q-1 -1 -3.5 -5t-4.5 -4q-4 0 -5.5 -1t-2.5 -1t-1 3q0 8 7 16t18 8h7q10 0 16 -6q6 0 6.5 -1t2.5 -2q8 -3 12.5 -14t11.5 -22l2 -7q5 -8 5.5 -14t0.5 -8q2 -5 4 -10.5t2 -10.5q0 -6 1 -8q0 -2 1 -3q0 -3 1.5 -13.5t2.5 -15.5
l6 -33q0 -8 0.5 -9.5t0.5 -2.5l2 -20h8q18 17 37.5 39.5t32.5 38.5q2 2 2.5 4.5t4.5 4.5q2 2 2 3t1 3q2 2 4 3.5t2 3.5l4 6l9 12q5 8 13 18l1 1l2 1q2 0 5 6t5 8q6 7 6 9t3 5q2 2 2 7q0 4 2 6q4 2 4 4t2 2q11 2 16.5 5t9.5 3q3 -1 8.5 -3t6.5 -6q0 -4 1 -4h1l-3 -6
q-2 -7 -4.5 -10t-11.5 -8q-2 -1 -6.5 -4.5t-6.5 -7.5t-6.5 -5.5t-6.5 -5.5q-3 -5 -10 -14t-9 -8q-8 -9 -16 -18.5t-11 -9.5q-2 0 -1.5 -1t-1.5 -3l-21 -20q-2 -1 -3 -3.5t-4 -4.5l-3.5 -3.5l-7.5 -7.5t-18 -18.5t-20 -20.5q7 0 14.5 1t13.5 1q2 0 3 0.5t6 0.5l5 1q5 0 15 1
t20.5 2.5t20.5 3t15 1.5q4 0 4 -1q0 -8 -3.5 -15.5t-5.5 -7.5h-32t-13 -0.5t-8 -0.5h-17h-13q-11 0 -20 -0.5t-16 -0.5q-2 -4 -5 -7t-6 -9l-6 -17q5 1 18 1.5t18 0.5q4 0 14 0.5t20 2t18 2.5t9 3q6 0 9 -3.5t6 -3.5q1 0 3.5 -3.5t2.5 -8.5q0 -3 -2.5 -3.5t-10.5 -2.5
q-2 -1 -3 -3t-4 -2h-9q-22 0 -30.5 2.5t-18.5 2.5q-2 0 -2.5 0.5t-2.5 0.5h-39l-15 -50q-1 -3 -2 -5.5t-1 -6.5q-1 0 -2 -1t-1 -4q-3 -15 -9.5 -22.5t-6.5 -17.5q0 -2 -1.5 -4.5t-1.5 -3.5q-1 0 -1 -1t-1 -2q-3 -5 -5 -12.5l-4 -15t-4.5 -13.5t-7.5 -7l-4 -1q-5 0 -7 -3
t-3 -3q-6 0 -8 2q-1 6 -4 6h-4q-9 6 -10 12q0 4 1.5 9t8.5 14q0 1 0.5 2t0.5 3q0 1 4.5 8.5t9.5 14.5q1 2 3 7t4 6q3 2 5.5 8.5t2.5 9.5q0 1 3.5 7.5t9 17t11.5 22.5t11 24h-38l-4 -0.5t-8.5 -0.5h-9t-4.5 -1t-4.5 -1.5t-11.5 -1.5t-15 -3t-14 -5q-2 -1 -5 -1q-4 0 -7.5 2.5
t-5.5 4.5q0 1 6 5.5t6 10.5q0 5 6.5 7.5t9.5 2.5q12 -4 24 -5t23 -1h10t9 1q4 0 8 1h29z" />
    <glyph glyph-name="brokenbar" unicode="&#xa6;" horiz-adv-x="131" 
d="M57 228q1 2 1 6v7q0 1 -0.5 1.5t-0.5 1.5t7 1q1 0 2 1q1 0 2.5 0.5t3.5 0.5t3 1t3 1q3 0 3 -3v-6.5t-1 -6.5v-41q0 -2 -0.5 -4t-0.5 -6q0 -5 0.5 -11.5t1.5 -14.5v-38q0 -2 0.5 -4t0.5 -4q-1 -1 -1 -11v-9.5t1 -8.5q0 -7 2 -9v-5q0 -1 -0.5 -2t-0.5 -3t1 -4.5t1 -4.5
q0 -8 3 -17t4 -16q0 -12 -6 -13q-5 -1 -7.5 -8.5t-7.5 -8.5q-3 0 -7 4q-2 0 -3.5 -1t-2.5 -1q-4 2 -8 7t-4 6q0 5 2.5 10t2.5 13v4q0 4 1 14t2 10v4q0 4 0.5 8.5t2.5 5.5v139q0 3 1 8q0 2 -0.5 3.5t-0.5 3.5zM77 371q0 -3 -7 -3l-10 -4q-4 0 -4 6q0 4 1 7t1 6q0 1 -0.5 2.5
t-0.5 3.5v137q0 3 -1 7q-2 8 -2 11q-1 2 -3 15q0 4 -1.5 9.5t-1.5 6.5q0 2 1.5 4t1.5 7v5q0 7 1 9q0 2 1 3q2 2 2.5 4.5t3.5 3.5q1 1 1.5 4t2.5 3t9 -1t11 -8q0 -1 0.5 -1.5t0.5 -1.5q0 -3 -1 -5.5t-1 -6.5v-10q0 -7 -0.5 -13t-1.5 -11q-1 -6 -1 -11q-1 -5 -1 -12l1 -5v-15
v-11t-1 -7q-2 -4 -2 -12l1 -24q0 -7 -0.5 -10t-0.5 -9v-6l2 -4v-14v-10t-1 -16v-23z" />
    <glyph glyph-name="section" unicode="&#xa7;" horiz-adv-x="250" 
d="M179 329q0 -3 1 -5.5t2.5 -7.5t3 -14t2.5 -26q0 -1 1 -10t2 -23l2 -6q-1 -2 -1 -4.5v-3.5q0 -2 0.5 -3l1.5 -3l-1 -5q-1 -14 -5 -25q-2 -5 -3 -10q-1 0 -1 -1q-1 -1 -1 -4l-3 -4q-1 -10 -6.5 -20t-12 -18.5t-12.5 -14.5l-7 -7q-2 -1 -5.5 -6.5t-10.5 -8.5q-3 -2 -9 -8.5
t-13 -13.5t-12 -13t-6 -6q-14 -11 -22 -18t-10 -7q-5 0 -10 -2t-6 -2q-2 0 -4.5 3t-4.5 3t-6 0.5t-6 2.5q-5 7 -6.5 12t-1.5 10l1 11q0 5 -1 7q-1 1 6 6t18 5h4q11 0 19 -8q3 -2 3.5 -7.5t4.5 -6.5q2 0 4 1q12 4 18 13.5t8 22.5q0 2 0.5 5t0.5 5q0 18 -4.5 34.5t-6.5 19.5
q-1 3 -1 8v10q-1 1 -2 4.5t-2 5.5v11q0 1 -0.5 2t-0.5 6t-1.5 9.5t-1.5 6.5q0 1 -0.5 3t-0.5 4v8q0 9 -0.5 18t-0.5 13v4q0 4 0.5 7.5t0.5 7.5q0 3 2 6t2 6q1 5 1.5 9t1.5 7q1 4 2 6v2q0 1 2 5q0 6 3 11q1 3 3 6q14 23 22 32.5t16 15.5l3 3q0 1 1 1l2 1q3 2 9.5 8.5t13 14
t12 13.5l5.5 6q9 7 15 14t16 13q3 2 8.5 3t6.5 1q2 -1 5 -3t5 -2q2 -1 5.5 -1.5t5.5 -2.5q6 -7 8 -13t2 -11l-6 -14v-4q0 -2 -2 -4.5t-11 -4.5q-8 -2 -11 -2q-6 0 -7.5 3.5t-2.5 8t-3 8t-8 3.5h-4q-3 0 -4 -1q-11 -4 -16.5 -13t-7.5 -21q0 -3 -0.5 -6.5t-0.5 -6.5
q0 -17 3 -31t5 -16zM150 317q-1 1 -2.5 13t-2.5 28l1 15q0 3 -0.5 5.5t-0.5 6.5q0 5 2 13q1 4 2 7l-20 -22q-10 -12 -14.5 -33.5t-6.5 -35.5v-25l1 -18q0 -7 0.5 -14.5t0.5 -8.5q2 -10 2.5 -22.5t1.5 -28.5q1 -2 1 -4v-3q0 -2 1.5 -8.5t1.5 -25.5v-7q0 -3 -0.5 -7t-0.5 -6
l-1 -16q-1 -3 -1 -6.5t-1 -5.5q-1 -3 -1 -5l19 18q11 11 18 30.5t9 36.5q1 6 1 12v12q0 18 -0.5 31t-1.5 15t-1 5.5v4.5q0 6 -1.5 11.5t-1.5 12.5z" />
    <glyph glyph-name="dieresis" unicode="&#xa8;" horiz-adv-x="180" 
d="M21 298q0 7 5.5 9t13.5 2h7q10 0 10 -12q0 -7 -3.5 -14.5t-9.5 -10.5t-9 -3t-3 2t-2 2t-6 -2t-7 -2t-4 4q0 1 -0.5 2t-0.5 2q0 8 4.5 13t4.5 8zM155 305q5 0 5 -4.5t5 -7.5q2 -1 2 -7q0 -5 -4 -10.5t-5 -5.5q-2 1 -5 1q-6 0 -10.5 -2.5t-8.5 -2.5q-5 0 -7 5q-3 6 -3 11
q0 8 5.5 14t10.5 6q3 0 7 1.5t8 1.5z" />
    <glyph glyph-name="copyright" unicode="&#xa9;" horiz-adv-x="169" 
d="M118 436q0 -2 -5 -7.5t-13 -10.5q-3 -3 -2 -3q-2 0 -6 -2q-2 -1 -5 -1.5t-4 -0.5h-6q-11 0 -17.5 3t-6.5 6q0 1 -2 1.5t-2 5.5q-1 2 -2 3t-1 6v6v5.5t1 5.5q0 2 1 3q0 1 1 1q3 15 9 21q3 3 6 4v3q0 2 2 4q12 12 18.5 15.5t6.5 4.5q1 1 1.5 1t1.5 1q1 0 2 1q2 2 5 2
q5 0 9.5 -2.5t7.5 -2.5t6 -4q3 -5 3 -10q0 -6 -4 -11t-11 -5q-2 1 -2.5 3.5t-1.5 2.5v3q0 1 1 2q0 1 -0.5 2t-0.5 2q1 2 1 5q0 4 -2 6t-5 2q-8 0 -18.5 -11t-12.5 -16l-2 -4q-2 -4 -3 -4q-2 -1 -4.5 -7.5t-2.5 -20.5q0 -11 8 -17.5t19 -6.5q5 0 9 2q7 4 15 12t10 8t3 -1
q0 -1 -1.5 -3t-3.5 -2zM160 476q0 -4 1 -6.5t1 -10.5v-6q0 -7 -2.5 -13.5t-4.5 -11.5q-4 -6 -7 -12l-4 -6.5t-12 -14t-20 -14t-28 -6.5q-12 0 -24 4q-2 1 -8.5 1.5t-9.5 3.5l-8 6q-6 5 -12 16t-6 12t-2 3t-2 7v4q0 3 -1 4v11q0 10 5 23.5t12 26t14.5 22t12.5 12.5q1 0 4 3
q1 1 1 2q3 1 7 2q8 2 9 2q3 0 6 1q9 3 17 3q18 0 29.5 -10t14.5 -12q2 -1 6 -6.5t4 -7.5q0 -5 3 -10.5t3 -11.5q0 -2 0.5 -5t0.5 -5zM152 458q0 3 -0.5 4t-0.5 2t1 2l1 1q-4 8 -4 17.5t-7 16.5q0 1 -2 4.5t-4 5.5q-5 13 -18.5 18.5t-25.5 5.5q-17 0 -25 -8q-2 -2 -6.5 -2.5
t-5.5 -2.5q-2 -3 -3 -3t-2 -1q-3 -2 -6.5 -8.5t-8.5 -11.5q-2 -2 -5.5 -12.5t-3.5 -26.5q0 -10 1 -15v-5q0 -4 1 -5q1 -3 1 -8q0 -6 3 -9t3 -7q0 -2 11.5 -12.5t34.5 -10.5q7 0 14.5 0.5t16.5 4.5q1 0 2 1.5t2 2.5q0 1 2 3q6 3 11 7q4 3 7.5 6t3.5 7q0 2 4 7q4 6 4 10
q0 5 1.5 9.5t1.5 8.5q0 3 1 4z" />
    <glyph glyph-name="ordfeminine" unicode="&#xaa;" horiz-adv-x="208" 
d="M35 131q8 0 16.5 -0.5t14.5 -0.5t7 1q1 0 2 -0.5t3 -0.5h6q4 0 6 -1q4 -3 14 -3h4q1 0 1 1t3 1h22h7t9 2q5 1 12 1h18q9 0 9 -2t-2 -4t-2.5 -8.5t-6.5 -6.5q-2 0 -4.5 -0.5t-3.5 -0.5q-1 1 -4 1q-4 0 -25 1t-42 1h-44q-7 0 -11 -1q-3 -1 -6 -1q-2 0 -3 0.5t-5 0.5
q-3 0 -5 1q-2 0 -3.5 -2.5t-1.5 -0.5q0 3 -1 4t-4 1t-3 1q0 5 4 10t12 6h7zM152 335q2 0 2.5 -1t2.5 -1q1 0 2 1q1 0 1.5 0.5t1.5 0.5q3 0 11 -3.5t9 -3.5q0 1 0.5 -1t2.5 -2q7 -1 13.5 -9t6.5 -13q0 -2 -2.5 -6t-2.5 -6q7 0 8.5 -0.5t1.5 -4.5l-12 -22q-5 -8 -9.5 -15.5
t-6.5 -9.5q0 -2 -1 -4q-2 -4 -3 -5q-1 -3 -2 -5l-2 -6q-2 -5 -4.5 -10.5t-3.5 -13.5q0 -1 -0.5 -2t-0.5 -2q-1 -2 -1 -3t0.5 -7.5t3.5 -6.5q2 0 4 2q5 3 9 6t6 3q3 0 3 -2q0 -4 -11 -12.5t-31 -10.5q-14 0 -14 20q0 5 2 14.5t8 24.5q-23 -25 -38.5 -36t-16.5 -13
q-11 -9 -21 -11.5t-17 -2.5q-25 0 -25 32q0 2 0.5 4t0.5 5v5q0 7 3.5 14t5.5 12q2 4 2 5v1.5t1 1.5t4 6q5 8 8.5 11t3.5 5t5 7t11 10.5t11.5 10t5.5 5.5q0 2 5 4q4 0 9.5 4.5t6.5 7.5q5 5 9.5 7t8.5 6q5 5 11 10t14 5zM174 280q0 3 1.5 5t1.5 3q0 5 -4 7t-4 5t-3 3.5t-7 4.5
q-5 5 -12 5q-2 0 -2.5 -0.5t-2.5 -0.5t-8 -0.5t-7 -4.5q0 -1 -7 -6t-17 -15t-22 -26.5t-21 -39.5v-4q0 -2 -0.5 -4t-2.5 -3v-2q0 -1 0.5 -2t0.5 -2q-1 -2 -1 -4q-1 -3 -1 -9q0 -7 6 -7q3 -6 13 -6q2 0 3.5 1t3.5 1q3 0 10 5q14 9 26.5 21.5t14.5 13.5q5 3 10 10.5t13 14.5
q6 5 12 16.5t6 19.5z" />
    <glyph glyph-name="guillemotleft" unicode="&#xab;" horiz-adv-x="326" 
d="M125 126q6 4 19 12.5t19 10.5q5 2 14 9t23 12l12 8t11 7q11 6 16 10t13 8q4 2 7.5 5t5.5 3q4 0 5.5 3.5t4.5 3.5q8 0 9.5 -1t2.5 -9q0 -3 -1 -3.5t-3 -2.5l-4 -4q-4 0 -7 -1.5t-5 -3.5q-3 -2 -5 -4l-6 -2q-3 -1 -11 -5q-5 -3 -12 -7.5t-10 -7.5q-1 -4 -6 -3.5t-11 -7.5
q-3 0 -6 -2t-13 -8q-11 -4 -14.5 -7t-11.5 -7l23 -18q1 -3 3 -5q0 -1 2 -3q1 -1 1 -2l6 -3q2 -1 4 -3q8 -5 9 -7.5t9 -7.5q3 -3 11.5 -8t8.5 -6t10 -7t10 -14l-3 -3q-4 -4 -11 -4q-2 -3 -5 -3h-5q-4 0 -4.5 0.5t-2.5 1.5l-5 5q-2 2 -4.5 4t-4.5 4l-14 11q-5 6 -8 6.5t-5 5.5
q-2 2 -4 2t-4 4q-3 3 -9.5 5.5t-11.5 10.5q-8 4 -13 8.5t-10 9.5t-9 10zM28 119q-2 0 4 4t13.5 8.5t15 8.5t9.5 5q7 4 14 10t21 14q4 3 10.5 7.5t12 8.5t10 7l4.5 3q1 0 2 0.5t3 4.5q5 3 7 4.5t3.5 2.5t2.5 2t5 4q2 1 3 2.5t2 2.5q2 1 4 1t4 2t4 2h9q2 0 3 -4q1 -1 1 -4
q0 -8 -7 -9q-4 -2 -6 -3.5t-4 -2.5q-2 -2 -3 -2l-5 -5q-5 -5 -11 -7q-8 -2 -12 -9q-12 -7 -14 -9.5t-10 -5.5q1 1 -9 -6.5t-21 -13.5q-9 -5 -16 -11q-4 -4 -9 -7l21 -18l6 -6q3 -3 8 -7.5t11 -10.5q3 -4 6 -7.5t8 -6.5t14 -10t8 -8q-1 -2 6 -5t9 -7q1 -2 2.5 -4t1.5 -3
q-6 -6 -6 -9q-2 -3 -8 -4.5t-9 -1.5q-2 1 -2 2t-1 1h-1q-4 0 -8.5 5t-5.5 6q-5 3 -11.5 9t-8.5 10q-3 5 -10.5 9.5t-14.5 11.5l-6 6l-2 3q-2 3 -7.5 6.5t-11.5 8.5q-7 5 -12 10t-9 8z" />
    <glyph glyph-name="logicalnot" unicode="&#xac;" horiz-adv-x="433" 
d="M333 218q-4 0 -7 -0.5t-8 -0.5h-11q-2 -1 -9 -1h-68q-2 0 -2.5 -0.5t-1.5 -0.5t-2 -0.5t-3 -0.5h-32h-23t-22 -0.5t-16.5 -1.5t-6.5 -2t-3 -1q-2 0 -4.5 0.5t-4.5 0.5q-6 0 -11.5 -0.5t-6.5 -0.5q-2 -1 -12.5 -1t-23.5 -2q-3 0 -6 -0.5t-5 -0.5q-11 0 -15 6.5t-4 9.5t3 5
q1 2 6 6t11 4q5 0 7 -2t5 -2t6.5 1.5t6.5 1.5q7 -2 12.5 -2.5t10.5 -0.5h8q10 0 14.5 1t8.5 1q1 0 2.5 -0.5t3.5 -0.5q5 0 17 0.5t16 0.5q6 0 11 -2q3 3 7 3q3 -3 11 -3h6q7 0 14 0.5t15 0.5t11 -1h8q12 0 34.5 0.5t44.5 1.5h7q7 0 12.5 0.5t13.5 0.5q4 0 8 1t9 1t13 -3
q2 0 5 0.5t5 0.5q5 0 5 -2v-80q0 -2 0.5 -7.5t0.5 -10.5v-6q0 -1 1 -1q0 -1 0.5 -1t0.5 -1q-1 -3 -1.5 -5t-0.5 -4q0 -5 2 -11t2 -11q0 -8 -4 -8q-8 -1 -6.5 -4.5t-1.5 -6.5t-4 -3q-2 0 -4 3t-5 3q-1 0 -1.5 -0.5t-1.5 -0.5h-1q-8 4 -8 8q0 3 1 7t1 9v11.5t1 6.5t2.5 1.5
t1.5 9.5q2 41 2.5 61t1.5 27z" />
    <glyph glyph-name="registered" unicode="&#xae;" horiz-adv-x="169" 
d="M77 498q0 -2 -1.5 -6.5t-9.5 -4.5q-1 0 -3 1.5t-2 7.5q0 2 4.5 7t9.5 7q1 1 2 1q2 0 3 1t5 1q2 1 8 1h6q5 0 8 -1q2 0 2.5 -0.5t1.5 -0.5q2 0 9 -5t7 -8v-3q0 -1 0.5 -1.5t1.5 -2.5q0 -1 0.5 -2.5t0.5 -4.5q0 -8 -4.5 -19t-20.5 -11q-5 0 -10 1.5t-11 7.5q-1 1 5.5 -12.5
t11.5 -27.5q1 -1 1 -2q0 -3 1 -4q1 -3 1 -7t-1 -4q-2 0 -5 1t-3 5q-2 2 -4 7t-3.5 11t-3 11.5t-2.5 8.5q-1 1 -1 3.5t-1 4.5q-1 3 -1 6q-2 -2 -9 -14.5t-9 -17.5q0 -1 -2 -3l-2 -2q-1 0 -1 -1v-2q0 -4 -8 -4q-1 0 -5 2q0 3 2 7q1 2 3 4l6 8q3 0 3 4l2 4t5 8t5.5 8l2.5 4
q2 0 2 1v1q1 0 1 1v2q1 3 2 7q1 2 2 4.5t1 3.5t3 1q6 0 6 -2q0 -1 -0.5 -2t-0.5 -2q-2 -4 -2 -6t0.5 -3.5t0.5 -3.5q0 -1 0.5 -1.5t0.5 -1.5v-1q0 -2 1 -2q3 0 3 -3q0 -2 4 -2q2 -1 4 -1q0 1 6 1q8 0 11.5 8t5.5 15q0 8 -4 14q-2 3 -4 4l-5 5q-8 0 -12.5 1.5t-9.5 1.5
q-3 0 -5 -1t-4.5 -3.5t-1.5 -3.5v-4zM160 476q0 -4 1 -6.5t1 -10.5v-6q0 -7 -2.5 -13.5t-4.5 -11.5q-4 -6 -7 -12l-4 -6.5t-12 -14t-20 -14t-28 -6.5q-12 0 -24 4q-2 1 -8.5 1.5t-9.5 3.5l-8 6q-6 5 -12 16t-6 12t-2 3t-2 7v4q0 3 -1 4v11q0 10 5 23.5t12 26t14.5 22
t12.5 12.5q1 0 4 3q1 1 1 2q3 1 7 2q8 2 9 2q3 0 6 1q9 3 17 3q18 0 29.5 -10t14.5 -12q2 -1 6 -6.5t4 -7.5q0 -5 3 -10.5t3 -11.5q0 -2 0.5 -5t0.5 -5zM152 458q0 3 -0.5 4t-0.5 2t1 2l1 1q-4 8 -4 17.5t-7 16.5q0 1 -2 4.5t-4 5.5q-5 13 -18.5 18.5t-25.5 5.5
q-17 0 -25 -8q-2 -2 -6.5 -2.5t-5.5 -2.5q-2 -3 -3 -3t-2 -1q-3 -2 -6.5 -8.5t-8.5 -11.5q-2 -2 -5.5 -12.5t-3.5 -26.5q0 -10 1 -15v-5q0 -4 1 -5q1 -3 1 -8q0 -6 3 -9t3 -7q0 -2 11.5 -12.5t34.5 -10.5q7 0 14.5 0.5t16.5 4.5q1 0 2 1.5t2 2.5q0 1 2 3q6 3 11 7q4 3 7.5 6
t3.5 7q0 2 4 7q4 6 4 10q0 5 1.5 9.5t1.5 8.5q0 3 1 4z" />
    <glyph glyph-name="macron" unicode="&#xaf;" horiz-adv-x="278" 
d="M192 298q8 0 6.5 0.5t2.5 0.5h12q2 0 4.5 -0.5t7.5 -0.5h26q5 1 12 1q3 0 9.5 -0.5t6.5 -3.5q0 -2 -1 -3l-5 -5q0 -6 -5 -6q-4 0 -7.5 0.5t-4.5 0.5q-2 0 -3.5 -1t-2.5 -1h-11q-6 2 -9 2q-4 0 -14.5 -0.5t-45.5 -0.5h-40q-4 0 -11 -0.5t-12 -0.5q-2 0 -4 1t-2 2
q0 2 -1.5 4t-1.5 3q0 2 2.5 2t2.5 1q0 4 4 4.5l12 1.5z" />
    <glyph glyph-name="degree" unicode="&#xb0;" horiz-adv-x="201" 
d="M144 573q0 -2 2.5 -3.5t3.5 -2.5q10 -5 15 -16.5t5 -24.5q0 -7 -1 -15t-6 -16q-4 -5 -11 -18t-24 -22q-2 -2 -5.5 -2.5t-5.5 -0.5q-9 -5 -15 -6t-11 -1q-6 0 -8 1q-2 0 -3 1q-16 0 -24 6t-15 15q-3 4 -3 8t-3 6q-3 3 -4 8q-2 5 -2 9v8q0 12 2 12q2 1 2 4q0 1 0.5 8t5.5 9
q1 0 2.5 4t4.5 9.5t7.5 10t9.5 5.5l4 2q2 4 10 6t17 3t16 1t7 1q0 -1 6 -1q5 0 11 -2.5t10 -5.5zM96 559q-4 1 -10 1q-5 0 -8.5 -1t-6.5 -2q-5 -2 -8.5 -7.5t-3.5 -23.5q0 -3 -0.5 -6t-0.5 -6l4 -10q0 -4 0.5 -7t5.5 -5q2 -1 5 -6.5t8 -7.5q3 -1 6 -1l6 -2q1 0 1.5 -0.5
t2.5 -0.5h3q4 -2 7 -2q2 0 4.5 0.5t4.5 0.5q20 0 26.5 8.5t6.5 14.5q0 4 1 6t1 6q0 20 -18 34t-37 17z" />
    <glyph glyph-name="plusminus" unicode="&#xb1;" horiz-adv-x="327" 
d="M92 51q4 0 6 1q1 0 1.5 0.5t1.5 0.5t1.5 -0.5t2.5 -0.5h38q1 1 6 1q7 0 11 -2h4q10 1 18 1h16q4 0 8 0.5t7 0.5t8.5 -1t12.5 -1t11 1q5 1 11 1q15 0 15 -9q0 -2 -2 -4q-1 -2 -4 -4.5t-9 -2.5q-2 0 -3.5 -1t-2.5 -1q-1 1 -4 1h-10q-5 2 -12 2h-23h-17q-1 0 -2.5 -1
t-6.5 -1h-7h-4q-1 1 -3 1t-3.5 -0.5t-2.5 -0.5h-13q-3 0 -5 1q-2 0 -5.5 -1t-10.5 -1q-5 0 -10.5 1.5t-10.5 1.5q-1 0 -7 -2q-1 -1 -3 -1t-7 1t-13 1q-4 0 -8 -1.5t-9 -1.5q-4 0 -5 1q-2 1 -2 3.5t-2 3.5q-3 1 -3 4q0 2 2.5 5t2.5 6zM100 175q-4 -1 -12 -1h-11h-21
q-3 0 -8 0.5t-5 1.5q0 2 3.5 7.5t3.5 4.5q0 5 13 5q5 0 9 -1t6 -1h11q4 0 6.5 -0.5t5.5 -0.5q2 0 3 0.5t4 0.5q1 0 2.5 -0.5t4.5 -0.5h43q4 9 10 20q5 10 12 25t16 36q0 1 -0.5 2t-0.5 2t5 3.5t5 5.5q0 4 2 4t2.5 2.5t2.5 5.5q0 -1 6.5 -6.5t6.5 -20.5q0 -4 -3.5 -9
t-7.5 -10q0 -2 0.5 -4.5t0.5 -3.5q-4 -4 -9.5 -12.5t-10.5 -17.5q-6 -11 -14 -22h3h22q6 0 9 2h4q2 0 5 0.5t5 0.5q3 0 3 -2q1 0 5.5 -0.5t15.5 -0.5h10q9 0 13 2q5 0 8 -2t6 -2q1 0 3 -1.5t2 -6.5t-6 -5h-53q-2 0 -3 -1t-3 -1q-1 0 -3 2q-1 0 -3 0.5t-6 0.5
q-6 0 -13.5 -0.5t-15.5 -0.5h-17l-2 -2q-2 -2 -4 -6.5t-7 -13.5q-2 -6 -2 -5q0 -2 -3 -5.5t-3 -4.5q-1 -8 -6 -13.5t-5 -13.5q1 -1 1 -3t-2.5 -2t-2.5 -2l-5 -9q0 -8 -3 -14t-5 -7q-2 0 -5 -0.5t-5 -0.5q-13 0 -16 4.5t-3 10.5l2 7l3 4.5t7 10t8 10.5t5 7q6 10 11.5 18.5
t10.5 15.5q5 8 9 14h-19q-4 0 -8.5 0.5t-9.5 0.5q-10 0 -13 -1z" />
    <glyph glyph-name="uni00B2" unicode="&#xb2;" horiz-adv-x="229" 
d="M89 401q-8 -5 -20.5 -11.5t-21.5 -6.5l-8 -3q-1 0 -2.5 0.5t-4.5 0.5q-1 0 -1 1t-2 1h-6q-8 5 -10.5 11.5t-2.5 11.5q0 3 1 5q2 4 4 5q4 15 20 15q26 0 37.5 -7.5t19.5 -10.5q5 2 17.5 13.5t25 29t22 38.5t9.5 42q0 10 -1 14q-2 2 -6.5 12t-12.5 10q-7 0 -7.5 2t-1.5 2
h-5q-1 1 -4 1q-8 0 -21 -9t-13 -19q0 -4 6 -9t6 -10q0 -1 -0.5 -2.5t-0.5 -3.5q0 -5 -7 -6t-12 -3q-1 -1 -3 -1t-5 3q-1 0 -3.5 3t-3.5 7v8q1 1 1 3q0 4 3 7l4 8q22 33 59 33q8 0 14.5 -1t16.5 -5q3 -3 6 -3q1 0 2 -1.5t3 -2.5q7 -5 7 -10q0 -1 1 -2.5t1 -2.5q0 -3 2 -6.5
t2 -4.5v-5q0 -25 -3 -28q0 -2 -2 -5.5t-2 -4.5l-2 -6l-12 -17q-2 0 -3 -2t-2 -3q-2 -6 -8 -13.5t-12.5 -14.5t-12 -13t-6.5 -7q-2 -2 -4.5 -2.5t-3.5 -2.5q-1 0 -2.5 -1.5l-3.5 -3.5l-5 -5l-9 -5q12 -6 22 -9t18 -5q9 -2 15 -2q2 -1 8 -1q1 -1 3 -1h7q5 0 8 1q4 0 6 1
q5 1 10 5t8.5 8.5t6 7.5l2.5 3q1 0 1.5 1.5t1.5 1.5q3 0 3 -4t-3 -7q-2 -1 -6.5 -11.5t-20.5 -16.5h-1q-1 0 -1 -1v-2q-5 -1 -8 -2.5t-7 -2.5q-3 -1 -8 -1h-5q-4 0 -5 1h-5q-4 0 -10 1t-12 4q-4 1 -6 2.5t-3 1.5q-2 1 -2.5 1.5t-4.5 2.5zM62 419q-5 0 -7 2q-1 1 -2 1h-7
q-3 0 -7 -2t-4 -10q0 -7 6 -7q0 -2 4.5 -4t9.5 -2l6 1q7 2 11.5 3.5t9.5 5.5q-3 3 -9.5 7.5t-10.5 4.5z" />
    <glyph glyph-name="uni00B3" unicode="&#xb3;" horiz-adv-x="179" 
d="M89 364q-10 -2 -17 -2q-11 0 -21 2.5t-16 7.5q-4 2 -5 4q-2 2 -5 3t-3 2q0 2 -3 6.5t-6 7.5q-6 7 -6 16q0 4 1 7.5t1 5.5t2 4q1 1 1.5 2.5t2.5 1.5l6 5q2 0 5 -0.5t4 -1.5q2 -2 3.5 -4t2.5 -2q0 -1 1.5 -1.5t1.5 -2.5t-1 -3q4 -5 4 -15.5t4 -17.5q0 -1 1.5 -2t1.5 -2
q3 -5 8 -9.5t15 -4.5q5 0 12 1.5t14 7.5l10 10q4 4 8 10.5t6 11.5q0 5 2.5 8t2.5 16l1 11q0 3 -1 5q-4 6 -6 15t-18 12h-7q-2 0 -3.5 -1t-3.5 -1t-4 -2l-2 -2q-4 0 -8.5 -2t-6.5 -2q-3 0 -3 4t3 9q1 3 3 5l5 2q0 5 9 5q3 -2 11 -2q9 0 16 1.5t8 1.5q3 1 5 2l4 2t2 2q4 0 4 1
q-1 0 0 1l4 2q8 8 9.5 14t1.5 11q0 1 -0.5 2t-0.5 2q-1 1 -1 2q1 1 1 3q0 4 -1.5 12.5t-10.5 13.5t-22 5q-2 0 -5 -1t-5 -1q-5 -2 -13 -5.5t-8 -13.5q0 -2 1 -2.5t1 -2.5q0 -1 1 -2q0 -1 1 -1q0 -1 -1 -2v-1q1 -2 1 -5q0 -6 -4.5 -10.5t-13.5 -4.5q-2 0 -4 0.5t-3 2.5l-2 4
q-2 4 -2 7q0 2 1.5 3t1.5 2q0 2 1 2.5t2 2.5l3 6q14 20 24.5 23t12.5 3q1 2 6 2q2 0 6 1.5t12 1.5q5 0 6.5 -1.5t2.5 -1.5q16 0 30 -22q1 0 3 -6q0 -3 1 -5q0 -1 -0.5 -2t-0.5 -2v-8q0 -1 -0.5 -2t-0.5 -5q0 -2 -2 -7t-3 -6q-11 -14 -27 -19.5t-33 -5.5q-1 0 5.5 -1.5
t12.5 -3.5q1 0 2.5 -2t3.5 -2q12 -2 17 -9.5t7 -21.5q0 -2 0.5 -3.5t0.5 -2.5t-0.5 -1.5t-0.5 -1.5q-1 -6 -2.5 -14t-6.5 -17.5t-14 -19t-24 -16.5q-2 -1 -4.5 -0.5t-2.5 -1.5q1 -2 -3.5 -2.5t-6.5 -1.5z" />
    <glyph glyph-name="acute" unicode="&#xb4;" horiz-adv-x="193" 
d="M31 272q0 3 14.5 9t26.5 14q4 3 11 3l11 6q7 3 9.5 5.5t3 3.5t1 1.5t3.5 0.5l4.5 4.5t4.5 2.5t3 1t3 1q12 7 17 10q3 2 5 2q6 -2 11 -3.5t6 -10.5l1 -8q-1 -7 -13 -12l-41 -12q-4 0 -5 -0.5t-6 -2.5q-1 0 -2 -0.5t-2 -0.5q-15 -5 -20.5 -8t-13.5 -6q-6 -3 -11.5 -3.5
t-7.5 -4.5q-1 0 -3.5 -1t-3.5 -1q-6 0 -6 10z" />
    </font>
</defs>
</svg>
